<svg xmlns="http://www.w3.org/2000/svg" xmlns:xlink="http://www.w3.org/1999/xlink" version="1.1" x="0px" y="0px" viewBox="206 206 100 125" enable-background="new 206 206 100 100" xml:space="preserve" fill="white">
    <g>
        <polygon points="221.434,276.74 214.521,276.74 214.521,283.653 214.521,290.566 221.434,290.566 221.434,283.653  " />
        <rect x="221.434" y="269.827" width="6.913" height="6.913" />
        <rect x="228.347" y="262.914" width="6.913" height="6.913" />
        <rect x="235.26" y="256.001" width="6.913" height="6.913" />
        <polygon points="249.087,249.088 249.087,242.175 249.087,235.262 249.087,228.348 242.174,228.348 242.174,235.262    242.174,242.175 242.174,249.088 242.174,256.001 249.087,256.001  " />
        <polygon points="276.739,290.566 269.825,290.566 262.913,290.566 256,290.566 249.087,290.566 242.174,290.566 235.26,290.566    228.347,290.566 221.434,290.566 221.434,297.479 228.347,297.479 235.26,297.479 242.174,297.479 249.087,297.479 256,297.479    262.913,297.479 269.825,297.479 276.739,297.479 283.652,297.479 290.565,297.479 290.565,290.566 283.652,290.566  " />
        <polygon points="290.565,276.74 290.565,283.653 290.565,290.566 297.479,290.566 297.479,283.653 297.479,276.74  " />
        <rect x="283.652" y="269.827" width="6.913" height="6.913" />
        <rect x="276.739" y="262.914" width="6.913" height="6.913" />
        <rect x="269.825" y="256.001" width="6.913" height="6.913" />
        <rect x="235.26" y="221.436" width="6.913" height="6.913" />
        <polygon points="262.913,235.262 262.913,242.175 262.913,249.088 262.913,256.001 269.825,256.001 269.825,249.088    269.825,242.175 269.825,235.262 269.825,228.348 262.913,228.348  " />
        <rect x="269.825" y="221.436" width="6.913" height="6.913" />
        <polygon points="256,221.436 262.913,221.436 269.825,221.436 269.825,214.522 262.913,214.522 256,214.522 249.087,214.522    242.174,214.522 242.174,221.436 249.087,221.436  " />
    </g>
    <!--text x="206" y="321" fill="#000000" font-size="5px" font-weight="bold" font-family="'Helvetica Neue', Helvetica, Arial-Unicode, Arial, Sans-serif">Created by Cuby Design</text>
    <text x="206" y="326" fill="#000000" font-size="5px" font-weight="bold" font-family="'Helvetica Neue', Helvetica, Arial-Unicode, Arial, Sans-serif">from the Noun Project</text-->
</svg>