<svg id="Layer_1" data-name="Layer 1" xmlns="http://www.w3.org/2000/svg" viewBox="0 0 387.65 501.91"><defs><style>.cls-1{fill:#bcbec0;}.cls-2{fill:#808285;}.cls-3{fill:#e6e7e8;}.cls-4,.cls-5{fill:none;stroke:#231f20;stroke-linecap:round;stroke-linejoin:round;}.cls-4{stroke-width:0.5px;}.cls-5{stroke-width:0.25px;}</style></defs><title>alderman-floorplan</title><path class="cls-1" d="M286.42,442.24h25.45v31.5h66.68V433.11h5.25v-47.8h-5.25V250.61h5.25V203.56h-5.25V162.62H311.87v12.2H200.4v-3.6H308.27V159h8.52v-.34l.34-3.12h7.64l.35,3.12V159h3.5v-.34l.23-3.12h5.23l.24,3.12V159h21v-.34l.24-3.12h5.23l.23,3.12V159h3.5v-.34l.35-3.12h7.64l.34,3.12V159h9.31V200h5.25v54.25h-5.25V268h0l4.71.2v4.54l-4.71.21h0v13.81h0l4.71.21v4.54l-4.71.21h0v13.71h0l4.71.21v4.53l-4.71.21h0v13h0l4.71.21v4.53l-4.71.21h0v13.82h0l4.71.2v4.54l-4.71.21h0v13.71h0l4.71.21v4.54l-4.71.2h0v16h5.25v55h-5.25v40.63h-9.39l-.34,3.11h-7.64l-.35-3.11h-3.49l-.24,3.11h-5.23l-.23-3.11h-21l-.24,3.11h-5.22l-.24-3.11H325l-.35,3.11h-7.63l-.35-3.11h-8.44v-31.5H290v15.94h-9.79v-3.26h-2.56v.07l-.35,3.11h-7.64l-.34-3.11v-.13h-13.9v.13l-.35,3.11h-7.64l-.34-3.11v-.13H232.05v.13l-.34,3.11h-7.64l-.35-3.11v-.13H209.25v.13l-.35,3.11h-7.64l-.35-3.11v-.13h-1.3v-3.6h1.8v-3.12h7.49l.35,3.12h14.47l.35-3.12h7.64l.34,3.12h15.06l.34-3.12h7.64l.35,3.12h13.9l.34-3.12h7.64l.35,3.12h8.75Z"/><polygon class="cls-2" points="199.61 454.86 199.61 439.79 205.69 439.79 205.69 444.63 203.89 444.63 203.89 441.59 201.41 441.59 201.41 451.74 201.41 454.86 199.61 454.86"/><polygon class="cls-2" points="311.87 410.13 311.87 442.24 309.35 442.24 309.35 412.65 308.27 412.65 308.27 410.13 311.87 410.13"/><polygon class="cls-2" points="311.87 364.18 311.87 399.71 297.98 399.71 297.98 397.19 309.35 397.19 309.35 391.15 309.35 386.8 309.35 382.48 309.35 377.04 309.35 372.72 309.35 364.18 311.87 364.18"/><path class="cls-1" d="M201.13,281.69l.33-2.93h7.64l.34,2.73h14.48l.34-2.73h7.64l.35,2.73h79.62v82.69h-34l-.35,3.12h-7.64l-.35-3.12H255.65l-.35,3.12h-7.64l-.35-3.12H232.26l-.35,3.12h-7.64l-.34-3.12H209.45l-.34,3.12h-7.64l-.33-2.94h-1.32v-2.52h5.85V284.21h-5.86v-2.52h1.32Zm107.14,78.9v-75.5h-99v75.5Z"/><rect class="cls-2" x="309.35" y="275.71" width="2.52" height="5.78"/><polygon class="cls-2" points="311.87 174.82 311.87 270.13 309.35 270.13 309.35 234.93 309.35 232.41 309.35 204.48 309.35 201.96 309.35 174.82 311.87 174.82"/><polygon class="cls-1" points="184.71 2.76 184.68 2.77 167.23 2.77 166.7 5.37 166.69 5.37 164.72 4.96 164.52 4.96 165.49 0.25 186.77 0.25 187.74 4.96 198.38 4.96 199.35 0.25 220.64 0.25 221.6 4.96 232.24 4.96 233.21 0.25 254.5 0.25 255.46 4.96 266.11 4.96 267.07 0.25 288.36 0.25 289.33 4.96 304.75 4.96 304.75 10.71 304.75 23.71 309.46 24.71 309.46 46.71 304.75 47.71 304.75 60.71 309.46 61.71 309.46 83.71 304.75 84.71 304.75 97.71 309.46 98.71 309.46 120.71 304.75 121.71 304.75 138.46 288.25 138.46 288.25 171.22 285.73 171.22 285.73 135.94 302.23 135.94 302.23 119.94 306.94 118.94 306.94 100.79 306.94 100.68 302.23 99.68 302.23 82.94 306.94 81.94 306.94 63.79 306.94 63.68 302.23 62.68 302.23 45.94 306.94 44.94 306.94 26.79 306.94 26.68 302.23 25.68 302.23 10.71 302.23 7.48 287.27 7.48 286.3 2.76 286.27 2.77 268.81 2.77 267.85 7.48 253.41 7.48 252.44 2.76 252.41 2.77 234.95 2.77 233.99 7.48 219.55 7.48 218.58 2.76 218.55 2.77 201.09 2.77 200.12 7.48 185.69 7.48 184.71 2.76"/><rect class="cls-2" x="285.83" y="232.41" width="23.52" height="2.52"/><rect class="cls-2" x="300.33" y="201.96" width="9.02" height="2.52"/><rect class="cls-3" x="209.27" y="285.09" width="99" height="75.5"/><polygon class="cls-2" points="298.4 417.57 298.4 412.65 296.2 412.65 296.2 410.13 304.13 410.13 304.13 412.65 300.92 412.65 300.92 420.08 298.46 420.08 289.63 420.08 289.63 442.24 287.11 442.24 287.11 410.13 291.84 410.13 291.84 412.25 291.84 412.48 289.63 412.48 289.63 417.57 298.4 417.57"/><polygon class="cls-2" points="303.67 381.4 303.67 382.48 303.67 383.56 303.67 384.64 303.67 385.72 303.67 386.8 303.67 387.88 303.67 388.96 303.67 390.04 303.67 391.12 303.67 391.15 303.67 392.23 303.67 392.32 302.2 392.32 302.2 372.51 297.07 372.51 297.07 392.33 295.6 392.33 295.6 392.23 295.6 391.15 295.6 391.12 295.6 390.04 295.6 388.96 295.6 387.88 295.6 386.8 295.6 385.72 295.6 384.64 295.6 383.56 295.6 382.48 295.6 381.4 295.6 381.36 295.6 380.28 295.6 379.2 295.6 378.12 295.6 377.04 295.6 375.96 295.6 374.88 295.6 373.8 295.6 372.72 295.6 371.44 295.6 371.43 303.67 371.43 303.67 372.72 303.67 373.8 303.67 374.88 303.67 375.96 303.67 377.04 303.67 378.12 303.67 379.2 303.67 380.28 303.67 381.36 303.67 381.4"/><rect class="cls-2" x="257.4" y="201.96" width="37.6" height="2.52"/><polygon class="cls-2" points="292.19 397.36 292.19 399.71 287.46 399.71 287.46 364.18 289.98 364.18 289.98 372.72 289.98 373.8 289.98 374.88 289.98 375.96 289.98 377.04 289.98 378.12 289.98 379.2 289.98 380.28 289.98 381.36 289.98 381.4 289.98 382.48 289.98 383.56 289.98 384.64 289.98 385.72 289.98 386.8 289.98 387.88 289.98 388.96 289.98 390.04 289.98 391.12 289.98 391.15 289.98 392.23 289.98 397.36 292.19 397.36"/><rect class="cls-2" x="257.4" y="232.41" width="22.1" height="2.52"/><rect class="cls-2" x="254.88" y="278.6" width="2.52" height="2.89"/><polygon class="cls-2" points="257.4 234.93 257.4 274.58 254.88 274.58 254.88 174.82 257.4 174.82 257.4 201.96 257.4 204.48 257.4 232.41 257.4 234.93"/><path class="cls-2" d="M198.56,269.43V259.05H188.12v10.38h3.25V272H185.6V233.57h15.48v8.78h-13v7.11h13v4h-2.53V252H188.12v4.55h13V272H195v-2.52h3.56Zm0-29.6v-3.74H188.12v3.73h10.43Z"/><polygon class="cls-2" points="201.01 245.14 201.01 246.61 199.99 246.61 197.83 246.61 193.51 246.61 190.47 246.61 190.47 245.14 191.35 245.14 192.43 245.14 193.51 245.14 194.59 245.14 195.67 245.14 196.75 245.14 197.83 245.14 198.91 245.14 199.99 245.14 201.01 245.14"/><path class="cls-1" d="M5.5,360.79V347.08l-4.67-.21v-4.54l4.67-.2V328.31L.83,328.1v-4.53l4.67-.21v-13l-4.67-.21v-4.53l4.67-.21V291.7l-4.67-.21V287l4.67-.21V272.93l-4.67-.21v-4.54L5.5,268V254.21H.25V200H5.5V159h8.29v-.34l.34-3.12h7.64l.35,3.12V159h3.5v-.34l.23-3.12h5.23l.24,3.12V159h21v-.34l.24-3.12h5.23l.23,3.12V159h3.5v-.34l.35-3.12H69.5l.34,3.12V159h9.54v12.2H187.25v3.6H75.77v-12.2H9.1v40.94H3.85v47.05H9.1v134.7H3.85v47.8H9.1v40.63H75.77v-31.5h25.46v12.62H109l.35-3.12H117l.34,3.12h13.9l.35-3.12h7.64l.34,3.12h15.06l.34-3.12h7.64l.35,3.12h14.47l.35-3.12h7.72v3.12h1.8v3.6h-1.53v.13l-.35,3.11h-7.64l-.35-3.11v-.13H162.91v.13l-.35,3.11h-7.64l-.34-3.11v-.13H139.52v.13l-.34,3.11h-7.64l-.35-3.11v-.13h-13.9v.13L117,461.7h-7.64l-.35-3.11H106.5v3.26H97.62v-16H79.38v31.5H69.76l-.34,3.11H61.78l-.35-3.11H57.94l-.24,3.11H52.47l-.23-3.11h-21L31,480.45H25.78l-.24-3.11H22l-.35,3.11H14.06l-.35-3.11H5.5V436.71H.25v-55H5.5v-16l-4.67-.2V361Z"/><polygon class="cls-2" points="187.25 439.79 187.25 454.86 185.45 454.86 185.45 451.74 185.45 441.59 182.97 441.59 182.97 444.63 181.17 444.63 181.17 439.79 187.25 439.79"/><path class="cls-1" d="M185.89,281.69h1.32v2.52H182v77.63h5.24v2.52H185.9l-.32,2.94h-7.64l-.35-3.12H163.12l-.35,3.12h-7.64l-.35-3.12H139.73l-.35,3.12h-7.64l-.34-3.12H117.5l-.35,3.12h-7.64l-.34-3.12H75.77V281.49h79l.35-2.73h7.64l.35,2.73h14.47l.35-2.73h7.64Zm-7.51,78.9v-75.5h-99v75.5Z"/><rect class="cls-3" x="79.38" y="285.09" width="99" height="75.5"/><polygon class="cls-1" points="117.19 2.76 117.16 2.77 99.71 2.77 98.74 7.48 85.52 7.48 85.52 10.71 85.52 25.68 80.81 26.68 80.81 26.79 80.81 44.94 85.52 45.94 85.52 62.68 80.81 63.68 80.81 63.79 80.81 81.94 85.52 82.94 85.52 99.68 80.81 100.68 80.81 100.79 80.81 118.94 85.52 119.94 85.52 135.94 102.02 135.94 102.02 171.22 99.5 171.22 99.5 138.46 83 138.46 83 121.71 78.29 120.71 78.29 98.71 83 97.71 83 84.71 78.29 83.71 78.29 61.71 83 60.71 83 47.71 78.29 46.71 78.29 24.71 83 23.71 83 10.71 83 4.96 97 4.96 97.97 0.25 119.25 0.25 120.22 4.96 130.86 4.96 131.83 0.25 153.11 0.25 154.08 4.96 164.52 4.96 164.72 4.96 166.69 5.37 166.26 7.48 152.03 7.48 151.05 2.76 151.02 2.77 133.57 2.77 132.6 7.48 118.17 7.48 117.19 2.76"/><rect class="cls-2" x="128.88" y="278.6" width="2.52" height="2.89"/><polygon class="cls-2" points="131.4 174.82 131.4 274.59 128.88 274.59 128.88 274.58 128.88 204.48 128.88 201.96 128.88 174.82 131.4 174.82"/><rect class="cls-2" x="78.29" y="201.96" width="50.59" height="2.52"/><polygon class="cls-2" points="88.86 417.57 97.63 417.57 97.63 412.48 95.42 412.48 95.42 412.25 95.42 410.13 100.15 410.13 100.15 442.24 97.63 442.24 97.63 420.08 88.8 420.08 88.8 420.09 86.34 420.09 86.34 412.65 83.12 412.65 83.12 410.13 91.06 410.13 91.06 412.65 88.86 412.65 88.86 417.57"/><polygon class="cls-2" points="97.62 392.31 97.62 391.19 97.62 390.11 97.62 389.03 97.63 389.03 97.63 386.87 97.62 386.87 97.62 385.79 97.62 384.71 97.63 384.71 97.63 382.55 97.62 382.55 97.62 381.47 97.62 381.43 97.62 380.35 97.62 379.27 97.62 378.19 97.62 377.11 97.62 376.03 97.62 374.95 97.62 373.87 97.62 372.79 97.62 364.18 100.14 364.18 100.14 399.71 95.42 399.71 95.42 397.36 97.62 397.36 97.62 392.31"/><polygon class="cls-2" points="92 381.47 92 382.55 92 383.63 92 384.71 92 385.79 92 386.87 92 387.95 92 389.03 92 390.11 92 391.19 92 391.22 92 392.31 92 392.39 90.53 392.39 90.53 372.58 85.41 372.58 85.41 392.4 83.94 392.4 83.94 392.31 83.94 391.22 83.94 391.19 83.94 390.11 83.94 389.03 83.94 387.95 83.94 386.87 83.94 385.79 83.94 384.71 83.94 383.63 83.94 382.55 83.94 381.47 83.94 381.43 83.94 380.35 83.94 379.27 83.94 378.19 83.94 377.11 83.94 376.03 83.94 374.95 83.94 373.87 83.94 372.79 83.94 371.51 83.94 371.5 92 371.5 92 372.79 92 373.87 92 374.95 92 376.03 92 377.11 92 378.19 92 379.27 92 380.35 92 381.43 92 381.47"/><polygon class="cls-2" points="89.67 397.19 89.67 399.71 75.77 399.71 75.77 364.18 78.29 364.18 78.29 374.95 78.29 379.27 78.29 381.43 78.29 384.71 78.29 389.03 78.29 391.19 78.29 392.31 78.29 397.19 89.67 397.19"/><polygon class="cls-2" points="79.38 410.13 79.38 412.65 78.29 412.65 78.29 442.24 75.77 442.24 75.77 435.63 67.2 435.63 67.2 433.11 75.77 433.11 75.77 410.13 79.38 410.13"/><rect class="cls-2" x="75.77" y="275.71" width="2.52" height="5.78"/><polygon class="cls-2" points="75.77 221.72 75.77 220.61 75.83 220.61 75.83 219.52 75.77 219.52 75.77 218.44 75.83 218.44 75.83 217.36 75.83 216.28 75.83 215.2 75.77 215.2 75.77 214.12 75.83 214.12 75.83 213.04 75.83 211.96 75.77 211.96 75.77 204.48 75.77 201.96 75.77 197.21 78.29 197.21 78.29 201.96 78.29 204.48 78.29 270.13 75.77 270.13 75.77 249.46 75.77 246.94 75.77 236.56 75.77 234.04 75.77 221.72"/><polygon class="cls-2" points="78.29 174.82 78.29 190.79 75.77 190.79 75.77 185.63 75.77 183.11 75.77 174.82 78.29 174.82"/><rect class="cls-2" x="58.62" y="449.96" width="17.15" height="2.52"/><rect class="cls-2" x="70.12" y="360.59" width="5.65" height="2.51"/><rect class="cls-2" x="71.32" y="246.94" width="4.45" height="2.52"/><polygon class="cls-2" points="65.4 221.72 65.4 234.04 75.77 234.04 75.77 236.56 65.4 236.56 65.4 246.94 67.56 246.94 67.56 249.46 62.88 249.46 62.88 211.08 65.4 211.08 65.4 211.96 65.34 211.96 65.34 213.04 65.34 214.12 65.4 214.12 65.4 215.2 65.34 215.2 65.34 216.28 65.34 217.36 65.34 218.44 65.4 218.44 65.4 219.52 65.34 219.52 65.34 220.6 65.4 220.6 65.4 221.72"/><polygon class="cls-2" points="75.77 201.96 75.77 204.48 65.4 204.48 65.4 205.96 62.88 205.96 62.88 201.96 75.77 201.96"/><polygon class="cls-2" points="75.77 183.11 75.77 185.63 52.5 185.63 52.5 181.63 55.02 181.88 55.02 183.11 75.77 183.11"/><polygon class="cls-2" points="71.32 221.72 71.32 222.83 69.85 222.84 69.85 220.64 69.85 216.28 69.85 211.96 69.85 211.09 71.32 211.09 71.32 214.12 71.32 218.44 71.32 220.61 71.32 221.72"/><polygon class="cls-2" points="61 433.11 61 435.63 45.17 435.63 45.17 433.11 53.73 433.11 53.73 411.71 56.25 411.71 56.25 433.11 61 433.11"/><polygon class="cls-2" points="61 360.59 61 363.1 56.25 363.1 56.25 363.17 56.25 371.43 56.25 371.51 53.73 371.51 53.73 371.43 53.73 363.17 53.73 363.1 35.05 363.1 35.05 363.17 35.05 376.5 32.53 376.5 32.53 363.17 32.53 363.1 9.1 363.1 9.1 360.59 56.25 360.59 61 360.59"/><polygon class="cls-2" points="56.25 376.5 56.25 405.88 53.73 405.88 53.73 385.53 20 385.53 20 383.01 32.53 383.01 32.53 380.77 35.05 380.77 35.05 383.01 53.73 383.01 53.73 376.5 56.25 376.5"/><rect class="cls-2" x="52.5" y="162.62" width="2.52" height="15.01"/><rect class="cls-2" x="51.82" y="449.96" width="2.52" height="23.78"/><polygon class="cls-2" points="47.67 449.96 47.67 452.48 35.05 452.48 35.05 473.74 32.53 473.74 32.53 441.13 35.05 441.13 35.05 449.96 47.67 449.96"/><polygon class="cls-2" points="39.83 433.11 39.83 435.63 35.05 435.63 35.05 436.96 32.53 436.96 32.53 435.63 9.1 435.63 9.1 433.11 39.83 433.11"/><polygon class="cls-2" points="14.88 383.01 14.87 385.53 9.1 385.53 9.1 385.31 9.1 383.01 14.88 383.01"/><line class="cls-4" x1="198.56" y1="269.43" x2="198.56" y2="259.05"/><line class="cls-4" x1="187.25" y1="454.86" x2="187.25" y2="458.46"/><line class="cls-4" x1="162.91" y1="454.86" x2="177.38" y2="454.86"/><line class="cls-4" x1="139.52" y1="454.86" x2="154.58" y2="454.86"/><line class="cls-4" x1="117.29" y1="454.86" x2="131.19" y2="454.86"/><polyline class="cls-4" points="100.15 442.24 101.23 442.24 101.23 454.86 108.96 454.86"/><line class="cls-4" x1="78.29" y1="442.24" x2="97.63" y2="442.24"/><polyline class="cls-4" points="9.1 435.63 9.1 473.74 32.53 473.74 35.05 473.74 51.82 473.74 54.34 473.74 75.77 473.74 75.77 452.48 75.77 449.96 75.77 442.24"/><polyline class="cls-4" points="9.1 385.31 3.85 385.31 3.85 433.11 9.1 433.11"/><line class="cls-4" x1="9.1" y1="363.1" x2="9.1" y2="383.01"/><polyline class="cls-4" points="52.5 162.62 9.1 162.62 9.1 203.56 3.85 203.56 3.85 250.61 9.1 250.61 9.1 360.59"/><polyline class="cls-4" points="75.77 174.82 75.77 162.62 55.02 162.62"/><line class="cls-4" x1="128.88" y1="174.82" x2="78.29" y2="174.82"/><polyline class="cls-4" points="187.25 171.22 187.25 174.82 131.4 174.82"/><line class="cls-4" x1="185.72" y1="458.46" x2="187.25" y2="458.46"/><line class="cls-4" x1="162.91" y1="458.46" x2="177.38" y2="458.46"/><line class="cls-4" x1="139.52" y1="458.46" x2="154.58" y2="458.46"/><line class="cls-4" x1="117.29" y1="458.46" x2="131.19" y2="458.46"/><polyline class="cls-4" points="97.62 461.85 106.5 461.85 106.5 458.59 108.96 458.59 109.31 461.7"/><line class="cls-4" x1="97.62" y1="445.84" x2="97.62" y2="461.85"/><polyline class="cls-4" points="69.76 477.34 79.38 477.34 79.38 445.84 97.62 445.84"/><line class="cls-4" x1="57.94" y1="477.34" x2="61.43" y2="477.34"/><line class="cls-4" x1="31.24" y1="477.34" x2="52.24" y2="477.34"/><line class="cls-4" x1="22.04" y1="477.34" x2="25.54" y2="477.34"/><polyline class="cls-4" points="5.5 365.74 5.5 381.71 0.25 381.71 0.25 436.71 5.5 436.71 5.5 477.34 13.71 477.34"/><line class="cls-4" x1="5.5" y1="347.08" x2="5.5" y2="360.79"/><line class="cls-4" x1="5.5" y1="328.31" x2="5.5" y2="342.13"/><line class="cls-4" x1="5.5" y1="310.36" x2="5.5" y2="323.36"/><line class="cls-4" x1="5.5" y1="291.7" x2="5.5" y2="305.41"/><line class="cls-4" x1="5.5" y1="272.93" x2="5.5" y2="286.74"/><polyline class="cls-4" points="13.79 159.02 5.5 159.02 5.5 199.96 0.25 199.96 0.25 254.21 5.5 254.21 5.5 267.98"/><line class="cls-4" x1="25.62" y1="159.02" x2="22.12" y2="159.02"/><line class="cls-4" x1="52.31" y1="159.02" x2="31.32" y2="159.02"/><line class="cls-4" x1="61.51" y1="159.02" x2="58.01" y2="159.02"/><path class="cls-4" d="M99.5,171.22H79.38V159H69.84"/><path class="cls-4" d="M187.25,171.22H102"/><line class="cls-4" x1="199.61" y1="454.86" x2="199.61" y2="458.46"/><line class="cls-4" x1="223.72" y1="454.86" x2="209.25" y2="454.86"/><line class="cls-4" x1="247.11" y1="454.86" x2="232.05" y2="454.86"/><line class="cls-4" x1="269.34" y1="454.86" x2="255.44" y2="454.86"/><line class="cls-4" x1="286.42" y1="454.86" x2="277.67" y2="454.86"/><line class="cls-4" x1="286.42" y1="442.24" x2="286.42" y2="454.86"/><polyline class="cls-4" points="309.35 442.24 289.63 442.24 287.11 442.24 286.42 442.24"/><polyline class="cls-4" points="311.87 174.82 311.87 162.62 378.55 162.62 378.55 203.56 383.8 203.56 383.8 250.61 378.55 250.61 378.55 385.31 383.8 385.31 383.8 433.11 378.55 433.11 378.55 473.74 311.87 473.74 311.87 442.24"/><line class="cls-4" x1="257.4" y1="174.82" x2="309.35" y2="174.82"/><polyline class="cls-4" points="200.4 171.22 200.4 174.82 254.88 174.82"/><line class="cls-4" x1="200.91" y1="458.46" x2="199.61" y2="458.46"/><line class="cls-4" x1="223.72" y1="458.46" x2="209.25" y2="458.46"/><line class="cls-4" x1="247.11" y1="458.46" x2="232.05" y2="458.46"/><line class="cls-4" x1="269.34" y1="458.46" x2="255.44" y2="458.46"/><line class="cls-4" x1="290.02" y1="445.84" x2="290.02" y2="461.58"/><polyline class="cls-4" points="316.71 477.34 308.27 477.34 308.27 445.84 290.02 445.84"/><line class="cls-4" x1="328.54" y1="477.34" x2="325.04" y2="477.34"/><line class="cls-4" x1="355.24" y1="477.34" x2="334.24" y2="477.34"/><line class="cls-4" x1="364.43" y1="477.34" x2="360.94" y2="477.34"/><polyline class="cls-4" points="382.15 365.74 382.15 381.71 387.4 381.71 387.4 436.71 382.15 436.71 382.15 477.34 372.76 477.34"/><line class="cls-4" x1="382.15" y1="347.08" x2="382.15" y2="360.79"/><line class="cls-4" x1="382.15" y1="328.31" x2="382.15" y2="342.13"/><line class="cls-4" x1="382.15" y1="310.36" x2="382.15" y2="323.36"/><line class="cls-4" x1="382.15" y1="291.7" x2="382.15" y2="305.41"/><line class="cls-4" x1="382.15" y1="272.93" x2="382.15" y2="286.74"/><polyline class="cls-4" points="372.84 159.02 382.15 159.02 382.15 199.96 387.4 199.96 387.4 254.21 382.15 254.21 382.15 267.98"/><line class="cls-4" x1="361.01" y1="159.02" x2="364.51" y2="159.02"/><line class="cls-4" x1="334.32" y1="159.02" x2="355.31" y2="159.02"/><line class="cls-4" x1="325.12" y1="159.02" x2="328.62" y2="159.02"/><path class="cls-4" d="M288.25,171.22h20V159h8.52"/><path class="cls-4" d="M200.4,171.22h85.33"/><line class="cls-4" x1="131.4" y1="364.18" x2="117.5" y2="364.18"/><line class="cls-4" x1="154.78" y1="364.18" x2="139.73" y2="364.18"/><line class="cls-4" x1="177.59" y1="364.18" x2="163.12" y2="364.18"/><line class="cls-4" x1="181.98" y1="284.21" x2="181.98" y2="361.84"/><line class="cls-4" x1="163.11" y1="281.49" x2="177.58" y2="281.49"/><line class="cls-4" x1="131.4" y1="281.49" x2="154.77" y2="281.49"/><line class="cls-4" x1="78.29" y1="281.49" x2="128.88" y2="281.49"/><line class="cls-4" x1="75.77" y1="360.59" x2="75.77" y2="281.49"/><line class="cls-4" x1="75.77" y1="364.18" x2="75.77" y2="363.1"/><line class="cls-4" x1="97.62" y1="364.18" x2="78.29" y2="364.18"/><line class="cls-4" x1="109.17" y1="364.18" x2="100.14" y2="364.18"/><rect class="cls-4" x="79.38" y="285.09" width="99" height="75.5"/><line class="cls-4" x1="287.46" y1="364.18" x2="277.88" y2="364.18"/><line class="cls-4" x1="309.35" y1="364.18" x2="289.98" y2="364.18"/><line class="cls-4" x1="311.87" y1="281.49" x2="311.87" y2="364.18"/><line class="cls-4" x1="257.4" y1="281.49" x2="309.35" y2="281.49"/><line class="cls-4" x1="232.25" y1="281.49" x2="254.88" y2="281.49"/><line class="cls-4" x1="209.44" y1="281.49" x2="223.92" y2="281.49"/><line class="cls-4" x1="205.67" y1="361.84" x2="205.67" y2="284.21"/><rect class="cls-4" x="209.27" y="285.09" width="99" height="75.5"/><polyline class="cls-4" points="79.38 410.13 79.38 412.65 78.29 412.65 78.29 442.24 75.77 442.24"/><polyline class="cls-4" points="75.77 433.11 75.77 410.13 79.38 410.13"/><line class="cls-4" x1="75.77" y1="442.24" x2="75.77" y2="435.63"/><polyline class="cls-4" points="75.77 364.18 78.29 364.18 78.29 374.95 78.29 379.27 78.29 381.43 78.29 384.71 78.29 389.03 78.29 391.19 78.29 392.31 78.29 397.19 89.67 397.19 89.67 399.71"/><polyline class="cls-4" points="89.67 399.71 75.77 399.71 75.77 364.18"/><polyline class="cls-4" points="75.77 275.71 78.29 275.71 78.29 281.49 75.77 281.49"/><line class="cls-4" x1="75.77" y1="281.49" x2="75.77" y2="275.71"/><polyline class="cls-4" points="78.29 204.48 78.29 270.13 75.77 270.13"/><line class="cls-4" x1="78.29" y1="197.21" x2="78.29" y2="201.96"/><polyline class="cls-4" points="75.77 174.82 78.29 174.82 78.29 190.79"/><line class="cls-4" x1="75.77" y1="183.11" x2="75.77" y2="174.82"/><line class="cls-4" x1="75.77" y1="190.79" x2="75.77" y2="185.63"/><line class="cls-4" x1="75.77" y1="201.96" x2="75.77" y2="197.21"/><polyline class="cls-4" points="75.77 234.04 75.77 221.72 75.77 220.61 75.77 219.52 75.77 218.44 75.77 217.36 75.77 216.28 75.77 215.2 75.77 214.12 75.77 213.04 75.77 211.96 75.77 204.48"/><line class="cls-4" x1="75.77" y1="246.94" x2="75.77" y2="236.56"/><line class="cls-4" x1="75.77" y1="270.13" x2="75.77" y2="249.46"/><polyline class="cls-4" points="308.27 410.13 308.27 412.65 309.35 412.65 309.35 442.24 311.87 442.24"/><polyline class="cls-4" points="311.87 442.24 311.87 410.13 308.27 410.13"/><polyline class="cls-4" points="311.87 364.18 309.35 364.18 309.35 372.72 309.35 377.04 309.35 382.48 309.35 386.8 309.35 391.15 309.35 397.19 297.98 397.19 297.98 399.71"/><polyline class="cls-4" points="297.98 399.71 311.87 399.71 311.87 364.18"/><polyline class="cls-4" points="311.87 275.71 309.35 275.71 309.35 281.49 311.87 281.49"/><line class="cls-4" x1="311.87" y1="281.49" x2="311.87" y2="275.71"/><polyline class="cls-4" points="309.35 234.93 309.35 270.13 311.87 270.13"/><line class="cls-4" x1="309.35" y1="204.48" x2="309.35" y2="232.41"/><polyline class="cls-4" points="311.87 174.82 309.35 174.82 309.35 201.96"/><line class="cls-4" x1="311.87" y1="270.13" x2="311.87" y2="174.82"/><polyline class="cls-4" points="128.88 278.6 131.4 278.6 131.4 281.49 128.88 281.49"/><line class="cls-4" x1="128.88" y1="281.49" x2="128.88" y2="278.6"/><polyline class="cls-4" points="128.88 174.82 131.4 174.82 131.4 274.59 128.88 274.59"/><line class="cls-4" x1="128.88" y1="201.96" x2="128.88" y2="174.82"/><line class="cls-4" x1="128.88" y1="274.58" x2="128.88" y2="204.48"/><polyline class="cls-4" points="257.4 278.6 254.88 278.6 254.88 281.49 257.4 281.49"/><line class="cls-4" x1="257.4" y1="281.49" x2="257.4" y2="278.6"/><polyline class="cls-4" points="257.4 174.82 254.88 174.82 254.88 274.58 257.4 274.58"/><line class="cls-4" x1="257.4" y1="201.96" x2="257.4" y2="174.82"/><line class="cls-4" x1="257.4" y1="232.41" x2="257.4" y2="204.48"/><line class="cls-4" x1="257.4" y1="274.58" x2="257.4" y2="234.93"/><line class="cls-4" x1="75.77" y1="190.79" x2="78.29" y2="190.79"/><line class="cls-4" x1="75.77" y1="197.21" x2="78.29" y2="197.21"/><polyline class="cls-4" points="128.88 201.96 128.88 204.48 78.29 204.48 78.29 201.96"/><line class="cls-4" x1="78.29" y1="201.96" x2="128.88" y2="201.96"/><polyline class="cls-4" points="75.77 201.96 75.77 204.48 65.4 204.48 65.4 205.96 62.88 205.96"/><polyline class="cls-4" points="75.77 201.96 62.88 201.96 62.88 205.96"/><polyline class="cls-4" points="65.4 246.94 70.59 241.75 75.77 236.56 65.4 236.56"/><line class="cls-4" x1="65.4" y1="236.56" x2="65.4" y2="246.94"/><polyline class="cls-4" points="62.88 211.08 65.4 211.08 65.4 211.96 65.4 213.04 65.4 214.12 65.4 215.2 65.4 216.28 65.4 217.36 65.4 218.44 65.4 219.52 65.4 220.6 65.4 221.72 65.4 234.04"/><polyline class="cls-4" points="75.77 249.46 71.32 249.46 71.32 246.94 75.77 246.94 75.77 249.46"/><polyline class="cls-4" points="62.88 211.08 62.88 249.46 67.56 249.46 67.56 246.94 65.4 246.94"/><polyline class="cls-4" points="65.4 236.56 70.59 241.75 75.77 246.94"/><polyline class="cls-4" points="75.77 236.56 75.77 234.04 65.4 234.04"/><polyline class="cls-4" points="75.77 185.63 75.77 183.11 55.02 183.11 55.02 181.88 52.5 181.63 52.5 185.63 75.77 185.63"/><polyline class="cls-4" points="52.5 162.62 55.02 162.62 55.02 177.63"/><line class="cls-4" x1="52.5" y1="162.62" x2="52.5" y2="177.63"/><line class="cls-4" x1="52.5" y1="177.63" x2="55.02" y2="177.63"/><polyline class="cls-4" points="69.85 211.09 71.32 211.09 71.32 214.12 71.32 218.44 71.32 220.61 71.32 221.72 71.32 222.83"/><polygon class="cls-5" points="69.79 213.04 69.79 214.12 65.4 214.12 65.34 214.12 65.34 213.04 65.34 211.96 65.4 211.96 69.79 211.96 69.79 213.04"/><polyline class="cls-5" points="69.79 213.04 65.4 213.04 65.34 213.04"/><polyline class="cls-4" points="69.85 222.84 69.85 220.64 69.85 216.28 69.85 211.96 69.85 211.09 69.85 211.08"/><line class="cls-4" x1="69.85" y1="222.84" x2="71.32" y2="222.83"/><polygon class="cls-5" points="75.83 213.04 75.83 214.12 75.77 214.12 71.38 214.12 71.38 213.04 71.38 211.96 75.77 211.96 75.83 211.96 75.83 213.04"/><polyline class="cls-5" points="75.83 213.04 75.77 213.04 71.38 213.04"/><line class="cls-5" x1="65.34" y1="216.28" x2="65.34" y2="215.2"/><line class="cls-5" x1="69.79" y1="215.2" x2="69.79" y2="216.28"/><polyline class="cls-5" points="69.79 215.2 65.4 215.2 65.34 215.2"/><line class="cls-5" x1="71.38" y1="216.28" x2="71.38" y2="215.2"/><line class="cls-5" x1="75.83" y1="215.2" x2="75.83" y2="216.28"/><polyline class="cls-5" points="75.83 215.2 75.77 215.2 71.38 215.2"/><polygon class="cls-5" points="69.79 217.36 69.79 218.44 65.4 218.44 65.34 218.44 65.34 217.36 65.34 216.28 65.4 216.28 69.79 216.28 69.79 217.36"/><polyline class="cls-5" points="69.79 217.36 65.4 217.36 65.34 217.36"/><polygon class="cls-5" points="75.83 217.36 75.83 218.44 75.77 218.44 71.38 218.44 71.38 217.36 71.38 216.28 75.77 216.28 75.83 216.28 75.83 217.36"/><polyline class="cls-5" points="75.83 217.36 75.77 217.36 71.38 217.36"/><polyline class="cls-5" points="69.79 219.52 69.79 220.6 65.4 220.6 65.34 220.6 65.34 219.52"/><polyline class="cls-5" points="69.79 219.52 65.4 219.52 65.34 219.52"/><polyline class="cls-5" points="75.83 219.52 75.83 220.61 75.77 220.61 71.38 220.61 71.38 219.52"/><polyline class="cls-5" points="75.83 219.52 75.77 219.52 71.38 219.52"/><polyline class="cls-5" points="69.79 220.64 69.79 221.72 65.4 221.72 65.34 221.72 65.34 220.64"/><polyline class="cls-5" points="75.83 220.64 75.83 221.72 75.77 221.72 71.38 221.72 71.38 220.64"/><line class="cls-4" x1="85.41" y1="372.58" x2="85.41" y2="392.4"/><line class="cls-4" x1="83.94" y1="372.79" x2="83.94" y2="371.51"/><line class="cls-4" x1="83.94" y1="376.03" x2="83.94" y2="374.95"/><line class="cls-4" x1="83.94" y1="380.35" x2="83.94" y2="379.27"/><line class="cls-4" x1="83.94" y1="381.47" x2="83.94" y2="381.43"/><line class="cls-4" x1="83.94" y1="385.79" x2="83.94" y2="384.71"/><line class="cls-4" x1="83.94" y1="390.11" x2="83.94" y2="389.03"/><line class="cls-4" x1="83.94" y1="391.22" x2="83.94" y2="391.19"/><line class="cls-4" x1="83.94" y1="392.4" x2="83.94" y2="392.31"/><line class="cls-4" x1="83.94" y1="392.4" x2="85.41" y2="392.4"/><line class="cls-5" x1="92" y1="372.79" x2="97.62" y2="372.79"/><line class="cls-5" x1="97.62" y1="374.95" x2="92" y2="374.95"/><line class="cls-5" x1="97.62" y1="373.87" x2="92" y2="373.87"/><line class="cls-5" x1="97.62" y1="376.03" x2="92" y2="376.03"/><line class="cls-5" x1="92" y1="377.11" x2="97.62" y2="377.11"/><line class="cls-5" x1="97.62" y1="379.27" x2="92" y2="379.27"/><line class="cls-5" x1="97.62" y1="378.19" x2="92" y2="378.19"/><line class="cls-5" x1="97.62" y1="381.43" x2="92" y2="381.43"/><line class="cls-5" x1="97.62" y1="380.35" x2="92" y2="380.35"/><polyline class="cls-4" points="83.94 372.79 83.94 373.87 83.94 374.95"/><polyline class="cls-5" points="83.94 374.95 78.31 374.95 78.31 373.87 78.31 372.79 83.94 372.79"/><line class="cls-5" x1="83.94" y1="373.87" x2="78.31" y2="373.87"/><line class="cls-5" x1="78.31" y1="377.11" x2="78.31" y2="376.03"/><line class="cls-4" x1="83.94" y1="376.03" x2="83.94" y2="377.11"/><line class="cls-5" x1="83.94" y1="376.03" x2="78.31" y2="376.03"/><polyline class="cls-4" points="83.94 377.11 83.94 378.19 83.94 379.27"/><polyline class="cls-5" points="83.94 379.27 78.31 379.27 78.31 378.19 78.31 377.11 83.94 377.11"/><line class="cls-5" x1="83.94" y1="378.19" x2="78.31" y2="378.19"/><polyline class="cls-5" points="83.94 381.43 78.31 381.43 78.31 380.35"/><line class="cls-4" x1="83.94" y1="380.35" x2="83.94" y2="381.43"/><line class="cls-5" x1="83.94" y1="380.35" x2="78.31" y2="380.35"/><line class="cls-5" x1="78.31" y1="382.55" x2="78.31" y2="381.47"/><line class="cls-4" x1="83.94" y1="381.47" x2="83.94" y2="382.55"/><line class="cls-4" x1="92" y1="392.31" x2="92" y2="392.39"/><line class="cls-4" x1="92" y1="391.19" x2="92" y2="391.22"/><line class="cls-4" x1="92" y1="389.03" x2="92" y2="390.11"/><line class="cls-4" x1="92" y1="384.71" x2="92" y2="385.79"/><line class="cls-4" x1="92" y1="381.47" x2="92" y2="382.55"/><line class="cls-4" x1="92" y1="381.43" x2="92" y2="381.47"/><line class="cls-4" x1="92" y1="380.35" x2="92" y2="381.43"/><line class="cls-4" x1="92" y1="379.27" x2="92" y2="380.35"/><polyline class="cls-4" points="92 376.03 92 377.11 92 378.19 92 379.27"/><line class="cls-4" x1="92" y1="374.95" x2="92" y2="376.03"/><polyline class="cls-4" points="92 372.79 92 373.87 92 374.95"/><line class="cls-4" x1="92" y1="371.5" x2="92" y2="372.79"/><line class="cls-4" x1="90.53" y1="372.58" x2="85.41" y2="372.58"/><line class="cls-4" x1="83.94" y1="371.5" x2="92" y2="371.5"/><line class="cls-4" x1="90.53" y1="392.39" x2="90.53" y2="372.58"/><line class="cls-4" x1="90.53" y1="392.39" x2="92" y2="392.39"/><polyline class="cls-4" points="83.94 382.55 83.94 383.63 83.94 384.71"/><polyline class="cls-5" points="83.94 384.71 78.31 384.71 78.31 383.63 78.31 382.55 83.94 382.55"/><line class="cls-5" x1="83.94" y1="383.63" x2="78.31" y2="383.63"/><line class="cls-5" x1="78.31" y1="386.87" x2="78.31" y2="385.79"/><line class="cls-4" x1="83.94" y1="385.79" x2="83.94" y2="386.87"/><line class="cls-5" x1="83.94" y1="385.79" x2="78.31" y2="385.79"/><polyline class="cls-4" points="83.94 386.87 83.94 387.95 83.94 389.03"/><polyline class="cls-5" points="83.94 389.03 78.31 389.03 78.31 387.95 78.31 386.87 83.94 386.87"/><line class="cls-5" x1="83.94" y1="387.95" x2="78.31" y2="387.95"/><polyline class="cls-5" points="83.94 391.19 78.31 391.19 78.31 390.11"/><line class="cls-4" x1="83.94" y1="390.11" x2="83.94" y2="391.19"/><line class="cls-5" x1="83.94" y1="390.11" x2="78.31" y2="390.11"/><polyline class="cls-5" points="83.94 392.31 78.31 392.31 78.31 391.22"/><line class="cls-4" x1="83.94" y1="391.22" x2="83.94" y2="392.31"/><polyline class="cls-5" points="92 382.55 97.62 382.55 97.63 382.55 97.63 384.71 97.62 384.71 92 384.71"/><polyline class="cls-4" points="92 384.71 92 383.63 92 382.55"/><line class="cls-5" x1="97.62" y1="383.63" x2="92" y2="383.63"/><line class="cls-4" x1="92" y1="386.87" x2="92" y2="385.79"/><line class="cls-5" x1="97.63" y1="385.79" x2="97.63" y2="386.87"/><line class="cls-5" x1="97.62" y1="385.79" x2="92" y2="385.79"/><polyline class="cls-5" points="92 386.87 97.62 386.87 97.63 386.87 97.63 389.03 97.62 389.03 92 389.03"/><polyline class="cls-4" points="92 389.03 92 387.95 92 386.87"/><line class="cls-5" x1="97.62" y1="387.95" x2="92" y2="387.95"/><line class="cls-4" x1="92" y1="391.19" x2="92" y2="390.11"/><polyline class="cls-5" points="97.63 390.11 97.63 391.19 97.62 391.19 92 391.19"/><line class="cls-5" x1="97.62" y1="390.11" x2="92" y2="390.11"/><line class="cls-4" x1="92" y1="392.31" x2="92" y2="391.22"/><polyline class="cls-5" points="97.63 391.22 97.63 392.31 97.62 392.31 92 392.31"/><line class="cls-4" x1="297.07" y1="372.51" x2="297.07" y2="392.33"/><line class="cls-4" x1="295.6" y1="372.72" x2="295.6" y2="371.44"/><line class="cls-4" x1="295.6" y1="375.96" x2="295.6" y2="374.88"/><line class="cls-4" x1="295.6" y1="380.28" x2="295.6" y2="379.2"/><line class="cls-4" x1="295.6" y1="381.4" x2="295.6" y2="381.36"/><line class="cls-4" x1="295.6" y1="385.72" x2="295.6" y2="384.64"/><line class="cls-4" x1="295.6" y1="390.04" x2="295.6" y2="388.96"/><line class="cls-4" x1="295.6" y1="391.15" x2="295.6" y2="391.12"/><line class="cls-4" x1="295.6" y1="392.33" x2="295.6" y2="392.23"/><line class="cls-4" x1="295.6" y1="392.33" x2="297.07" y2="392.33"/><polyline class="cls-5" points="303.67 372.72 309.29 372.72 309.29 373.8 309.29 374.88 303.67 374.88"/><line class="cls-5" x1="309.29" y1="373.8" x2="303.67" y2="373.8"/><line class="cls-5" x1="309.29" y1="375.96" x2="309.29" y2="377.04"/><line class="cls-5" x1="309.29" y1="375.96" x2="303.67" y2="375.96"/><polyline class="cls-5" points="303.67 377.04 309.29 377.04 309.29 378.12 309.29 379.2 303.67 379.2"/><line class="cls-5" x1="309.29" y1="378.12" x2="303.67" y2="378.12"/><polyline class="cls-5" points="309.29 380.28 309.29 381.36 303.67 381.36"/><line class="cls-5" x1="309.29" y1="380.28" x2="303.67" y2="380.28"/><line class="cls-5" x1="309.29" y1="381.4" x2="309.29" y2="382.48"/><polyline class="cls-4" points="295.6 372.72 295.6 373.8 295.6 374.88"/><line class="cls-5" x1="289.98" y1="372.72" x2="295.6" y2="372.72"/><line class="cls-5" x1="295.6" y1="374.88" x2="289.98" y2="374.88"/><line class="cls-5" x1="295.6" y1="373.8" x2="289.98" y2="373.8"/><line class="cls-4" x1="295.6" y1="375.96" x2="295.6" y2="377.04"/><line class="cls-5" x1="295.6" y1="375.96" x2="289.98" y2="375.96"/><polyline class="cls-4" points="295.6 377.04 295.6 378.12 295.6 379.2"/><line class="cls-5" x1="289.98" y1="377.04" x2="295.6" y2="377.04"/><line class="cls-5" x1="295.6" y1="379.2" x2="289.98" y2="379.2"/><line class="cls-5" x1="295.6" y1="378.12" x2="289.98" y2="378.12"/><line class="cls-5" x1="295.6" y1="381.36" x2="289.98" y2="381.36"/><line class="cls-4" x1="295.6" y1="380.28" x2="295.6" y2="381.36"/><line class="cls-5" x1="295.6" y1="380.28" x2="289.98" y2="380.28"/><line class="cls-4" x1="295.6" y1="381.4" x2="295.6" y2="382.48"/><line class="cls-4" x1="303.67" y1="392.23" x2="303.67" y2="392.32"/><line class="cls-4" x1="303.67" y1="391.12" x2="303.67" y2="391.15"/><line class="cls-4" x1="303.67" y1="388.96" x2="303.67" y2="390.04"/><line class="cls-4" x1="303.67" y1="384.64" x2="303.67" y2="385.72"/><line class="cls-4" x1="303.67" y1="381.4" x2="303.67" y2="382.48"/><line class="cls-4" x1="303.67" y1="381.36" x2="303.67" y2="381.4"/><line class="cls-4" x1="303.67" y1="380.28" x2="303.67" y2="381.36"/><line class="cls-4" x1="303.67" y1="379.2" x2="303.67" y2="380.28"/><polyline class="cls-4" points="303.67 375.96 303.67 377.04 303.67 378.12 303.67 379.2"/><line class="cls-4" x1="303.67" y1="374.88" x2="303.67" y2="375.96"/><polyline class="cls-4" points="303.67 372.72 303.67 373.8 303.67 374.88"/><line class="cls-4" x1="303.67" y1="371.43" x2="303.67" y2="372.72"/><line class="cls-4" x1="302.2" y1="372.51" x2="297.07" y2="372.51"/><line class="cls-4" x1="295.6" y1="371.43" x2="303.67" y2="371.43"/><line class="cls-4" x1="302.2" y1="392.32" x2="302.2" y2="372.51"/><line class="cls-4" x1="302.2" y1="392.32" x2="303.67" y2="392.32"/><polyline class="cls-4" points="295.6 382.48 295.6 383.56 295.6 384.64"/><line class="cls-5" x1="289.98" y1="382.48" x2="295.6" y2="382.48"/><line class="cls-5" x1="295.6" y1="384.64" x2="289.98" y2="384.64"/><line class="cls-5" x1="295.6" y1="383.56" x2="289.98" y2="383.56"/><line class="cls-4" x1="295.6" y1="385.72" x2="295.6" y2="386.8"/><line class="cls-5" x1="295.6" y1="385.72" x2="289.98" y2="385.72"/><polyline class="cls-4" points="295.6 386.8 295.6 387.88 295.6 388.96"/><line class="cls-5" x1="289.98" y1="386.8" x2="295.6" y2="386.8"/><line class="cls-5" x1="295.6" y1="388.96" x2="289.98" y2="388.96"/><line class="cls-5" x1="295.6" y1="387.88" x2="289.98" y2="387.88"/><line class="cls-5" x1="295.6" y1="391.12" x2="289.98" y2="391.12"/><line class="cls-4" x1="295.6" y1="390.04" x2="295.6" y2="391.12"/><line class="cls-5" x1="295.6" y1="390.04" x2="289.98" y2="390.04"/><line class="cls-5" x1="295.6" y1="392.23" x2="289.98" y2="392.23"/><line class="cls-4" x1="295.6" y1="391.15" x2="295.6" y2="392.23"/><polyline class="cls-5" points="303.67 382.48 309.29 382.48 309.29 383.56 309.29 384.64 303.67 384.64"/><polyline class="cls-4" points="303.67 384.64 303.67 383.56 303.67 382.48"/><line class="cls-5" x1="309.29" y1="383.56" x2="303.67" y2="383.56"/><line class="cls-4" x1="303.67" y1="386.8" x2="303.67" y2="385.72"/><line class="cls-5" x1="309.29" y1="385.72" x2="309.29" y2="386.8"/><line class="cls-5" x1="309.29" y1="385.72" x2="303.67" y2="385.72"/><polyline class="cls-5" points="303.67 386.8 309.29 386.8 309.29 387.88 309.29 388.96 303.67 388.96"/><polyline class="cls-4" points="303.67 388.96 303.67 387.88 303.67 386.8"/><line class="cls-5" x1="309.29" y1="387.88" x2="303.67" y2="387.88"/><line class="cls-4" x1="303.67" y1="391.12" x2="303.67" y2="390.04"/><polyline class="cls-5" points="309.29 390.04 309.29 391.12 303.67 391.12"/><line class="cls-5" x1="309.29" y1="390.04" x2="303.67" y2="390.04"/><line class="cls-4" x1="303.67" y1="392.23" x2="303.67" y2="391.15"/><polyline class="cls-5" points="309.29 391.15 309.29 392.23 303.67 392.23"/><polyline class="cls-4" points="97.62 364.18 100.14 364.18 100.14 399.71 95.42 399.71 95.42 397.36"/><line class="cls-4" x1="97.62" y1="372.79" x2="97.62" y2="364.18"/><polyline class="cls-4" points="97.62 374.95 97.62 373.87 97.62 372.79"/><line class="cls-4" x1="97.62" y1="376.03" x2="97.62" y2="374.95"/><polyline class="cls-4" points="97.62 379.27 97.62 378.19 97.62 377.11 97.62 376.03"/><line class="cls-4" x1="97.62" y1="380.35" x2="97.62" y2="379.27"/><line class="cls-4" x1="97.62" y1="381.43" x2="97.62" y2="380.35"/><line class="cls-4" x1="97.62" y1="381.47" x2="97.62" y2="381.43"/><line class="cls-4" x1="97.62" y1="382.55" x2="97.62" y2="381.47"/><polyline class="cls-4" points="95.42 397.36 97.62 397.36 97.62 392.31 97.62 391.19 97.62 390.11 97.62 389.03 97.62 387.95 97.62 386.87 97.62 385.79 97.62 384.71 97.62 383.63 97.62 382.55"/><polyline class="cls-4" points="289.98 364.18 287.46 364.18 287.46 399.71 292.19 399.71 292.19 397.36"/><line class="cls-4" x1="289.98" y1="372.72" x2="289.98" y2="364.18"/><polyline class="cls-4" points="289.98 374.88 289.98 373.8 289.98 372.72"/><line class="cls-4" x1="289.98" y1="375.96" x2="289.98" y2="374.88"/><polyline class="cls-4" points="289.98 379.2 289.98 378.12 289.98 377.04 289.98 375.96"/><line class="cls-4" x1="289.98" y1="380.28" x2="289.98" y2="379.2"/><line class="cls-4" x1="289.98" y1="381.36" x2="289.98" y2="380.28"/><line class="cls-4" x1="289.98" y1="381.4" x2="289.98" y2="381.36"/><polyline class="cls-4" points="289.98 384.64 289.98 383.56 289.98 382.48 289.98 381.4"/><line class="cls-4" x1="289.98" y1="385.72" x2="289.98" y2="384.64"/><polyline class="cls-4" points="289.98 388.96 289.98 387.88 289.98 386.8 289.98 385.72"/><line class="cls-4" x1="289.98" y1="390.04" x2="289.98" y2="388.96"/><line class="cls-4" x1="289.98" y1="391.12" x2="289.98" y2="390.04"/><line class="cls-4" x1="289.98" y1="391.15" x2="289.98" y2="391.12"/><line class="cls-4" x1="289.98" y1="392.23" x2="289.98" y2="391.15"/><polyline class="cls-4" points="292.19 397.36 289.98 397.36 289.98 392.23"/><polyline class="cls-4" points="75.77 360.59 75.77 363.1 70.12 363.1 70.12 360.59"/><line class="cls-4" x1="70.12" y1="360.59" x2="75.77" y2="360.59"/><polyline class="cls-4" points="53.73 383.01 53.73 376.5 56.25 376.5"/><polyline class="cls-4" points="56.25 405.88 53.73 405.88 53.73 385.53"/><line class="cls-4" x1="56.25" y1="376.5" x2="56.25" y2="405.88"/><line class="cls-4" x1="35.05" y1="383.01" x2="53.73" y2="383.01"/><polyline class="cls-4" points="32.53 383.01 20 383.01 20 385.53 53.73 385.53"/><polyline class="cls-4" points="9.1 383.01 14.88 383.01 14.87 385.53 9.1 385.53 9.1 385.31 9.1 383.01"/><polyline class="cls-4" points="32.53 435.63 9.1 435.63 9.1 433.11"/><polyline class="cls-4" points="39.83 433.11 39.83 435.63 35.05 435.63"/><line class="cls-4" x1="56.25" y1="433.11" x2="61" y2="433.11"/><line class="cls-4" x1="45.17" y1="433.11" x2="53.73" y2="433.11"/><line class="cls-4" x1="9.1" y1="433.11" x2="39.83" y2="433.11"/><polyline class="cls-4" points="75.77 452.48 58.62 452.48 58.62 449.96"/><line class="cls-4" x1="58.62" y1="449.96" x2="75.77" y2="449.96"/><polyline class="cls-4" points="53.73 433.11 53.73 411.71 56.25 411.71"/><line class="cls-4" x1="56.25" y1="411.71" x2="56.25" y2="433.11"/><polyline class="cls-4" points="61 433.11 61 435.63 45.17 435.63 45.17 433.11"/><polyline class="cls-4" points="32.53 473.74 32.53 441.13 35.05 441.13"/><line class="cls-4" x1="35.05" y1="452.48" x2="35.05" y2="473.74"/><line class="cls-4" x1="35.05" y1="441.13" x2="35.05" y2="449.96"/><polyline class="cls-4" points="51.82 473.74 51.82 449.96 54.34 449.96"/><line class="cls-4" x1="54.34" y1="449.96" x2="54.34" y2="473.74"/><polyline class="cls-4" points="32.53 383.01 32.53 380.77 35.05 380.77"/><line class="cls-4" x1="35.05" y1="380.77" x2="35.05" y2="383.01"/><polyline class="cls-4" points="53.73 371.51 56.25 371.51 56.42 371.51"/><polyline class="cls-4" points="56.25 371.43 56.25 363.17 56.25 363.1 61 363.1 61 360.59 56.25 360.59 9.1 360.59 9.1 363.1 32.53 363.1 32.53 363.17 32.53 376.5 35.05 376.5 35.05 363.17 35.05 363.1 53.73 363.1 53.73 363.17 53.73 371.43"/><polyline class="cls-4" points="32.53 435.63 32.53 436.96 35.05 436.96"/><line class="cls-4" x1="35.05" y1="436.96" x2="35.05" y2="435.63"/><polyline class="cls-4" points="35.05 452.48 47.67 452.48 47.67 449.96"/><line class="cls-4" x1="47.67" y1="449.96" x2="35.05" y2="449.96"/><polyline class="cls-4" points="75.77 435.63 67.2 435.63 67.2 433.11"/><line class="cls-4" x1="67.2" y1="433.11" x2="75.77" y2="433.11"/><polyline class="cls-4" points="97.63 442.24 100.15 442.24 100.15 410.13 95.42 410.13 95.42 412.25"/><line class="cls-4" x1="97.63" y1="420.08" x2="97.63" y2="442.24"/><polyline class="cls-4" points="95.42 412.48 97.63 412.48 97.63 417.57"/><polyline class="cls-4" points="86.34 412.65 83.12 412.65 83.12 410.13 91.06 410.13 91.06 412.65 88.86 412.65"/><polyline class="cls-4" points="86.34 412.65 86.34 420.09 88.8 420.09 88.86 420.09"/><line class="cls-4" x1="88.86" y1="417.57" x2="88.86" y2="412.65"/><line class="cls-4" x1="88.8" y1="420.08" x2="97.63" y2="420.08"/><polyline class="cls-4" points="97.63 417.57 88.86 417.57 88.8 417.57"/><polyline class="cls-4" points="298.46 417.57 298.4 417.57 298.4 412.65 296.2 412.65 296.2 410.13 304.13 410.13 304.13 412.65 300.92 412.65 300.92 420.08 298.46 420.08 289.63 420.08 289.63 442.24"/><polyline class="cls-4" points="287.11 442.24 287.11 410.13 291.84 410.13 291.84 412.25 291.84 412.48 289.63 412.48 289.63 417.57 298.4 417.57"/><polyline class="cls-4" points="309.35 201.96 300.33 201.96 300.33 204.48 309.35 204.48 309.35 201.96"/><polyline class="cls-4" points="257.4 201.96 295 201.96 295 204.48 257.4 204.48 257.4 201.96"/><polyline class="cls-4" points="309.35 232.41 285.83 232.41 285.83 234.93 309.35 234.93 309.35 232.41"/><polyline class="cls-4" points="257.4 232.41 279.5 232.41 279.5 234.93 257.4 234.93 257.4 232.41"/><polyline class="cls-5" points="187.25 454.86 185.45 454.86 185.45 451.74 185.45 441.59 182.97 441.59 182.97 444.63 181.17 444.63"/><polyline class="cls-5" points="187.25 454.86 187.25 439.79 181.17 439.79 181.17 444.63"/><polyline class="cls-5" points="199.61 454.86 201.41 454.86 201.41 451.74 201.41 441.59 203.89 441.59 203.89 444.63 205.69 444.63"/><polyline class="cls-5" points="199.61 454.86 199.61 439.79 205.69 439.79 205.69 444.63"/><polyline class="cls-4" points="188.13 251.98 198.55 251.98 198.55 253.46 201.08 253.46"/><polyline class="cls-4" points="199.99 249.46 201.08 249.46 201.08 253.46"/><line class="cls-4" x1="197.83" y1="249.46" x2="198.91" y2="249.46"/><line class="cls-4" x1="193.51" y1="249.46" x2="194.59" y2="249.46"/><line class="cls-4" x1="188.13" y1="249.46" x2="191.35" y2="249.46"/><polyline class="cls-4" points="188.12 269.43 193.31 264.24 198.5 259.05 188.12 259.05"/><line class="cls-4" x1="188.12" y1="259.05" x2="188.12" y2="269.43"/><line class="cls-4" x1="188.12" y1="251.98" x2="188.12" y2="256.53"/><line class="cls-4" x1="188.12" y1="242.35" x2="188.12" y2="249.46"/><line class="cls-4" x1="188.12" y1="236.1" x2="188.12" y2="239.83"/><line class="cls-4" x1="185.6" y1="233.57" x2="188.12" y2="233.57"/><polyline class="cls-4" points="201.08 271.95 195 271.95 195 269.43 198.5 269.43 198.56 269.43 198.85 269.43"/><line class="cls-4" x1="191.37" y1="269.43" x2="188.12" y2="269.43"/><polyline class="cls-4" points="185.6 233.57 185.6 271.95 191.38 271.95 191.37 269.43"/><polyline class="cls-4" points="188.12 259.05 193.31 264.24 198.5 269.43"/><line class="cls-4" x1="198.56" y1="256.53" x2="188.12" y2="256.53"/><line class="cls-4" x1="199.99" y1="245.14" x2="201.01" y2="245.14"/><line class="cls-4" x1="197.83" y1="245.14" x2="198.91" y2="245.14"/><line class="cls-4" x1="193.51" y1="245.14" x2="194.59" y2="245.14"/><polyline class="cls-4" points="190.47 246.61 190.47 245.14 191.35 245.14"/><polyline class="cls-5" points="191.35 249.46 191.35 246.67 192.43 246.67 193.51 246.67 193.51 249.46"/><polyline class="cls-4" points="193.51 249.46 192.43 249.46 191.35 249.46"/><line class="cls-5" x1="192.43" y1="246.67" x2="192.43" y2="249.46"/><polyline class="cls-4" points="201.01 246.61 199.99 246.61 197.83 246.61 193.51 246.61 190.47 246.61"/><line class="cls-4" x1="201.01" y1="246.61" x2="201.01" y2="245.14"/><line class="cls-4" x1="195.67" y1="249.46" x2="194.59" y2="249.46"/><line class="cls-5" x1="194.59" y1="246.67" x2="195.67" y2="246.67"/><line class="cls-5" x1="194.59" y1="246.67" x2="194.59" y2="249.46"/><polyline class="cls-5" points="195.67 249.46 195.67 246.67 196.75 246.67 197.83 246.67 197.83 249.46"/><polyline class="cls-4" points="197.83 249.46 196.75 249.46 195.67 249.46"/><line class="cls-5" x1="196.75" y1="246.67" x2="196.75" y2="249.46"/><line class="cls-4" x1="199.99" y1="249.46" x2="198.91" y2="249.46"/><polyline class="cls-5" points="198.91 246.67 199.99 246.67 199.99 249.46"/><line class="cls-5" x1="198.91" y1="246.67" x2="198.91" y2="249.46"/><polyline class="cls-4" points="198.56 256.53 199.45 256.53 201.08 256.53 201.08 269.43 201.08 271.95 201.08 272.23"/><line class="cls-5" x1="191.35" y1="245.14" x2="191.35" y2="242.35"/><polyline class="cls-4" points="193.51 245.14 192.43 245.14 191.35 245.14"/><line class="cls-5" x1="193.51" y1="242.35" x2="193.51" y2="245.14"/><line class="cls-5" x1="192.43" y1="242.35" x2="192.43" y2="245.14"/><line class="cls-4" x1="195.67" y1="245.14" x2="194.59" y2="245.14"/><line class="cls-5" x1="194.59" y1="242.35" x2="194.59" y2="245.14"/><line class="cls-5" x1="195.67" y1="245.14" x2="195.67" y2="242.35"/><polyline class="cls-4" points="197.83 245.14 196.75 245.14 195.67 245.14"/><line class="cls-5" x1="197.83" y1="242.35" x2="197.83" y2="245.14"/><line class="cls-5" x1="196.75" y1="242.35" x2="196.75" y2="245.14"/><line class="cls-4" x1="199.99" y1="245.14" x2="198.91" y2="245.14"/><line class="cls-5" x1="199.99" y1="242.35" x2="199.99" y2="245.14"/><line class="cls-5" x1="198.91" y1="242.35" x2="198.91" y2="245.14"/><polyline class="cls-4" points="188.12 236.09 198.55 236.09 198.55 238.35"/><polyline class="cls-4" points="188.13 233.57 201.08 233.57 201.08 237.22"/><polyline class="cls-4" points="188.13 239.83 198.55 239.83 198.55 238.35"/><polyline class="cls-4" points="199.99 242.35 201.08 242.35 201.08 237.57 201.08 237.22"/><line class="cls-4" x1="198.91" y1="242.35" x2="199.99" y2="242.35"/><line class="cls-4" x1="197.83" y1="242.35" x2="198.91" y2="242.35"/><polyline class="cls-4" points="194.59 242.35 195.67 242.35 196.75 242.35 197.83 242.35"/><line class="cls-4" x1="193.51" y1="242.35" x2="194.59" y2="242.35"/><polyline class="cls-4" points="191.35 242.35 192.43 242.35 193.51 242.35"/><line class="cls-4" x1="188.13" y1="242.35" x2="191.35" y2="242.35"/><line class="cls-4" x1="80.81" y1="100.79" x2="80.81" y2="118.94"/><line class="cls-4" x1="78.29" y1="120.71" x2="78.29" y2="98.71"/><line class="cls-4" x1="80.81" y1="118.94" x2="85.52" y2="119.94"/><line class="cls-4" x1="83" y1="121.71" x2="78.29" y2="120.71"/><polyline class="cls-4" points="85.52 135.94 102.02 135.94 102.02 171.22 99.5 171.22"/><line class="cls-4" x1="85.52" y1="119.94" x2="85.52" y2="135.94"/><polyline class="cls-4" points="99.5 171.22 99.5 138.46 83 138.46 83 121.71"/><line class="cls-4" x1="85.52" y1="82.94" x2="85.52" y2="99.68"/><line class="cls-4" x1="83" y1="97.71" x2="83" y2="84.71"/><line class="cls-4" x1="85.52" y1="99.68" x2="80.81" y2="100.68"/><line class="cls-4" x1="78.29" y1="98.71" x2="83" y2="97.71"/><line class="cls-4" x1="98.74" y1="7.48" x2="85.52" y2="7.48"/><line class="cls-4" x1="83" y1="4.96" x2="97" y2="4.96"/><line class="cls-4" x1="85.52" y1="25.68" x2="85.52" y2="25.75"/><line class="cls-4" x1="85.52" y1="7.48" x2="85.52" y2="10.71"/><line class="cls-4" x1="83" y1="10.71" x2="83" y2="4.96"/><line class="cls-4" x1="117.16" y1="2.77" x2="99.71" y2="2.77"/><line class="cls-4" x1="97.97" y1="0.25" x2="119.25" y2="0.25"/><line class="cls-4" x1="99.71" y1="2.77" x2="98.74" y2="7.48"/><line class="cls-4" x1="97" y1="4.96" x2="97.97" y2="0.25"/><polyline class="cls-4" points="118.17 7.48 117.19 2.76 117.16 2.61"/><line class="cls-4" x1="132.6" y1="7.48" x2="118.17" y2="7.48"/><polyline class="cls-4" points="119.25 0.25 120.22 4.96 130.86 4.96"/><line class="cls-4" x1="80.81" y1="63.79" x2="80.81" y2="81.94"/><line class="cls-4" x1="78.29" y1="83.71" x2="78.29" y2="61.71"/><line class="cls-4" x1="80.81" y1="81.94" x2="85.52" y2="82.94"/><line class="cls-4" x1="83" y1="84.71" x2="78.29" y2="83.71"/><line class="cls-4" x1="85.52" y1="45.94" x2="85.52" y2="62.68"/><line class="cls-4" x1="83" y1="60.71" x2="83" y2="47.71"/><line class="cls-4" x1="85.52" y1="62.68" x2="80.81" y2="63.68"/><line class="cls-4" x1="78.29" y1="61.71" x2="83" y2="60.71"/><line class="cls-4" x1="80.81" y1="26.79" x2="80.81" y2="44.94"/><line class="cls-4" x1="78.29" y1="46.71" x2="78.29" y2="24.71"/><line class="cls-4" x1="80.81" y1="44.94" x2="85.52" y2="45.94"/><line class="cls-4" x1="83" y1="47.71" x2="78.29" y2="46.71"/><line class="cls-4" x1="85.52" y1="10.71" x2="85.52" y2="25.68"/><line class="cls-4" x1="83" y1="23.71" x2="83" y2="10.71"/><line class="cls-4" x1="85.52" y1="25.68" x2="80.81" y2="26.68"/><line class="cls-4" x1="78.29" y1="24.71" x2="83" y2="23.71"/><line class="cls-4" x1="306.94" y1="100.79" x2="306.94" y2="118.94"/><line class="cls-4" x1="309.46" y1="120.71" x2="309.46" y2="98.71"/><line class="cls-4" x1="306.94" y1="118.94" x2="302.23" y2="119.94"/><line class="cls-4" x1="304.75" y1="121.71" x2="309.46" y2="120.71"/><polyline class="cls-4" points="302.23 135.94 285.73 135.94 285.73 171.22 288.25 171.22"/><line class="cls-4" x1="302.23" y1="119.94" x2="302.23" y2="135.94"/><polyline class="cls-4" points="288.25 171.22 288.25 138.46 304.75 138.46 304.75 121.71"/><line class="cls-4" x1="302.23" y1="82.94" x2="302.23" y2="99.68"/><line class="cls-4" x1="304.75" y1="97.71" x2="304.75" y2="84.71"/><line class="cls-4" x1="302.23" y1="99.68" x2="306.94" y2="100.68"/><line class="cls-4" x1="309.46" y1="98.71" x2="304.75" y2="97.71"/><line class="cls-4" x1="302.23" y1="25.68" x2="302.23" y2="25.75"/><line class="cls-4" x1="302.23" y1="7.48" x2="302.23" y2="10.71"/><line class="cls-4" x1="304.75" y1="10.71" x2="304.75" y2="4.96"/><line class="cls-4" x1="306.94" y1="63.79" x2="306.94" y2="81.94"/><line class="cls-4" x1="309.46" y1="83.71" x2="309.46" y2="61.71"/><line class="cls-4" x1="306.94" y1="81.94" x2="302.23" y2="82.94"/><line class="cls-4" x1="304.75" y1="84.71" x2="309.46" y2="83.71"/><line class="cls-4" x1="302.23" y1="45.94" x2="302.23" y2="62.68"/><line class="cls-4" x1="304.75" y1="60.71" x2="304.75" y2="47.71"/><line class="cls-4" x1="302.23" y1="62.68" x2="306.94" y2="63.68"/><line class="cls-4" x1="309.46" y1="61.71" x2="304.75" y2="60.71"/><line class="cls-4" x1="306.94" y1="26.79" x2="306.94" y2="44.94"/><line class="cls-4" x1="309.46" y1="46.71" x2="309.46" y2="24.71"/><line class="cls-4" x1="306.94" y1="44.94" x2="302.23" y2="45.94"/><line class="cls-4" x1="304.75" y1="47.71" x2="309.46" y2="46.71"/><line class="cls-4" x1="302.23" y1="10.71" x2="302.23" y2="25.68"/><line class="cls-4" x1="304.75" y1="23.71" x2="304.75" y2="10.71"/><line class="cls-4" x1="302.23" y1="25.68" x2="306.94" y2="26.68"/><line class="cls-4" x1="309.46" y1="24.71" x2="304.75" y2="23.71"/><line class="cls-4" x1="151.02" y1="2.77" x2="133.57" y2="2.77"/><line class="cls-4" x1="131.83" y1="0.25" x2="153.11" y2="0.25"/><line class="cls-4" x1="133.57" y1="2.77" x2="132.6" y2="7.48"/><line class="cls-4" x1="130.86" y1="4.96" x2="131.83" y2="0.25"/><polyline class="cls-4" points="152.03 7.48 151.05 2.76 151.02 2.61"/><line class="cls-4" x1="166.26" y1="7.48" x2="152.03" y2="7.48"/><polyline class="cls-4" points="153.11 0.25 154.08 4.96 164.52 4.96 164.72 4.96"/><line class="cls-4" x1="184.68" y1="2.77" x2="167.23" y2="2.77"/><line class="cls-4" x1="165.49" y1="0.25" x2="186.77" y2="0.25"/><polyline class="cls-4" points="167.23 2.77 166.7 5.37 166.69 5.37 166.26 7.48"/><line class="cls-4" x1="164.52" y1="4.96" x2="165.49" y2="0.25"/><polyline class="cls-4" points="185.69 7.48 184.71 2.76 184.68 2.61"/><line class="cls-4" x1="200.12" y1="7.48" x2="185.69" y2="7.48"/><polyline class="cls-4" points="186.77 0.25 187.74 4.96 198.38 4.96"/><line class="cls-4" x1="218.55" y1="2.77" x2="201.09" y2="2.77"/><line class="cls-4" x1="199.35" y1="0.25" x2="220.64" y2="0.25"/><line class="cls-4" x1="201.09" y1="2.77" x2="200.12" y2="7.48"/><line class="cls-4" x1="198.38" y1="4.96" x2="199.35" y2="0.25"/><polyline class="cls-4" points="219.55 7.48 218.58 2.76 218.55 2.61"/><line class="cls-4" x1="233.99" y1="7.48" x2="219.55" y2="7.48"/><polyline class="cls-4" points="220.64 0.25 221.6 4.96 232.24 4.96"/><line class="cls-4" x1="252.41" y1="2.77" x2="234.95" y2="2.77"/><line class="cls-4" x1="233.21" y1="0.25" x2="254.5" y2="0.25"/><line class="cls-4" x1="234.95" y1="2.77" x2="233.99" y2="7.48"/><line class="cls-4" x1="232.24" y1="4.96" x2="233.21" y2="0.25"/><polyline class="cls-4" points="253.41 7.48 252.44 2.76 252.41 2.61"/><line class="cls-4" x1="267.85" y1="7.48" x2="253.41" y2="7.48"/><polyline class="cls-4" points="254.5 0.25 255.46 4.96 266.11 4.96"/><line class="cls-4" x1="286.27" y1="2.77" x2="268.81" y2="2.77"/><line class="cls-4" x1="267.07" y1="0.25" x2="288.36" y2="0.25"/><line class="cls-4" x1="268.81" y1="2.77" x2="267.85" y2="7.48"/><line class="cls-4" x1="266.11" y1="4.96" x2="267.07" y2="0.25"/><polyline class="cls-4" points="287.27 7.48 286.3 2.76 286.27 2.61"/><line class="cls-4" x1="302.23" y1="7.48" x2="287.27" y2="7.48"/><line class="cls-4" x1="289.33" y1="4.96" x2="304.75" y2="4.96"/><line class="cls-4" x1="288.36" y1="0.25" x2="289.33" y2="4.96"/><line class="cls-4" x1="109.51" y1="367.3" x2="117.15" y2="367.3"/><line class="cls-4" x1="109.17" y1="364.18" x2="109.51" y2="367.3"/><line class="cls-4" x1="117.15" y1="367.3" x2="117.5" y2="364.18"/><line class="cls-4" x1="131.74" y1="367.3" x2="139.38" y2="367.3"/><line class="cls-4" x1="131.4" y1="364.18" x2="131.74" y2="367.3"/><line class="cls-4" x1="139.38" y1="367.3" x2="139.73" y2="364.18"/><line class="cls-4" x1="155.13" y1="367.3" x2="162.77" y2="367.3"/><line class="cls-4" x1="154.78" y1="364.18" x2="155.13" y2="367.3"/><line class="cls-4" x1="162.77" y1="367.3" x2="163.12" y2="364.18"/><line class="cls-4" x1="177.94" y1="367.3" x2="185.58" y2="367.3"/><line class="cls-4" x1="177.59" y1="364.18" x2="177.94" y2="367.3"/><polyline class="cls-4" points="185.58 367.3 185.9 364.36 185.92 364.18"/><polyline class="cls-4" points="185.92 364.36 187.22 364.36 187.22 361.84"/><line class="cls-4" x1="187.22" y1="361.84" x2="181.98" y2="361.84"/><line class="cls-4" x1="255.65" y1="364.18" x2="269.54" y2="364.18"/><line class="cls-4" x1="232.26" y1="364.18" x2="247.31" y2="364.18"/><line class="cls-4" x1="209.45" y1="364.18" x2="223.93" y2="364.18"/><line class="cls-4" x1="277.53" y1="367.3" x2="269.89" y2="367.3"/><line class="cls-4" x1="277.88" y1="364.18" x2="277.53" y2="367.3"/><line class="cls-4" x1="269.89" y1="367.3" x2="269.54" y2="364.18"/><line class="cls-4" x1="255.3" y1="367.3" x2="247.66" y2="367.3"/><line class="cls-4" x1="255.65" y1="364.18" x2="255.3" y2="367.3"/><line class="cls-4" x1="247.66" y1="367.3" x2="247.31" y2="364.18"/><line class="cls-4" x1="231.91" y1="367.3" x2="224.27" y2="367.3"/><line class="cls-4" x1="232.26" y1="364.18" x2="231.91" y2="367.3"/><line class="cls-4" x1="224.27" y1="367.3" x2="223.93" y2="364.18"/><line class="cls-4" x1="209.11" y1="367.3" x2="201.47" y2="367.3"/><line class="cls-4" x1="209.45" y1="364.18" x2="209.11" y2="367.3"/><polyline class="cls-4" points="201.47 367.3 201.14 364.36 201.12 364.18"/><polyline class="cls-4" points="201.12 364.36 199.82 364.36 199.82 361.84"/><line class="cls-4" x1="199.82" y1="361.84" x2="205.47" y2="361.84"/><line class="cls-4" x1="109.31" y1="461.7" x2="116.95" y2="461.7"/><line class="cls-4" x1="116.95" y1="461.7" x2="117.29" y2="458.59"/><line class="cls-4" x1="131.54" y1="461.7" x2="139.18" y2="461.7"/><line class="cls-4" x1="131.19" y1="458.59" x2="131.54" y2="461.7"/><line class="cls-4" x1="139.18" y1="461.7" x2="139.52" y2="458.59"/><line class="cls-4" x1="154.92" y1="461.7" x2="162.56" y2="461.7"/><line class="cls-4" x1="162.91" y1="458.59" x2="162.56" y2="461.7"/><path class="cls-5" d="M155,462v36.21h7.6s0-.31,0-.87c0-.89,0-2.4,0-4.32,0-.67,0-1.4,0-2.16s0-1.41,0-2.16,0-1.42,0-2.16c0-1.43,0-2.92,0-4.44,0-.71,0-1.44,0-2.16,0-8.37-.08-16.71-.09-17.94v-.15"/><line class="cls-4" x1="154.92" y1="461.7" x2="154.58" y2="458.59"/><line class="cls-4" x1="177.73" y1="461.7" x2="185.37" y2="461.7"/><line class="cls-4" x1="177.38" y1="458.59" x2="177.73" y2="461.7"/><line class="cls-4" x1="185.37" y1="461.7" x2="185.72" y2="458.59"/><line class="cls-4" x1="277.32" y1="461.7" x2="269.68" y2="461.7"/><line class="cls-4" x1="277.67" y1="458.59" x2="277.32" y2="461.7"/><line class="cls-4" x1="269.68" y1="461.7" x2="269.34" y2="458.59"/><line class="cls-4" x1="255.09" y1="461.7" x2="247.45" y2="461.7"/><line class="cls-4" x1="255.44" y1="458.59" x2="255.09" y2="461.7"/><line class="cls-4" x1="247.45" y1="461.7" x2="247.11" y2="458.59"/><polyline class="cls-4" points="231.71 461.7 231.7 461.7 224.07 461.7"/><line class="cls-4" x1="232.05" y1="458.59" x2="231.71" y2="461.7"/><line class="cls-4" x1="224.07" y1="461.7" x2="223.72" y2="458.59"/><line class="cls-4" x1="208.9" y1="461.7" x2="201.26" y2="461.7"/><line class="cls-4" x1="209.25" y1="458.59" x2="208.9" y2="461.7"/><line class="cls-4" x1="201.26" y1="461.7" x2="200.91" y2="458.59"/><line class="cls-4" x1="109.31" y1="451.74" x2="116.95" y2="451.74"/><line class="cls-4" x1="108.96" y1="454.86" x2="109.31" y2="451.74"/><line class="cls-4" x1="116.95" y1="451.74" x2="117.29" y2="454.86"/><line class="cls-4" x1="131.54" y1="451.74" x2="139.18" y2="451.74"/><line class="cls-4" x1="131.19" y1="454.86" x2="131.54" y2="451.74"/><line class="cls-4" x1="139.18" y1="451.74" x2="139.52" y2="454.86"/><line class="cls-4" x1="154.92" y1="451.74" x2="162.56" y2="451.74"/><line class="cls-4" x1="154.58" y1="454.86" x2="154.92" y2="451.74"/><line class="cls-4" x1="162.56" y1="451.74" x2="162.91" y2="454.86"/><line class="cls-4" x1="177.73" y1="451.74" x2="185.37" y2="451.74"/><line class="cls-4" x1="177.38" y1="454.86" x2="177.73" y2="451.74"/><line class="cls-4" x1="277.32" y1="451.74" x2="269.68" y2="451.74"/><line class="cls-4" x1="277.67" y1="454.86" x2="277.32" y2="451.74"/><line class="cls-4" x1="269.68" y1="451.74" x2="269.34" y2="454.86"/><line class="cls-4" x1="255.09" y1="451.74" x2="247.45" y2="451.74"/><line class="cls-4" x1="255.44" y1="454.86" x2="255.09" y2="451.74"/><line class="cls-4" x1="247.45" y1="451.74" x2="247.11" y2="454.86"/><line class="cls-4" x1="231.71" y1="451.74" x2="224.07" y2="451.74"/><line class="cls-4" x1="232.05" y1="454.86" x2="231.71" y2="451.74"/><line class="cls-4" x1="224.07" y1="451.74" x2="223.72" y2="454.86"/><line class="cls-4" x1="208.9" y1="451.74" x2="201.41" y2="451.74"/><line class="cls-4" x1="209.25" y1="454.86" x2="208.9" y2="451.74"/><line class="cls-4" x1="155.12" y1="278.76" x2="162.76" y2="278.76"/><line class="cls-4" x1="154.77" y1="281.49" x2="155.12" y2="278.76"/><line class="cls-4" x1="162.76" y1="278.76" x2="163.11" y2="281.49"/><line class="cls-4" x1="177.93" y1="278.76" x2="185.57" y2="278.76"/><line class="cls-4" x1="177.58" y1="281.49" x2="177.93" y2="278.76"/><polyline class="cls-4" points="185.57 278.76 185.89 281.69 185.91 281.87"/><polyline class="cls-4" points="185.91 281.69 187.21 281.69 187.21 284.21"/><line class="cls-4" x1="187.21" y1="284.21" x2="181.98" y2="284.21"/><line class="cls-4" x1="231.9" y1="278.76" x2="224.26" y2="278.76"/><line class="cls-4" x1="232.25" y1="281.49" x2="231.9" y2="278.76"/><line class="cls-4" x1="224.26" y1="278.76" x2="223.92" y2="281.49"/><line class="cls-4" x1="209.1" y1="278.76" x2="201.46" y2="278.76"/><line class="cls-4" x1="209.44" y1="281.49" x2="209.1" y2="278.76"/><polyline class="cls-4" points="201.46 278.76 201.13 281.69 201.11 281.87"/><polyline class="cls-4" points="201.11 281.69 199.81 281.69 199.81 284.21"/><line class="cls-4" x1="199.81" y1="284.21" x2="205.46" y2="284.21"/><line class="cls-4" x1="14.06" y1="480.45" x2="21.69" y2="480.45"/><line class="cls-4" x1="13.71" y1="477.34" x2="14.06" y2="480.45"/><line class="cls-4" x1="21.69" y1="480.45" x2="22.04" y2="477.34"/><line class="cls-4" x1="25.78" y1="480.45" x2="31" y2="480.45"/><line class="cls-4" x1="25.54" y1="477.34" x2="25.78" y2="480.45"/><line class="cls-4" x1="31" y1="480.45" x2="31.24" y2="477.34"/><line class="cls-4" x1="69.42" y1="480.45" x2="61.78" y2="480.45"/><line class="cls-4" x1="69.76" y1="477.34" x2="69.42" y2="480.45"/><line class="cls-4" x1="61.78" y1="480.45" x2="61.43" y2="477.34"/><line class="cls-4" x1="57.7" y1="480.45" x2="52.47" y2="480.45"/><line class="cls-4" x1="57.94" y1="477.34" x2="57.7" y2="480.45"/><line class="cls-4" x1="52.47" y1="480.45" x2="52.24" y2="477.34"/><line class="cls-4" x1="317.06" y1="480.45" x2="324.69" y2="480.45"/><line class="cls-4" x1="316.71" y1="477.34" x2="317.06" y2="480.45"/><line class="cls-4" x1="324.69" y1="480.45" x2="325.04" y2="477.34"/><line class="cls-4" x1="328.78" y1="480.45" x2="334" y2="480.45"/><line class="cls-4" x1="328.54" y1="477.34" x2="328.78" y2="480.45"/><line class="cls-4" x1="334" y1="480.45" x2="334.24" y2="477.34"/><line class="cls-4" x1="372.42" y1="480.45" x2="364.78" y2="480.45"/><line class="cls-4" x1="372.76" y1="477.34" x2="372.42" y2="480.45"/><line class="cls-4" x1="364.78" y1="480.45" x2="364.43" y2="477.34"/><line class="cls-4" x1="360.7" y1="480.45" x2="355.47" y2="480.45"/><line class="cls-4" x1="360.94" y1="477.34" x2="360.7" y2="480.45"/><line class="cls-4" x1="355.47" y1="480.45" x2="355.24" y2="477.34"/><line class="cls-4" x1="14.13" y1="155.56" x2="21.77" y2="155.56"/><line class="cls-4" x1="13.79" y1="158.68" x2="14.13" y2="155.56"/><line class="cls-4" x1="21.77" y1="155.56" x2="22.12" y2="158.68"/><line class="cls-4" x1="25.85" y1="155.56" x2="31.08" y2="155.56"/><line class="cls-4" x1="25.62" y1="158.68" x2="25.85" y2="155.56"/><line class="cls-4" x1="31.08" y1="155.56" x2="31.32" y2="158.68"/><line class="cls-4" x1="69.5" y1="155.56" x2="61.86" y2="155.56"/><line class="cls-4" x1="69.84" y1="158.68" x2="69.5" y2="155.56"/><line class="cls-4" x1="61.86" y1="155.56" x2="61.51" y2="158.68"/><line class="cls-4" x1="57.78" y1="155.56" x2="52.55" y2="155.56"/><line class="cls-4" x1="58.01" y1="158.68" x2="57.78" y2="155.56"/><line class="cls-4" x1="52.55" y1="155.56" x2="52.31" y2="158.68"/><line class="cls-4" x1="317.13" y1="155.56" x2="324.77" y2="155.56"/><line class="cls-4" x1="316.79" y1="158.68" x2="317.13" y2="155.56"/><line class="cls-4" x1="324.77" y1="155.56" x2="325.12" y2="158.68"/><line class="cls-4" x1="328.85" y1="155.56" x2="334.08" y2="155.56"/><line class="cls-4" x1="328.62" y1="158.68" x2="328.85" y2="155.56"/><line class="cls-4" x1="334.08" y1="155.56" x2="334.32" y2="158.68"/><line class="cls-4" x1="372.5" y1="155.56" x2="364.86" y2="155.56"/><line class="cls-4" x1="372.84" y1="158.68" x2="372.5" y2="155.56"/><line class="cls-4" x1="364.86" y1="155.56" x2="364.51" y2="158.68"/><line class="cls-4" x1="360.78" y1="155.56" x2="355.55" y2="155.56"/><line class="cls-4" x1="361.01" y1="158.68" x2="360.78" y2="155.56"/><line class="cls-4" x1="355.55" y1="155.56" x2="355.31" y2="158.68"/><polyline class="cls-4" points="290.02 461.78 280.23 461.78 280.23 458.52 277.67 458.52 277.51 458.52"/><line class="cls-4" x1="0.83" y1="365.54" x2="0.83" y2="361"/><polyline class="cls-4" points="5.54 365.74 5.5 365.74 0.83 365.54"/><polyline class="cls-4" points="0.83 361 5.5 360.79 5.54 360.79"/><line class="cls-4" x1="0.83" y1="346.87" x2="0.83" y2="342.33"/><polyline class="cls-4" points="5.54 347.08 5.5 347.08 0.83 346.87"/><polyline class="cls-4" points="0.83 342.33 5.5 342.13 5.54 342.13"/><line class="cls-4" x1="0.83" y1="328.1" x2="0.83" y2="323.57"/><polyline class="cls-4" points="5.54 328.31 5.5 328.31 0.83 328.1"/><polyline class="cls-4" points="0.83 323.57 5.5 323.36 5.54 323.36"/><line class="cls-4" x1="0.83" y1="310.15" x2="0.83" y2="305.62"/><polyline class="cls-4" points="5.54 310.36 5.5 310.36 0.83 310.15"/><polyline class="cls-4" points="0.83 305.62 5.5 305.41 5.54 305.41"/><line class="cls-4" x1="0.83" y1="291.49" x2="0.83" y2="286.95"/><polyline class="cls-4" points="5.54 291.7 5.5 291.7 0.83 291.49"/><polyline class="cls-4" points="0.83 286.95 5.5 286.74 5.54 286.74"/><line class="cls-4" x1="0.83" y1="272.72" x2="0.83" y2="268.18"/><polyline class="cls-4" points="5.54 272.93 5.5 272.93 0.83 272.72"/><polyline class="cls-4" points="0.83 268.18 5.5 267.98 5.54 267.98"/><line class="cls-4" x1="386.9" y1="365.54" x2="386.9" y2="361"/><line class="cls-4" x1="382.19" y1="365.74" x2="386.9" y2="365.54"/><line class="cls-4" x1="386.9" y1="361" x2="382.19" y2="360.79"/><line class="cls-4" x1="386.9" y1="346.87" x2="386.9" y2="342.33"/><line class="cls-4" x1="382.19" y1="347.08" x2="386.9" y2="346.87"/><line class="cls-4" x1="386.9" y1="342.33" x2="382.19" y2="342.13"/><line class="cls-4" x1="386.9" y1="328.1" x2="386.9" y2="323.57"/><line class="cls-4" x1="382.19" y1="328.31" x2="386.9" y2="328.1"/><line class="cls-4" x1="386.9" y1="323.57" x2="382.19" y2="323.36"/><line class="cls-4" x1="386.9" y1="310.15" x2="386.9" y2="305.62"/><line class="cls-4" x1="382.19" y1="310.36" x2="386.9" y2="310.15"/><line class="cls-4" x1="386.9" y1="305.62" x2="382.19" y2="305.41"/><line class="cls-4" x1="386.9" y1="291.49" x2="386.9" y2="286.95"/><line class="cls-4" x1="382.19" y1="291.7" x2="386.9" y2="291.49"/><line class="cls-4" x1="386.9" y1="286.95" x2="382.19" y2="286.74"/><line class="cls-4" x1="386.9" y1="272.72" x2="386.9" y2="268.18"/><line class="cls-4" x1="382.19" y1="272.93" x2="386.9" y2="272.72"/><line class="cls-4" x1="386.9" y1="268.18" x2="382.19" y2="267.98"/><polyline class="cls-5" points="201.26 461.85 208.9 461.85 224.28 461.85 228.07 461.85 231.7 461.85 255.09 461.85 269.68 461.85 277.32 461.85"/><polyline class="cls-5" points="109.31 461.85 116.95 461.85 139.18 461.85 154.96 461.85 158.74 461.85 162.38 461.85 162.56 461.85 177.73 461.85 185.37 461.85"/><line class="cls-5" x1="231.79" y1="477.34" x2="308.27" y2="477.34"/><line class="cls-5" x1="79.38" y1="477.34" x2="154.96" y2="477.34"/><line class="cls-5" x1="158.74" y1="494.59" x2="158.74" y2="461.85"/><polyline class="cls-5" points="154.96 498.04 158.67 494.59 158.71 494.62 162.56 498.21"/><path class="cls-5" d="M224.28,461.91v36.21h7.61s0-10.91-.11-20.78c0-7.46-.07-14.32-.08-15.43v-.15"/><polyline class="cls-5" points="228.07 494.5 228.07 461.85 228.07 461.76"/><polyline class="cls-5" points="224.28 497.95 227.99 494.5 228.03 494.54 231.89 498.12"/><rect class="cls-5" x="162.56" y="484.38" width="61.7" height="2.16"/><line class="cls-5" x1="224.26" y1="488.7" x2="162.56" y2="488.7"/><line class="cls-5" x1="224.26" y1="490.86" x2="162.56" y2="490.86"/><line class="cls-5" x1="224.26" y1="493.02" x2="162.56" y2="493.02"/><rect class="cls-5" x="162.56" y="495.18" width="61.71" height="2.16"/><line class="cls-5" x1="158.95" y1="499.5" x2="227.89" y2="499.5"/><polyline class="cls-5" points="227.89 498.12 227.89 499.5 227.89 501.66 158.95 501.66 158.95 499.5 158.95 498.21 158.95 498.12"/><rect class="cls-5" x="162.56" y="477.78" width="61.7" height="2.16"/><line class="cls-5" x1="224.26" y1="482.1" x2="162.56" y2="482.1"/></svg>