<svg xmlns="http://www.w3.org/2000/svg" viewBox="0 0 57.07 53.57"><defs><style>.cls-1{fill:#fff;}</style></defs><title>asterisk-white</title><g id="Layer_2" data-name="Layer 2"><g id="Layer_1-2" data-name="Layer 1"><path class="cls-1" d="M56.77,22.09c-.17-.45-.57-1.26-1.19-1.26h0q-3.49.27-7,.72c-1.86.25-3.72.54-5.59.76s-4,.44-5.93.57l1.08-1.11A174.21,174.21,0,0,0,50.51,8.25,3.31,3.31,0,0,0,51,7a4.45,4.45,0,0,0-.18-2.29,1.8,1.8,0,0,0-.62-.91c-.47-.28-.84,0-1.14.36-.72.92-1.48,1.8-2.24,2.68-.5.59-1,1.2-1.51,1.76l-3.69,3.85C38,16,34.48,19.56,30.91,23.08h-.09l0,0c-1-1.61-2-3.24-2.93-4.88-1.89-3.27-3.64-6.62-5.36-10C22,7.11,21.41,6.07,20.86,5c-.37-.71-.74-1.4-1.13-2.09S19,1.79,18.62,1.22A3.49,3.49,0,0,0,18,.47L17.66.19A2.7,2.7,0,0,0,16.82,0a1,1,0,0,0-.76.5,3.26,3.26,0,0,0-.47,1.27,18.49,18.49,0,0,0-.27,3.4L15.26,7c-.07,1.49-.16,3-.25,4.46-.2,2.41-.4,4.82-.81,7.2-.23,1.38-.41,2.78-.71,4.14l-.13.58c-2.31.23-4.61.58-6.9,1l-1.24.25a11.4,11.4,0,0,1-2.31.4l-.05,0C1.17,24.13.34,26.57.13,27.77c-.3,1.72-.16,4.28,1.36,5.45l.44.33a3.51,3.51,0,0,0,1.1.29,4.46,4.46,0,0,0,1.65-.3l1.44-.38c.87-.24,1.74-.49,2.61-.69l2.53-.59c-.29,1-.6,2-.89,2.94-.38,1.23-.78,2.44-1.17,3.66-.22.69-.45,1.38-.67,2.06-.34,1.06-.7,2.1-.94,3.18A18.41,18.41,0,0,0,7.28,47a6,6,0,0,0,.34,2.1c.21.54.68,1.52,1.43,1.46a2.73,2.73,0,0,0,1.18-.28A8.54,8.54,0,0,0,11.52,49c6.2-6.19,12.31-12.45,18.41-18.74,3.54,6.07,7.47,11.9,11.24,17.82a40.85,40.85,0,0,0,3.14,4.66,1.66,1.66,0,0,0,1.31.86c1,0,1.5-1.08,1.78-1.81a7.54,7.54,0,0,0,.43-2.62c0-.47-.07-.94-.11-1.4a5.51,5.51,0,0,0-.79-2.18c-2.26-2.71-4.36-5.57-6.42-8.42-1.81-2.51-3.61-5-5.36-7.57,1.44-.14,2.88-.28,4.32-.45,3.81-.45,7.58-1.33,11.4-1.7,1.56-.15,3.11-.31,4.66-.43,1.29-.1,1.54-2.13,1.54-3.08A5.15,5.15,0,0,0,56.77,22.09ZM17,22.16c.11-.76.25-1.52.32-2.28.18-2,.39-4.07.5-6.11.09-1.68.18-3.36.19-5Q18,7.85,18,7c.22.38.42.77.63,1.15,1.56,3.19,3.06,6.41,4.64,9.59.89,1.8,1.81,3.59,2.74,5.37q-3.87,0-7.76,0c-.47,0-.93,0-1.4.06C16.87,22.83,16.91,22.49,17,22.16ZM13.79,39.51c-.35.32-.7.64-1.06,1,0-.12.08-.23.11-.35.49-1.59.92-3.2,1.38-4.8.39-1.37.72-2.76,1-4.15,2-.26,3.91-.5,5.89-.68.78-.07,1.56-.12,2.35-.17-2,2-4.05,3.91-6.09,5.85C16.22,37.29,15,38.42,13.79,39.51Z"/></g></g></svg>