<svg xmlns="http://www.w3.org/2000/svg" viewBox="0 0 231.82 155.01"><defs><style>.cls-1{fill:#fb00fb;}</style></defs><title>cube-45deg</title><g id="Layer_2" data-name="Layer 2"><g id="Layer_1-2" data-name="Layer 1"><path class="cls-1" d="M153.9,1.06l1-.71a12.22,12.22,0,0,0,1,1.24q36.45,36.48,72.91,72.93c.85.85,1.68,1.74,2.57,2.54.62.57.56,1,0,1.52Q225,84.82,218.71,91.11c-4.92,4.92-9.8,9.9-14.73,14.83C196.91,113,189.8,120,182.73,127.09c-5.57,5.57-11.1,11.18-16.66,16.76-3.4,3.42-6.81,6.82-10.27,10.28l-1-.72-.24,1.18h-1.07q-36.55,0-73.12,0a14,14,0,0,0-2.27.4L0,76.93,76.35.58l.74.67L77.18,0h76.46l.09,1,.06.21Zm-1.47,75.49c-.24-.21-.53-.45-.79-.71L79.7,3.9c-1.28-1.28-1.51-1.27-2.82,0L5.12,75.71c-.37.36-.77.71-1.22,1.12L78,151Zm-70.5,75c.54,0,.73.07.93.07q35.17,0,70.37,0a2.35,2.35,0,0,0,1.5-.65Q190,115.68,225.27,80.4c.27-.27.51-.57,1-1.1h-2q-34.31,0-68.62,0a3,3,0,0,0-2.38,1q-34.94,35-69.91,69.93C83,150.57,82.57,150.92,81.93,151.52ZM83.05,3c.51.53.75.81,1,1.07q35.75,35.75,71.49,71.5a2.48,2.48,0,0,0,2,.79q33.74,0,67.49,0h1.06l.26-.4a5.58,5.58,0,0,1-1-.66Q189.61,39.59,154,3.92a2.94,2.94,0,0,0-2.27-1Q118.16,3,84.6,3ZM226,79.36l-.15.08s.06.07.08.07l.15-.08Z"/></g></g></svg>