<svg xmlns="http://www.w3.org/2000/svg" viewBox="0 0 71.68 69.91"><title>Asset 1</title><g id="Layer_2" data-name="Layer 2"><g id="Github"><g id="github-github"><path d="M35.84,0A35.84,35.84,0,0,0,24.51,69.85c1.79.33,2.45-.78,2.45-1.73s0-3.67-.05-6.67c-10,2.17-12.08-4.23-12.08-4.23-1.63-4.14-4-5.24-4-5.24-3.26-2.23.24-2.18.24-2.18,3.6.25,5.49,3.7,5.49,3.7C19.79,59,25,57.39,27,56.47a7.73,7.73,0,0,1,2.28-4.79C21.34,50.77,13,47.7,13,34a13.89,13.89,0,0,1,3.69-9.62A12.89,12.89,0,0,1,17,14.86s3-1,9.86,3.68a33.89,33.89,0,0,1,18,0c6.84-4.64,9.84-3.68,9.84-3.68A12.86,12.86,0,0,1,55,24.35,13.88,13.88,0,0,1,58.7,34c0,13.76-8.38,16.79-16.36,17.68,1.29,1.11,2.43,3.3,2.43,6.64,0,4.79,0,8.65,0,9.83,0,1,.65,2.08,2.46,1.72A35.84,35.84,0,0,0,35.84,0Z"/><path d="M13.58,51.46c-.08.18-.36.23-.62.11s-.41-.36-.32-.54a.45.45,0,0,1,.62-.11c.26.12.4.36.32.54Z"/><path d="M15,53.08c-.17.16-.51.08-.74-.17a.55.55,0,0,1-.1-.74c.18-.16.5-.09.73.16s.29.59.11.75Z"/><path d="M16.44,55.14c-.22.15-.58,0-.8-.31s-.22-.7,0-.85.58,0,.8.3.22.71,0,.86Z"/><path d="M18.38,57.13c-.2.22-.62.16-.93-.13a.69.69,0,0,1-.2-.92c.2-.21.62-.15.93.14s.4.7.2.91Z"/><path d="M21.05,58.29c-.09.28-.49.41-.9.29s-.67-.45-.59-.73.49-.42.9-.29.67.45.59.73Z"/><path d="M24,58.51c0,.29-.33.54-.76.54s-.78-.23-.78-.52.34-.54.76-.54.78.22.78.52Z"/><path d="M26.71,58c.05.29-.25.59-.67.67s-.8-.1-.85-.39.25-.59.66-.67.81.1.86.39Z"/></g></g></g></svg>