<?xml version="1.0" encoding="utf-8"?>
<!-- Generator: Adobe Illustrator 22.1.0, SVG Export Plug-In . SVG Version: 6.00 Build 0)  -->
<svg version="1.1" id="Layer_1" xmlns="http://www.w3.org/2000/svg" xmlns:xlink="http://www.w3.org/1999/xlink" x="0px" y="0px"
	 viewBox="0 0 781.6 130.1" style="enable-background:new 0 0 781.6 130.1;" xml:space="preserve">
<style type="text/css">
	.st0{fill:#75E3F0;stroke:#75E3F0;stroke-width:2.4;stroke-linecap:round;stroke-linejoin:round;}
	.st1{fill:#75E3F0;}
	.st2{fill:none;stroke:#FFFFFF;stroke-width:2.4;stroke-linecap:round;stroke-linejoin:round;}
	.st3{fill:none;stroke:#FFFFFF;stroke-width:0.1;}
	.st4{fill:none;stroke:#FFFFFF;stroke-width:2;stroke-linecap:round;}
</style>
<title>Asset 1</title>
<g id="Layer_2_1_">
	<g id="Underline">
		<path id="B" class="st0" d="M662,85.3c-0.2-1.3-0.4-2.5-0.8-3.8c-0.4-1.6-1-3.1-1.8-4.6c-0.8-1.6-1.8-3.3-3.1-5.3
			c-1.1-1.8-2.4-3.5-3.8-5.1c-1.2-1.4-2.7-2.6-4.3-3.6l-0.8,0.3l1.4-0.9c1.5-1.1,3-2.4,4.2-3.8c1.8-1.8,3.3-3.9,4.4-6.2
			c0.9-1.8,1.6-3.8,2.1-5.8c0.3-1.3,0.5-2.7,0.7-4c0.1-1.7,0.1-3.5-0.1-5.2c0-1.7-0.2-3.3-0.5-5c-0.4-1.5-0.8-2.9-1.3-4.3
			c-0.9-2.4-2.2-4.6-3.7-6.7c-1.8-2.5-3.5-4.7-5.2-6.6c-1.6-1.9-3.5-3.5-5.6-4.8c-2-1.3-4.2-2.1-6.5-2.5c-4.9-0.5-9.9-0.7-14.9-0.6
			c-7.7-0.1-13.5,0-17.4,0.1s-7.2,0.3-10,0.4c-2.8,0.2-5.2,0.3-7.3,0.4c-2.1,0.1-6.2-0.1-12.5-0.3l0.2,1.2c0-0.4,0.5,36.8,0.7,39.9
			s0.3,13.1,0.3,14.5s0.1,3,0.1,4.5s-1.3,46.4-1.3,49.7l1,1.1h9.7c5.8,0,9.1,0.1,10,0.2c2.2,0.1,4.5,0.1,6.7-0.1
			c3.6-0.2,7.8-0.3,12.6-0.3c4.8,0,8.8,0.1,12,0.2c3.1,0.1,5.3,0.2,6.7,0.4c2.1,0.2,4.1,0.2,6.2,0.1c2.1,0,4.2-0.2,6.3-0.6
			c1.5-0.4,2.8-1,4-1.9c1.3-1,2.5-2,3.6-3.2c1.2-1.3,2.1-2.7,2.9-4.2c1.2-2.7,2.3-5.6,3-8.5c1.2-4,1.8-6.5,2-7.6
			c0.2-1.3,0.3-2.5,0.3-3.8C662.1,87.8,662.1,86.6,662,85.3z M626.5,43.7c-1.4,2.3-3.4,5-9,5.7c-0.7,0.1-5.3,0-6.5,0
			s-2.3,0.1-3.5,0.1c-0.9,0-1.8-0.1-2.6-0.3c-0.5-0.2-0.7-0.5-0.5-0.7l-0.5,0.2v0.6c0,0.4,0,0.1,0-0.8s0-2.1,0-3.5s0-2.1,0-2.2
			s0-0.9,0-2.5s0-3,0.1-4.4s0.1-2.9,0.1-4.5c0-0.6,0-1.3-0.1-1.9h-0.1l-0.1-0.1c0.1-0.1,0.1,0,0.1,0.1c2-0.3,3.6-0.5,4.8-0.6
			s2.6-0.1,4.1-0.1c1.2,0,2.3,0,3.5-0.1c1-0.1,2.1-0.1,3.1,0c1.3,0.1,4.9,1.8,5.5,2.7c0.5,0.8,0.9,1.8,1.2,2.8c0.2,1,0.4,2,0.5,3
			C626.7,38.3,627,43,626.5,43.7z M626.5,94.7c-1.4,2.3-3.4,5-9,5.7c-0.7,0.1-5.3,0-6.5,0s-2.3,0.1-3.5,0.1c-0.9,0-1.8-0.1-2.6-0.3
			c-0.5-0.2-0.7-0.5-0.5-0.7l-0.5,0.2v0.6c0,0.4,0,0.1,0-0.8s0-2.1,0-3.5s0-2.1,0-2.2s0-0.9,0-2.4s0-3,0.1-4.4s0.1-2.9,0.1-4.5
			c0-0.6,0-1.3-0.1-1.9h-0.1l-0.1-0.2c0.1-0.1,0.1,0,0.1,0.1c2-0.3,3.6-0.5,4.8-0.6s2.6-0.1,4.1-0.1c1.2,0,2.3,0,3.5-0.1
			c1-0.1,2.1-0.1,3.1,0c1.3,0.1,4.9,1.8,5.5,2.7c0.5,0.9,0.9,1.8,1.2,2.8c0.2,1,0.4,2,0.5,3C626.7,89.3,627,94,626.5,94.7z"/>
		<path id="A" class="st1" d="M563.6,114.4c-0.2-0.6-0.4-1.2-0.7-1.8c-0.3-0.6-0.5-1.2-0.7-1.9c-0.2-0.7-0.7-2.1-1.5-4.3
			s-1.6-4.4-2.2-6.5s-1.2-3.8-1.6-4.9s-0.8-2.1-1.2-3s-0.7-1.9-1.1-3s-0.8-2.3-1.2-3.4c-0.4-1.1-0.8-2.2-1.1-3.4
			c-0.3-1.1-1-3.4-2.2-6.7s-2-5.7-2.5-7.1s-1.3-3.5-2.3-6.3s-1.6-4.7-1.9-5.7c-0.3-1-0.6-1.9-1-2.8c-0.4-0.9-1-2.7-1.9-5.2
			s-1.8-5-2.8-7.4s-1.7-4.2-2.2-5.6s-1.2-3.3-1.9-6s-1.4-4.5-1.7-5.7s-0.7-2-0.9-2.5s-0.6-1.4-1.1-2.9s-0.9-2.5-1.1-3.3
			c-0.2-0.8-0.5-1.5-0.8-2.2c-0.3-0.7-0.8-2.3-1.5-4.6c0,0-8.5,0-9.1,0.1s-1.3,0.1-2.1,0.1c-0.5,0-1,0-1.5,0.1
			c-0.6,0.1-1.2,0.1-1.7,0.1c-0.9,0-2.1,0-3.5,0c-0.8,0-1.6,0-2.5-0.1c-0.2-0.1-4,0-4.5,0.1c-0.9,0.1-1.8,0.2-2.8,0.1
			c-0.7-0.1-1.4,0-2.1,0.1V9l0.3,0.3c-0.6,1-1.1,2.1-1.6,3.1c-0.4,1-1,2.3-1.5,3.9s-1.3,3.5-2,5.7s-1.4,4.1-2.1,5.8s-1.4,3.4-2,5.2
			s-1.3,3.6-1.9,5.3c-0.4,1.3-0.9,2.5-1.4,3.7c-0.4,0.8-0.9,2.2-1.7,4.2s-1.4,3.6-1.9,4.8c-0.5,1.2-0.9,2.4-1.3,3.7
			c-0.4,1.3-1.5,4.5-3.4,9.7c-1.9,5.2-2.9,8.1-3.1,8.7s-0.5,1.7-1,2.9s-0.9,2.6-1.4,4.1s-1.1,3.3-1.9,5.5s-1.4,3.8-1.8,4.7
			s-1,2.5-1.7,4.8s-1.4,4.2-2,5.6s-1,2.5-1.2,3.1s-0.6,1.7-1.3,3.2s-1.2,2.7-1.5,3.4s-0.7,1.5-1,2.4s-0.9,2.2-1.7,3.9
			c-0.4,0.8-0.6,1.6-0.7,2.5c0.7-0.1,1.4-0.2,2-0.1c1.4,0,2.5-0.1,3.3-0.2s3.9-0.1,9.3-0.1s8.4,0,8.8,0c0.4,0,0.8,0,1.2-0.1
			c0.6-0.1,1.3-0.2,1.9-0.2c0.9,0,2-0.1,3.6-0.1h2.9l0,0.1c0.4-0.6,0.7-1.3,0.9-2.1c0.6-1.5,1-2.5,1.3-3c0.7-1.5,1.2-3,1.8-4.5
			c0.9-2.4,1.6-4.4,2.2-6c0.6-1.6,1.1-2.8,1.5-3.8c0.3-0.6,0.5-1.3,0.7-2c0.1-0.6,0.3-1.3,0.5-1.9c0.3-0.9,0.6-1.8,0.9-2.8
			s0.7-1.1,0.7-1.1l-0.1-0.3c-0.1-0.2,1.1-0.3,3.6-0.3s3.8,0,4,0.1s1.8,0,5,0s4.8,0,4.9-0.1s1.1,0,2.9,0s2.8,0,3.1-0.1
			s0.4-0.3,0.4-0.6l0.5,1.3c0,0.7,0.1,1.3,0.3,2c0.3,1.4,0.7,2.7,1.2,4c0.6,1.7,1,2.9,1.2,3.4s0.5,1.6,0.9,3s0.7,2.4,0.8,2.8
			c0.2,0.6,0.4,1.2,0.6,1.9c0.1,0.6,0.3,1.2,0.6,1.8c0.2,0.5,0.4,1,0.6,1.6c0.2,0.7,0.5,1.7,1,3.1l0.6,3.3l0,0c0.9,0,1.9,0,2.8,0
			c1.8,0,3.1,0,3.9-0.1c0.7-0.1,2.1-0.1,4.1-0.1s3.6-0.1,4.7-0.2c1.7-0.1,3.3-0.2,5-0.2c2.2,0,13.1,0.4,13.1,0.4
			C564.8,116.9,564.2,115.7,563.6,114.4z M512,68.5c-1.5,0.1-3,0.1-4.5,0c-0.5-0.1-1.1-0.1-1.6-0.1c-0.9,0,0-0.5,0-0.5l0.1,0.1
			c0.1,0.1,0.3-0.4,0.8-1.4c0.3-0.7,0.6-1.4,0.8-2.1c0.1-0.4,0.3-1.1,0.7-2.3c0.3-1,0.6-2,0.8-3c0.2-1.1,0.5-2.1,0.9-3.1
			c0.4-1.1,0.6-2.2,0.5-3.3l0.8-0.3c1.3,3.7,1.9,5.8,2,6.1c0.2,1,0.5,1.9,0.8,2.8c0.2,0.9,0.5,1.7,0.9,2.5c0.2,0.4,0.4,0.8,0.5,1.3
			c0.2,0.5,0.3,1,0.4,1.5c0.2,0.5,0.4,0.9,0.7,1.4C517,68.4,514.9,68.4,512,68.5z"/>
		<path id="L" class="st0" d="M437.7,118.1l0.2-0.1C437.9,118,437.9,118,437.7,118.1z M439.1,91.7l-1.3,0.3c0.1,0.2-0.3,0.3-1.3,0.4
			s-2.2,0.1-3.7,0.1s-2.4,0-2.6-0.1c-0.7-0.1-1.3-0.1-2,0c-1.2,0-2.2,0-3.2,0c-0.6,0-1.2-0.1-1.8-0.2c-0.3-0.1-1.9-0.1-4.8-0.1
			c-2.3,0-4.7,0.1-7,0.3c-1.7,0.2-2.9,0.3-3.8,0.3s-2.9,0.1-6.1,0.1s-5.4,0.1-6.7,0.2s-2.8,0.1-4.6,0.1c-1.1,0-2.1,0-3.2-0.1
			c-0.6-0.1-1.1-0.1-1.7-0.1h-0.9c0-0.1,0-0.2,0-0.3c0-0.8,0-1.6,0-2.4l0.3,1v-0.2c0-0.1,0-3,0-8.6s0-9.1,0-10.5s0-3.2,0-5.4
			s0-4-0.1-5.6s-0.1-3.9-0.1-6.9c0-1.9-0.1-3.9-0.2-5.8c-0.2-0.9-0.3-4.4-0.3-10.6c0-6.2,0-10.1,0.1-11.8s0.1-4.1,0.1-7.1
			s0.2-6.6,0.5-10.6L384,8.1c-1.2,0-2.4,0.1-3.6,0.3c-0.7,0.2-1.3,0.3-2,0.3c-1,0.1-2,0.1-2.9,0c-1.1-0.1-3.1-0.1-5.8-0.1
			c-2.7,0-4.4,0-5,0.1c-0.9,0.1-1.8,0.1-2.6,0.1c-0.7,0-1.4,0-2-0.1l-0.4-0.1L359.2,9c0,4.2,0,6.6,0.1,7.3c0.1,0.7,0.1,8.6,0.1,23.6
			s0,23.9,0,26.8c0,2.8,0,4.4,0,4.9s0.1,2.2,0.1,5.5s0,5.7-0.1,7.3s-0.1,2.9-0.1,3.7s-0.1,2.8-0.2,5.9s-0.2,6.7-0.2,10.8s0,7,0,8.6
			s-0.1,2.9-0.1,3.9l-0.1,1.5l0.3-1.1h0.4c0.6,0,1.2,0,1.8,0l-0.6,0.3l1.4-0.1c0.9-0.1,2.9-0.1,6-0.1c3.1,0,4.8,0,5.1,0.1
			s1.6,0.1,3.8,0.1s3.9,0,4.9-0.1s3-0.1,5.9-0.1s4.6,0,5-0.1s1.5-0.1,3.2-0.1s5,0,9.8,0s7.9,0,9.3,0.1s3.7,0,6.8,0s5.2,0,6.4,0.1
			s2.2,0.1,3.3,0.1c0.8,0,1.5,0,2.3,0.1c0.4,0.1,1.4,0.1,2.8,0.1c0.5,0,1,0,1.5,0.1l0.7-0.2l0.1-0.4c0.1-0.9,0.1-1.8,0.1-2.6
			c0-1.5,0-2.6,0.1-3.3s0.1-1.9,0.1-3.7s0-2.9,0.1-3.3s0.1-2.3,0.1-5.6S439.1,93.2,439.1,91.7z"/>
		<g id="Wire_Letters">
			<path id="STROKE_D193B548-650B-4357-A394-25AE166B21D8" class="st2" d="M749.1,26.8c0.4,0.6,0.6,0.5,0.6-0.4
				c0-0.9-0.3-1.8-0.7-2.5c-0.5-0.9-0.9-1.8-1.1-2.7c-0.2-0.9-0.6-1.7-1-2.5c-0.8-1.2-1.7-2.2-2.7-3.2c-1-1-1.9-2-2.8-3.1
				c-0.4-0.6-1.9-1.8-4.5-3.4c-1.9-1.3-3.9-2.3-6-3.1c-1.1-0.3-2.2-0.5-3.3-0.6c-0.7,0-1.4-0.1-2.1-0.4c-0.6-0.2-2.7-0.4-6.1-0.4
				c-2.5-0.1-5.1,0.1-7.6,0.5c-1.7,0.3-3.3,0.8-4.9,1.5c-1.8,0.8-3.5,1.7-5.2,2.8c-1.8,1.1-3.6,2.4-5.3,3.7
				c-1.5,1.2-2.9,2.6-4.1,4.1c-1.1,1.5-2,3.1-2.8,4.8c-0.7,1.4-1.3,2.9-1.9,4.5c-0.5,1.8-0.7,3.7-0.6,5.6c0,1.8,0,3.7,0.3,5.5
				c0.3,1.5,0.9,3,1.6,4.4c1.2,2.3,2.7,4.3,4.5,6.1c1.5,1.7,3.2,3.3,5.1,4.7c1.1,0.8,2.3,1.5,3.5,2.1c0.9,0.5,2,0.9,3,1.1
				c1.1,0.2,2.2,0.7,3.1,1.4c1.4,0.9,2.9,1.7,4.5,2.3c1.5,0.6,2.9,1.3,4.2,2.3c0.9,0.7,1.8,1.3,2.9,1.6c0.9,0.3,1.8,0.7,2.5,1.2
				c2,1.2,4,2.2,6,3.2c2.6,1.2,5,2.6,7.3,4.2c1.5,1.2,2.9,2.4,4.3,3.7c1.6,1.6,3,3.3,4.3,5.1c1.1,1.4,2.1,3,2.9,4.6
				c0.5,1.4,0.8,2.8,0.8,4.3c0,1.1,0.2,2.3,0.5,3.4c0.2,0.7,0.2,1.5,0.1,2.2c-0.1,0.9-0.3,1.8-0.7,2.7c-0.4,0.8-0.6,1.7-0.8,2.6
				c-0.7,2.1-1.5,4.1-2.7,6c-1.1,2.4-2.6,4.6-4.5,6.4c-1.1,1-2.3,2-3.6,2.8c-0.9,0.5-1.9,0.9-2.9,1.1c-1.6,0.3-3.3,0.7-4.9,1.2
				c-1.8,0.6-3.7,1-5.6,1.2c-1.6,0.2-3.2,0.2-4.7,0.1c-2.1-0.2-4.2-0.5-6.2-0.9c-1.5-0.3-3.1-0.7-4.5-1.2c-1.3-0.5-2.6-0.9-3.9-1.2
				c-1.9-0.5-3.7-1.3-5.3-2.4c-1.1-0.8-2.3-1.6-3.5-2.2c-1-0.5-1.9-1.2-2.7-2c-1.4-1.6-2.7-3.3-3.7-5.2c-1.2-1.9-2.2-3.9-2.9-6
				c-0.4-1.4-0.7-2.8-0.8-4.3c-0.1-1.5-0.2-3-0.2-4.5v-2.5"/>
			<path id="STROKE_B3CA5B6A-3C64-42FB-BAD5-84CE24D71D14" class="st2" d="M585.3,19.3l0.6,94.5"/>
			<path id="STROKE_C6C8010B-9A4A-4DA2-8141-1DD60EDA835C" class="st2" d="M585.3,19.3c7.9-0.4,13.7-0.7,17.2-0.7s6.4-0.1,8.6-0.1
				c2.2-0.1,4.7,0,7.6,0.1s4.8,0.3,5.7,0.4c1.3,0.2,2.6,0.6,3.9,1.1c1.5,0.5,3,1.2,4.3,2c1.1,0.7,2.2,1.5,3.3,2.4
				c0.8,0.7,1.6,1.5,2.4,2.3c0.9,1.1,1.8,2.3,2.5,3.5c1,1.4,1.8,2.9,2.4,4.5c0.4,1,0.8,2,1,3c0.1,1.1,0.2,2.2,0.1,3.4
				c0,1.3-0.1,2.6-0.3,3.9c-0.3,1.4-0.7,2.8-1.2,4.2c-0.7,2-1.5,3.9-2.5,5.7c-0.8,1.5-1.7,2.9-2.8,4.2c-1,0.9-2.2,1.7-3.4,2.2
				c-2.5,0.9-5,1.5-7.5,2c-2.9,0.7-5.8,1.1-8.7,1.2c-2.2,0.1-4.6,0-7-0.2s-6.3-0.2-11.7-0.1c-5.3,0.1-8.9,0.1-10.8-0.1l-2.8-0.3"/>
			<path id="STROKE_69AE9CE4-8C39-4361-8069-E039845FB9DF" class="st2" d="M629.7,62.5c2.3,1.7,4.4,3.5,6.4,5.5
				c1.3,1.3,2.5,2.7,3.5,4.3c0.8,1.2,1.5,2.5,2,3.9c0.4,1.2,0.8,2.3,1.1,3.5c0.3,1.1,0.5,3,0.9,5.6c0.3,3.1,0.5,6.2,0.5,9.2
				c0,3.6,0,7.2-0.1,11l-0.1,5.6"/>
			<path id="STROKE_5E9B1361-3B93-4934-BF7A-4FE493C2F47B" class="st2" d="M509.6,21.9L475,112.5"/>
			<path id="STROKE_F9112123-1454-4095-92FA-58ED02A83A4B" class="st2" d="M509.9,22l35.1,87.8"/>
			<path id="STROKE_86889336-9438-46E7-8630-A142182DB78A" class="st2" d="M531.2,75.9l-42.3,1.5"/>
			<path id="STROKE_13C7A4F8-746C-4F06-A44D-3E1BA54055A3" class="st2" d="M427.9,106.6l-57.6,0.6"/>
			<path id="STROKE_6FECE967-F1C0-4674-9804-6F18A3B140C2" class="st2" d="M371.3,18.2l-0.5,88.8"/>
			<path id="STROKE_0B6011AC-C222-4422-A05F-48C39B01F8F8" class="st2" d="M303.2,8.4c1.6-0.5,3.3-0.7,5-0.6
				c1.9,0.1,3.8,0.3,5.6,0.7c1.7,0.4,3.3,0.9,4.8,1.3c1.5,0.5,2.9,1.1,4.3,1.7c1.5,0.7,2.8,1.6,4.1,2.7c2.1,2.2,4,4.6,5.6,7.2
				c2.4,3.7,4,6,4.5,7.1c0.5,0.9,0.9,1.8,1.2,2.8c0.4,1.2,0.9,2.4,1.4,3.6c1.1,2.7,2,5.5,2.6,8.3c0.9,3.3,1.5,6.6,2,10
				c0.3,2.7,0.5,5,0.5,6.9c0.1,1.9,0.1,4.4,0.1,7.4c0,3-0.3,5.9-0.6,8.9c-0.4,2.9-0.9,6-1.7,9.3c-0.7,3.3-1.4,5.8-1.9,7.5
				c-0.5,1.5-1.1,3-1.9,4.5c-1,1.8-2.2,3.4-3.5,5c-1.5,2-3.2,3.8-5.1,5.6c-2.4,2.1-5,3.8-7.8,5.3c-2.2,1.3-4.5,2.4-6.9,3.3
				c-1.7,0.4-3.4,0.6-5.1,0.6c-2.4,0-4.8-0.2-7.2-0.7l-3.9-0.7"/>
			<circle id="STROKE_51119FB7-C1FE-4F1B-8283-F6634C63928E" class="st3" cx="302.4" cy="7.6" r="0.7"/>
			<path id="STROKE_F3801A35-4E5B-41F2-8F88-5029438C0313" class="st2" d="M303.2,8.8c-1.1-0.1-3.1,0.7-5.8,2.4
				c-2,1.2-3.9,2.4-5.7,3.8c-1.3,1.1-2.5,2.3-3.7,3.6c-1.1,1.1-2.2,2.3-3.1,3.6c-1.3,2.1-2.5,4.3-3.6,6.6c-1.8,3.5-3.1,6.3-4,8.5
				c-0.9,2.2-1.5,4-1.9,5.5s-0.9,3.2-1.4,5.3c-0.4,1.8-0.7,3.7-0.9,5.6c-0.1,1.1-0.2,2.2-0.5,3.2c-0.4,1.3-0.6,2.7-0.7,4.1
				c-0.3,2.4-0.3,4.9-0.2,7.4c0.2,3.4,0.8,6.8,1.7,10.1c1,4,1.9,7.1,2.5,9.1c0.8,2.6,1.9,5.2,3,7.8c1.4,3.1,3,6.1,4.8,8.9
				c1.2,2,2.7,3.9,4.3,5.7c0.9,0.9,1.8,1.7,2.8,2.4c2,1,4,1.9,6.2,2.4c3.3,1,4.9,1.7,4.8,1.8l-0.1,0.3"/>
			<path id="STROKE_98824206-B821-4B48-93D5-3303B94818CE" class="st2" d="M253.8,6.8l-0.1,110.8"/>
			<path id="STROKE_D9904EBD-22DA-41D9-8615-487AD1C594DA" class="st2" d="M184.8,5.9l-0.3,111.6"/>
			<path id="STROKE_AE3CE40D-A400-4FC6-8734-2B2CD971D057" class="st2" d="M253,66.5L184.9,66"/>
			<path id="STROKE_DAFB2CDF-055C-46B6-B26B-980B16116DD6" class="st2" d="M158.8,32.5c-0.8-2.7-1.9-5.3-3.2-7.8
				c-0.7-1.1-1.2-2.3-1.7-3.5c-0.3-1-0.8-1.9-1.4-2.8c-1.5-2-3.2-3.9-5.1-5.7c-1.9-2-4-3.8-6.4-5.2c-1.1-0.6-2.2-1-3.4-1.4
				c-1-0.3-2-0.7-3-1.2c-1.6-0.7-3.2-1.1-4.9-1.1c-1.6-0.1-3.2-0.1-4.8,0.2c-1.4,0.3-2.8,0.8-4.1,1.5c-1.5,0.8-3.2,1.7-4.9,2.8
				c-1.5,0.9-3,2-4.4,3.1c-1.6,1.3-3,2.7-4.3,4.3c-2.1,2.5-4.1,5-5.9,7.7c-1.9,2.7-3.7,5.4-5.3,8.3c-1.2,2.2-2.1,4-2.6,5.2
				s-1.2,3.2-2,5.9c-0.9,2.8-1.5,5.6-2,8.5c-0.5,2.8-0.7,5.6-0.8,8.5c0,2.7,0.1,5.3,0.4,8c0.4,3,1.1,5.9,2.1,8.8
				c1.1,3.3,2.1,5.9,2.9,7.9s1.7,4,2.8,6.3c1,2.1,2.1,4,3.5,5.9c1.5,1.9,3.2,3.8,4.9,5.5c2,2,3.4,3.4,4.3,4.1c1,0.9,2.2,1.6,3.4,2.3
				c1,0.5,1.8,1.1,2.6,1.8c0.4,0.5,0.9,0.8,1.5,0.9c1,0.4,1.9,0.8,2.8,1.4c1.2,0.7,2.5,1.2,3.9,1.4c2.1,0.3,4.2,0.5,6.3,0.5
				c2.5,0.1,5-0.2,7.5-0.8c1.5-0.4,2.9-0.8,4.3-1.4c1.7-1.1,3.3-2.3,4.8-3.5c2.1-1.6,4.1-3.4,6-5.2c1.1-1.1,2.2-2.3,3.2-3.5
				c0.8-1.2,1.4-2.5,1.8-3.8c0.5-1.6,1.1-3.3,1.8-5c0.5-1,0.9-2.1,1.1-3.2V87"/>
			<path id="STROKE_EC0BCC93-B23E-48B7-9A9F-2A40F4B0C0AC" class="st2" d="M777.5,2.4c0.4-0.1,0.8,0.2,0.9,0.6
				c0.2,0.5,0.4,1.1,0.7,1.6c0.4,0.7,0.6,1.5,0.7,2.3c0.1,0.7,0.2,1.4,0.3,2.1c0.2,0.7,0.2,1.5,0.2,2.3c0,1.1-0.2,2.2-0.5,3.2
				c-0.3,0.9-0.6,1.7-0.9,2.5c-0.4,0.8-0.8,1.5-1.3,2.1c-0.6,0.8-0.9,1.2-1.1,1.2h-0.3"/>
			<path id="STROKE_02248240-1D4D-40CB-84D6-FD82135D2D46" class="st2" d="M64.9,27c0.2-1.5,0-3.1-0.4-4.5c-0.8-1.8-1.6-3.6-2.6-5.4
				c-1-2-2.3-3.9-3.7-5.7C57,10,55.6,8.7,54,7.7c-1.1-0.7-2.2-1.5-3.3-2.3c-0.9-0.7-2-1.2-3.1-1.6c-1.9-0.7-3.9-1.3-5.9-1.7
				c-2-0.5-4-0.8-6.1-0.9c-1.5,0-3,0.1-4.4,0.3c-1.7,0.3-3.4,0.7-5,1.1c-1.5,0.4-3,0.9-4.5,1.5c-1.2,0.5-2.3,1.2-3.4,1.9
				c-1.3,0.9-2.5,1.8-3.6,2.9c-1.6,1.6-3.2,3.3-4.6,5.1c-1.6,1.9-2.9,4-4,6.2c-0.7,1.5-1.3,3-1.7,4.6c-0.3,1.5-0.5,3-0.6,4.4
				C3.8,31,4,32.8,4.5,34.6c0.6,2,1.6,3.9,3,5.5c1.6,1.9,3.3,3.5,5.2,5.1c1.4,1.2,2.9,2.3,4.6,3.3c1.1,0.6,2.2,1.1,3.3,1.5
				c1.5,0.6,3,1.3,4.4,2.1c2,1.1,4.1,2.2,6.3,3.1c2.1,0.9,4.2,1.7,6.4,2.3c2.3,0.7,4.5,1.7,6.6,2.9c2.5,1.4,5.2,3.1,8.1,4.9
				c2,1.2,3.8,2.5,5.6,4c1,1,1.9,2,2.8,3.1c1.1,1.5,2,3,2.7,4.7c0.7,1.7,1.1,3.6,1.2,5.4c0,1.6-0.1,3.2-0.4,4.8
				c-0.3,1.5-0.8,3-1.5,4.5c-0.6,1.1-1,2.3-1.4,3.5c-0.2,0.8-0.6,1.6-1,2.3c-0.6,0.9-1.2,1.8-1.9,2.6c-0.8,1-2.1,2.3-3.8,4.1
				c-1.3,1.4-2.7,2.6-4.1,3.7c-1.6,1-3.3,1.9-5,2.6c-2.3,1-4.8,1.8-7.3,2.3c-2,0.5-4.1,0.8-6.2,0.9c-1.6,0-3.3-0.2-4.9-0.6
				c-1.1-0.2-2.2-0.6-3.1-1.3c-1.4-0.9-2.9-1.8-4.4-2.5c-2.5-1.3-4-2.3-4.6-3.2c-0.5-0.7-1.1-1.4-1.7-2.1c-0.7-0.6-1.2-1.4-1.7-2.1
				c-0.8-1.2-1.8-2.3-2.8-3.3c-1.2-1.3-2.3-2.8-3.3-4.4c-1.1-1.9-2-3.8-2.8-5.8c-1-2.2-1.4-3.5-1.3-3.8l0.2-0.4"/>
		</g>
		<line class="st4" x1="356.5" y1="129.1" x2="654.3" y2="129.1"/>
	</g>
</g>
</svg>
