<svg xmlns="http://www.w3.org/2000/svg" viewBox="0 0 634.03 1527.28"><defs><style>.cls-1{fill:#7c00ff;}.cls-2{fill:#c6f;}.cls-3{fill:#84e0fd;}.cls-4{fill:#b9faf7;}</style></defs><title>Asset 1</title><g id="Layer_2" data-name="Layer 2"><g id="Classrooms"><path id="common_area" data-name="common area" class="cls-1" d="M375.28,583.14q-.37-193-.77-386.09-.18-96.53-.38-193a4,4,0,0,0-4-4h0L31.5.66a4,4,0,0,0-4,4q.2,97,.38,193.9H4a4.24,4.24,0,0,0-4,4.31V446.25a4.23,4.23,0,0,0,4,4.3H28.37q.31,163.16.64,326.31.19,96.52.38,193a4,4,0,0,0,4,4L372,973.24a4,4,0,0,0,4-4Q375.65,776.19,375.28,583.14ZM37.41,965.9q-.37-191-.75-382.09-.13-66.63-.26-133.26l0-8.61H8.07V207.15H35.91l0-8.6v-.85q-.18-94.52-.37-189L366.11,8q.39,191,.76,382.09.36,193,.77,386.09L368,965.25Z"/><path id="mspace" class="cls-2" d="M240,206.54H12.71a4.12,4.12,0,0,0-4.07,4.07V437.94A4.13,4.13,0,0,0,12.71,442H240a4.13,4.13,0,0,0,4.07-4.07V210.61a4.12,4.12,0,0,0-4.07-4.07ZM16.77,433.87V214.61l155.46.07H236L236,370.14v63.8l-155.46-.07Z"/><path id="office_hrs" data-name="office hrs" class="cls-2" d="M220.57,820.43H220l-115.82.22a4.17,4.17,0,0,0-2.88,1.22,4.08,4.08,0,0,0-1.21,2.87q.07,34.9.14,69.82l.09,46.54a4.13,4.13,0,0,0,.83,2.44l.11.12.07.09a5.3,5.3,0,0,0,.48.49l.11.08a4.14,4.14,0,0,0,2.49.87l69.81-.14L220.8,945a4.15,4.15,0,0,0,4.09-4.09q-.07-34.89-.14-69.77l-.09-46.59a4.16,4.16,0,0,0-4.09-4.09Zm-105.28,8.33c30.55,0,60.29-.06,99-.13h2.31l0,54.09.11,54.18H162.61l-54.08.11-.11-54.09-.11-54.17Z"/><path id="think_tank" data-name="think tank" class="cls-3" d="M255.84,8a3.76,3.76,0,0,0-3.74,3.73V117.94a3.77,3.77,0,0,0,3.74,3.74H362.08a3.76,3.76,0,0,0,3.73-3.74V11.7A3.76,3.76,0,0,0,362.08,8Zm102.5,7.47V114.2H259.58V15.44Z"/><path id="side_offices" data-name="side offices" class="cls-3" d="M365.75,1320.67H40.13a4,4,0,0,0-4,4v198.61a4,4,0,0,0,4,4H365.75a4,4,0,0,0,4-4V1324.67a4,4,0,0,0-4-4Zm-166,8h162v190.61H44.13V1328.67Z"/><path id="main_offices" data-name="main offices" class="cls-3" d="M111.11,979H9.8a4,4,0,0,0-4,4v336.33a4,4,0,0,0,4,4H270.67a4,4,0,0,0,4-4V983a4,4,0,0,0-4-4Zm58.24,8h97.32v328.33H13.8V987Z"/><path id="ald_421" data-name="ald 421" class="cls-4" d="M630,211.62H372a4,4,0,0,0-4.08,3.84v377.1A4,4,0,0,0,372,596.4H630a4,4,0,0,0,4.08-3.84V215.46a4,4,0,0,0-4.08-3.84ZM376,588.72V219.26l157.16,0h92.72l0,147.91V588.76l-157.16,0Z"/><path id="ald_423" data-name="ald 423" class="cls-4" d="M629.73,60.8H370.79a4.07,4.07,0,0,0-4,4V208.28a4.07,4.07,0,0,0,4,4H629.73a4.07,4.07,0,0,0,4-4V64.82a4.07,4.07,0,0,0-4-4ZM374.81,204.26V68.82l155.81,0h95.11l0,135.44-155.81,0Z"/></g></g></svg>