<svg xmlns="http://www.w3.org/2000/svg" viewBox="0 0 781.64 130.14"><defs><style>.cls-1,.cls-2,.cls-5{fill:#75e3f0;}.cls-1{stroke:#75e3f0;}.cls-1,.cls-3,.cls-5{stroke-linecap:round;}.cls-1,.cls-3{stroke-linejoin:round;stroke-width:2.4px;}.cls-3,.cls-4{fill:none;stroke:#222;}.cls-4{stroke-width:0.1px;}.cls-5{stroke:#231f20;stroke-width:2px;}</style></defs><title>Asset 1</title><g id="Layer_2" data-name="Layer 2"><g id="Underline"><path id="B" class="cls-1" d="M662,85.32a27.26,27.26,0,0,0-.78-3.79,22.42,22.42,0,0,0-1.81-4.61q-1.22-2.37-3.09-5.31a41.57,41.57,0,0,0-3.79-5.14,16.54,16.54,0,0,0-4.31-3.56l-.76.35,1.42-.92a29.62,29.62,0,0,0,4.24-3.79,22.64,22.64,0,0,0,4.36-6.18,29,29,0,0,0,2.09-5.75,30,30,0,0,0,.66-4,47.79,47.79,0,0,0-.06-5.24,37.92,37.92,0,0,0-.47-5,36.51,36.51,0,0,0-1.35-4.3,28.13,28.13,0,0,0-3.73-6.67q-2.68-3.74-5.16-6.56A26,26,0,0,0,643.84,10a17.07,17.07,0,0,0-6.49-2.5,136,136,0,0,0-14.89-.58Q610.9,6.83,605.08,7t-10,.45q-4.14.31-7.26.39t-12.5-.34l.23,1.2c0-.36.5,36.76.65,39.94s.25,13.08.33,14.53.12,3,.12,4.51-1.31,46.38-1.33,49.72l1,1.12,9.67,0q8.67,0,10,.22a49.81,49.81,0,0,0,6.68-.12q5.37-.3,12.64-.25t11.95.18q4.68.14,6.65.36a49.37,49.37,0,0,0,6.18.08,35.76,35.76,0,0,0,6.25-.59,10.71,10.71,0,0,0,4-1.94,26.16,26.16,0,0,0,3.62-3.21,18.57,18.57,0,0,0,2.89-4.2,51,51,0,0,0,3-8.5q1.74-6,2-7.61a24.63,24.63,0,0,0,.25-3.83A33.75,33.75,0,0,0,662,85.32ZM626.55,43.7c-1.36,2.28-3.39,5-9,5.7-.65.09-5.35,0-6.49.05s-2.31.12-3.51.11a7.42,7.42,0,0,1-2.59-.34c-.52-.22-.69-.46-.52-.71l-.5.16,0,.6c0,.41,0,.13-.05-.84s0-2.14,0-3.5,0-2.09,0-2.17,0-.9,0-2.45,0-3,.08-4.37.06-2.87.06-4.48a12.55,12.55,0,0,0-.09-1.94h-.06l-.08-.15c.06-.08.1,0,.14.14,2-.29,3.56-.47,4.77-.56s2.58-.12,4.07-.11a32.8,32.8,0,0,0,3.48-.11,18.62,18.62,0,0,1,3.12,0c1.26.08,4.86,1.77,5.46,2.66A8.71,8.71,0,0,1,626,34.16a23.19,23.19,0,0,1,.52,3C626.68,38.26,627,43,626.55,43.7Zm0,51c-1.36,2.28-3.39,5-9,5.7-.65.09-5.35,0-6.49,0s-2.31.12-3.51.11a7.42,7.42,0,0,1-2.59-.34c-.52-.22-.69-.46-.52-.71l-.5.16,0,.6c0,.41,0,.13-.05-.84s0-2.14,0-3.5,0-2.09,0-2.17,0-.9,0-2.45,0-3,.08-4.37.06-2.87.06-4.48a12.55,12.55,0,0,0-.09-1.94h-.06l-.08-.15c.06-.08.1,0,.14.14,2-.29,3.56-.47,4.77-.56s2.58-.12,4.07-.11a32.8,32.8,0,0,0,3.48-.11,18.62,18.62,0,0,1,3.12,0c1.26.08,4.86,1.77,5.46,2.66A8.71,8.71,0,0,1,626,85.16a23.19,23.19,0,0,1,.52,3C626.68,89.26,627,94,626.55,94.7Z"/><path id="A" class="cls-2" d="M563.63,114.42a10.88,10.88,0,0,0-.67-1.77,10.72,10.72,0,0,1-.69-1.88c-.18-.68-.69-2.11-1.52-4.32s-1.57-4.38-2.19-6.53S557.41,96.12,557,95s-.8-2.13-1.18-3-.73-1.89-1.08-3-.75-2.26-1.19-3.36a30.21,30.21,0,0,1-1.14-3.36c-.32-1.13-1-3.37-2.17-6.7s-2-5.71-2.52-7.13-1.31-3.52-2.28-6.32-1.61-4.68-1.9-5.67a29.81,29.81,0,0,0-1-2.85c-.38-.92-1-2.65-1.94-5.19s-1.84-5-2.77-7.37-1.65-4.22-2.15-5.57-1.15-3.34-1.94-6S532.37,25,532,23.78s-.73-2-.94-2.45-.59-1.42-1.13-2.86-.91-2.53-1.14-3.32a19,19,0,0,0-.81-2.23c-.31-.72-.83-2.26-1.55-4.64,0,0-8.5,0-9.13.09s-1.32.09-2.08.09a10.21,10.21,0,0,0-1.53.07,17,17,0,0,1-1.74.1c-.89,0-2.06,0-3.49,0A15.28,15.28,0,0,1,506,8.58c-.17-.06-4,0-4.47.05a16.21,16.21,0,0,1-2.77.15,7.88,7.88,0,0,0-2.06.1V9l.29.33a28.47,28.47,0,0,0-1.56,3.13c-.43,1-.95,2.34-1.55,3.95s-1.27,3.52-2,5.72-1.39,4.13-2.06,5.75-1.35,3.37-2,5.24-1.34,3.64-1.91,5.32a30.18,30.18,0,0,1-1.41,3.67c-.37.76-.92,2.15-1.66,4.17s-1.35,3.63-1.85,4.81a33.53,33.53,0,0,0-1.3,3.7q-.56,1.92-3.38,9.65c-1.89,5.15-2.92,8.07-3.1,8.74s-.5,1.65-1,2.93-.91,2.64-1.36,4.1-1.06,3.28-1.86,5.47-1.39,3.76-1.77,4.68-.95,2.54-1.7,4.84-1.42,4.18-2,5.63-1,2.47-1.18,3.05-.61,1.65-1.27,3.2-1.16,2.69-1.52,3.41-.71,1.52-1,2.39-.9,2.15-1.69,3.86a7.15,7.15,0,0,0-.71,2.51,10.72,10.72,0,0,1,2.05-.13c1.44,0,2.54-.07,3.29-.15s3.87-.13,9.34-.13,8.39,0,8.78,0a4.21,4.21,0,0,0,1.21-.1,11.59,11.59,0,0,1,1.9-.2c.85,0,2-.06,3.58-.06h2.9l.05.13a9.07,9.07,0,0,0,.94-2.06c.6-1.46,1-2.47,1.34-3a48.29,48.29,0,0,0,1.76-4.5q1.31-3.65,2.19-6T497,99.3a9,9,0,0,0,.67-2,9.72,9.72,0,0,1,.54-1.88c.33-.9.63-1.83.89-2.79s.69-1.13.69-1.13l-.13-.29c-.08-.19,1.12-.29,3.6-.29s3.82,0,4,.06,1.84,0,5,0,4.78,0,4.94-.06,1.13,0,2.93,0,2.84,0,3.13-.07.42-.26.4-.64l.54,1.26a10.32,10.32,0,0,0,.29,2,39.19,39.19,0,0,0,1.16,4c.58,1.74,1,2.88,1.19,3.43s.52,1.56.91,3,.65,2.41.81,2.84a19.42,19.42,0,0,1,.56,1.87,11,11,0,0,0,.6,1.79,10.36,10.36,0,0,1,.58,1.57q.3,1,1,3.12l.59,3.31,0,0a27.34,27.34,0,0,0,2.81,0q2.77,0,3.87-.12c.72-.08,2.09-.13,4.11-.14s3.56-.08,4.65-.2a49.87,49.87,0,0,1,5-.18c2.24,0,13.13.38,13.13.38A30.44,30.44,0,0,1,563.63,114.42ZM512,68.53a37.37,37.37,0,0,1-4.54,0,6.69,6.69,0,0,0-1.62-.11c-.89,0,0-.46,0-.46l.11.09c.07.06.33-.42.79-1.45a13.6,13.6,0,0,0,.82-2.08c.08-.36.31-1.11.7-2.25a20.93,20.93,0,0,0,.81-3,25.77,25.77,0,0,1,.87-3.14,8.43,8.43,0,0,0,.53-3.3l.83-.29q1.89,5.59,2,6.14a26.92,26.92,0,0,0,.78,2.82,20.08,20.08,0,0,0,.86,2.54,6.24,6.24,0,0,1,.49,1.3,13.75,13.75,0,0,1,.42,1.53,7.71,7.71,0,0,0,.69,1.37C517,68.37,514.86,68.45,512,68.53Z"/><path id="L" class="cls-1" d="M437.68,118.07l.24-.07S437.87,118,437.68,118.07Zm1.44-26.37-1.34.33c.1.22-.32.35-1.26.41s-2.17.09-3.69.08-2.38,0-2.57-.09a12.12,12.12,0,0,0-2,0c-1.16,0-2.22,0-3.18,0a11.92,11.92,0,0,1-1.83-.2c-.25-.07-1.86-.11-4.83-.11a69.28,69.28,0,0,0-7,.27c-1.67.18-2.94.29-3.81.34s-2.91.09-6.12.13-5.43.09-6.66.18-2.75.13-4.56.13a29.49,29.49,0,0,1-3.2-.09,10,10,0,0,0-1.7-.08l-.93,0a1.81,1.81,0,0,0,0-.25,21.49,21.49,0,0,0,0-2.39l.29,1,0-.2c0-.14,0-3,0-8.58s0-9.1,0-10.53-.05-3.23-.05-5.38,0-4-.08-5.6-.08-3.87-.1-6.88a51.6,51.6,0,0,0-.24-5.78Q384,47.1,384,37.82c0-6.19,0-10.12.13-11.8s.13-4.06.13-7.15.17-6.61.5-10.56L384,8.13a17.58,17.58,0,0,0-3.65.31,11,11,0,0,1-2,.33,21,21,0,0,1-2.93,0q-1.72-.13-5.76-.15c-2.69,0-4.35,0-5,.11a22.49,22.49,0,0,1-2.64.12A12.71,12.71,0,0,1,360,8.72l-.36-.09-.44.36q0,6.23.09,7.3t.09,23.6q0,22.53,0,26.77c0,2.82,0,4.45,0,4.87s.06,2.24.06,5.47-.05,5.65-.13,7.26-.13,2.86-.13,3.74-.07,2.84-.2,5.9-.2,6.66-.2,10.79,0,7,0,8.59-.08,2.89-.15,3.87l-.09,1.46.33-1.12.38,0a16,16,0,0,1,1.75,0l-.58.35,1.36-.09q1.36-.08,6-.08c3.1,0,4.81,0,5.12.08s1.59.09,3.83.09,3.86,0,4.85-.07,2.95-.07,5.88-.07,4.61,0,5-.07,1.49-.09,3.24-.11,5,0,9.8,0,7.91,0,9.34.07,3.71,0,6.81,0,5.22,0,6.35.11,2.24.1,3.33.09a15.74,15.74,0,0,1,2.26.08c.42.06,1.36.1,2.81.12a9.27,9.27,0,0,1,1.54.08l.67-.18.09-.37a19.44,19.44,0,0,0,.09-2.63c0-1.52,0-2.63.1-3.34s.12-1.94.13-3.7.05-2.87.09-3.33.08-2.32.08-5.6S439.15,93.2,439.12,91.7Z"/><g id="Wire_Letters" data-name="Wire Letters"><path id="STROKE_D193B548-650B-4357-A394-25AE166B21D8" data-name="STROKE D193B548-650B-4357-A394-25AE166B21D8" class="cls-3" d="M749.11,26.76c.41.59.62.46.62-.38a5,5,0,0,0-.71-2.51,11.79,11.79,0,0,1-1.14-2.74,10.73,10.73,0,0,0-1-2.51,20.41,20.41,0,0,0-2.74-3.21,30.15,30.15,0,0,1-2.78-3.14q-.65-.93-4.52-3.42a25.09,25.09,0,0,0-6-3.09,13.62,13.62,0,0,0-3.29-.59,5.56,5.56,0,0,1-2.09-.38q-.95-.37-6.09-.4a42,42,0,0,0-7.61.47,23.8,23.8,0,0,0-4.89,1.53,39,39,0,0,0-5.21,2.78,57.75,57.75,0,0,0-5.3,3.73A20.89,20.89,0,0,0,692.28,17a31.58,31.58,0,0,0-2.83,4.81,35.63,35.63,0,0,0-1.86,4.46,19.82,19.82,0,0,0-.58,5.64,35,35,0,0,0,.29,5.49,18.29,18.29,0,0,0,1.57,4.38,25.1,25.1,0,0,0,4.48,6.12,34.29,34.29,0,0,0,5.07,4.69,29.06,29.06,0,0,0,3.48,2.09,11,11,0,0,0,3,1.07A8.5,8.5,0,0,1,708,57.12a25.74,25.74,0,0,0,4.52,2.27,16.9,16.9,0,0,1,4.23,2.29,8.8,8.8,0,0,0,2.89,1.6,8.69,8.69,0,0,1,2.52,1.2,57.69,57.69,0,0,0,6.05,3.15,43.91,43.91,0,0,1,7.34,4.2,49.42,49.42,0,0,1,4.28,3.7,41.25,41.25,0,0,1,4.29,5.09,24.83,24.83,0,0,1,2.9,4.64,15.93,15.93,0,0,1,.84,4.31,16.17,16.17,0,0,0,.51,3.4,4.68,4.68,0,0,1,.09,2.18,8.66,8.66,0,0,1-.69,2.67,10.93,10.93,0,0,0-.8,2.6,28.72,28.72,0,0,1-2.65,6,23.08,23.08,0,0,1-4.49,6.42,26.25,26.25,0,0,1-3.59,2.78,7.69,7.69,0,0,1-2.87,1.06,42.46,42.46,0,0,0-4.87,1.17,37.18,37.18,0,0,1-5.59,1.23,27.25,27.25,0,0,1-4.74.07,47,47,0,0,1-6.21-.93,32.35,32.35,0,0,1-4.54-1.16,32.44,32.44,0,0,0-3.89-1.17,15.17,15.17,0,0,1-5.26-2.41,20.78,20.78,0,0,0-3.51-2.2,9.12,9.12,0,0,1-2.7-2,29.83,29.83,0,0,1-3.71-5.15,25.61,25.61,0,0,1-2.88-6,26.15,26.15,0,0,1-.82-4.27,43.86,43.86,0,0,1-.18-4.49l0-2.49"/><path id="STROKE_B3CA5B6A-3C64-42FB-BAD5-84CE24D71D14" data-name="STROKE B3CA5B6A-3C64-42FB-BAD5-84CE24D71D14" class="cls-3" d="M585.29,19.25l.62,94.46"/><path id="STROKE_C6C8010B-9A4A-4DA2-8141-1DD60EDA835C" data-name="STROKE C6C8010B-9A4A-4DA2-8141-1DD60EDA835C" class="cls-3" d="M585.25,19.32q11.88-.66,17.24-.69t8.62-.12c2.16-.06,4.69,0,7.58.14s4.8.29,5.71.41a22.23,22.23,0,0,1,3.87,1.06,22,22,0,0,1,4.35,2,26,26,0,0,1,3.25,2.36,27,27,0,0,1,2.4,2.34,29.69,29.69,0,0,1,2.55,3.51,27.34,27.34,0,0,1,2.43,4.53,17.18,17.18,0,0,1,1,3,21.92,21.92,0,0,1,.12,3.37,23.41,23.41,0,0,1-.28,3.93,37.35,37.35,0,0,1-1.2,4.17,34.25,34.25,0,0,1-2.5,5.66,19.61,19.61,0,0,1-2.83,4.16,10,10,0,0,1-3.44,2.15,49.44,49.44,0,0,1-7.54,2,49,49,0,0,1-8.68,1.21q-3.33.08-7-.19t-11.66-.1c-5.33.11-8.93.08-10.82-.09l-2.82-.26"/><path id="STROKE_69AE9CE4-8C39-4361-8069-E039845FB9DF" data-name="STROKE 69AE9CE4-8C39-4361-8069-E039845FB9DF" class="cls-3" d="M629.67,62.51A59.7,59.7,0,0,1,636.05,68a28,28,0,0,1,3.46,4.29,19.72,19.72,0,0,1,2,3.93,30.83,30.83,0,0,1,1.06,3.54q.39,1.68.86,5.55a78.54,78.54,0,0,1,.49,9.24c0,3.57,0,7.24-.07,11l-.07,5.64"/><path id="STROKE_5E9B1361-3B93-4934-BF7A-4FE493C2F47B" data-name="STROKE 5E9B1361-3B93-4934-BF7A-4FE493C2F47B" class="cls-3" d="M509.65,21.9,475,112.48"/><path id="STROKE_F9112123-1454-4095-92FA-58ED02A83A4B" data-name="STROKE F9112123-1454-4095-92FA-58ED02A83A4B" class="cls-3" d="M509.94,22.05,545,109.87"/><path id="STROKE_86889336-9438-46E7-8630-A142182DB78A" data-name="STROKE 86889336-9438-46E7-8630-A142182DB78A" class="cls-3" d="M531.23,75.92l-42.32,1.49"/><path id="STROKE_13C7A4F8-746C-4F06-A44D-3E1BA54055A3" data-name="STROKE 13C7A4F8-746C-4F06-A44D-3E1BA54055A3" class="cls-3" d="M427.85,106.63l-57.56.55"/><path id="STROKE_6FECE967-F1C0-4674-9804-6F18A3B140C2" data-name="STROKE 6FECE967-F1C0-4674-9804-6F18A3B140C2" class="cls-3" d="M371.31,18.23l-.5,88.8"/><path id="STROKE_0B6011AC-C222-4422-A05F-48C39B01F8F8" data-name="STROKE 0B6011AC-C222-4422-A05F-48C39B01F8F8" class="cls-3" d="M303.18,8.37a13,13,0,0,1,4.95-.64,28.86,28.86,0,0,1,5.62.71c1.73.41,3.32.85,4.75,1.32a35.46,35.46,0,0,1,4.32,1.74,18.62,18.62,0,0,1,4.08,2.7,39.71,39.71,0,0,1,5.59,7.16q3.67,5.51,4.51,7.07a14.44,14.44,0,0,1,1.2,2.82,32.72,32.72,0,0,0,1.43,3.63,59.16,59.16,0,0,1,2.63,8.34,68.88,68.88,0,0,1,1.95,10q.41,4,.53,6.86t.07,7.44a77.77,77.77,0,0,1-.63,8.86q-.57,4.33-1.66,9.31t-1.92,7.5a25.77,25.77,0,0,1-1.93,4.47,40.33,40.33,0,0,1-3.5,5,49.44,49.44,0,0,1-5.06,5.56,36.44,36.44,0,0,1-7.82,5.25,53.91,53.91,0,0,1-6.91,3.28,18.45,18.45,0,0,1-5.1.56,37.81,37.81,0,0,1-7.23-.72l-3.86-.74"/><circle id="STROKE_51119FB7-C1FE-4F1B-8283-F6634C63928E" data-name="STROKE 51119FB7-C1FE-4F1B-8283-F6634C63928E" class="cls-4" cx="302.44" cy="7.61" r="0.66"/><path id="STROKE_F3801A35-4E5B-41F2-8F88-5029438C0313" data-name="STROKE F3801A35-4E5B-41F2-8F88-5029438C0313" class="cls-3" d="M303.21,8.8q-1.69-.2-5.81,2.37A61.5,61.5,0,0,0,291.7,15,40.26,40.26,0,0,0,288,18.56a32.69,32.69,0,0,0-3.1,3.62,72.23,72.23,0,0,0-3.65,6.59q-2.67,5.19-3.95,8.48c-.86,2.19-1.5,4-1.94,5.45S274.46,45.89,274,48a46.61,46.61,0,0,0-.93,5.56,13.72,13.72,0,0,1-.55,3.22,22.72,22.72,0,0,0-.69,4.09,47.18,47.18,0,0,0-.22,7.37,49.11,49.11,0,0,0,1.73,10.12q1.57,6.07,2.48,9.07a72.19,72.19,0,0,0,3,7.77,61.47,61.47,0,0,0,4.8,8.94,38.45,38.45,0,0,0,4.26,5.7,20.4,20.4,0,0,0,2.81,2.42,29.07,29.07,0,0,0,6.18,2.44c3.28,1,4.87,1.65,4.79,1.84l-.13.29"/><path id="STROKE_98824206-B821-4B48-93D5-3303B94818CE" data-name="STROKE 98824206-B821-4B48-93D5-3303B94818CE" class="cls-3" d="M253.78,6.78l-.07,110.84"/><path id="STROKE_D9904EBD-22DA-41D9-8615-487AD1C594DA" data-name="STROKE D9904EBD-22DA-41D9-8615-487AD1C594DA" class="cls-3" d="M184.76,5.94l-.32,111.58"/><path id="STROKE_AE3CE40D-A400-4FC6-8734-2B2CD971D057" data-name="STROKE AE3CE40D-A400-4FC6-8734-2B2CD971D057" class="cls-3" d="M253,66.52,184.91,66"/><path id="STROKE_DAFB2CDF-055C-46B6-B26B-980B16116DD6" data-name="STROKE DAFB2CDF-055C-46B6-B26B-980B16116DD6" class="cls-3" d="M158.84,32.48a48.11,48.11,0,0,0-3.17-7.79A21.09,21.09,0,0,1,154,21.15a13.78,13.78,0,0,0-1.37-2.8,39,39,0,0,0-5.05-5.67,27.76,27.76,0,0,0-6.39-5.15,19.4,19.4,0,0,0-3.35-1.37A14.9,14.9,0,0,1,134.86,5a12.85,12.85,0,0,0-4.94-1.14,19,19,0,0,0-4.81.2A16.68,16.68,0,0,0,121,5.57q-2.3,1.15-4.88,2.78a46.82,46.82,0,0,0-4.38,3.05,36.57,36.57,0,0,0-4.33,4.27,89,89,0,0,0-5.94,7.72,92.42,92.42,0,0,0-5.26,8.25Q94.35,35,93.6,36.79t-2,5.9a66.14,66.14,0,0,0-2,8.47,51.56,51.56,0,0,0-.76,8.47,70.51,70.51,0,0,0,.4,8,41.29,41.29,0,0,0,2.12,8.77c1.13,3.32,2.09,5.94,2.88,7.88s1.72,4,2.8,6.32a34.46,34.46,0,0,0,3.51,5.89,51.9,51.9,0,0,0,4.92,5.47q3,3,4.29,4.08a21,21,0,0,0,3.37,2.27,10,10,0,0,1,2.59,1.8,2.78,2.78,0,0,0,1.46.92,14.08,14.08,0,0,1,2.75,1.36,11.09,11.09,0,0,0,3.87,1.41,50.52,50.52,0,0,0,6.28.49,24.67,24.67,0,0,0,7.48-.82,28.7,28.7,0,0,0,4.3-1.44,45,45,0,0,0,4.84-3.54,67.82,67.82,0,0,0,6-5.2,35.84,35.84,0,0,0,3.17-3.54,12.59,12.59,0,0,0,1.77-3.83c.51-1.63,1.12-3.29,1.83-5a15.13,15.13,0,0,0,1.13-3.24l0-.72"/><path id="STROKE_EC0BCC93-B23E-48B7-9A9F-2A40F4B0C0AC" data-name="STROKE EC0BCC93-B23E-48B7-9A9F-2A40F4B0C0AC" class="cls-3" d="M777.53,2.4a.85.85,0,0,1,.92.6,8.61,8.61,0,0,0,.74,1.57,5.75,5.75,0,0,1,.69,2.33A13.11,13.11,0,0,0,780.23,9a8.83,8.83,0,0,1,.2,2.26,10.74,10.74,0,0,1-.5,3.19A24.82,24.82,0,0,1,779,17a12.67,12.67,0,0,1-1.27,2.15c-.57.8-.94,1.21-1.11,1.24l-.25,0"/><path id="STROKE_02248240-1D4D-40CB-84D6-FD82135D2D46" data-name="STROKE 02248240-1D4D-40CB-84D6-FD82135D2D46" class="cls-3" d="M64.86,27a10.34,10.34,0,0,0-.43-4.52,50.13,50.13,0,0,0-2.58-5.37,34.24,34.24,0,0,0-3.71-5.72A18.58,18.58,0,0,0,54,7.68a33.4,33.4,0,0,1-3.29-2.34,10.76,10.76,0,0,0-3.07-1.61,45,45,0,0,0-5.87-1.68,28,28,0,0,0-6.11-.85,28.49,28.49,0,0,0-4.42.32,51.58,51.58,0,0,0-5,1.12,32.22,32.22,0,0,0-4.5,1.46A21.5,21.5,0,0,0,18.38,6a32.48,32.48,0,0,0-3.61,2.86,44.85,44.85,0,0,0-4.57,5.05,29,29,0,0,0-4,6.2,25.33,25.33,0,0,0-1.66,4.58,28.74,28.74,0,0,0-.59,4.45,16.61,16.61,0,0,0,.59,5.48,14.44,14.44,0,0,0,3,5.52,37.31,37.31,0,0,0,5.2,5.06,32.57,32.57,0,0,0,4.56,3.25A28.52,28.52,0,0,0,20.6,50,36.54,36.54,0,0,1,25,52.14a64.88,64.88,0,0,0,6.28,3.07,49.87,49.87,0,0,0,6.36,2.32,30.26,30.26,0,0,1,6.58,2.94q3.77,2.14,8.09,4.89a42.67,42.67,0,0,1,5.59,4,29.83,29.83,0,0,1,2.75,3.11,19.9,19.9,0,0,1,2.65,4.74,14.18,14.18,0,0,1,1.17,5.43,26.58,26.58,0,0,1-.4,4.81,17.39,17.39,0,0,1-1.47,4.46,26.88,26.88,0,0,0-1.42,3.49,10.52,10.52,0,0,1-1,2.34,22.88,22.88,0,0,1-1.88,2.58q-1.2,1.45-3.77,4.07a32.49,32.49,0,0,1-4.14,3.71,31.19,31.19,0,0,1-5,2.61A37.11,37.11,0,0,1,38.13,113a32.85,32.85,0,0,1-6.23.86,18,18,0,0,1-4.88-.61A9.18,9.18,0,0,1,23.88,112a30.58,30.58,0,0,0-4.39-2.47q-3.73-1.91-4.65-3.21a12.57,12.57,0,0,0-1.73-2.06,13,13,0,0,1-1.74-2.12,29.14,29.14,0,0,0-2.78-3.35,25.49,25.49,0,0,1-3.27-4.38,46.42,46.42,0,0,1-2.84-5.77c-.95-2.24-1.37-3.49-1.26-3.77l.16-.4"/></g><line class="cls-5" x1="356.45" y1="129.14" x2="654.27" y2="129.14"/></g></g></svg>