<svg xmlns="http://www.w3.org/2000/svg" viewBox="0 0 321.06 136.96"><defs><style>.cls-1{fill:#fff;}</style></defs><title>slab-plain-letters</title><g id="Layer_2" data-name="Layer 2"><g id="Draw_Layer" data-name="Draw Layer"><path class="cls-1" d="M11.31,13.43a15.42,15.42,0,0,0-3.46.94A13.07,13.07,0,0,0,3.21,17.3a9.24,9.24,0,0,0-1.67,2.34,13.75,13.75,0,0,0-1,2.23A11,11,0,0,0,0,25.6a12.15,12.15,0,0,0,.78,3.81,11.25,11.25,0,0,0,1.42,2.73,8.53,8.53,0,0,0,2.34,2.18,10.59,10.59,0,0,0,2,.91,14.87,14.87,0,0,0,2.55.64l3,.59c1.75.35,3.5.6,5.27.84a2.24,2.24,0,0,0,.57.08l.48.07.45.06a2.47,2.47,0,0,0,.38.05h.07l.87.11A24.77,24.77,0,0,1,25.58,39a19,19,0,0,1,2.84,1.73,16.79,16.79,0,0,1,2.21,2.17,15.52,15.52,0,0,1,1.12,1.94,17.83,17.83,0,0,1,.9,3.39c.15,1.3.22,2.61.27,3.92a25.4,25.4,0,0,1-.08,3.38,11.73,11.73,0,0,1-.56,2,20.4,20.4,0,0,1-2,3.25,16.35,16.35,0,0,1-2.07,2.17,10,10,0,0,1-1.55.91A33.24,33.24,0,0,1,20,65.51a8.72,8.72,0,0,1-1.77,0,12.07,12.07,0,0,1-2-.51,19.15,19.15,0,0,1-2.89-1.72A10.39,10.39,0,0,1,12,62c-.36-.52-.69-1-1-1.59a14.88,14.88,0,0,0-1.56-2.23,2.33,2.33,0,0,0-2.82-.37A2.38,2.38,0,0,0,5.81,61c.25.5.46,1,.7,1.52A11,11,0,0,0,7.36,64a12.24,12.24,0,0,0,2.42,2.85,15.32,15.32,0,0,0,7.27,3.52,15.46,15.46,0,0,0,2.14.19,15.24,15.24,0,0,0,2.23-.26c1.08-.17,2.18-.37,3.24-.63a27.38,27.38,0,0,0,3.57-1.12,12.23,12.23,0,0,0,3.7-2.26,19.43,19.43,0,0,0,2.78-3.16,22.93,22.93,0,0,0,1.75-2.83,12.88,12.88,0,0,0,1.34-4.49,21.82,21.82,0,0,0,.12-3.43,29.38,29.38,0,0,0-1.06-8.19A14.8,14.8,0,0,0,35,40.4a15.38,15.38,0,0,0-2.74-3,19.83,19.83,0,0,0-3.71-2.54,17.57,17.57,0,0,0-4.72-1.61c-1.47-.31-3-.46-4.47-.66a2.5,2.5,0,0,0-.66-.09l.52.07-.46-.06h-.15l-.27,0,.27,0h0c-1.27-.17-2.54-.35-3.81-.57s-2.38-.47-3.57-.7a25.13,25.13,0,0,1-3.45-.83c-.31-.16-.61-.32-.91-.51a6.63,6.63,0,0,1-.53-.53,8.84,8.84,0,0,1-.7-1.23A13,13,0,0,1,5,25.91a8.44,8.44,0,0,1,0-1.33,13.9,13.9,0,0,1,.52-1.81A11.91,11.91,0,0,1,6.5,21.1a10.9,10.9,0,0,1,.91-.89,14.39,14.39,0,0,1,1.91-1.08,13.52,13.52,0,0,1,1.77-.57c.65-.15,1.31-.27,2-.38a21,21,0,0,1,3.8,0,13.69,13.69,0,0,1,2.26.6,11.37,11.37,0,0,1,1.06.63,10.51,10.51,0,0,1,1.06,1.05,9.14,9.14,0,0,1,.64,1.09c.28.77.5,1.56.73,2.36a2.5,2.5,0,0,0,4.81-1.33,19.84,19.84,0,0,0-1.47-4,9.33,9.33,0,0,0-1.21-1.65,9.6,9.6,0,0,0-1.26-1.21,11,11,0,0,0-4-2.06,16.09,16.09,0,0,0-4-.53h-.27a25.87,25.87,0,0,0-3.93.36Zm6,23.88.19,0-.19,0Zm1.25-4.83h0Z"/><path class="cls-1" d="M55.17,11.54a7.32,7.32,0,0,0-1.46.47,10.13,10.13,0,0,0-1.94,1,11.85,11.85,0,0,0-3,2.93,20,20,0,0,0-3,6A60.87,60.87,0,0,0,44,28.3,86.17,86.17,0,0,0,42.08,42a45.58,45.58,0,0,0,1.27,13.47c.27,1.1.6,2.19.92,3.28s.59,1.94.94,2.89a18.05,18.05,0,0,0,1.59,3.28,10.88,10.88,0,0,0,2.45,2.66,20.54,20.54,0,0,0,6.2,3.25A18.49,18.49,0,0,0,62.06,72a16.52,16.52,0,0,0,3.27-.53,26.79,26.79,0,0,0,3.15-1c1.09-.41,2.2-.83,3.25-1.34a10.1,10.1,0,0,0,.91-.51,6.42,6.42,0,0,0,1.54-1.58,7.31,7.31,0,0,0,.89-1.87,2.23,2.23,0,0,0-1-2.51,2.24,2.24,0,0,0-2.69.35,13.65,13.65,0,0,1-1.24,1.28,10,10,0,0,1-1.29.7,29.91,29.91,0,0,1-6.39,2,13.11,13.11,0,0,1-1.88,0,26.6,26.6,0,0,1-5.07-1.51,18.38,18.38,0,0,1-3-1.71,11,11,0,0,1-1.28-1.27,15,15,0,0,1-1.09-2C49.47,58.79,49,57,48.45,55.17a43.9,43.9,0,0,1-1.18-5.67A47.22,47.22,0,0,1,47,42.67c.09-2.14.31-4.27.58-6.4a64.48,64.48,0,0,1,3.5-14.63,18.28,18.28,0,0,1,1.75-3.07,13,13,0,0,1,1.28-1.29,9,9,0,0,1,1.3-.79,10.28,10.28,0,0,1,1.34-.39,12.67,12.67,0,0,1,2.46.06,11.27,11.27,0,0,1,1.88.48,9.81,9.81,0,0,1,1.21.71,12.44,12.44,0,0,1,1.55,1.53,10.83,10.83,0,0,1,.74,1.23c.11.3.2.61.28.92a13.07,13.07,0,0,1-.11,2.65A1.75,1.75,0,0,0,65.32,25a1.82,1.82,0,0,0,2.57,0,2,2,0,0,0,.53-1.29,13.1,13.1,0,0,0,.11-3.25,9,9,0,0,0-.34-1.7A10.65,10.65,0,0,0,67.42,17a10.52,10.52,0,0,0-5.26-4.76,13.5,13.5,0,0,0-3.38-.78c-.49-.06-1-.1-1.46-.12h-.17a12,12,0,0,0-2,.24ZM47.68,35.7c0,.11,0,.21,0,.32,0-.11,0-.21,0-.32Z"/><path class="cls-1" d="M78.69,18.2c.2,2.67.39,5.34.69,8,.28,2.48.53,5,.8,7.45s.5,5.08.59,7.64.1,4.85.16,7.27c.06,2,.2,4.06.44,6.08s.56,4,.85,5.92c.19,1.54.29,3.1.52,4.64a18.48,18.48,0,0,0,.59,2.33c.09.3.19.6.3.89.34.92.91,2,2,2.13a2.72,2.72,0,0,0,1.9-.25,2.55,2.55,0,0,0,1.14-1.48,4.05,4.05,0,0,0,.12-.85,2.06,2.06,0,0,0-.58-1.57,18.5,18.5,0,0,1-.65-2.64c-.17-1.43-.27-2.86-.47-4.29s-.46-3-.67-4.51c-.29-2.35-.43-4.7-.49-7.08s-.08-4.84-.17-7.25-.37-5-.62-7.47-.54-5.09-.82-7.63-.43-4.89-.62-7.34A2.61,2.61,0,0,0,83,16.43a2.5,2.5,0,0,0-4.27,1.77Z"/><path class="cls-1" d="M107,17.11c.1,5,.09,10,.19,15s.19,10,.22,15c0,2.24.07,4.47.12,6.7s0,4.23.15,6.34c.12,2.34.27,4.67.58,7,.13.94.33,1.85.51,2.77.06.33.11.67.16,1a3.58,3.58,0,0,0,.32.88,2.79,2.79,0,0,0,1,1,2.28,2.28,0,0,0,1.82.24A2.62,2.62,0,0,0,113.47,72a3,3,0,0,0,.29-2.3c-.05-.36-.1-.72-.17-1.07-.17-.86-.34-1.71-.48-2.57-.55-4.72-.51-9.47-.62-14.21-.13-5-.09-10.08-.2-15.13-.07-3.18-.15-6.35-.19-9.54s0-6.69-.1-10a2.5,2.5,0,0,0-5,0Z"/><path class="cls-1" d="M101.3,36.89c-2,0-4,.09-6,.22s-3.81.19-5.72.25c-.88,0-1.74.08-2.61.16a25.25,25.25,0,0,1-2.61.2,2.5,2.5,0,0,0-2.62-.08,2.55,2.55,0,0,0-1.14,1.48A2.43,2.43,0,0,0,80.85,41a3.42,3.42,0,0,0,1.34,1.22,5.32,5.32,0,0,0,2.15.46c.45,0,.91,0,1.35-.08,1-.09,1.92-.19,2.87-.24,2-.1,4-.13,6-.24s4.07-.27,6.12-.27h6.35a2.5,2.5,0,0,0,0-5H101.3Zm-16.69,1,.1,0-.1,0Z"/><path class="cls-1" d="M136.26,13.41a14.44,14.44,0,0,0-4.28,1.1,13.28,13.28,0,0,0-3.22,2,15.73,15.73,0,0,0-2.73,2.8,8.26,8.26,0,0,0-.65,1,4.33,4.33,0,0,0-.47.4,10.28,10.28,0,0,0-1.21,1.63c-.58.89-1.12,1.82-1.63,2.77a17.18,17.18,0,0,0-1.43,3.49c-.29,1.06-.51,2.13-.71,3.21a43.86,43.86,0,0,0-.82,7.23c0,2.18,0,4.37,0,6.55a57.65,57.65,0,0,0,1.48,14.23,18.06,18.06,0,0,0,3.75,7,16.8,16.8,0,0,0,2.52,2.32,30,30,0,0,0,3.35,2.23,16.45,16.45,0,0,0,3.68,1.78,10.08,10.08,0,0,0,3.63.27,18.18,18.18,0,0,0,3.72-.75,12.6,12.6,0,0,0,3.25-1.44,21.14,21.14,0,0,0,3.09-2.58,22.6,22.6,0,0,0,2.1-2.28,16.72,16.72,0,0,0,2-3.22,23.36,23.36,0,0,0,1.45-3.81,47.79,47.79,0,0,0,1.33-7.3,56.25,56.25,0,0,0,.25-7c0-2.43-.1-4.85-.26-7.26-.08-1.2-.21-2.39-.36-3.57a29.91,29.91,0,0,0-.71-3.91,33.66,33.66,0,0,0-3-7.43,21.67,21.67,0,0,0-2.32-3.37,21,21,0,0,0-2.57-2.68,18.83,18.83,0,0,0-1.72-1.34,13.66,13.66,0,0,0-2.53-1.36,10.65,10.65,0,0,0-5.08-.7Zm1.79,4.86a11.54,11.54,0,0,1,1.63.44,13.79,13.79,0,0,1,2,1.27,24.4,24.4,0,0,1,2.85,2.9c.5.68,1,1.38,1.42,2.1a23.79,23.79,0,0,1,1.32,2.62,30.58,30.58,0,0,1,1.17,3.33,34.75,34.75,0,0,1,.76,3.62,91.1,91.1,0,0,1,.55,9.35,65.37,65.37,0,0,1-.34,9,34.06,34.06,0,0,1-1.8,7.32,16.83,16.83,0,0,1-1.53,2.71,25.24,25.24,0,0,1-3.69,3.69,9.33,9.33,0,0,1-1.54.94,18.45,18.45,0,0,1-3.18.86,11.91,11.91,0,0,1-2,.05,8.19,8.19,0,0,1-.81-.23c-.77-.36-1.5-.8-2.24-1.23a25.43,25.43,0,0,1-2.37-1.49,18.4,18.4,0,0,1-2.67-2.55,20.16,20.16,0,0,1-1.65-2.8,26.53,26.53,0,0,1-1.37-5.69,88.29,88.29,0,0,1-.49-9.62,72.09,72.09,0,0,1,.27-9.52c.16-1.08.36-2.15.57-3.23a23.38,23.38,0,0,1,.92-3.4c.29-.62.62-1.23,1-1.83a2.17,2.17,0,0,0,.92-.3,2.27,2.27,0,0,0,1.08-1.4c.09-.5.17-1,.28-1.48l.26-.23a2.15,2.15,0,0,0,.67-1.7,14.66,14.66,0,0,1,1.55-1.5,13.88,13.88,0,0,1,2.13-1.29,14.17,14.17,0,0,1,2.48-.66,12.56,12.56,0,0,1,1.84,0Z"/><path class="cls-1" d="M158.76,17.58c.06,2.35.2,4.69.25,7s0,4.7.11,7.05.14,4.63.3,6.94.37,4.89.46,7.34c.08,2.1.08,4.2.13,6.29.07,2.3.23,4.59.41,6.87.16,2,.35,4,.41,6,0,1,.11,1.93.2,2.89s.22,1.59.33,2.39c0,0,0,.1,0,.16v0a2.66,2.66,0,0,0,.33,1,2.76,2.76,0,0,0,1.67,1.32,3.48,3.48,0,0,0,1.54,0H165c1,.15,2,.27,3,.32,1.3,0,2.61.06,3.92.07s2.54,0,3.81,0l1.82,0a17.5,17.5,0,0,0,2.5-.25h0l.2,0-.16,0,.52-.07-.09,0a42.14,42.14,0,0,1,4.21-.32,24.71,24.71,0,0,1,3.75,0c.64.08,1.27.17,1.92.21a5.42,5.42,0,0,0,1.55-.1,2.61,2.61,0,0,0,1.56-1.19,3.11,3.11,0,0,0,.37-1.4,2.29,2.29,0,0,0-2.56-2.23c-.7-.09-1.41-.11-2.11-.19h.12a19.62,19.62,0,0,0-2.18-.19c-.86,0-1.72,0-2.58,0-1.78.06-3.52.25-5.29.48h.06l.36,0-.32,0a21.39,21.39,0,0,1-3.3.14h-3.33a57.23,57.23,0,0,1-6.42-.21l-.32-.05c-.09-.77-.15-1.54-.18-2.32,0-1-.07-2-.15-3.06-.18-2.26-.36-4.52-.51-6.78s-.2-4.73-.24-7.1-.13-4.75-.31-7.13c-.3-4-.5-8.07-.57-12.12,0-2,0-4-.09-5.93s-.17-4-.22-6.05a2.54,2.54,0,0,0-2.5-2.5,2.51,2.51,0,0,0-2.5,2.5Zm30.83,50.34.31,0-.31,0Zm-10.25.29-.22,0h0l-.07,0-.33,0,.35-.05.25,0Zm-13.09,1.38h0c0,.16.05.33.07.49,0-.17,0-.34-.07-.5ZM161.3,70l0,.1,0-.1Zm18.8,3.16h0Zm-1-4.87h0Z"/><path class="cls-1" d="M201.61,67.62a.46.46,0,1,0,.46-.46.47.47,0,0,0-.46.46Z"/><path class="cls-1" d="M210.75,16.75A3.22,3.22,0,0,0,209,18.09a5.87,5.87,0,0,0-.56,1.22c-.39,1-.64,2.07-.93,3.11s-.61,2.18-.9,3.27c-1.12,4.2-1.93,8.48-2.89,12.72s-1.44,8.63-2,13q-.6,4.26-1.36,8.5c-.51,2.84-1.17,5.64-1.69,8.48a2.65,2.65,0,0,0,.25,1.93,2.54,2.54,0,0,0,1.49,1.14,2.5,2.5,0,0,0,1.93-.25,2.39,2.39,0,0,0,1.15-1.49c.34-1.84.75-3.67,1.12-5.5s.71-3.71,1-5.58c.64-3.87,1.13-7.75,1.65-11.63.29-2.14.6-4.29,1.07-6.4.52-2.33,1.05-4.66,1.54-7s1-4.56,1.61-6.81c.29-1.1.61-2.2.91-3.3v0a42.6,42.6,0,0,1,4.43,7.84c.77,1.86,1.53,3.74,2.31,5.59.85,2,1.65,4.08,2.34,6.16.77,2.28,1.55,4.56,2.36,6.82s1.54,4.24,2.37,6.34c.91,2.27,1.7,4.58,2.43,6.92.45,1.48.87,3,1.27,4.45a20.59,20.59,0,0,0,.66,2.06c.17.43.29.86.42,1.3a2.55,2.55,0,0,0,.32,1.42,2.27,2.27,0,0,0,2.59,1,3.48,3.48,0,0,0,1.21-.66,2.45,2.45,0,0,0,.73-1.16,3.29,3.29,0,0,0,0-1.84,8.66,8.66,0,0,0-.41-1.34,26.34,26.34,0,0,1-.93-3c-.61-2.3-1.33-4.57-2.08-6.82S230.75,54.19,230,52s-1.59-4.32-2.34-6.5c-.63-1.83-1.21-3.68-1.87-5.49-.77-2.11-1.63-4.18-2.5-6.24.09.2.17.4.25.6-1-2.42-1.93-4.9-3.06-7.27a41.43,41.43,0,0,0-3.81-6.37,14.11,14.11,0,0,0-2.56-2.89,9.69,9.69,0,0,0-1-.75,3.34,3.34,0,0,0-1.6-.45,1.9,1.9,0,0,0-.68.11ZM219,36.36c.05.1.09.21.13.31,0-.1-.08-.21-.13-.31Z"/><path class="cls-1" d="M207.5,45.51c-.83.05-1.67.16-2.5.15h-.08a1.4,1.4,0,0,0-.34-.08,2.32,2.32,0,0,0-1.28,0,2.36,2.36,0,0,0-1.07.62,2.41,2.41,0,0,0-.38,2.92,2.8,2.8,0,0,0,.9.91,3.72,3.72,0,0,0,.77.33,4.33,4.33,0,0,0,1,.15,3.53,3.53,0,0,0,.46,0c.41,0,.83-.06,1.24-.1.84-.08,1.68-.16,2.53-.2,1.77-.1,3.55-.08,5.32,0s3.68.27,5.52.25c.88,0,1.75-.06,2.63-.13a28.28,28.28,0,0,0,2.9-.33,8,8,0,0,0,.81-.2,2.68,2.68,0,0,0,.77-.35,1.61,1.61,0,0,0,.55-.55l.18-.43a1.44,1.44,0,0,0-.38-1.42,1.59,1.59,0,0,0-.94-.44c-.25,0-.5-.06-.75-.08l-.59-.05c-.41,0-.81,0-1.22-.06l-.25,0-.55-.15a1,1,0,0,0-.72.1l-1.16-.05c-1.82-.08-3.63-.32-5.44-.52a53,53,0,0,0-5.34-.33h-.3c-.77,0-1.54,0-2.31.06Z"/><path class="cls-1" d="M245.38,69a.46.46,0,0,0,.92,0,.46.46,0,1,0-.92,0Z"/><path class="cls-1" d="M245.59,15.27l-.82.13a3.49,3.49,0,0,0-1.74.86,4.19,4.19,0,0,0-1.22,2.44c-.15.86-.16,1.72-.28,2.58l.09-.66a49.94,49.94,0,0,0-.44,7c0,2.25.06,4.51.2,6.76s.41,4.71.57,7.06.23,4.74.37,7.11l0,.37-.11.15c-.11.24-.21.48-.31.72a2.5,2.5,0,0,0,0,1.33,2.56,2.56,0,0,0,.64,1.09c0,.35.05.7.07,1,.09,1.57.14,3.14.28,4.7s.35,3.27.53,4.9c.09.8.21,1.61.29,2.42a11.58,11.58,0,0,1,0,2.28c0,.32-.09.64-.14,1a2.69,2.69,0,0,0,.25,1.93,2.48,2.48,0,0,0,3.42.89,2.37,2.37,0,0,0,1.15-1.49,19.85,19.85,0,0,0,.36-4.21c-.08-1.25-.29-2.5-.43-3.75-.26-2.39-.51-4.76-.63-7.16,0-.76-.08-1.53-.14-2.29.91-.23,1.81-.51,2.7-.78a66.06,66.06,0,0,0,6.44-2.21,29.51,29.51,0,0,0,7-3.92c1-.76,1.91-1.57,2.83-2.41A22.21,22.21,0,0,0,269.23,40a14.36,14.36,0,0,0,2-3.7,13.35,13.35,0,0,0,.67-2.72,12.6,12.6,0,0,0,.08-1.94,19.9,19.9,0,0,0-.68-4.13,12.73,12.73,0,0,0-1.86-4,17.93,17.93,0,0,0-2.73-3,15.79,15.79,0,0,0-3.46-2.44,22.18,22.18,0,0,0-3.93-1.48c-1.27-.38-2.55-.73-3.84-1A24.77,24.77,0,0,0,250.4,15h-.29a34,34,0,0,0-4.52.31Zm7,4.84c1.32.23,2.61.54,3.89.89s2.57.74,3.83,1.22a15.13,15.13,0,0,1,2.07,1.18A21,21,0,0,1,265,25.94a13.69,13.69,0,0,1,1.17,1.94,18.14,18.14,0,0,1,.74,3,11.89,11.89,0,0,1,0,2.31,11.07,11.07,0,0,1-.48,1.68,17.48,17.48,0,0,1-1.65,2.79,28.65,28.65,0,0,1-4.31,4.07A30.25,30.25,0,0,1,255,44.8c-1.8.72-3.64,1.29-5.48,1.86l-2.25.68c-.1-2.32-.22-4.64-.38-7-.12-1.66-.28-3.31-.42-5s-.18-3.35-.23-5a55.48,55.48,0,0,1,.28-8.93l-.06.41c.08-.58.13-1.15.18-1.73a27.34,27.34,0,0,1,5.93,0Zm-5.66,0-.27,0h0l.26,0Z"/><path class="cls-1" d="M256.74,46.64a2.51,2.51,0,0,0-.73,1.77,2.41,2.41,0,0,0,.73,1.77,41.38,41.38,0,0,1,3.69,3.44q1.6,1.7,3,3.53c.59.79,1.16,1.59,1.7,2.42s1.07,1.86,1.59,2.81a38.31,38.31,0,0,0,3.78,5.29,13,13,0,0,1,1.34,2.16,4.15,4.15,0,0,0,.32.71,2.49,2.49,0,0,0,4.65-1.25,2.63,2.63,0,0,0-.37-1.32c0-.08-.07-.16-.11-.25a2.29,2.29,0,0,1,.1.23h0a12.1,12.1,0,0,0-1.07-2c-.63-.93-1.35-1.77-2-2.64a32.59,32.59,0,0,1-2.5-3.82c-.41-.75-.82-1.51-1.27-2.24A28.23,28.23,0,0,0,268,54.88a47,47,0,0,0-3.54-4.3c-.65-.69-1.3-1.38-2-2s-1.44-1.29-2.17-1.9a2.68,2.68,0,0,0-1.77-.73,2.49,2.49,0,0,0-1.77.73Z"/><path class="cls-1" d="M294.6,11.79a16.51,16.51,0,0,0-4,.8A21.06,21.06,0,0,0,287,14.27a13.26,13.26,0,0,0-3,2.28,12.57,12.57,0,0,0-2.37,3.7A9.15,9.15,0,0,0,281,22.3a9.37,9.37,0,0,0-.14,2.18c0,.57.14,1.13.22,1.69A12.09,12.09,0,0,0,282.34,30a17.54,17.54,0,0,0,2.34,3.46A20.48,20.48,0,0,0,291.07,38c2.14,1.11,4.31,2.18,6.52,3.16a33.73,33.73,0,0,1,6.12,3.37,23.71,23.71,0,0,1,3.35,3.37,12.66,12.66,0,0,1,1.25,2.25c.34.85.65,1.7.92,2.57a16.53,16.53,0,0,1,.57,2.58,16.2,16.2,0,0,1,.13,3,15.91,15.91,0,0,1-.74,2.83,15.08,15.08,0,0,1-1.41,2.35,13.27,13.27,0,0,1-1.87,1.8,11,11,0,0,1-1.58.94c-.68.25-1.37.47-2.06.69a18.27,18.27,0,0,1-2.42.62,16.14,16.14,0,0,1-3,.08c-.32-.07-.65-.15-1-.25a8,8,0,0,1-1.08-.66c-.76-.63-1.48-1.3-2.19-2a26.49,26.49,0,0,1-1.92-1.9,8.5,8.5,0,0,1-.62-1.15,5.79,5.79,0,0,0-1.49-2.51,2.51,2.51,0,0,0-1.07-.62,2.43,2.43,0,0,0-3,1.69,2.29,2.29,0,0,0,.25,1.86,4.19,4.19,0,0,1,.43.81l.57,1.36A8,8,0,0,0,287,66a22.57,22.57,0,0,0,2.33,2.36,28.48,28.48,0,0,0,3.2,2.71,8.81,8.81,0,0,0,4.05,1.43,16.54,16.54,0,0,0,6.74-.74c.88-.28,1.77-.55,2.63-.89a12.37,12.37,0,0,0,1.73-.81,16.14,16.14,0,0,0,5.82-6.36A15.8,15.8,0,0,0,314.67,60a12.79,12.79,0,0,0,.23-3.75,23.73,23.73,0,0,0-.58-3.93,27.21,27.21,0,0,0-1-3.13,16.3,16.3,0,0,0-1.85-3.77,25.92,25.92,0,0,0-2.65-3.08,22.49,22.49,0,0,0-4.71-3.57,50.49,50.49,0,0,0-5-2.42c-1.62-.73-3.2-1.53-4.78-2.33a33.72,33.72,0,0,1-4.63-2.67,15.89,15.89,0,0,1-1.86-1.9,16.07,16.07,0,0,1-1.33-2.31,13.62,13.62,0,0,1-.65-2.49,7,7,0,0,1,0-1.29,7.88,7.88,0,0,1,.4-1.36,13.31,13.31,0,0,1,.86-1.46,11,11,0,0,1,1.29-1.26,19.35,19.35,0,0,1,2.88-1.62,15.53,15.53,0,0,1,3.09-.85,18.17,18.17,0,0,1,3.38,0,17.53,17.53,0,0,1,2.84.77,13.15,13.15,0,0,1,1.89,1.08A14,14,0,0,1,304,20.19a14.42,14.42,0,0,1,1.34,2.24l.33.84a2.63,2.63,0,0,0,1.15,1.49,2.51,2.51,0,0,0,3.42-.89,2.42,2.42,0,0,0,.25-1.93,16.78,16.78,0,0,0-1.77-3.7,14.61,14.61,0,0,0-2.49-3,20,20,0,0,0-1.85-1.36,12.87,12.87,0,0,0-2.12-1,16.21,16.21,0,0,0-4.06-1,18.4,18.4,0,0,0-2.22-.15,11.9,11.9,0,0,0-1.34.07ZM285.05,62.3l.07.18-.07-.18Z"/><path class="cls-1" d="M312.38.71a2.48,2.48,0,0,0,0,3.47A25.26,25.26,0,0,1,314.14,6a17.05,17.05,0,0,1,1.44,2.57,18.93,18.93,0,0,1,.86,3.35,2.29,2.29,0,0,0,.6,1,2.32,2.32,0,0,0,3.3,0,2.53,2.53,0,0,0,.69-1.65A9.87,9.87,0,0,0,320,6.38a18,18,0,0,0-1.3-2.45A20,20,0,0,0,315.85.71,2.49,2.49,0,0,0,314.11,0a2.4,2.4,0,0,0-1.73.71Z"/><path class="cls-1" d="M6.9,83.59c.09,2.48.11,5,.17,7.44s.12,4.91.15,7.37c.08,4.75.32,9.48.29,14.23,0,2.36-.15,4.71-.22,7.07-.07,2.21-.12,4.42-.13,6.63a25.61,25.61,0,0,0,.19,3.15c.05.45.07.91.12,1.37A5.9,5.9,0,0,0,8,132.91a3.47,3.47,0,0,0,2.21,1.68,9.93,9.93,0,0,0,1.8.21,11.86,11.86,0,0,0,2.15-.2c.52-.07,1.05-.16,1.57-.25l.79-.13a54.66,54.66,0,0,1,5.87-.25h3.09c1.1,0,2.2-.05,3.3,0,2.36.08,4.69.55,7.05.64,1.23,0,2.46,0,3.69,0h1.18a4.08,4.08,0,0,0,2.15-.38A2.43,2.43,0,0,0,44,132.8a2.52,2.52,0,0,0-.63-2.37c-.81-1-2.17-.8-3.29-.8H37.7c-1,0-1.91,0-2.87-.08-1.18-.08-2.36-.27-3.54-.39s-2.44-.23-3.67-.22l-3.15,0c-2,0-4.11,0-6.16.11-1.73.11-3.42.41-5.13.66a7.34,7.34,0,0,1-.81.05c0-.1,0-.2,0-.3-.07-.58-.15-1.15-.17-1.73,0-1,0-2.06,0-3.1,0-2.25.08-4.52.17-6.77s.17-4.65.16-7-.06-4.9-.15-7.34c-.25-6.66-.21-13.32-.46-20a2.5,2.5,0,0,0-5,0Z"/><path class="cls-1" d="M67.28,80.19A5.75,5.75,0,0,0,66,82.52c-.33.91-.68,1.8-1,2.71-.68,2-1.23,4-1.8,6-.62,2.2-1.29,4.38-1.9,6.57s-1.33,4.62-2,6.92q-2,6.74-4.09,13.45c-.66,2.16-1.26,4.35-1.91,6.52s-1.39,4.54-2.25,6.74l-.33.84a2.39,2.39,0,0,0,.25,1.93,2.54,2.54,0,0,0,1.49,1.14,2.5,2.5,0,0,0,1.93-.25,2.71,2.71,0,0,0,1.15-1.49c.88-2.24,1.63-4.52,2.35-6.81s1.26-4.43,1.94-6.63c1.37-4.44,2.7-8.89,4.06-13.34,1.28-4.21,2.46-8.45,3.7-12.67.66-2.21,1.25-4.44,1.94-6.64.2.44.39.87.58,1.31.81,2,1.53,4,2.34,6,.94,2.31,1.87,4.62,2.75,7,.81,2.17,1.72,4.31,2.57,6.47s1.63,4.64,2.51,6.93c.65,1.71,1.39,3.39,2,5.13s1.06,3.51,1.64,5.26c.27.85.59,1.69.84,2.55s.44,1.74.64,2.62a12.61,12.61,0,0,0,.87,2.53,3,3,0,0,0,2.66,1.9,2.56,2.56,0,0,0,1.74-.72,2.49,2.49,0,0,0,.63-2.38,2.63,2.63,0,0,0-.49-.94c-.08-.11-.14-.24-.21-.36a23.4,23.4,0,0,1-.66-2.59c-.27-1.13-.62-2.22-1-3.32-.71-2.1-1.26-4.26-2-6.35s-1.73-4.34-2.51-6.55-1.63-4.6-2.56-6.86-1.72-4.39-2.57-6.59-1.82-4.48-2.7-6.73c-.44-1.14-.85-2.29-1.3-3.42s-1-2.33-1.48-3.48c-.43-1-.85-2-1.3-3-.09-.21-.2-.41-.31-.61a4.35,4.35,0,0,0-1.31-1.42,2.57,2.57,0,0,0-1.55-.49,3,3,0,0,0-2,.8Z"/><path class="cls-1" d="M81.36,110.83a21.92,21.92,0,0,1-3.55,1,29.92,29.92,0,0,1-4.54,0c-1.69-.1-3.39-.16-5.08-.21s-3.31-.14-5-.19l-2.31,0a18.31,18.31,0,0,0-2,0,2.64,2.64,0,0,0-1.26.34,2.48,2.48,0,0,0-.89,3.4,2.34,2.34,0,0,0,1.49,1.13,22,22,0,0,0,2.93.14q1.38,0,2.76.06l5.85.21c2,.08,4,.24,6.07.28a16.41,16.41,0,0,0,3.43-.32,22.73,22.73,0,0,0,3.35-1,2.64,2.64,0,0,0,1.49-1.15,2.47,2.47,0,0,0,.25-1.92A2.59,2.59,0,0,0,82,110.71a2,2,0,0,0-.68.12Z"/><path class="cls-1" d="M94.48,83.74c0,1.6-.08,3.2,0,4.81s.24,3,.44,4.57c.39,3.07.81,6.14,1.24,9.2.3,2.41.46,4.83.63,7.26s.39,4.79.5,7.19.3,4.68.46,7c.15,2.18.36,4.34.64,6.5.08.63.2,1.22.33,1.83.05.24.08.48.12.73a4.37,4.37,0,0,0,.12.49c0,.11,0,.22,0,.33a1.84,1.84,0,0,0,.37.83,1.74,1.74,0,0,0,.3.37h0a3.14,3.14,0,0,0,.5.38,2.53,2.53,0,0,0,1.23.34,2.58,2.58,0,0,0,1.73-.72,2.84,2.84,0,0,0,.63-2.93,5.23,5.23,0,0,1-.15-.77c-.07-.5-.22-1-.29-1.48-.25-2-.43-3.93-.57-5.91-.16-2.34-.35-4.68-.46-7s-.33-4.79-.5-7.19-.34-5-.65-7.43c-.17-1.28-.36-2.56-.54-3.85l.09.67c-.34-2.54-.69-5.07-1-7.61a55.34,55.34,0,0,1-.21-7.62,2.5,2.5,0,0,0-5,0Zm8.87,46.33,0,.22,0-.22Z"/><path class="cls-1" d="M101.31,81a18.32,18.32,0,0,0-2.66.38c-.77.19-1.52.46-2.28.72a2.63,2.63,0,0,0-1.49,1.15,2.5,2.5,0,0,0,2.82,3.67,21.71,21.71,0,0,1,3-.86,42.41,42.41,0,0,1,4.51-.2,45.26,45.26,0,0,1,4.65.24,24.48,24.48,0,0,1,6.16,1.74,18.34,18.34,0,0,1,3.19,1.76,13.62,13.62,0,0,1,1.45,1.49,13.48,13.48,0,0,1,.83,1.37,10.27,10.27,0,0,1,.48,1.81,13.14,13.14,0,0,1,0,2.43,10.07,10.07,0,0,1-.43,1.61,13.74,13.74,0,0,1-.88,1.53,14.45,14.45,0,0,1-1.69,1.72,30.87,30.87,0,0,1-5.15,3c-1,.48-2.06.91-3.08,1.37L108,107.15c-1.05.43-2.11.83-3.19,1.19s-1.94.58-2.9.91a3.19,3.19,0,0,0-1.36.77,2.57,2.57,0,0,0-.38,3,3,3,0,0,0,2.88,1.3,13.76,13.76,0,0,0,2-.25l1.82-.29c1.51-.18,3-.29,4.53-.34a32.46,32.46,0,0,1,4.3.06,13.08,13.08,0,0,1,2.28.63,12.35,12.35,0,0,1,1.73,1,16.39,16.39,0,0,1,2.22,2.34,12.83,12.83,0,0,1,1.43,2.28,15.24,15.24,0,0,1,.85,3.11,10.36,10.36,0,0,1,.06,1.76,7.86,7.86,0,0,1-.27,1,9.7,9.7,0,0,1-.8,1.36,9.94,9.94,0,0,1-.79.8,10.38,10.38,0,0,1-1.53.86c-1.72.67-3.49,1.21-5.25,1.73a39.72,39.72,0,0,1-5.16,1.29,18.6,18.6,0,0,1-4.21.22,7.22,7.22,0,0,1-1.52-.39l-.64-.24,0-.06a2.83,2.83,0,0,0-.37-.32,2.38,2.38,0,0,0-2.15-.48,2.31,2.31,0,0,0-1.71,2.25c0,.12,0,.24,0,.36a3.18,3.18,0,0,0,.82,1.95,3.83,3.83,0,0,0,1.8,1,17.58,17.58,0,0,0,2.12.71,14.06,14.06,0,0,0,3.54.26c1.39-.08,2.78-.28,4.15-.49a21.76,21.76,0,0,0,2.87-.68l3.16-.94a27.24,27.24,0,0,0,6.45-2.54,10.42,10.42,0,0,0,3.06-3.14,9.44,9.44,0,0,0,1.47-4.3A13.41,13.41,0,0,0,129,121a15,15,0,0,0-1.11-3.39,12.17,12.17,0,0,0-1.53-2.54,20.86,20.86,0,0,0-2.68-3.09,13.49,13.49,0,0,0-6.56-3.2l-.28,0a28.46,28.46,0,0,0,6.09-3.91,13.56,13.56,0,0,0,2.61-3.23,12.65,12.65,0,0,0,.94-2.13,8.1,8.1,0,0,0,.38-1.6A13.85,13.85,0,0,0,127,94a14,14,0,0,0-.41-2.24,11.64,11.64,0,0,0-.83-2,13.35,13.35,0,0,0-5.56-5.44,30.57,30.57,0,0,0-3.62-1.59,24.85,24.85,0,0,0-3.37-1.06,26.29,26.29,0,0,0-4-.62c-1.18-.1-2.37-.16-3.55-.16-1.43,0-2.87,0-4.29.14ZM108,107.17l-.53.22.53-.22Zm-1.31,6.69-.36,0,.36,0ZM111,131.62l-.36,0,.36,0Z"/></g></g></svg>