<svg xmlns="http://www.w3.org/2000/svg" viewBox="0 0 372.84 616.96"><defs><style>.cls-1{fill:#141413;}.cls-2{fill:#181818;}.cls-3{fill:#030303;}.cls-4{fill:#fc02fb;}.cls-5{fill:#02fbfb;}.cls-6{fill:#f5f5f2;}</style></defs><title>slab-logo-color</title><g id="Layer_2" data-name="Layer 2"><g id="Layer_1-2" data-name="Layer 1"><path class="cls-1" d="M4.18,466C-.12,461.34-1.54,452.4,2,447.64s9.26-5.28,14.89-4.62c4.46.52,8.89,1.66,13.35,1.71,15.12.2,30.26.42,45.38-.07,21.28-.68,42.54-2,63.8-3,1.81-.08,3.62,0,5.06,0V388.91l3.4-.5,0-1-3.44-.5c-.09-18.95-.38-37.91-.15-56.87a18.73,18.73,0,0,0-5.44-14.13C112.77,287.74,86.92,259.32,61,231a7.07,7.07,0,0,1-.89-1.68l6.59-1c-2.57-2.2-4.43-3.79-6.36-5.27l.28-.28-1.22-1.45-.61.6A8.8,8.8,0,0,0,60.34,223c0,2-.17,4.12-.29,6.24-9.49-9.94-19.23-19.65-28.39-29.87C21.9,188.5,12.69,177.13,3.25,166c-4.67-5.52-4.15-12.54,1.3-17.16,2.53-2.15,5.17-4.16,7.75-6.23l.42,5.76c7.56-.86,7.56-.86,7.6-7.52,0,0,.15.16.27.29L22,139.89l-.6-.61a9.47,9.47,0,0,0-1.12,1.54c-2.33.39-4.75.69-7.18,1L20,134.72c1.69.83,4.43,2.76,4.89,2.31,2.47-2.38,4.38-5.35,6.47-8.13l-.63-.94-8.12,4c22.86-22.37,43.5-47,68.53-67.17,2.53,5.52-4.43,4-5.55,7.46l5.11,2.13,5.83-6.59-3.35-5,7-6.31c.33,1,.65,2,1,3l1.31-.91-2.25-2.11q21.48-22.89,43-45.77C146.32,7.36,149.45,4,152.87,1a4.81,4.81,0,0,1,4.41-.68,20.09,20.09,0,0,1,5.49,5c5.32,6.8,10.44,13.74,15.65,20.63l-5.82.52c-.08.5-.17,1-.26,1.5,1.43.62,2.9,1.76,4.28,1.66.69-.05,1.21-2.38,1.8-3.68C199.32,46.21,219.64,67,238,89.76c6.46,8,13.7,15.39,20.58,23.06l-1.61,1.24.33.33,1.24-1.62q14,14.66,28.06,29.3c3.05,3.19,6.13,6.34,9.2,9.52l-3.17,1.89,1.17,1.29,2.06-3.12c4.75,1.47,5.22,5.4,4.55,9.24-.74,4.26-2.35,8.66-7.23,9.78a107.49,107.49,0,0,1-18.1,2.92c-8.53.45-17.1,0-25.66-.08-3.12-2.25-10.6-2.3-13.94-.09l-8.06,0c-1.41-.5-2.81-1.39-4.23-1.43-6.24-.16-12.5-.08-18.74-.08l1.65-6c-3.81.67-4.73,3.34-5.65,6,0,.39,0,.77,0,1.16H164.68c0,11.54-.17,21.82,0,32.08.25,12.46.88,24.9,1.22,37.35.07,2.8-.37,5.62-.58,8.43l-1.77,1.7,1.68,1.32c-.44,17.91-1,35.81-1.16,53.72a12.61,12.61,0,0,0,3.27,7.62c10.57,11.89,21.43,23.52,32.19,35.24-.29,3.51-.79,7.15,4.06,7.76-.31-1.67-.58-3.08-.84-4.5l38,38-4.17,2.62c1.53.23,3,.53,4.59.66a6.29,6.29,0,0,0,1.91-.41l14.28,15.26-1.68,3,1.53.75,1.2-2.8q15.26,15,30.53,30,3.38,3.32,7,6.37c5.11,4.31,6.85,15.42,3.41,21.14-14,23.2-31.38,43.7-50.45,62.68-14.47,14.39-30.19,27.51-45.35,41.2l2.81-6.34-8,1.93c-.25,3-.55,6.65-.86,10.25l-17.73,15.79c7.31,0,14,0,20.63,0,18.28.08,36.55.21,54.82.29,6.32,0,12.64.16,19,0,23.94-.71,47.89-1.39,71.82-2.4a126.34,126.34,0,0,0,19.73-2.62c3.68-.75,6.08.67,6.48,3.55a53.66,53.66,0,0,1,.15,15.08c-.61,4.19-4.91,5.4-8.52,5.54-14.43.55-28.87.63-43.31,1-15,.42-29.93,1-44.89,1.52-7.15.26-14.3.79-21.45.82-33.59.14-67.19.15-100.78.21l-1.29-1.81L150.42,617c-2.45-1-5.4-1.34-7.26-3-3.83-3.36-7.09-7.38-10.58-11.12l5.45,1.35,1-3.72c-3.07-1-5.83-2.47-7.58,1.26l-21.21-23.51,7.77-4-3.09-2.8c-.06,2.68-7.13.32-5.61,5.75q-26.51-28.5-53-57c.63-2.72,2.32-5.81,1.54-8-.58-1.67-4.34-2.23-6.69-3.28L50.39,510q2,4.15,4.06,8.33l-8.92-9.45,4.23-.57-3.49-4.49-1.82,4L7.08,469.3c1.33-1.06,3.75-2.16,3.72-3.19,0-1.45-1.89-2.84-3.09-4.42ZM69.43,515.9l-.41-.21.39.22.41.21Zm53.87,51,.11.15c-.2,1.09-.39,2.18-.66,3.73h4.08l.72.84c-1.3,1.46-2.59,2.93-3.9,4.41l6.12,5.31v-2.66h3.86l.08.08-2.25,3.37,5.3-.35,3.81,3.81-1.11,3.48,1.49.33c.2-.9.39-1.8.59-2.7l2.54,2.08c1.3-.08,3.7,0,3.74-.29.46-3.19,1.19-6.56.55-9.62-.39-1.89-3-3.32-4.63-5L143.69,552c5.49-1.66,0-3.95.34-5.91.15-3.06.29-6.12.44-9.19l5.68-.36L144.6,525.9l.77-12c1-.78,2.76-1.44,2.89-2.35a56.44,56.44,0,0,0,1-12.67c-.16-2.08-2.41-4-3.72-6v-14l0-9c-.88-.68-1.71-1.86-2.65-1.95a64,64,0,0,0-7.46,0l-4.2-2.3,3.14-4.11c-3.54-3.54-6.33.2-9.25.6-.84.11-1.39,2.26-1.73,2.86l4,3.31h-22l-6-.2-2.93-.06L86.39,468l-12,1.08a30.72,30.72,0,0,0,0-3.72,65.8,65.8,0,0,0-6.74-.16l0,1.65,3.92,2.32-14.2,0,1.7-2.67c-2.47-.58-4.75-.65-6.53-1.63-4.53-2.51-8.09-1.64-11.16,2.29l-6.84-.5,2.61-2.79c-5.51-3.89-7.48-3.16-9.57,3.34l4.08,4.63-4.73,2.8c6.08,6.06,14.7,8.92,16.5,16.45,2.71,1.1,5.61,1.38,6.41,2.82,1.15,2.07.76,5,1.05,7.79l7.87-1.89q6.43,6.8,12.86,13.61c.24,1.36.47,2.71.71,4.07l2.35-1,1,.89q.42,3.78.82,7.57l-.39.21.17.18.22-.39,4.36.42L79.44,521l16.94,16.86-4.87-1.09-1.1,1c1,1.37,1.71,3.62,2.92,3.91,2.42.58,4-.86,3.13-3.7l3.93,4.06c.12,2.39.24,4.79.39,7.76h6.92l9.78,11a28.76,28.76,0,0,0-2.83,2.91c-.11.13.89,1.12,1.37,1.72l2.69-3.3,1.14,2.13,1.5.67,1.1,1.11Zm79.94-4.17,1.28.89,2.67-3.64a8.25,8.25,0,0,0-1.51-.79c-.88,1.13-1.65,2.35,5.95,2.31l-1.47-1.75-3.42,3.07,1.28,1.49C209.22,563.35,210.43,562.41,203.24,562.71ZM243.42,156.9c0-.39-.06-.79-.1-1.19l14.08-.8c3.24,3.37,8.68,2.82,9.93-1l-1-2.84c.23-2.91.47-5.82.84-10.34l-6.81,3.21-5.85-7,1.35-.65,4.45-2.16c-1.24-1.36-2.49-2.72-3.71-4.11-2-2.32-4-4.71-6.07-7-2.91-3.23-5.38-7.33-9-9.35s-5.69-4.13-5.91-8.14c-2.66.11-8.49-4.43-9-6.65a26.75,26.75,0,0,0-1.89-4.64L220.34,97c-.69-.85-1.39-1.69-2.08-2.53l-1-1.25-8-8.83c2.18-2,2.33-4.3.16-6.24-1.92-1.73-3.9-1.53-5.13,1.1l-1-1-2.86-9L196.19,71l-4.83-5a6.19,6.19,0,0,0,2.44-.24A11.22,11.22,0,0,0,196,63.62c-.59-.52-1.23-1.51-1.75-1.45a4.47,4.47,0,0,0-2.65,1.38c-.44.51-.22,1.59-.3,2.42l-9.06-9.48L180.11,54l-.77-1,6.83-2.6c-1.51-1.32-2.64-1.65-3.73-1.53a8.39,8.39,0,0,1-9.61-7.25c-1.12-6.58-4.1-4.25-7.44-2.77-.53,1.35-1.42,2.68-1.54,4.07-.31,3.62-.29,7.27-.4,10.9-.06,1.33-.12,2.67-.17,4l0,12c0,1,.07,2,.1,3q0,6.5,0,13c-5.87,5.14-6.65,12.89-9.76,19.43-.46,1,1.33,3,2.09,4.59l1.31-.51v-4h1.32v11.68l3.39.86-.06,3.91c-2.3.88-5.49,1.11-6.71,2.77-2.08,2.85.54,4.68,2.91,6.56,3.53,2.81,3.25,6.63.46,10.6-.62-2.29-1.24-4.58-2.15-7.9-1.84,4.2.79,21.4,3.21,24.83l6.06-4h11c2.41,5,6.88,6.31,9.38,2.9l-6.45-3,15.2.73c1.88,1.13,3.67,2.63,5.71,3.2.74.21,2.11-1.78,3.19-2.76l38.95-.1,1,1.13c2.12,3.85,3.43,4.05,7.41,0Zm-111-109c-2.24.23-5.35-4.65-6.74.14L131,51.7c-.39.94-.52,2.17-1.2,2.79-8,7.24-16,14.4-24,21.57-.11-1.2-.21-2.39-.32-3.57-5.76,1.2-6.83,2.68-6.91,9.74L29.09,153.52l113.49,2.33c.66-39.57,1.31-78.22,2-116.69A38,38,0,0,1,141.16,43c-3.22,2.9-6.59,5.65-9.9,8.46a35.73,35.73,0,0,0,1-3.59l.79.3,1-2.46L133,45.34A20.19,20.19,0,0,0,132.42,47.91Zm97.83,361.41,2.14-3.18L226.12,405c-3.92-3.84-8-7.54-11.72-11.54-6.91-7.37-13.63-14.91-20.43-22.38l9.68,1.29-3.48-6.72L193.93,371l-9.61-9.1,8.66-.53c-.68-7.55-7.32-2.07-10.27-5.74-.15,2.07-.23,3.2-.32,4.33l-16.48-17.35v98.8l97.38,2.31c-.39-.51-1.19-1.53-2-2.55l3.19-1.57-.27-.85-4.69.76-12.43-12.28L249,426l-.58-.6L247,427.2ZM95.48,243.82l10.17,10.7c-.8,1.39-2,2.71-2.22,4.19-.09.61,1.89,1.54,2.93,2.32.3-.38.61-.75.92-1.13-.54-1.78-1.07-3.57-1.61-5.35A13.84,13.84,0,0,1,107.6,256q16.45,17.1,32.89,34.22c.82.86,1.81,1.54,2.92,2.48V175.4c-37.33-3.58-74.32,2.49-111.21-4.62l28.59,34c-.46,1.19-.91,2.39-1.37,3.59l4-.52L95,243.14A6.72,6.72,0,0,0,93,251.41C97.77,249.81,95.38,246.46,95.48,243.82ZM174.1,574.58l1.91,3.14,1.24-1.2-3.11-2c1.46-1.54,2.86-3.16,4.4-4.62q33.89-32.08,67.81-64.13c.17,1.21.35,2.43.75,5.18l4.44-4.76-1-1.14-4.2.77,9.83-11.32,1.73,2.9,1-.95-2.68-2,12.7-15.37c-.19,1.8-.38,3.6-.69,6.51,2-.5,5.44-1,5.44-1.4a52.35,52.35,0,0,0-1.33-8.52l2.84-3.71c-37.25-2.53-73.63-5.31-110.91-4.2V582ZM148.05,94l-2.5.11-1.32,22.49,2.88.5a38.56,38.56,0,0,0,1.44-6,88.1,88.1,0,0,0,.21-10C148.7,98.72,148.3,96.35,148.05,94ZM307.33,600.32l1.16-1.57c-.8-.91-1.54-2.54-2.41-2.61-4.91-.41-9.86-.5-14.79-.55-.55,0-1.1.95-1.65,1.45l.09,1.75Zm24-3.84c-.18-.5-.36-1-.53-1.51-4.54,0-9.09-.1-13.62.09-.79,0-1.53,1.31-2.29,2,.71.59,1.4,1.64,2.14,1.67a87,87,0,0,0,10.95,0C329.11,598.61,330.18,597.26,331.29,596.48ZM158.24,302c-4.35,6.93-2.25,13.87,4.33,15.51C161.17,312.52,159.78,307.52,158.24,302ZM101.92,463.64c-2.42-3.41-10.48-5-12.88-3.24-.87.62-1.26,2.14-1.48,3.33-.1.55.82,1.87,1.1,1.82,1-.17,1.84-.94,2.81-1.19a41.28,41.28,0,0,1,6.38-1.31A16.61,16.61,0,0,1,101.92,463.64ZM60.51,450.15l10.95,3C66.93,446.1,65.22,445.59,60.51,450.15ZM155.9,66.4c5.85,0,6.15-2.94,5.19-5.72-.32-1-3.16-1-4.84-1.51C156.13,61.56,156,64,155.9,66.4Zm-.14-27.14c-.59,5.19-1,9.15-1.53,13.6C159.4,51,159.73,47.45,155.76,39.26ZM296.21,469.57c-1.47-2.47,2.27-6.44-2.56-7-.89-.11-2.28,4.09-3.8,7Zm-48.61-2,.94-1.52-10.17-4.86C240.06,467.29,243.49,468,247.6,467.53ZM280.22,486c-2.57,2.41-4.77,4.5-1.27,8.39,1.59-1.9,3-3.56,4.51-5.36ZM67.73,527.68l-.09,2.81a34.88,34.88,0,0,0,5.74.51c.23,0,.34-2.51.51-3.85Zm72.64-83.26h-11C133.75,447.73,137,447.73,140.37,444.42Zm21.12-273.76c4.44,2.06,6,.83,6.34-2,.09-.82-1.23-1.79-1.9-2.69Zm135.86,280.4-1.17-.12L290.52,456l5.53,1.42C296.48,455.3,296.92,453.18,297.35,451.06Zm48.53,145.4c0-.63-.07-1.26-.1-1.89h-10.7l0,1.17ZM80.19,533.87c-1.43,1.91-2.51,3-3.09,4.36-.14.33,1.92,2.08,2.06,2A11.78,11.78,0,0,0,82.22,537C82.43,536.61,81.25,535.43,80.19,533.87Zm156.17,60.7L235.05,597l4.66,2.64,1.48-2.75ZM100.18,157.27c0,.71,0,1.42-.05,2.14l8.66-.63-.09-1.51Zm71.53,305.86c0,.75-.08,1.5-.13,2.25,2,0,4.11,0,6.15-.09a15,15,0,0,0,.14-2.16Zm8.15-17.28c-5.52-2.66-7.05-2.33-7.81.74ZM106.24,271.22c-3.64,1.75-3.6,2.85,1.3,7.14C107.13,276.15,106.73,273.94,106.24,271.22Zm96.63,327.16c-.05-.83-.09-1.65-.14-2.48l-7.75.35c0,.59,0,1.18,0,1.77ZM40.92,501.88c1.19-1.73,2.44-2.85,2.23-3.4-.46-1.22-1.66-2.16-2.57-3.22-.67.77-2,1.63-1.89,2.29C38.86,498.79,39.84,499.91,40.92,501.88Zm88-335.21-.06,2.28,5.51.25.06-2.53Zm61.8,415.78c.2-3.3.34-5.61.49-8.06C187,575.75,186.92,576.05,190.72,582.45ZM48.32,452.27c-1.83-1.2-2.73-2.25-3.51-2.17-1,.1-2,1.08-3,1.68.75.69,1.45,1.85,2.26,1.94C45.1,453.83,46.21,453.05,48.32,452.27Zm75-175.47c-.26-.76-.52-1.51-.77-2.27-1.64.61-3.29,1.19-4.87,1.91a18.71,18.71,0,0,0,.7,2.08ZM31.54,191.31c5.68.32,7-.8,5.5-4.2Zm263.69-35.84-2.32,2.4,4.25,4.12,2.51-2.54ZM31.73,487l-1.55.07c-.17,1.36-.68,2.81-.36,4,.2.79,1.64,1.26,2.52,1.88l.86-.81ZM288,446.07l1.49-1.3-3.6-4-1.64,1.43ZM147.42,463.53l-1.26-2-3.53,2.58c.46.56,1.18,1.66,1.31,1.59A33.09,33.09,0,0,0,147.42,463.53ZM133.35,590l2.19-1.1-2.42-4-1.82,1Q132.34,588,133.35,590Zm86.35-143.6v-1h-6.58c0,.33,0,.66,0,1ZM143.85,29.88,142.71,31l3.37,4,1.58-1.53ZM92.42,552.24l-1.18,1,3.35,3.92C97.58,552.19,93.9,553.07,92.42,552.24Zm168.27-60.5v1.46h4.46v-1.46ZM32.51,450l-1.26,1.88L35.33,454l1-1.64ZM64,525.56l1.84-.2v-5.92l-1.22-.06ZM62.5,114.25,64,115.62,67.38,112l-1.44-1.33Zm-27,7.43,1.21,1.39,3.52-3-1.26-1.43ZM162.29,296.54l-2.06-.23-.23,4.33,1.76.15C161.93,299.37,162.11,298,162.29,296.54ZM48.37,112.38l-1.17-1.64-3.71,2.91c.31.44.62.89.94,1.33Q46.4,113.68,48.37,112.38Zm114,438.18-2.05-.23c-.1,1.4-.19,2.81-.29,4.21l1.9.16C162.05,553.32,162.19,551.94,162.34,550.56Zm194.13,46.65,1.83.46,1.12-4.93-1.6-.41ZM144.77,157l1.48.59,1.07-5.83-1.46-.25Zm-92.3,12.46,1.18,1.63,3.7-2.92-.94-1.33Zm199.47,2.25,2.23-.34c-.33-1.38-.67-2.76-1-4.14l-1.68.35ZM112.15,463c-.13-.59-.27-1.17-.41-1.76l-4,1c.13.57.27,1.14.4,1.71Zm165.29,7.37-2,.3c.17,1.32.33,2.65.5,4l1.77-.18C277.63,473.05,277.53,471.69,277.44,470.32ZM52.07,104.26l.2,2c1.21-.2,2.43-.38,3.61-.69a7.08,7.08,0,0,0-.25-1.64C54.44,103.94,53.25,104.12,52.07,104.26Zm107.68,177.5-1.83-1.63a6.59,6.59,0,0,0-1.29,2.16c-.07.34,1,1.29,1.51,1.23S159.08,282.54,159.75,281.76Zm-.82-208.19-.91,0v4.65l.91,0Zm-47.4-26.95,1.29,1.4,2.62-3L114.32,44ZM60,504.59l-.93,1.3,4.15,2.83.68-1ZM147.13,79.37l-1.55.12.22,4,1.78-.14ZM75.57,462.93c.18-.66.35-1.31.53-2-1-.18-2-.4-3-.49a3.06,3.06,0,0,0-.36,1.18C73.64,462.15,74.61,462.52,75.57,462.93ZM277.07,598c0-.51,0-1,0-1.53a26,26,0,0,0-3.06.08,9.17,9.17,0,0,0-.07,1.66ZM89.72,534.75c.17-.51.33-1,.5-1.53l-3-1c-.16.57-.31,1.14-.47,1.71ZM197,51.61c0,.38,0,.76,0,1.14l4.21.26.07-1.4ZM145.87,135.3l1,0,.19-3.77-1.24-.05ZM124,445.32c0,.49,0,1,.08,1.47l3.79-.36-.09-1.11ZM44.77,168.9c.06.56.13,1.12.2,1.68l2.84-.27c-.13-.56-.21-1.58-.39-1.6A13.19,13.19,0,0,0,44.77,168.9ZM5.12,165l1.24-1.28-2.59-2.91-1.3,1.32Zm67.74,71.16-1.26.53,1.5,3.81,1.38-.58ZM121.94,37l-1.63,1,1.82,2.77,1.3-.74ZM354.38,596c.3-.56.6-1.12.89-1.68l-3-1.37-.69,1.31ZM259.41,124l1.43.7,1.48-3-1.42-.7Zm5.81,46.42-.26-1.18-2.82.13c.2.66.4,1.31.61,2ZM129.58,298.65c-.43.86-1,1.43-.86,1.85s.77.81,1.2,1.21a5.82,5.82,0,0,0,1.14-1.68C131.13,299.79,130.31,299.31,129.58,298.65ZM143.91,36a11,11,0,0,0-2.7-.74c-.51,0-1,.51-1.5.78a5.82,5.82,0,0,0,1.21,1.63C141.12,37.77,141.85,37.13,143.91,36ZM139,462.83c-.55.9-1.09,1.41-1.08,1.9,0,.33.9,1,1.23.88a1.77,1.77,0,0,0,1-1.27C140.19,464,139.56,463.53,139,462.83Zm28.9-445.28,1.32-.38-1.52-2.94-1,.48C167.09,15.66,167.49,16.6,167.88,17.55ZM120.53,44.31c-.65-.88-.9-1.56-1.36-1.75s-1,.28-1.5.46c.23.53.33,1.27.73,1.53S119.47,44.46,120.53,44.31Zm-71,84.59c-.88-.37-1.46-.84-1.83-.71s-.73.82-1.09,1.26c.42.33.9,1,1.24.92C48.35,130.27,48.73,129.65,49.54,128.9ZM36,156.36c0,.44,0,.89.08,1.33l2.88-.45-.12-.88Zm39.54,15.1c-.9-.54-1.41-1.09-1.91-1.07-.33,0-1,.89-.88,1.22a1.77,1.77,0,0,0,1.28,1C74.35,172.67,74.79,172,75.5,171.46Zm-29.89,36.1c-.47.9-1,1.43-.92,1.89s.93,1,1.15.94a2.13,2.13,0,0,0,1.09-1.32C47,208.74,46.28,208.29,45.61,207.56ZM148,419.45l-1.33.07.45,2.89.88-.13Zm48,24.93c0,.44.05.89.08,1.33l2.86-.46-.12-.87ZM157.87,577.45H157v2.83h.91ZM239,445.2c0,.39,0,.78-.07,1.17l2.84.13.06-1.14ZM57,460.55c-.56.78-1.21,1.32-1.11,1.66.13.51.78.89,1.21,1.32.39-.4,1.08-.8,1.08-1.21S57.58,461.38,57,460.55ZM3.71,153.06l.84.66,1.55-2-.84-.65ZM286.89,479.28l-1.29.37a22.46,22.46,0,0,0,1,2c0,.1.56-.08.85-.12C287.26,480.8,287.08,480,286.89,479.28ZM251.47,407l-1.42,1.45,1.79,1.63,1.41-1.45ZM6.2,447.84l-1-.79-1.39,2.07.72.55ZM165.32,586.77c.42-.58.87-.92.87-1.26s-.43-.73-.67-1.1c-.31.31-.81.58-.86.92S165,586.1,165.32,586.77Zm163.92,21.14c-.59-.38-1-.82-1.31-.79s-.68.5-1,.78c.33.29.65.76,1,.79S328.65,608.29,329.24,607.91ZM278.06,141l.87-1.14c-.36-.24-.74-.7-1.08-.68s-.62.55-.92.85Zm4.15,457,.72-1.21c-.39-.2-.81-.6-1.17-.55s-.56.6-.83.92ZM66.26,95.7c-.71-.28-1.17-.62-1.52-.54s-.56.6-.83.93c.39.21.8.59,1.18.56S65.73,96.16,66.26,95.7Zm299,495.19-1.3.8c.26.34.49.9.8.95s.79-.33,1.19-.52C365.7,591.75,365.49,591.38,365.21,590.89Zm-134.14-425-1.16,1c.3.31.58.83.91.86s.73-.42,1.09-.67ZM163.21,371.07c-.27.71-.62,1.16-.54,1.52s.61.56.94.83c.2-.4.58-.8.55-1.18S163.67,371.6,163.21,371.07Zm-78-133c-.27.71-.62,1.16-.54,1.52s.61.56.94.83c.2-.4.58-.8.56-1.18S85.67,238.6,85.21,238.07Zm49-80.16c-.59-.38-1-.81-1.31-.79s-.68.51-1,.79c.33.28.65.75,1,.78S133.65,158.29,134.24,157.91Zm59,305-1.3.81c.26.34.49.9.8.95s.79-.33,1.19-.53Zm-129,3.05.72-1.21c-.39-.2-.82-.6-1.17-.55s-.56.59-.83.92Zm-13-252c-.59-.38-1-.81-1.31-.79s-.68.51-1,.78c.33.29.65.76,1,.79S50.65,214.29,51.24,213.91ZM130.47,28.26l-1.13-.86c-.25.36-.7.74-.68,1.08s.54.61.84.92ZM103.21,446.93l.72-1.21c-.39-.2-.81-.6-1.17-.55s-.56.6-.83.92Zm42.71,162.91-1,1.06c.33.28.67.78,1,.79s.67-.5,1-.78Zm199.32,1.07c-.59-.38-1-.82-1.31-.79s-.68.5-1,.78c.33.28.65.76,1,.79S344.65,611.28,345.24,610.91ZM28.74,192.84l1-1.29c-.24-.16-.53-.51-.7-.46a4.9,4.9,0,0,0-1.11.67ZM76,225.37a6.92,6.92,0,0,0-1.26-1.07c-.18-.09-.54.19-.82.3.19.37.29.92.58,1.05S75.32,225.52,76,225.37ZM217.81,88.8l.89-1.29c-.25-.15-.57-.48-.75-.42a4.52,4.52,0,0,0-1.07.71Zm60.35,346.51c-.12.27-.39.59-.31.78s.49.26.76.37c.12-.26.38-.59.31-.78S278.43,435.43,278.16,435.31ZM148,429.64l-.8-.35c-.11.27-.38.59-.3.79s.49.25.75.36C147.75,430.18,147.87,429.91,148,429.64Zm22.68-86.12c.12-.27.38-.59.31-.79s-.5-.25-.76-.36c-.12.27-.38.59-.3.78S170.4,343.4,170.66,343.52Zm-25.84-31.35c.27.12.6.38.79.31s.25-.5.37-.76c-.27-.12-.6-.39-.78-.31S144.94,311.9,144.82,312.17ZM43,461.64l-.8-.35c-.12.27-.38.6-.3.79s.49.25.75.36C42.75,462.18,42.86,461.91,43,461.64Zm73.05-16c-.26-.11-.59-.37-.78-.3s-.25.49-.37.76c.27.11.6.38.79.3S115.92,445.93,116,445.66Zm1,16.51c-.1-.27-.14-.69-.33-.77s-.53.17-.8.27c.11.28.15.69.34.78S116.75,462.28,117,462.17Zm111-81.53-.8-.35c-.12.27-.38.6-.3.79s.49.25.75.36C227.75,381.18,227.86,380.91,228,380.64ZM77.16,235.31c-.12.27-.39.59-.31.78s.49.26.76.37c.12-.26.38-.59.31-.78S77.43,235.43,77.16,235.31Zm36.66,229.86c.27.12.6.38.79.31s.25-.5.37-.76c-.27-.12-.59-.39-.78-.31S113.94,464.9,113.82,465.17Zm8.33-174.82c-.11.26-.23.53-.34.8.26.11.59.38.78.3s.25-.49.37-.76Zm-81-85-.34.8c.27.11.59.38.78.3s.25-.49.37-.76Zm79,82c-.12.27-.39.59-.31.78s.49.26.76.37c.12-.26.38-.59.31-.78S120.43,287.43,120.16,287.31ZM25,184.64l-.8-.35c-.12.27-.38.6-.3.79s.49.25.75.36C24.75,185.18,24.87,184.91,25,184.64Zm122-6.47c-.1-.27-.14-.69-.33-.77s-.53.17-.8.27c.11.28.15.69.34.78S146.75,178.28,147,178.17ZM115,284.64l-.8-.35c-.12.27-.38.6-.3.79s.49.25.75.36C114.75,285.18,114.86,284.91,115,284.64Zm70.68-114.12c.12-.27.38-.59.31-.79s-.5-.25-.76-.36c-.12.27-.38.59-.31.78S185.39,170.4,185.66,170.52ZM295,164.17c-.1-.27-.14-.69-.33-.77s-.53.17-.8.27c.11.28.15.69.34.78S294.75,164.28,295,164.17ZM50.66,158.52c.12-.27.38-.59.31-.79s-.5-.24-.76-.36c-.12.27-.38.59-.31.78S50.39,158.4,50.66,158.52Zm60,110c.12-.27.38-.59.31-.79s-.5-.25-.76-.36c-.12.27-.38.59-.31.78S110.39,268.4,110.66,268.52ZM262,511.17c-.1-.27-.14-.69-.33-.77s-.53.17-.8.27c.11.28.15.69.34.78S261.75,511.28,262,511.17ZM33.16,131.31c-.12.27-.39.59-.31.78s.49.26.76.37c.12-.26.38-.59.31-.78S33.43,131.43,33.16,131.31ZM218,370.64c-.26-.11-.59-.38-.78-.3s-.25.49-.37.76c.27.11.59.38.78.3S217.9,370.91,218,370.64Zm12,157.53c-.1-.27-.14-.69-.33-.77s-.53.17-.8.27c.11.28.15.69.34.78S229.75,528.28,230,528.17Zm-145,.5c-.27-.12-.59-.38-.79-.31s-.24.49-.36.76c.27.12.59.38.79.3S84.92,528.93,85,528.67ZM52.82,124.17c.27.11.6.38.79.31s.25-.5.37-.76c-.27-.12-.59-.39-.78-.31S52.94,123.9,52.82,124.17ZM237,535.64l-.8-.35c-.12.27-.38.6-.3.79s.49.25.75.36C236.75,536.18,236.86,535.91,237,535.64Zm5-438c-.27-.11-.6-.38-.79-.3s-.25.49-.37.75c.27.12.59.39.79.31S241.9,97.91,242,97.64ZM62,98.17c-.1-.27-.14-.69-.33-.77s-.53.17-.8.27c.1.28.15.69.34.78S61.75,98.28,62,98.17ZM162,543.64c-.27-.11-.6-.38-.79-.3s-.25.49-.37.75c.27.12.6.39.78.31S161.9,543.91,162,543.64Zm66.8-451.47c.27.12.6.38.79.31s.25-.5.37-.76c-.27-.12-.59-.39-.78-.31S228.94,91.9,228.82,92.17ZM71,86.64l-.8-.35c-.12.27-.38.6-.3.79s.49.25.75.36C70.75,87.18,70.86,86.91,71,86.64ZM96.15,263.35l-.34.8c.26.11.59.38.78.3s.25-.49.37-.76ZM117,61.66c-.26-.11-.59-.37-.78-.3s-.25.49-.37.76c.27.11.6.38.79.3S116.92,61.93,117,61.66Zm68,507.51c-.1-.27-.14-.69-.33-.77s-.53.17-.8.27c.11.28.15.69.34.78S184.75,569.28,185,569.17Zm-96.19-310c.26.11.59.38.78.31a.84.84,0,0,0,.33-.75.79.79,0,0,0-.74-.32C89,258.48,88.94,258.9,88.83,259.17ZM184.66,36.52c.12-.27.38-.59.31-.79s-.5-.25-.76-.36c-.12.27-.38.59-.31.78S184.4,36.4,184.66,36.52ZM115,52.64l-.8-.35c-.12.27-.38.6-.3.79s.49.25.75.36C114.75,53.18,114.86,52.91,115,52.64Zm68,532c-.27-.11-.6-.38-.79-.31s-.25.5-.37.76c.27.12.6.39.79.31S182.9,584.91,183,584.64Zm-62,1.53c-.1-.27-.14-.69-.33-.77s-.53.17-.8.27c.11.27.15.69.34.78S120.75,586.28,121,586.17Zm27-535c-.1-.27-.14-.69-.33-.77s-.53.17-.8.27c.11.28.15.69.34.78S147.75,51.28,148,51.17Zm45-7.53c-.27-.11-.6-.38-.79-.3s-.25.49-.37.75c.27.12.6.39.79.31S192.9,43.91,193,43.64Zm-55.36-.12c.12-.27.38-.59.31-.79s-.5-.25-.76-.36c-.12.27-.38.59-.31.78S137.39,43.4,137.66,43.52ZM134,41.64l-.8-.35c-.12.27-.38.6-.3.79s.49.25.75.36C133.75,42.18,133.86,41.91,134,41.64Zm13.05,209c-.26-.11-.59-.37-.78-.3s-.25.49-.37.76c.27.11.6.38.79.3S146.92,250.93,147,250.66Zm220,346-.8-.35c-.12.27-.38.6-.3.79s.49.25.75.36C366.75,597.18,366.86,596.91,367,596.64Zm-160,1-.8-.35c-.12.27-.38.6-.3.79s.49.25.75.36C206.75,598.18,206.86,597.91,207,597.64ZM166.16,19.31c-.12.27-.39.59-.31.78s.49.26.76.37c.12-.26.38-.59.31-.78S166.43,19.43,166.16,19.31ZM360.82,608.17c.27.12.6.38.79.31s.25-.5.37-.76c-.27-.12-.59-.39-.78-.31S360.94,607.9,360.82,608.17Zm-21,2c.27.12.6.38.79.31s.25-.5.37-.76c-.27-.12-.6-.39-.78-.31S339.94,609.9,339.82,610.17ZM160.66,7.52c.12-.27.38-.59.3-.79s-.49-.25-.75-.36c-.12.27-.38.59-.31.78S160.39,7.4,160.66,7.52Zm-9,1c.12-.27.38-.59.31-.79s-.5-.25-.76-.36c-.12.27-.38.59-.31.78S151.39,8.4,151.66,8.52ZM188,613.64c-.27-.11-.6-.38-.79-.31s-.25.5-.37.76c.27.12.6.39.79.31S187.9,613.91,188,613.64ZM292.66,448.52c.12-.27.38-.59.3-.79s-.49-.24-.75-.36c-.12.27-.38.59-.31.78S292.39,448.4,292.66,448.52ZM80.09,466l-.83.36a4.92,4.92,0,0,0,.74.41c.12,0,.29-.09.44-.15Z"/><path class="cls-2" d="M197.51,578.12c.31-3.6.61-7.21.86-10.25l8-1.93-2.81,6.34Z"/><path class="cls-2" d="M93.19,62.81l3.35,5-5.83,6.59L85.6,72.24c1.12-3.42,8.08-1.94,5.55-7.46Z"/><path class="cls-2" d="M54.45,518.33q-2-4.17-4.06-8.33l.76-1.14c2.35,1.05,6.11,1.61,6.69,3.28.78,2.21-.91,5.3-1.54,8Z"/><path class="cls-2" d="M13.14,141.8l7.28-.89c-.14,6.57-.14,6.57-7.7,7.43l-.42-5.76Z"/><path class="cls-3" d="M204.42,171.89c6.24,0,12.5-.08,18.74.08,1.42,0,2.82.93,4.23,1.43l-27-.37c0-.39,0-.77,0-1.16Z"/><path class="cls-2" d="M22.62,132l8.12-4,.63.94c-2.09,2.78-4,5.75-6.47,8.13-.46.45-3.2-1.48-4.89-2.31Z"/><path class="cls-2" d="M109.33,577.15c-1.52-5.43,5.55-3.07,5.61-5.75l3.09,2.8-7.77,4Z"/><path class="cls-2" d="M131.47,601.76c1.75-3.73,4.51-2.27,7.58-1.26l-1,3.72-5.45-1.35Z"/><path class="cls-3" d="M235.45,173.42c3.34-2.21,10.82-2.16,13.94.09Z"/><path class="cls-2" d="M4.18,466l3.53-4.32c1.2,1.58,3.06,3,3.09,4.42,0,1-2.39,2.13-3.72,3.19l0,0-2-2.25Z"/><path class="cls-2" d="M202.79,353.75c.26,1.42.53,2.83.84,4.5-4.85-.61-4.35-4.25-4.06-7.76Z"/><path class="cls-2" d="M243.11,394.66a6.29,6.29,0,0,1-1.91.41c-1.54-.13-3.06-.43-4.59-.66l4.17-2.62Z"/><path class="cls-2" d="M44.45,507.82l1.82-4,3.49,4.49-4.23.57Z"/><path class="cls-2" d="M258.44,410.86l-1.2,2.8-1.53-.75,1.68-3Z"/><path class="cls-2" d="M144.48,386.9l3.44.5,0,1-3.4.5C144.48,388.24,144.48,387.57,144.48,386.9Z"/><path class="cls-2" d="M165.27,253.91l-1.68-1.32,1.77-1.7Z"/><path class="cls-2" d="M150.42,617l1.71-1.86,1.29,1.81Z"/><path class="cls-1" d="M5.07,467l2,2.25Z"/><path class="cls-4" d="M96.38,537.87,79.44,521l-.14-.13-.85-.83-2.85-2.71-1-.89-3.06-3.06q-6.42-6.81-12.86-13.61-13.55-14-27.1-28l-4.08-4.63,7-.55,6.84.5,16,2,14.2,0,2.88-.09,12-1.08,10.06.07,2.93.06,6,.2h22l8-.36a64,64,0,0,1,7.46,0c.94.09,1.77,1.27,2.65,1.95l0,9v14q-.06,10.52-.13,21l-.77,12-.13,11c-.15,3.07-.29,6.13-.44,9.19q-.18,3-.34,5.91l.05,21.88.34,14.86-2.54-2.08-1-1.11-3.81-3.81-3-3-.08-.08q-3-3.54-6.08-7.06l-.72-.84L123.41,567l-.1-.15-.86-.87-1.1-1.11-1.5-.67-1.14-2.13-.2-.18-1-1.1v-.05l-9.78-11L100.39,542,96.46,538Z"/><path class="cls-5" d="M176.41,154.8h-11l-2.21-.21a.66.66,0,0,0-.46-.75l-1.11-31.94.06-3.91,1.65-32.1q0-6.5,0-13c0-1-.06-2-.1-3l0-12c.05-1.33.11-2.67.17-4,.11-3.63.09-7.28.4-10.9.12-1.39,1-2.72,1.54-4.07l11,11,1,1,2,2.14.77,1,2.14,2.45L191.31,66l.05,0,4.83,5,7.12,7.14,1,1,1.89,1.88.1.1,3,3.16,8,8.83,1,1.25c.69.84,1.39,1.68,2.08,2.53q17.08,20,34.18,39.94l5.85,7,6,7.13,1,2.84-9.93,1-14.08.8a.73.73,0,0,0-.93.07l-38.95.1-2.92-.24-5.74-.13-.24-.08-15.2-.72Z"/><path class="cls-6" d="M184.32,361.94l9.61,9.1,0,.08c6.8,7.46,13.52,15,20.43,22.37,3.75,4,7.8,7.7,11.72,11.54l4.13,4.29L247,427.2l.08.08,12.43,12.27,1.77,1.66c.81,1,1.61,2,2,2.55l-97.38-2.31v-98.8L182.39,360Z"/><path class="cls-2" d="M254.52,136.89q-17.09-20-34.18-39.94l4.45-2.77a26.75,26.75,0,0,1,1.89,4.64c.47,2.22,6.3,6.76,9,6.65.22,4,2.25,6.1,5.91,8.14s6.08,6.12,9,9.35c2.07,2.3,4,4.69,6.07,7,1.22,1.39,2.47,2.75,3.71,4.11l-4.45,2.16Z"/><path class="cls-2" d="M161.66,121.91l1.11,31.94-.48.71.94,0,2.21.21-6.06,4c-2.42-3.43-5-20.63-3.21-24.83.91,3.32,1.53,5.61,2.15,7.9,2.79-4,3.07-7.79-.46-10.6-2.37-1.88-5-3.71-2.91-6.56C156.17,123,159.36,122.79,161.66,121.91Z"/><path class="cls-2" d="M31.61,471.81q13.55,14,27.1,28l-7.87,1.89c-.29-2.81.1-5.72-1.05-7.79-.8-1.44-3.7-1.72-6.41-2.82-1.8-7.53-10.42-10.39-16.5-16.45Z"/><path class="cls-2" d="M163.37,85.9,161.72,118l-3.39-.86V105.46H157v4l-1.31.51c-.76-1.56-2.55-3.61-2.09-4.59C156.72,98.79,157.5,91,163.37,85.9Z"/><path class="cls-2" d="M148.05,94c.25,2.37.65,4.74.71,7.12a88.1,88.1,0,0,1-.21,10,38.56,38.56,0,0,1-1.44,6l-2.88-.5,1.32-22.49Z"/><path class="cls-2" d="M176.37,49.9l-11-11c3.34-1.48,6.32-3.81,7.44,2.77a8.39,8.39,0,0,0,9.61,7.25c1.09-.12,2.22.21,3.73,1.53l-6.83,2.6-2-2.14C177,50.59,176.7,50.24,176.37,49.9Z"/><path class="cls-2" d="M307.33,600.32l-17.6-1.53-.09-1.75c.55-.5,1.1-1.46,1.65-1.45,4.93,0,9.88.14,14.79.55.87.07,1.61,1.7,2.41,2.61Z"/><path class="cls-2" d="M145.37,513.92q.06-10.51.13-21c1.31,2,3.56,3.92,3.72,6a56.44,56.44,0,0,1-1,12.67C148.13,512.48,146.38,513.14,145.37,513.92Z"/><path class="cls-2" d="M135.44,468l-8,.36-4-3.31c.34-.6.89-2.75,1.73-2.86,2.92-.4,5.71-4.14,9.25-.6l-3.14,4.11Z"/><path class="cls-2" d="M57.32,469.14l-16-2c3.07-3.93,6.63-4.8,11.16-2.29,1.78,1,4.06,1.05,6.53,1.63Z"/><path class="cls-2" d="M331.29,596.48c-1.11.78-2.18,2.13-3.35,2.23a87,87,0,0,1-10.95,0c-.74,0-1.43-1.08-2.14-1.67.76-.7,1.5-2,2.29-2,4.53-.19,9.08-.09,13.62-.09C330.93,595.47,331.11,596,331.29,596.48Z"/><path class="cls-2" d="M158.24,302c1.54,5.5,2.93,10.5,4.33,15.5C156,315.89,153.89,309,158.24,302Z"/><path class="cls-2" d="M101.92,463.64a16.61,16.61,0,0,0-4.07-.59,41.28,41.28,0,0,0-6.38,1.31c-1,.25-1.83,1-2.81,1.19-.28.05-1.2-1.27-1.1-1.82.22-1.19.61-2.71,1.48-3.33C91.44,458.68,99.5,460.23,101.92,463.64Z"/><path class="cls-2" d="M144.08,588.76l-.34-14.86c1.62,1.63,4.24,3.06,4.63,5,.64,3.06-.09,6.43-.55,9.62C147.78,588.75,145.38,588.68,144.08,588.76Z"/><path class="cls-2" d="M60.51,450.15c4.71-4.56,6.42-4,10.95,3Z"/><path class="cls-2" d="M184.32,361.94,182.39,360c.09-1.13.17-2.26.32-4.33,2.95,3.67,9.59-1.81,10.27,5.74Z"/><path class="cls-2" d="M127.55,571.6q3,3.52,6.08,7.06h-3.86v2.66L123.65,576C125,574.53,126.25,573.06,127.55,571.6Z"/><path class="cls-2" d="M155.9,66.4c.12-2.45.23-4.84.35-7.23,1.68.48,4.52.56,4.84,1.51C162.05,63.46,161.75,66.42,155.9,66.4Z"/><path class="cls-2" d="M155.76,39.26c4,8.19,3.64,11.76-1.53,13.6C154.73,48.41,155.17,44.45,155.76,39.26Z"/><path class="cls-2" d="M271.34,476.68l1-1a52.35,52.35,0,0,1,1.33,8.52c0,.43-3.39.9-5.44,1.4.31-2.91.5-4.71.69-6.51h0Z"/><path class="cls-2" d="M266.34,151.06l-6-7.13,6.81-3.21C266.81,145.24,266.57,148.15,266.34,151.06Z"/><path class="cls-2" d="M34.49,466.63l-7,.55c2.09-6.5,4.06-7.23,9.57-3.34Z"/><path class="cls-2" d="M105.78,76.06l-7.23,6.17c.08-7.06,1.15-8.54,6.91-9.74C105.57,73.67,105.67,74.86,105.78,76.06Z"/><path class="cls-2" d="M296.21,469.57h-6.36c1.52-2.92,2.91-7.12,3.8-7C298.48,463.13,294.74,467.1,296.21,469.57Z"/><path class="cls-2" d="M144.47,536.92l.13-11,5.55,10.66Z"/><path class="cls-2" d="M193.93,371l6.24-5.36,3.48,6.72L194,371.11Z"/><path class="cls-2" d="M247.6,467.53c-4.11.45-7.54-.24-9.23-6.38L248.54,466Z"/><path class="cls-2" d="M280.22,486l3.24,3c-1.52,1.8-2.92,3.46-4.51,5.36C275.45,490.48,277.65,488.39,280.22,486Z"/><path class="cls-2" d="M100.39,542l7.31,7.77h-6.92C100.63,546.8,100.51,544.4,100.39,542Z"/><path class="cls-2" d="M67.73,527.68l6.16-.53c-.17,1.34-.28,3.84-.51,3.85a34.88,34.88,0,0,1-5.74-.51Z"/><path class="cls-2" d="M140.37,444.42c-3.4,3.31-6.62,3.31-11,0Z"/><path class="cls-2" d="M161.49,170.66l4.44-4.65c.67.9,2,1.87,1.9,2.69C167.53,171.49,165.93,172.72,161.49,170.66Z"/><path class="cls-2" d="M176.41,154.8l2.93-.09,6.45,3C183.29,161.11,178.82,159.78,176.41,154.8Z"/><path class="cls-2" d="M297.35,451.06c-.43,2.12-.87,4.24-1.3,6.36L290.52,456l5.66-5.06Z"/><path class="cls-2" d="M209.24,84.34l-3-3.16.63-.75-.73.65-1.89-1.88c1.23-2.63,3.21-2.83,5.13-1.1C211.57,80,211.42,82.31,209.24,84.34Z"/><path class="cls-2" d="M345.88,596.46l-10.77-.72,0-1.17h10.7C345.81,595.2,345.85,595.83,345.88,596.46Z"/><path class="cls-2" d="M74.4,469.08l-2.88.09-3.92-2.32,0-1.65a65.8,65.8,0,0,1,6.74.16A30.72,30.72,0,0,1,74.4,469.08Z"/><path class="cls-2" d="M257.4,154.91l9.93-1C266.08,157.73,260.64,158.28,257.4,154.91Z"/><path class="cls-2" d="M203.31,78.16,196.19,71l4.26-1.9Z"/><path class="cls-2" d="M80.19,533.87c1.06,1.56,2.24,2.74,2,3.1a11.78,11.78,0,0,1-3.06,3.24c-.14.1-2.2-1.65-2.06-2C77.68,536.9,78.76,535.78,80.19,533.87Z"/><path class="cls-2" d="M236.36,594.57l4.83,2.31-1.48,2.75L235.05,597Z"/><path class="cls-2" d="M75.6,517.34l2.84,2.71.86.83.14.13,1.34,4.32-4.36-.42Q76,521.12,75.6,517.34Z"/><path class="cls-2" d="M96.46,538c.82,2.84-.71,4.28-3.13,3.7-1.21-.29-2-2.54-2.92-3.91l1.1-1,4.87,1.09Z"/><path class="cls-2" d="M100.18,157.27h8.52l.09,1.51-8.66.63C100.15,158.69,100.16,158,100.18,157.27Z"/><path class="cls-2" d="M171.71,463.13h6.16a15,15,0,0,1-.14,2.16c-2,.12-4.1.09-6.15.09C171.63,464.63,171.67,463.88,171.71,463.13Z"/><path class="cls-2" d="M179.86,445.85l-7.81.74C172.81,443.52,174.34,443.19,179.86,445.85Z"/><path class="cls-2" d="M60.42,222.91l6.28,5.37-6.59,1-.06,0C60.17,227.13,60.3,225,60.42,222.91Z"/><path class="cls-2" d="M106.24,271.22c.49,2.72.89,4.93,1.3,7.14C102.64,274.07,102.6,273,106.24,271.22Z"/><path class="cls-2" d="M95,243.14a.76.76,0,0,1,.51.68c-.1,2.64,2.29,6-2.44,7.59A6.72,6.72,0,0,1,95,243.14Z"/><path class="cls-2" d="M202.87,598.38,195,598c0-.59,0-1.18,0-1.77l7.75-.35C202.78,596.73,202.82,597.55,202.87,598.38Z"/><path class="cls-2" d="M40.92,501.88c-1.08-2-2.06-3.09-2.23-4.33-.09-.66,1.22-1.52,1.89-2.29.91,1.06,2.11,2,2.57,3.22C43.36,499,42.11,500.15,40.92,501.88Z"/><path class="cls-2" d="M178.42,25.91c-.59,1.3-1.11,3.63-1.8,3.68-1.38.1-2.85-1-4.28-1.66.09-.5.18-1,.26-1.5l5.82-.52Z"/><path class="cls-2" d="M128.92,166.67h5.51l-.06,2.53-5.51-.25Z"/><path class="cls-2" d="M190.72,582.45c-3.8-6.4-3.77-6.7.49-8.06C191.06,576.84,190.92,579.15,190.72,582.45Z"/><path class="cls-2" d="M105.67,254.55c.54,1.78,1.07,3.57,1.61,5.35-.31.38-.62.75-.92,1.13-1-.78-3-1.71-2.93-2.32.23-1.48,1.42-2.8,2.22-4.2Z"/><path class="cls-2" d="M204.42,171.89l-4,0c.92-2.67,1.84-5.34,5.65-6Z"/><path class="cls-2" d="M246.31,505.84l4.2-.77,1,1.14L247.1,511c-.4-2.75-.58-4-.75-5.18Z"/><path class="cls-2" d="M131.26,51.47l-.29.22-5.29-3.64c1.39-4.79,4.5.09,6.74-.14C132,49.09,131.65,50.28,131.26,51.47Z"/><path class="cls-2" d="M48.32,452.27c-2.11.78-3.22,1.56-4.24,1.45-.81-.09-1.51-1.25-2.26-1.94,1-.6,2-1.58,3-1.68C45.59,450,46.49,451.07,48.32,452.27Z"/><path class="cls-2" d="M123.28,276.8l-4.94,1.72a18.71,18.71,0,0,1-.7-2.08c1.58-.72,3.23-1.3,4.87-1.91C122.76,275.29,123,276,123.28,276.8Z"/><path class="cls-2" d="M31.54,191.31l5.5-4.2C38.52,190.51,37.22,191.63,31.54,191.31Z"/><path class="cls-2" d="M295.23,155.47l4.44,4L297.16,162l-4.25-4.12Z"/><path class="cls-2" d="M200.52,155.64l2.92.24c-1.08,1-2.45,3-3.19,2.76-2-.57-3.83-2.07-5.71-3.21a2.34,2.34,0,0,1,.24.09C196.69,155.57,198.6,155.6,200.52,155.64Z"/><path class="cls-2" d="M243.42,156.9h7.41c-4,4.06-5.29,3.86-7.41,0Z"/><path class="cls-2" d="M31.73,487l1.47,5.18-.86.81c-.88-.62-2.32-1.09-2.52-1.88-.32-1.23.19-2.68.36-4Z"/><path class="cls-2" d="M191.31,66c.08-.83-.14-1.91.3-2.42a4.47,4.47,0,0,1,2.65-1.38c.52-.06,1.16.93,1.75,1.45a11.22,11.22,0,0,1-2.21,2.15,6.19,6.19,0,0,1-2.44.24Z"/><path class="cls-2" d="M288,446.07l-3.75-3.92,1.64-1.43,3.6,4Z"/><path class="cls-2" d="M147.42,463.53a33.09,33.09,0,0,1-3.48,2.17c-.13.07-.85-1-1.31-1.59l3.53-2.58Z"/><path class="cls-2" d="M133.35,590q-1-2.06-2-4.13l1.82-1,2.42,4Z"/><path class="cls-2" d="M118.51,561.92l.2.18L116,565.4c-.48-.6-1.48-1.59-1.37-1.72a28.76,28.76,0,0,1,2.83-2.91v.05Z"/><path class="cls-2" d="M60.79,204.77l2.65,3.07-4,.52C59.88,207.16,60.33,206,60.79,204.77Z"/><path class="cls-2" d="M219.7,446.41h-6.57c0-.33,0-.66,0-1h6.58Z"/><path class="cls-2" d="M143.85,29.88l3.81,3.58L146.08,35l-3.37-4Z"/><path class="cls-2" d="M92.42,552.24c1.48.83,5.16,0,2.17,4.87l-3.35-3.92Z"/><path class="cls-2" d="M260.69,491.74h4.46v1.46h-4.46Z"/><path class="cls-2" d="M32.51,450l3.77,2.4-1,1.64-4.08-2.16Z"/><path class="cls-2" d="M64,525.56l.62-6.18,1.22.06v5.92Z"/><path class="cls-2" d="M62.5,114.25l3.44-3.61L67.38,112,64,115.62Z"/><path class="cls-2" d="M35.45,121.68l3.47-3,1.26,1.43-3.52,3Z"/><path class="cls-2" d="M211.63,561.48,208,564.29l-1.28-1.49,3.42-3.07Z"/><path class="cls-2" d="M162.29,296.54c-.18,1.41-.36,2.83-.53,4.25l-1.76-.15.23-4.33Z"/><path class="cls-2" d="M48.37,112.38q-2,1.29-3.94,2.6c-.32-.44-.63-.89-.94-1.33l3.71-2.91Z"/><path class="cls-2" d="M162.34,550.56c-.15,1.38-.29,2.76-.44,4.14l-1.9-.16c.1-1.4.19-2.81.29-4.21Z"/><path class="cls-2" d="M356.47,597.21l1.35-4.88,1.6.41-1.12,4.93Z"/><path class="cls-2" d="M144.77,157l1.09-5.49,1.46.25-1.07,5.83Z"/><path class="cls-2" d="M52.47,169.45l3.94-2.62.94,1.33-3.7,2.92Z"/><path class="cls-2" d="M251.94,171.7l-.45-4.13,1.68-.35c.33,1.38.67,2.76,1,4.14Z"/><path class="cls-2" d="M112.15,463l-4,.93c-.13-.57-.27-1.14-.4-1.71l4-1C111.88,461.78,112,462.36,112.15,463Z"/><path class="cls-2" d="M277.44,470.32c.09,1.37.19,2.73.28,4.09l-1.77.18c-.17-1.32-.33-2.65-.5-4Z"/><path class="cls-2" d="M52.07,104.26c1.18-.14,2.37-.32,3.56-.35a7.08,7.08,0,0,1,.25,1.64c-1.18.31-2.4.49-3.61.69Z"/><path class="cls-2" d="M230.25,409.32,226.12,405l6.27,1.11Z"/><path class="cls-2" d="M143.69,552q.17-3,.34-5.91C143.72,548.07,149.18,550.36,143.69,552Z"/><path class="cls-2" d="M159.75,281.76c-.67.78-1.08,1.68-1.61,1.76s-1.58-.89-1.51-1.23a6.59,6.59,0,0,1,1.29-2.16Z"/><path class="cls-2" d="M158.93,73.57v4.65l-.91,0V73.6Z"/><path class="cls-2" d="M111.53,46.62,114.32,44l1.12,1.06-2.62,3Z"/><path class="cls-2" d="M60,504.59l3.9,3.13-.68,1-4.15-2.83Z"/><path class="cls-2" d="M147.13,79.37l.45,4-1.78.14-.22-4Z"/><path class="cls-2" d="M203.24,562.71c.79-1.19,1.56-2.41,2.44-3.54a8.25,8.25,0,0,1,1.51.79l-2.67,3.64Z"/><path class="cls-2" d="M75.57,462.93c-1-.41-1.93-.78-2.85-1.27a3.06,3.06,0,0,1,.36-1.18c1,.09,2,.31,3,.49C75.92,461.62,75.75,462.27,75.57,462.93Z"/><path class="cls-2" d="M277.07,598l-3.12.21a9.17,9.17,0,0,1,.07-1.66,26,26,0,0,1,3.06-.08C277.08,597,277.07,597.52,277.07,598Z"/><path class="cls-2" d="M89.72,534.75l-3-.78c.16-.57.31-1.14.47-1.71l3,1C90.05,533.73,89.89,534.24,89.72,534.75Z"/><path class="cls-2" d="M197,51.61h4.26l-.07,1.4-4.21-.26C196.94,52.37,197,52,197,51.61Z"/><path class="cls-2" d="M145.87,135.3v-3.77l1.24.05-.19,3.77Z"/><path class="cls-2" d="M124,445.32h3.78l.09,1.11-3.79.36C124.07,446.3,124.05,445.81,124,445.32Z"/><path class="cls-2" d="M96.45,468.07,86.39,468Z"/><path class="cls-2" d="M44.77,168.9a13.19,13.19,0,0,1,2.65-.19c.18,0,.26,1,.39,1.6l-2.84.27C44.9,170,44.83,169.46,44.77,168.9Z"/><path class="cls-2" d="M5.12,165l-2.65-2.87,1.3-1.32,2.59,2.91Z"/><path class="cls-2" d="M72.86,236.17l1.62,3.76-1.38.58-1.5-3.81Z"/><path class="cls-2" d="M123.41,567l3.42,3.73h-4.08C123,569.21,123.21,568.12,123.41,567Z"/><path class="cls-2" d="M121.94,37l1.49,3-1.3.74L120.31,38Z"/><path class="cls-2" d="M354.38,596l-2.85-1.74.69-1.31,3,1.37C355,594.87,354.68,595.43,354.38,596Z"/><path class="cls-2" d="M133.71,578.74l3,3-5.3.35Z"/><path class="cls-2" d="M259.41,124l1.49-3,1.42.7-1.48,3Z"/><path class="cls-2" d="M265.22,170.46l-2.47.91-.61-2,2.82-.13Z"/><path class="cls-2" d="M140.57,585.57l1,1.11c-.2.9-.39,1.8-.59,2.7l-1.49-.33Z"/><path class="cls-2" d="M129.58,298.65c.73.66,1.55,1.14,1.48,1.38a5.82,5.82,0,0,1-1.14,1.68c-.43-.4-1.1-.74-1.2-1.21S129.15,299.51,129.58,298.65Z"/><path class="cls-2" d="M71.57,513.39l3.06,3.06-2.35,1C72,516.1,71.81,514.75,71.57,513.39Z"/><path class="cls-2" d="M143.91,36c-2.06,1.17-2.79,1.81-3,1.67A5.82,5.82,0,0,1,139.71,36c.5-.27,1-.74,1.5-.78A11,11,0,0,1,143.91,36Z"/><path class="cls-2" d="M145.51,478.9l0-9Z"/><path class="cls-2" d="M105.42,468.33l-6-.2Z"/><path class="cls-2" d="M139,462.83c.58.7,1.21,1.15,1.17,1.51a1.77,1.77,0,0,1-1,1.27c-.33.1-1.22-.55-1.23-.88C137.89,464.24,138.43,463.73,139,462.83Z"/><path class="cls-2" d="M256.21,494.47l2.68,2-1,.95-1.73-2.9Z"/><path class="cls-2" d="M167.88,17.55c-.39-.95-.79-1.89-1.18-2.84l1-.48,1.52,2.94Z"/><path class="cls-2" d="M120.53,44.31c-1.06.15-1.76.46-2.13.24s-.5-1-.73-1.53c.51-.18,1.12-.61,1.5-.46S119.88,43.43,120.53,44.31Z"/><path class="cls-2" d="M49.54,128.9c-.81.75-1.19,1.37-1.68,1.47-.34.07-.82-.59-1.24-.92.36-.44.63-1.1,1.09-1.26S48.66,128.53,49.54,128.9Z"/><path class="cls-2" d="M36,156.36H38.8l.12.88-2.88.45C36,157.25,36,156.8,36,156.36Z"/><path class="cls-2" d="M75.5,171.46c-.71.58-1.15,1.21-1.51,1.17a1.77,1.77,0,0,1-1.28-1c-.09-.33.55-1.22.88-1.22C74.09,170.37,74.6,170.92,75.5,171.46Z"/><path class="cls-2" d="M45.61,207.56c.67.73,1.37,1.18,1.32,1.51a2.13,2.13,0,0,1-1.09,1.32c-.22.1-1.1-.56-1.15-.94S45.14,208.46,45.61,207.56Z"/><path class="cls-2" d="M148,419.45v2.83l-.88.13-.45-2.89Z"/><path class="cls-2" d="M261.29,441.21l-1.77-1.66,4.69-.76.27.85Z"/><path class="cls-2" d="M196,444.38h2.82l.12.87-2.86.46C196.05,445.27,196,444.82,196,444.38Z"/><path class="cls-2" d="M157.87,577.45v2.84H157v-2.83Z"/><path class="cls-2" d="M239,445.2l2.83.16-.06,1.14-2.84-.13C239,446,239,445.59,239,445.2Z"/><path class="cls-2" d="M57,460.55c.59.83,1.19,1.31,1.18,1.77s-.69.81-1.08,1.21c-.43-.43-1.08-.81-1.21-1.32C55.78,461.87,56.43,461.33,57,460.55Z"/><path class="cls-2" d="M295.83,151.65l-2.06,3.12-1.17-1.29,3.17-1.89Z"/><path class="cls-2" d="M3.71,153.06l1.55-1.95.84.65-1.55,2Z"/><path class="cls-2" d="M286.89,479.28c.19.76.37,1.52.56,2.28-.29,0-.8.22-.85.12a22.46,22.46,0,0,1-1-2Z"/><path class="cls-2" d="M251.47,407l1.78,1.63-1.41,1.45-1.79-1.63Z"/><path class="cls-2" d="M174.14,574.54l3.11,2-1.24,1.2c-.64-1.05-1.28-2.09-1.91-3.14Z"/><path class="cls-2" d="M6.2,447.84l-1.71,1.83-.72-.55,1.39-2.07Z"/><path class="cls-2" d="M165.32,586.77c-.33-.67-.72-1.09-.66-1.44s.55-.61.86-.91c.24.36.67.73.67,1.09S165.74,586.19,165.32,586.77Z"/><path class="cls-2" d="M132.3,47.88c.22-.85.44-1.69.65-2.54l1.14.38-1,2.46Z"/><path class="cls-2" d="M329.24,607.91c-.59.38-1,.81-1.32.78s-.67-.5-1-.79c.33-.28.65-.75,1-.78S328.65,607.53,329.24,607.91Z"/><path class="cls-2" d="M278.06,141l-1.13-1c.3-.3.6-.82.92-.85s.72.44,1.08.68Z"/><path class="cls-2" d="M282.21,597.93l-1.28-.84c.27-.32.51-.88.83-.92s.78.35,1.17.55Z"/><path class="cls-2" d="M66.26,95.7c-.53.46-.84.93-1.17,1s-.79-.35-1.18-.56c.27-.33.5-.85.83-.93S65.55,95.42,66.26,95.7Z"/><path class="cls-2" d="M365.21,590.89c.28.49.49.86.69,1.23-.4.19-.83.58-1.19.52s-.54-.61-.8-.95Z"/><path class="cls-2" d="M231.07,165.85l.84,1.15c-.36.25-.75.69-1.09.67s-.61-.55-.91-.86Z"/><path class="cls-2" d="M163.21,371.07c.46.53.93.83.95,1.17s-.35.78-.55,1.18c-.33-.27-.86-.5-.94-.83S162.94,371.78,163.21,371.07Z"/><path class="cls-2" d="M85.21,238.07c.46.53.93.83,1,1.17s-.36.78-.56,1.18c-.33-.27-.86-.5-.94-.83S84.94,238.78,85.21,238.07Z"/><path class="cls-2" d="M100.2,56.47l2.25,2.11-1.31.91c-.33-1-.65-2-1-3Z"/><path class="cls-2" d="M134.24,157.91c-.59.38-1,.81-1.32.78s-.67-.5-1-.78c.33-.28.65-.76,1-.79S133.65,157.53,134.24,157.91Z"/><path class="cls-2" d="M193.21,462.88l.69,1.23c-.4.2-.83.59-1.19.53s-.54-.61-.8-.95Z"/><path class="cls-2" d="M64.21,465.93l-1.28-.84c.27-.33.51-.88.83-.92s.78.35,1.17.55Z"/><path class="cls-2" d="M51.24,213.91c-.59.38-1,.81-1.32.78s-.67-.5-1-.79c.33-.27.65-.75,1-.78S50.65,213.53,51.24,213.91Z"/><path class="cls-2" d="M130.47,28.26l-1,1.14c-.3-.31-.82-.6-.84-.92s.43-.72.68-1.08Z"/><path class="cls-2" d="M103.21,446.93l-1.28-.84c.27-.32.51-.88.83-.92s.78.35,1.17.55Z"/><path class="cls-2" d="M145.92,609.84l1,1.07c-.33.28-.67.78-1,.78s-.67-.51-1-.79Z"/><path class="cls-2" d="M345.24,610.91c-.59.37-1,.8-1.32.78s-.67-.51-1-.79c.33-.28.65-.75,1-.78S344.65,610.53,345.24,610.91Z"/><path class="cls-2" d="M28.74,192.84l-.86-1.08a4.9,4.9,0,0,1,1.11-.67c.17-.05.46.3.7.46Z"/><path class="cls-2" d="M76,225.37c-.71.15-1.2.41-1.5.28s-.39-.68-.58-1.05c.28-.11.64-.39.82-.3A6.92,6.92,0,0,1,76,225.37Z"/><path class="cls-2" d="M217.81,88.8l-.93-1a4.52,4.52,0,0,1,1.07-.71c.18-.06.5.27.75.42Z"/><path class="cls-2" d="M278.16,435.31c.27.12.68.18.76.37s-.19.52-.31.78c-.27-.11-.68-.17-.76-.37S278,435.58,278.16,435.31Z"/><path class="cls-2" d="M148,429.64c-.11.27-.23.54-.35.8-.26-.11-.68-.17-.75-.36s.19-.52.3-.79Z"/><path class="cls-2" d="M247,427.2l1.37-1.83.58.6c-.63.43-1.25.87-1.87,1.31Z"/><path class="cls-2" d="M170.66,343.52c-.26-.12-.68-.17-.75-.37s.18-.51.3-.78c.26.11.68.17.76.36S170.78,343.25,170.66,343.52Z"/><path class="cls-2" d="M144.82,312.17c.12-.27.18-.68.38-.76s.51.19.78.31c-.12.26-.18.68-.37.76S145.09,312.29,144.82,312.17Z"/><path class="cls-2" d="M43,461.64c-.12.27-.23.54-.35.8-.26-.11-.68-.17-.75-.36s.18-.52.3-.79Z"/><path class="cls-2" d="M116,445.66c-.12.27-.18.69-.37.76s-.52-.19-.79-.3c.12-.27.18-.68.37-.76S115.77,445.55,116,445.66Z"/><path class="cls-2" d="M117,462.17c-.27.11-.61.36-.79.28s-.23-.5-.34-.78c.27-.1.61-.35.8-.27S116.92,461.9,117,462.17Z"/><path class="cls-2" d="M228,380.64c-.12.27-.23.54-.35.8-.26-.11-.68-.17-.75-.36s.18-.52.3-.79Z"/><path class="cls-2" d="M77.16,235.31c.27.12.68.18.76.37s-.19.52-.31.78c-.27-.11-.68-.17-.76-.37S77,235.58,77.16,235.31Z"/><path class="cls-2" d="M60.25,223.11l-1.46-1.23.61-.6,1.22,1.45Z"/><path class="cls-2" d="M113.82,465.17c.12-.27.18-.68.38-.76s.51.19.78.31c-.12.26-.18.68-.37.76S114.09,465.29,113.82,465.17Z"/><path class="cls-2" d="M122.16,290.35l.8.34c-.12.27-.18.69-.37.76s-.52-.19-.78-.3C121.92,290.88,122,290.61,122.16,290.35Z"/><path class="cls-2" d="M41.16,205.35l.8.34c-.12.27-.18.69-.37.76s-.51-.19-.78-.3C40.92,205.88,41,205.61,41.16,205.35Z"/><path class="cls-2" d="M120.16,287.31c.27.12.68.18.76.37s-.19.52-.31.78c-.27-.11-.68-.17-.76-.37S120,287.58,120.16,287.31Z"/><path class="cls-2" d="M25,184.64c-.11.27-.23.54-.35.8-.26-.11-.68-.17-.75-.36s.18-.52.3-.79Z"/><path class="cls-2" d="M147,178.17c-.27.11-.61.36-.79.28s-.23-.5-.34-.78c.27-.1.61-.35.8-.27S146.92,177.9,147,178.17Z"/><path class="cls-2" d="M115,284.64c-.12.27-.23.54-.35.8-.26-.11-.68-.17-.75-.36s.18-.52.3-.79Z"/><path class="cls-2" d="M185.66,170.52c-.27-.12-.68-.17-.76-.37s.19-.51.31-.78c.26.11.68.17.76.36S185.78,170.25,185.66,170.52Z"/><path class="cls-2" d="M295,164.17c-.27.11-.61.36-.79.28s-.23-.5-.34-.78c.27-.1.61-.35.8-.27S294.92,163.9,295,164.17Z"/><path class="cls-2" d="M50.66,158.52c-.27-.12-.68-.17-.76-.37s.19-.51.31-.78c.26.12.68.17.76.36S50.78,158.25,50.66,158.52Z"/><path class="cls-2" d="M110.66,268.52c-.27-.12-.68-.17-.76-.37s.19-.51.31-.78c.26.11.68.17.76.36S110.78,268.25,110.66,268.52Z"/><path class="cls-2" d="M262,511.17c-.27.11-.61.36-.79.28s-.23-.5-.34-.78c.27-.1.61-.35.8-.27S261.92,510.9,262,511.17Z"/><path class="cls-2" d="M20.22,140.74l1.22-1.46.6.61-1.45,1.22Z"/><path class="cls-2" d="M33.16,131.31c.27.12.68.18.76.37s-.19.52-.31.78c-.27-.11-.68-.17-.76-.37S33,131.58,33.16,131.31Z"/><path class="cls-2" d="M218,370.65c-.12.26-.18.68-.38.75s-.51-.19-.78-.3c.12-.27.18-.69.37-.76S217.75,370.53,218,370.65Z"/><path class="cls-2" d="M230,528.17c-.27.11-.61.36-.79.28s-.23-.5-.34-.78c.27-.1.61-.35.8-.27S229.92,527.9,230,528.17Z"/><path class="cls-2" d="M85,528.67c-.11.26-.17.68-.36.75s-.52-.18-.79-.3c.12-.27.17-.68.36-.76S84.76,528.55,85,528.67Z"/><path class="cls-2" d="M52.82,124.17c.12-.27.18-.68.38-.76s.51.19.78.31c-.12.26-.18.68-.37.76S53.09,124.28,52.82,124.17Z"/><path class="cls-2" d="M258.51,112.77l-1.24,1.62-.33-.33,1.61-1.24Z"/><path class="cls-2" d="M237,535.64c-.12.27-.23.54-.35.8-.26-.11-.68-.17-.75-.36s.18-.52.3-.79Z"/><path class="cls-2" d="M242,97.64c-.12.27-.18.69-.37.76s-.52-.19-.79-.31c.12-.26.18-.68.37-.75S241.75,97.53,242,97.64Z"/><path class="cls-2" d="M62,98.17c-.27.11-.61.36-.79.28s-.24-.5-.34-.78c.27-.1.61-.35.8-.27S61.92,97.9,62,98.17Z"/><path class="cls-2" d="M162,543.64c-.12.27-.18.69-.38.76s-.51-.19-.78-.31c.12-.26.18-.68.37-.75S161.75,543.53,162,543.64Z"/><path class="cls-2" d="M228.82,92.17c.12-.27.18-.68.38-.76s.51.19.78.31c-.12.26-.18.68-.37.76S229.09,92.29,228.82,92.17Z"/><path class="cls-2" d="M71,86.64c-.12.27-.23.54-.35.8-.26-.11-.68-.17-.75-.36s.18-.52.3-.79Z"/><path class="cls-2" d="M96.16,263.35l.8.34c-.12.27-.18.69-.37.76s-.52-.19-.78-.3C95.92,263.88,96,263.61,96.16,263.35Z"/><path class="cls-2" d="M117,61.66c-.12.27-.18.69-.37.76s-.52-.19-.79-.3c.12-.27.18-.68.37-.76S116.77,61.55,117,61.66Z"/><path class="cls-2" d="M185,569.17c-.27.11-.61.36-.79.28s-.23-.5-.34-.78c.27-.1.61-.35.8-.27S184.92,568.9,185,569.17Z"/><path class="cls-2" d="M88.83,259.17c.11-.27.17-.69.37-.76a.79.79,0,0,1,.74.32.84.84,0,0,1-.33.75C89.42,259.55,89.09,259.28,88.83,259.17Z"/><path class="cls-2" d="M163.45,53.89c-.06,1.33-.12,2.67-.17,4C163.33,56.56,163.39,55.22,163.45,53.89Z"/><path class="cls-2" d="M184.66,36.52c-.26-.12-.68-.17-.76-.37s.19-.51.31-.78c.26.11.68.17.76.36S184.78,36.25,184.66,36.52Z"/><path class="cls-2" d="M115,52.64c-.12.27-.23.54-.35.8-.26-.11-.68-.17-.75-.36s.18-.52.3-.79Z"/><path class="cls-2" d="M183,584.64c-.12.27-.18.69-.37.76s-.52-.19-.79-.31c.12-.26.18-.68.37-.76S182.75,584.53,183,584.64Z"/><path class="cls-2" d="M121,586.17c-.27.11-.61.36-.79.28s-.23-.51-.34-.78c.27-.1.61-.35.8-.27S120.92,585.9,121,586.17Z"/><path class="cls-2" d="M148,51.17c-.27.11-.61.36-.79.28s-.23-.5-.34-.78c.27-.1.61-.35.8-.27S147.92,50.9,148,51.17Z"/><path class="cls-2" d="M193,43.64c-.12.27-.18.69-.37.76s-.52-.19-.79-.31c.12-.26.18-.68.37-.75S192.75,43.53,193,43.64Z"/><path class="cls-2" d="M137.66,43.52c-.27-.12-.68-.17-.76-.37s.19-.51.31-.78c.26.11.68.17.76.36S137.78,43.25,137.66,43.52Z"/><path class="cls-2" d="M134,41.64c-.12.27-.23.54-.35.8-.26-.11-.68-.17-.75-.36s.18-.52.3-.79Z"/><path class="cls-2" d="M147,250.66c-.12.27-.18.69-.37.76s-.52-.19-.79-.3c.12-.27.18-.68.37-.76S146.77,250.55,147,250.66Z"/><path class="cls-2" d="M367,596.64c-.12.27-.23.54-.35.8-.26-.11-.68-.17-.75-.36s.18-.52.3-.79Z"/><path class="cls-2" d="M207,597.64c-.12.27-.23.54-.35.8-.26-.11-.68-.17-.75-.36s.18-.52.3-.79Z"/><path class="cls-2" d="M166.16,19.31c.27.12.68.18.76.37s-.19.52-.31.78c-.27-.11-.68-.17-.76-.37S166,19.58,166.16,19.31Z"/><path class="cls-2" d="M360.82,608.17c.12-.27.18-.69.38-.76s.51.19.78.31c-.12.26-.18.68-.37.76S361.09,608.29,360.82,608.17Z"/><path class="cls-2" d="M339.82,610.17c.12-.27.18-.68.38-.76s.51.19.78.31c-.12.26-.18.68-.37.76S340.09,610.29,339.82,610.17Z"/><path class="cls-2" d="M160.66,7.52c-.27-.12-.68-.17-.76-.37s.19-.51.31-.78c.26.11.68.17.75.36S160.78,7.25,160.66,7.52Z"/><path class="cls-2" d="M151.66,8.52c-.27-.12-.68-.17-.76-.37s.19-.51.31-.78c.26.11.68.17.76.36S151.78,8.25,151.66,8.52Z"/><path class="cls-2" d="M188,613.64c-.12.27-.18.69-.37.76s-.52-.19-.79-.31c.12-.26.18-.68.37-.76S187.75,613.53,188,613.64Z"/><path class="cls-2" d="M292.66,448.52c-.27-.12-.68-.17-.76-.37s.19-.51.31-.78c.26.12.68.17.75.36S292.78,448.25,292.66,448.52Z"/><path class="cls-2" d="M182.25,56.49,180.11,54Z"/><path class="cls-2" d="M163.32,69.91c0,1,.07,2,.1,3C163.39,71.91,163.36,70.91,163.32,69.91Z"/><path class="cls-2" d="M80.09,466l.35.62c-.15.06-.32.19-.44.15a4.92,4.92,0,0,1-.74-.41Z"/><path class="cls-2" d="M218.26,94.42l-1-1.25Z"/><path class="cls-2" d="M69.43,515.9l.39.22-.41-.21Z"/><path class="cls-2" d="M69.41,515.91l-.39-.22.41.21Z"/><path class="cls-2" d="M119.85,564.23l1.5.67Z"/><path class="cls-2" d="M122.45,566l.86.87Z"/><path class="cls-2" d="M242.39,155.78a.73.73,0,0,1,.93-.07c0,.4.07.8.1,1.19h0Z"/><polygon class="cls-2" points="76.42 524.91 76.2 525.3 76.03 525.12 76.42 524.91"/><path class="cls-1" d="M118.51,561.92l-1-1.1Z"/><path class="cls-1" d="M79.3,520.88l-.86-.83Z"/><path class="cls-1" d="M271.34,476.68l-2.42,2.41Z"/><path class="cls-1" d="M200.52,155.64c-1.92,0-3.83-.07-5.74-.12Z"/><path class="cls-1" d="M163.23,154.6l-.94,0,.48-.71A.66.66,0,0,1,163.23,154.6Z"/><path class="cls-1" d="M176.37,49.9c.33.34.65.69,1,1C177,50.58,176.7,50.24,176.37,49.9Z"/><path class="cls-1" d="M206.16,81.08l.73-.65-.63.75Z"/></g></g></svg>