<svg xmlns="http://www.w3.org/2000/svg" viewBox="0 0 71.68 58.25"><defs><style>.cls-1{fill:#fff;}</style></defs><title>twitter-white</title><g id="Layer_2" data-name="Layer 2"><g id="Twitter"><path id="twitter-twitter" class="cls-1" d="M71.68,6.9a29.21,29.21,0,0,1-8.45,2.31A14.74,14.74,0,0,0,69.7,1.07a29.34,29.34,0,0,1-9.34,3.57A14.72,14.72,0,0,0,35.3,18.06,41.76,41.76,0,0,1,5,2.69,14.72,14.72,0,0,0,9.54,22.32a14.57,14.57,0,0,1-6.66-1.83v.18a14.71,14.71,0,0,0,11.8,14.42,14.65,14.65,0,0,1-3.88.52A14.87,14.87,0,0,1,8,35.34,14.73,14.73,0,0,0,21.77,45.55a29.46,29.46,0,0,1-18.26,6.3A31.22,31.22,0,0,1,0,51.65a41.65,41.65,0,0,0,22.54,6.6c27.05,0,41.84-22.41,41.84-41.84,0-.64,0-1.27,0-1.9A30.17,30.17,0,0,0,71.68,6.9Z"/></g></g></svg>