<svg id="svgimage" xmlns="http://www.w3.org/2000/svg" viewBox="0 0 301.2 133.9"><title>uva-library-logo</title><g id="text"><g id="virginia-text"><path d="M174.6,56c.5-.5,1.4-.4,1.1-1.6h1.4l.7,9.6-2,.1c-2.7-6.2-3.9-8.7-10.5-8.7-5.6-.6-11.5,5.9-12.3,12.7-.7,5.8,3.4,12,3.4,12,4.9,6,12.3,5.3,15.8,2l.1-5.4L170.9,75l-4.3-.1c0-.9.1-1,.1-2l14.5.1v2.2a9.65,9.65,0,0,0-3.4-.1c.1,3.6-.1,9.3-.1,9.3-5.6,2.7-18.1,5.4-25.7-2-2.4-2.4-4.8-5.5-4.6-12.3.3-8.6,4.9-14.9,11.7-16.4.1,0,12.8-1.3,15.5,2.3Z"/><path d="M100.9,53.8h14.8V56c-1.7.1-3.4-.6-4.6.2V83.3c.4.2-.1.1,1,.7a14,14,0,0,0,3.5.1v2.2H100.8V84.1H104a4.76,4.76,0,0,0,1.8-.5s.4-24.8,0-27.1c-1.4-1.1-5-.5-5-.5V53.8Z"/><path d="M181.8,53.8h14.8V56c-1.7.1-3.4-.6-4.6.2V83.3c.4.2-.1.1,1,.7a30.81,30.81,0,0,0,3.5.7v1.6H181.7V84.6l3.2-.6a4.76,4.76,0,0,0,1.8-.5s.4-24.8,0-27.1c-1.4-1.1-5-.5-5-.5V53.8Z"/><path d="M61,47.7l17.5-.1v1.7H73.7l-2.3.9c-.3,3.4,9.5,31.4,11.3,36.6,3.4-8.6,9.6-25.1,12.9-34.1,0,0,.4-1.9-.4-2.7h-4V47.6h16l-.5,1.6-5.2.6c-4,1.1-17.3,39.2-20.1,46.4h-1c-2.9-5.7-9.7-33.5-15.8-45.9-.6-1.1-3.4-.9-3.4-.9V47.7Z"/><path d="M128.7,70.6c6.2,1,12.2-2.4,11.8-7.6-.8-9.1-11.8-7.2-11.8-7.2Zm-8.9-16.7c6.3,0,22.4-1.7,24.5,4.4.5,1.4,1.7,5.4.6,7.7-1.5,2.9-4,4.3-7.3,5.3,3.1,3.5,7.2,13.2,13.7,12.9v2.2l-9.4-.3c-2.4-3.8-7.5-16.1-13.5-13.8,0,5.8-.3,9,.1,11.5.7.7,1.6.8,3.8.9v1.6H118.9s-.1.1,0-2a9.36,9.36,0,0,0,4-.9s.1-21.7,0-27c-1.1-1.3-.9-.9-3.2-.9l.1-1.6Z"/><path d="M199.1,54.1h10s16.2,21.2,20.4,25.2c-.1-3.6-.4-16.5-1-22.4a8.3,8.3,0,0,0-4.8-1V53.7h10.8V56s-1.7-.3-2.4.3-.6,2.4-.6,2.4l-.4,28.2c-.6.3-.7.1-1.4.1-7.3-7.7-19.7-23.2-23.1-27.5-.1,4.9-.1,22.9-.1,22.9a6.82,6.82,0,0,0,1.1,1.9,4.83,4.83,0,0,0,2.8.5v1.6H199.6V84.7c2.1,0,4.4-.9,4.5-2.5V59a6.61,6.61,0,0,0-2-2.4,7.18,7.18,0,0,0-3-.3Z"/><path d="M262.9,71.6h10.3l-4.6-14.1ZM237.2,86.4l.1-2.1h3.2a4.76,4.76,0,0,0,1.8-.5s.4-24.8,0-27.1c-1.4-1.1-5-.5-5-.5V54h14.8v2.2c-1.7.1-3.4-.6-4.6.2V83.5c.4.2.3.4,1.4,1a9.68,9.68,0,0,0,2.6.3c.8.1,2-.3,3.7-2.3,1.2-2,10.3-23,11.3-25.2l-.4-2.3c2.3-.3,4.2-1.4,4.7-2.7h1.1l10.5,30a5.94,5.94,0,0,0,1.7,2c1.2.6,3.4,0,3.4,0v2.1H273.8V84.3a3.94,3.94,0,0,0,2.7-.5c-.3-3.9-2.7-9.9-2.7-9.9H261.6c-.7,2.7-2.9,7.2-3.2,10,.4.8,2.1.4,3.8.3v2.1l-25,.1Z"/></g><g id="of-text"><path d="M43.2,49.1c-2.7.2-6,5.7-7.3,7.9-2.1,3.5-1.7,7.7,1,7.7s4.6-1.9,6.7-5.2c4.1-6.1,3.5-10.7-.4-10.4Zm3.6-.4c2.7,2,1.1,8.7-1,12.3-2.4,4.2-6.9,6.5-10,5.3-3.7-1.3-3.2-7.8-1-11.9C37.2,49.8,42.2,45.2,46.8,48.7Z"/><path d="M65.6,34.6c3.3,0,5.8,2.9,3.9,3.9-3.2,1.6-2-2.3-4.7-2.7-4.2-.7-5.3,6.6-7,11.9l3.8-.1v1.8h-5C55.3,56.6,48.9,77.8,41,79.7c-3.7.1-5.5-3.6-3.3-4.3s3.2,2.4,3.2,2.4c6,.9,12.5-24.6,12.5-28.1-1.3-.1-3.7,0-3.7,0v-2H54c4.7-11.9,7.7-13.1,11.6-13.1Z"/></g><g id="university-text"><path d="M218.9,11h14.8v2.2c-1.7.1-3.4-.6-4.6.2V40.5c.4.2-.1.1,1,.7a14,14,0,0,0,3.5.1v2.2H218.8V41.3H222a7.79,7.79,0,0,0,2.3-.5s.4-24.8,0-27.1c-1.4-1.1-5.6-.5-5.6-.5V11Z"/><path d="M83.6,10.7H98.4v2.2c-1.7.1-3.4-.6-4.6.2V40.2c.4.2-.1.1,1,.7a14,14,0,0,0,3.5.1v2.2H83.6V41h3.2a4.76,4.76,0,0,0,1.8-.5s.4-24.8,0-27.1c-1.4-1.1-5-.5-5-.5Z"/><path d="M0,.2H19.4c0,.6-.6,1.5-.2,2l-5.3.3L12,4.9V33.7C12.7,40.5,15.4,46,24.6,46c8.9,0,14.2-5.3,14.3-11.2L39,6.2c-.2-1.8,0-2.5-1.4-3.9l-5.5-.6V0H49.2V2.2H44.3L43,4.9l-.5,28.7c-.9,6.1-2.4,9.1-6.9,12.1-3.7,2.5-6.7,2.6-11.2,2.6-5.8,0-9.8-.6-14.3-4.3C6.7,41.2,6.4,31.6,6.4,31.6V3.8L4.9,2.4H0Z"/><path d="M172.9,27.7c6.2,1,12.2-2.4,11.8-7.6-.8-9.1-11.8-7.2-11.8-7.2ZM164,10.9c6.3,0,22.4-1.7,24.5,4.4.5,1.4,1.7,5.4.6,7.7-1.5,2.9-4,4.3-7.3,5.3,3.1,3.5,7.2,13.2,13.7,12.9v2.2l-9.4-.3c-2.4-3.8-7.5-16.1-13.5-13.8,0,5.8-.3,9,.1,11.5.7.7,1.6.8,3.8.9v1.6H163.1s-.1.1,0-2a9.36,9.36,0,0,0,4-.9s.1-21.7,0-27c-1.1-1.3-.9-.9-3.2-.9l.1-1.6Z"/><path d="M45.8,11.2h10S72,32.4,76.2,36.4c-.1-3.6-.4-16.5-1-22.4a8.3,8.3,0,0,0-4.8-1V10.8H81.2V13s-1.7-.3-2.4.3-.6,2.4-.6,2.4l-.4,28.2c-.6.3-.7.1-1.4.1-7.3-7.7-19.7-23.2-23.1-27.5-.1,4.9-.1,22.9-.1,22.9a6.82,6.82,0,0,0,1.1,1.9,4.83,4.83,0,0,0,2.8.5v1.6H46.3V41.7c2.1,0,4.4-.9,4.5-2.5V16.1a6.61,6.61,0,0,0-2-2.4,7.18,7.18,0,0,0-3-.3Z"/><path d="M100.2,11.1c.7,0,.1,1,.2,1.5,1.9-.1,2.3.6,2.7,1.5,1.6,3.2,10.3,28.3,11.2,30.3h1.4c1-2.4,10.8-27.3,14.1-31.5,1.4-.1,3.3-.4,4-.4a10.23,10.23,0,0,1,4.2.9l.1,28.1H133v2.3h26.8c.8-2.4,2.4-6.3,3.1-8.7-.3-.5-2-.4-2.4.1-.7,1-3.2,4.5-4,5a7.87,7.87,0,0,1-4.4,1.7h-6c-2.4-.6-2.3-1.3-2.5-2.2v-12h5c3.3.4,3.1,2.3,3.6,3.7h1.3l.1-10.3h-1.7s.6,3.9-2.1,4.3a59.15,59.15,0,0,1-6.2,0V12.8s8.7-.2,9,0c.5.1,3.7,1.7,6.7,6.9l1.5-.2c.2-.3-1.5-5.3-2.3-8H122.7v1.3s2.3-.7,2.6,1.3L117,37.2c-2.6-7.3-7.3-21.7-7.3-22.7,0-2.7,4.3-1.7,4.3-1.7V11.1Z"/><path d="M202.1,10.6c2.1-.5,8-1.3,10.5,1.1l.4-1.3h1.4l.3,8.6h-1.3c-.2-2.1-2.3-6.7-5.9-7-2.8-.3-5.4.1-6.3,3.3-1.9,6.5,4.4,7.4,9.2,9.3,6,2.4,6.9,5.6,6.7,10.5-.3,7.2-6.5,9.8-12.5,9-2.8-.4-4.9-2.2-6.5-3.2l-.7,1.9-1-.6.7-9.4h1.6c.1,3.3,1.5,7.2,5.2,8.6a7.35,7.35,0,0,0,6.9-.7c2.8-1.9,2.7-7.5-.7-9.6-6.9-4.3-10.5-2.9-13-8.3-1.5-3.5.1-10.9,5-12.2Z"/><path d="M235.7,11.3h43.6v1.6a23.26,23.26,0,0,1-3,0c0,1.9,8.3,14.1,8.3,14.1l7.9-12.6c.4-2.3-1.6-.9-2.7-1.6l.1-1.6h11.3v1.6l-3.9.4L285.5,28.5v12c1.1,1.6,2.9.6,4.6.9v2.2H275.9a3.74,3.74,0,0,0,0-1.7c1.3-.1,3.1.2,4.4-1.5.4-2.2.1-7.3.1-11-4.2-6.3-9.8-15.9-11.8-16.9-.9-.1-1.4-.3-1.4.3.4,1.7.4,3.2,1,6.7-1.1,0-.6-.1-1.9-.1-2.3-6-3.2-5.4-5.2-6.3l-7.2.1V39.4s.2,1.5,1.3,1.7c2.2,0,3.4.1,3.4.1v2.2l-15.9.2.3-2.4,4.6-.1c2.2-2.6.6-24.4.6-28.1l-7.7.3c-3.3,1.6-3.8,4.5-4.9,6.3a12,12,0,0,1-1.9,0l1-4.3,1-4Z"/></g><g id="library-text"><path d="M58.3,108.4c0,3.9-.2,20-.2,21.2,0,.8-.4,1.7-2.8,1.7H52.2c-.4,0-.5.1-.5.5v1.6c0,.3.1.5.5.5.8,0,3.2-.2,8.3-.2,6.9,0,24.1.1,25.8.2.4-1.7,3-12.4,3.2-12.8s.1-.5-.1-.6l-1-.4c-.3-.1-.4,0-.5.3-.9,2.5-4.8,10.3-8.6,10.8-2,.3-13.4.1-14.8,0-.2-2.6-.2-16.6-.2-17.7v-5.6c0-4.5.2-14.3.2-15.1,0-1.9.3-2.5,2.3-2.5h3.9c.5,0,.6-.2.6-.5V88.3c0-.3-.1-.5-.6-.5s-3.3.2-9.6.2c-5.4,0-7.7-.2-8.4-.2-.4,0-.5.1-.5.5v1.4c0,.3.1.6.5.6h3c1.9,0,2.3.6,2.4,2.3.1,1.2.2,8,.2,12.1v3.7Z"/><path d="M101.2,109.9c0-.5.1-8.9.1-9.6.1-1.5.7-1.8,2.6-1.8h1.2c.4,0,.4-.2.4-.5V96.3a.37.37,0,0,0-.4-.4c-.6,0-4.2.2-6.2.2-3.3.1-7.7-.2-8.1-.2s-.4.1-.4.4v1.6c0,.3.1.5.4.5h1.3c3,0,3.6.7,3.6,1.5,0,1,.1,8.1.1,9.2v3.1c0,2.4-.1,11.4-.1,12-.1,1.3-1.3,1.3-3,1.3H91a.37.37,0,0,0-.4.4v1.6c0,.4.1.6.4.6s4.5-.2,6.9-.2c3.2,0,6.9.2,7.4.2s.4-.2.4-.5v-1.7a.37.37,0,0,0-.4-.4h-1.1c-2,0-2.9-1-3-2.6-.1-1.1-.1-9.2-.1-9.6l.1-3.4Z"/><path d="M240.1,113.7c1.6-2.5,9.8-14,10.9-14.6a4.4,4.4,0,0,1,2.5-.6h.7c.3,0,.4-.1.4-.5V96.5c0-.4-.1-.6-.5-.6s-2.9.2-4.2.2c-2.1,0-5.7-.2-6.1-.2s-.5.2-.5.5V98c0,.3.1.5.5.5h1.1c1.6,0,1.5.9.9,2-.3.6-6.1,9.1-7.2,10.9-1.1-1.7-7-11.1-7.4-11.7-.3-.4-.2-1.2,1.1-1.2h1.1c.4,0,.5-.2.5-.5V96.4c0-.4-.2-.5-.5-.5-.5,0-5.3.2-6.9.2s-5.4-.2-5.8-.2-.6.2-.6.4v1.6c0,.4.1.6.5.6h1a3.7,3.7,0,0,1,2.5.8c1.1,1.1,9.8,13.7,10.4,15v2.5c0,4.2,0,6.7-.1,7.4-.1,1-.5,1.4-2.8,1.4h-1.1a.37.37,0,0,0-.4.4v1.6c0,.4.1.6.5.6s4.5-.2,6.1-.2c2.3,0,6.3.2,6.7.2s.6-.2.6-.5V126c0-.2-.1-.4-.5-.4h-.9c-1.3,0-2.4-.1-2.5-1.6-.1-.8-.1-2.8-.1-4.5l.1-5.8Z"/><path d="M108.6,98c0,.4,0,.5.4.5h1.3c1.3,0,2.7.1,2.8,2.5.1.8.2,5.7.2,7.5v5.2c0,3.7,0,9.2-.2,10.2a2,2,0,0,1-1.9,1.8h-1.9c-.4,0-.5.1-.5.4v1.5c0,.5.1.7.6.7,1.2,0,3.7-.2,5.7-.2,2.4,0,4.7.2,7.1.2,4.8,0,8.1-.7,10-1.7,2.3-1.1,3.7-4.3,3.7-6.8,0-4.7-3.1-7.4-8.6-9v-.1c4.5-1.6,6.6-2.8,6.6-7.2a6.33,6.33,0,0,0-3.7-6.1c-1.6-.8-4.6-1.2-8.6-1.2-1.7,0-4.5.2-6,.2-1.2,0-6-.2-6.6-.2-.4,0-.4.1-.4.5V98Zm9.9,14a17.37,17.37,0,0,1,6.7.8,6.55,6.55,0,0,1,4.6,6.7c0,4.7-3.6,6.6-6.8,6.6-3.5,0-4.5-2-4.5-5.4Zm0-5.2c0-3,0-6.9.1-7.8.1-.5.2-.8.6-.9a7.12,7.12,0,0,1,1.6-.1,10.47,10.47,0,0,1,5.4,1.6,5.25,5.25,0,0,1,2.1,4.6,5.87,5.87,0,0,1-2.6,4.7c-1.4.9-4,1.2-7.2,1v-3.1Z"/><path d="M145.5,99.8v12.4a12.17,12.17,0,0,0,2.1.1c7.8,0,9-5.5,9-7.4a6.38,6.38,0,0,0-2.3-4.9,11.74,11.74,0,0,0-6.7-1.8C146.5,98.2,145.5,98.5,145.5,99.8Zm27.2,13.7h9.6c-.3-1-3.6-11.6-3.7-12.2-.1-.4-.2-.7-.4-.7s-.4.2-.6.8-4.5,11.4-4.9,12.1Zm26.1-1.6V100.7c-.1-1.4-.7-2.2-2.7-2.2h-.7c-.2,0-.3-.2-.3-.5V96.3a.37.37,0,0,1,.4-.4c.4,0,4.7.2,6,.2.8,0,7-.2,7.9-.2,4.2,0,7.4,1.2,9.2,2.8a7.52,7.52,0,0,1,2.5,5.2c0,4.9-2.8,7.7-8.3,9.7,1.6.5,3,2.7,5.9,6.8a21.5,21.5,0,0,0,4,4.5,5,5,0,0,0,3.2.8c.3,0,.4.2.4.6v1.4c0,.3-.1.5-.4.5a13.8,13.8,0,0,0-1.4-.1c-.6,0-1.5-.1-2.2-.1-1.6,0-3.3.1-4.5.1-1.3-1-4.5-6.7-5.1-7.8-2.5-4.4-3.6-5.9-6.6-5.9a9.72,9.72,0,0,0-1.8.1v9.3a1.79,1.79,0,0,0,2,1.8h1.8c.3,0,.4.1.4.4v1.7c0,.4-.1.5-.6.5s-4.3-.2-6.6-.2a40.31,40.31,0,0,0-4.6.2h-1.5c-1.9,0-3.8-.2-5-.2s-5.5.2-6.4.2a.57.57,0,0,1-.6-.6v-1.5a.37.37,0,0,1,.4-.4h1.1a1.07,1.07,0,0,0,1.1-1.2c-.3-1.4-2.2-7.1-2.8-8.7H171.6c-.3.8-2.5,6.7-2.8,7.6-.4,1.4-.2,2.3,1.3,2.3h1.8c.4,0,.5.2.5.5v1.6c0,.3-.1.5-.4.5s-4.2-.2-6.9-.2c-2.4,0-3.7.1-6.2.1-1.3-1-4.5-6.7-5.1-7.8-2.5-4.4-3.6-5.9-6.6-5.9a9.72,9.72,0,0,0-1.8.1v9.3a1.79,1.79,0,0,0,2,1.8h1.8c.3,0,.4.1.4.4v1.7c0,.4-.1.5-.6.5s-4.3-.2-6.6-.2c-1.8,0-5.4.2-5.9.2-.3,0-.4-.2-.4-.6v-1.6a.37.37,0,0,1,.4-.4h.8c1.7,0,2.5-.3,2.5-1.8.1-3.5,0-7.6.1-11.9V100.8c-.1-1.4-.7-2.2-2.7-2.2h-.7c-.2,0-.3-.2-.3-.5V96.4a.37.37,0,0,1,.4-.4c.4,0,4.7.2,6,.2.8,0,7-.2,7.9-.2,4.2,0,7.4,1.2,9.2,2.8a7.52,7.52,0,0,1,2.5,5.2c0,4.9-2.8,7.7-8.3,9.7,1.6.5,3,2.7,5.9,6.8a21.5,21.5,0,0,0,4,4.5,2.18,2.18,0,0,0,.9-.7c.5-.6,4.1-9,5.8-12.6.5-1,4.7-10.6,5.1-11.8.1-.4.6-1.2.1-1.4-.1-.1-.4-.5-.3-.7-.1-.1.1-.4.7-.5a12.47,12.47,0,0,0,4-2,.79.79,0,0,1,.8-.5c.4,0,.6.3.7.8,1,2.8,4.6,12.9,5.5,15.8,1.1,3.5,4.1,11.9,4.6,12.6a4,4,0,0,0,3.3,1.9h1c1.7,0,2.5-.3,2.5-1.8.3-3.7.2-7.9.3-12.2Zm5.4-12.1v12.4a12.17,12.17,0,0,0,2.1.1c7.8,0,9-5.5,9-7.4A6.38,6.38,0,0,0,213,100a11.74,11.74,0,0,0-6.7-1.8C205.2,98.2,204.2,98.5,204.2,99.8Z"/></g></g></svg>