<svg id="Layer_2" data-name="Layer 2" xmlns="http://www.w3.org/2000/svg" viewBox="0 0 53.6 54.6"><title>uva-library-rotunda</title><g id="rotunda"><rect x="37.1" y="25.2" width="4.6" height="22"/><rect x="12.1" y="25.2" width="4.5" height="22"/><rect x="18.1" y="25.2" width="4.8" height="22"/><rect x="24.4" y="25.2" width="4.8" height="22"/><rect x="30.7" y="25.2" width="4.8" height="22"/><polygon points="39.7 23.6 14 23.6 27.2 15.5 39.7 23.6"/><polygon points="11 23.6 0 23.6 0 15.4 24.4 15.4 11 23.6"/><polygon points="29.9 15.4 53.6 15.4 53.6 23.6 42.5 23.6 29.9 15.4"/><path d="M50.2,13.9H3.4a26.65,26.65,0,0,1,46.8,0Z"/><path d="M7.6,45.9l-.3.8.7-.5.7.5-.3-.8.7-.5H8.3L8,44.6l-.3.8H6.9ZM3.8,40.8l-.3.8.7-.5.8.5-.3-.8.7-.5H4.5l-.3-.8-.2.8H3.1ZM1.2,34.6l-.3.8.7-.5.7.5L2,34.6l.7-.5H1.9l-.3-.8-.3.8H.5Zm9.4,12.6H0V27.5l.4.3-.3.8.7-.5.7.5-.3-.8.7-.5H1.1l-.3-.8-.3.8H0V25.2H10.6Z"/><rect y="48.8" width="10.6" height="5.8"/><rect x="43.2" y="48.8" width="10.4" height="5.8"/><path d="M34,52.9l.7-.5h-.9l-.3-.8-.3.8h-.9l.7.5-.3.8.7-.5.7.5Zm6.2-2.5.7-.5H40l-.3-.8-.3.8h-.9l.7.5-.2.9.7-.5.7.5ZM19.7,52.9l-.3.8.7-.5.7.5-.3-.8.7-.5h-.9l-.3-.8-.3.8H19Zm-6.2-2.5-.3.8.7-.5.7.5-.3-.8.7-.5h-.9l-.3-.8-.3.8h-.9Zm28.2-1.6v5.8H27.5l-.2-.8.7-.5h-.9l-.3-.8-.3.8h-.9l.7.5-.2.8h-14V48.8ZM27.5,54.6H26.3l.6-.4Z"/><path d="M46,45.9l.7-.5h-.9l-.3-.8-.3.8h-.9l.7.5-.3.8.7-.5.7.5Zm3.8-5.1.7-.5h-.9l-.3-.8-.3.8h-.9l.7.5-.3.8.7-.5.7.5Zm2.6-6.2.7-.5h-.9l-.2-.8-.3.8h-.9l.7.5-.3.8.7-.5.7.5Zm1.2,12.6H43.2v-22H53.6v2.1h-.5l-.3-.8-.3.8h-.9l.7.5-.3.8.7-.5.7.5-.3-.8.4-.3V47.2Z"/></g></svg>