<svg xmlns="http://www.w3.org/2000/svg" viewBox="0 0 602.3 171.87"><defs><style>.cls-1{fill:#fff;}</style></defs><title>wavy-arrow-white</title><g id="Layer_2" data-name="Layer 2"><g id="Draw_Layer" data-name="Draw Layer"><path class="cls-1" d="M544.41,1a24.27,24.27,0,0,0-5.08,2.25,25.77,25.77,0,0,0-3.54,2.6,64.71,64.71,0,0,0-12.43,14.38,88.67,88.67,0,0,0-4.74,8l-2.33,4.66c-1,2.05-1.94,4.15-2.88,6.24-1.18,2.63-2.21,5.33-3.23,8q-1.87,5-3.71,10t-3.73,9.68c-.61,1.51-1.2,3-1.88,4.52-.79,1.76-1.59,3.51-2.39,5.27l-2.73,5.2A65.3,65.3,0,0,1,491,89.17a65.41,65.41,0,0,1-5.34,6.52,33.84,33.84,0,0,1-12.14,8.16,26.16,26.16,0,0,1-3.55.67,14.39,14.39,0,0,1-4.93-.42,17.49,17.49,0,0,1-2.59-1.23,11.22,11.22,0,0,1-2.11-1.65,21.36,21.36,0,0,1-2.4-3.56c-1.31-2.84-2.38-5.77-3.44-8.71s-2.11-6-3.19-9a166.77,166.77,0,0,0-7.38-17.75,57.31,57.31,0,0,0-11.61-16.19A32.54,32.54,0,0,0,423,39.5,26.61,26.61,0,0,0,417.87,38a17.55,17.55,0,0,0-4.4-.32,50.66,50.66,0,0,0-5.05.57,26.93,26.93,0,0,0-3.53.92A27.34,27.34,0,0,0,401,40.63c-1.12.55-2.2,1.14-3.29,1.76a37.68,37.68,0,0,0-3.61,2.53,62.57,62.57,0,0,0-5.92,5.25c-1.88,1.8-3.68,3.68-5.52,5.51a85.55,85.55,0,0,1-12.4,10.48A55.15,55.15,0,0,1,357,72.41a61.84,61.84,0,0,1-8.28,2,67.76,67.76,0,0,1-9.21.81c-6.44,0-12.87-.3-19.29-.74s-12.62-1.31-18.94-2c-6-.65-12.11-1.06-18.18-1.43-6.25-.38-12.5-.86-18.75-1.22-6.09-.34-12.19-.4-18.29-.39-12.58,0-25.17-.09-37.74-.74-6.42-.33-12.84-.82-19.21-1.65-6.54-.86-13.05-1.86-19.59-2.7-12.75-1.63-25.59-2.24-38.43-2.68-6.27-.21-12.56-.1-18.82.09s-12.63.51-18.94.82c-6.46.32-12.91.56-19.37.77q-5.14.16-10.29.43c-3,.17-6.08.49-9.12.82-9.09,1-18,3-26.91,5.11-4.34,1-8.71,2-13.14,2.6a132.65,132.65,0,0,0-13.18,2C.21,74.54,0,75.9,0,76.82a4.46,4.46,0,0,0,.25,1.5c.11.31.51,1.16,1,1A59.54,59.54,0,0,1,10.2,78c3.17-.27,6.33-.56,9.49-1,6.19-.87,12.33-2.14,18.5-3.15s12.43-1.83,18.68-2.35,12.67-.59,19-.67,12.56-.17,18.84-.33,12.86-.28,19.29-.27c6.63,0,13.25.14,19.87.49s13,.78,19.43,1.37,12.75,1.44,19.09,2.42c6.17,1,12.3,2.15,18.47,3.08q9.52,1.44,19.12,2.15,9.75.7,19.5,1.13c12.34.55,24.71.26,37,1.25,6.1.49,12.2,1,18.3,1.47,6.26.48,12.52,1,18.75,1.79l9.87,1.26c3.12.38,6.25.63,9.37.88a158.93,158.93,0,0,0,18.64.66,62.8,62.8,0,0,0,9.28-1.07,73.06,73.06,0,0,0,9.43-2.59A60,60,0,0,0,368.53,81a52.48,52.48,0,0,0,7.86-5.25,81.56,81.56,0,0,0,7.17-6.48c2.49-2.42,4.83-5,7.31-7.42a58.58,58.58,0,0,1,7.88-6.71A36.29,36.29,0,0,1,403,52.63a26.31,26.31,0,0,1,3.49-1.42,47.65,47.65,0,0,1,5.3-1,21,21,0,0,1,8.27.62,26,26,0,0,1,6.82,3.8,39.7,39.7,0,0,1,3.47,3c.75.81,1.48,1.62,2.19,2.46,1,1.16,1.88,2.42,2.77,3.66a60.91,60.91,0,0,1,4,6.6c1.21,2.56,2.36,5.13,3.37,7.78q1.73,4.56,3.3,9.18t3.18,9.43c.47,1.39.95,2.77,1.45,4.15.57,1.56,1.2,3.08,1.86,4.61a36.1,36.1,0,0,0,3,5.56,16.38,16.38,0,0,0,1.82,2.16,24.59,24.59,0,0,0,2.37,2.19,14.14,14.14,0,0,0,5.24,2.44,19.76,19.76,0,0,0,3,.54,15.08,15.08,0,0,0,4.29-.32,25.3,25.3,0,0,0,5.74-1.91,28.83,28.83,0,0,0,5.09-3,52.13,52.13,0,0,0,9.62-9.5,79.61,79.61,0,0,0,7.27-10.73c.95-1.63,1.77-3.36,2.64-5,1.58-3,2.92-6.12,4.32-9.21.84-1.84,1.53-3.77,2.29-5.65.62-1.53,1.19-3.08,1.76-4.62,1.21-3.23,2.37-6.48,3.57-9.71q2.05-5.55,4.23-11c1.29-3.28,2.83-6.45,4.36-9.63.84-1.57,1.65-3.16,2.57-4.68,1.24-2,2.47-4,3.81-6a53.4,53.4,0,0,1,3.46-4.72L535,19.93c.66-.78,1.41-1.49,2.12-2.23l-.67.69c.87-.8,1.72-1.61,2.63-2.37a21.81,21.81,0,0,1,6.5-3.8,21.36,21.36,0,0,1,4.27-.76,14.55,14.55,0,0,1,4.87.56,14.91,14.91,0,0,1,4.85,3,18,18,0,0,1,2,2.94,25.44,25.44,0,0,1,.87,2.4c.37,1.73.6,3.48.81,5.24.14,2.89.16,5.77.11,8.67s-.26,6-.45,8.92c-.38,6-.68,12-1.09,18.07-.42,6.29-1,12.58-1.31,18.88a129.26,129.26,0,0,0,.45,20.16c.55,4.95,1.18,9.9,1.7,14.86.5,4.74.85,9.49,1.42,14.22q0,.45.12.9c-2-.17-3.89-.39-5.82-.64a72.5,72.5,0,0,1-11.51-2.25c-.55-.19-1.09-.39-1.63-.6a4,4,0,0,0-1.64-.52c-1.64.24-2.21,2.15-2.45,3.54a10,10,0,0,0,0,3.27l.36,1.43a3.82,3.82,0,0,0,1.27,1.86l.27.1c.5.2,1,.44,1.47.64s.85.44,1.28.7a42.72,42.72,0,0,1,4,2.87,85.92,85.92,0,0,1,7.88,7.13c5,5.26,9.86,10.59,14.43,16.2,1.41,1.74,2.79,3.52,4.36,5.12a20.7,20.7,0,0,0,2.21,2,4.71,4.71,0,0,0,1.45.59,1.71,1.71,0,0,0,1.54,0c1.31-.25,2.13-1.44,2.78-2.5.24-.39.44-.83.65-1.24,1.71-3.42,3.36-6.87,5-10.31,1.46-2.91,3-5.8,4.49-8.68.88-1.65,1.76-3.3,2.61-5,1.18-2.32,2.64-4.75,3.07-7.36l.1-.08.06,0h0a1.89,1.89,0,0,0,.69-.71,6.36,6.36,0,0,0,.91-2.48h0a10.17,10.17,0,0,0,0-3.21c-.18-1-.59-2.61-1.61-3.2-.86-.51-1.3-.23-2.15,0-.46.15-.91.31-1.36.48-1.16.41-2.31.84-3.47,1.24A48.91,48.91,0,0,1,577,131c-1.81,0-3.62-.08-5.42-.18v0c-.3-.71-.56-1.44-.8-2.18a83.64,83.64,0,0,1-1.28-8.78c-.34-3-.65-6.09-1-9.13s-.78-6.21-1.19-9.32c-.33-2.56-.6-5.12-.84-7.68-.13-2.89-.25-5.77-.19-8.66.07-3.29.19-6.56.35-9.84.29-6,.76-12,1-18.06.29-6.36.72-12.71,1.09-19.06.17-3,.22-6,.21-9a59,59,0,0,0-1.34-12.92,23.45,23.45,0,0,0-5.13-10.63,18.33,18.33,0,0,0-3.72-3.15A17.34,17.34,0,0,0,553.72.38,12.64,12.64,0,0,0,550.54,0a20.85,20.85,0,0,0-6.13,1ZM600.68,136.4l-.1.1v0l.1-.08Zm-.11.1Z"/></g></g></svg>