<?xml version="1.0" encoding="UTF-8" standalone="no"?>
<svg
   version="1.0"
   width="2945.000000pt"
   height="3892.000000pt"
   viewBox="0 0 2945.000000 3892.000000"
   preserveAspectRatio="xMidYMid meet"
   id="svg1471"
   sodipodi:docname="3rd-floor.svg"
   inkscape:version="1.2.2 (b0a84865, 2022-12-01)"
   inkscape:export-filename="../../../../../../Desktop/3rd-floor.jpg"
   inkscape:export-xdpi="39.961903"
   inkscape:export-ydpi="39.961903"
   xmlns:inkscape="http://www.inkscape.org/namespaces/inkscape"
   xmlns:sodipodi="http://sodipodi.sourceforge.net/DTD/sodipodi-0.dtd"
   xmlns="http://www.w3.org/2000/svg"
   xmlns:svg="http://www.w3.org/2000/svg">
  <defs
     id="defs1475" />
  <sodipodi:namedview
     id="namedview1473"
     pagecolor="#ffffff"
     bordercolor="#000000"
     borderopacity="0.25"
     inkscape:showpageshadow="2"
     inkscape:pageopacity="0.0"
     inkscape:pagecheckerboard="0"
     inkscape:deskcolor="#d1d1d1"
     inkscape:document-units="pt"
     showgrid="false"
     inkscape:zoom="0.080758937"
     inkscape:cx="2185.5166"
     inkscape:cy="4878.717"
     inkscape:window-width="1512"
     inkscape:window-height="916"
     inkscape:window-x="0"
     inkscape:window-y="38"
     inkscape:window-maximized="0"
     inkscape:current-layer="svg1471" />
  <g
     transform="translate(0.000000,3892.000000) scale(0.100000,-0.100000)"
     fill="#000000"
     stroke="none"
     id="g1469">
    <path
       d="M16586 36909 c-184 -30 -296 -192 -296 -427 0 -146 48 -271 134 -350 71 -64 139 -86 244 -80 158 9 257 89 313 250 32 91 33 256 2 354 -34 106 -95 184 -175 222 -70 33 -145 44 -222 31z m130 -178 c58 -35 90 -150 80 -286 -7 -100 -20 -146 -52 -184 -49 -59 -139 -59 -187 -1 -42 49 -52 95 -52 230 0 111 3 130 24 174 40 80 118 109 187 67z"
       id="path1015" />
    <path
       d="M17396 36909 c-184 -30 -296 -192 -296 -427 0 -146 48 -271 134 -350 71 -64 139 -86 244 -80 158 9 257 89 313 250 32 91 33 256 2 354 -34 106 -95 184 -175 222 -70 33 -145 44 -222 31z m130 -178 c58 -35 90 -150 80 -286 -7 -100 -20 -146 -52 -184 -49 -59 -139 -59 -187 -1 -42 49 -52 95 -52 230 0 111 3 130 24 174 40 80 118 109 187 67z"
       id="path1017" />
    <path
       d="M11182 36818 l3 -83 108 -3 107 -3 0 -334 0 -335 100 0 100 0 0 335 0 335 105 0 105 0 0 85 0 85 -315 0 -316 0 3 -82z"
       id="path1019" />
    <path
       d="M11900 36480 l0 -420 100 0 100 0 2 173 3 172 125 0 125 0 3 -172 2 -173 100 0 100 0 0 420 0 420 -100 0 -100 0 0 -160 0 -160 -130 0 -130 0 0 160 0 160 -100 0 -100 0 0 -420z"
       id="path1021" />
    <path
       d="M12710 36480 l0 -420 100 0 100 0 0 420 0 420 -100 0 -100 0 0 -420z"
       id="path1023" />
    <path
       d="M13080 36481 l0 -421 100 0 100 0 0 165 0 165 69 0 68 0 63 -165 63 -165 108 0 c68 0 109 4 109 10 0 6 -31 86 -70 178 -71 168 -78 192 -60 192 19 0 82 64 102 104 26 51 28 154 5 207 -23 52 -63 97 -111 122 -39 21 -55 22 -293 25 l-253 3 0 -420z m434 240 c33 -31 41 -70 22 -114 -21 -52 -58 -67 -166 -67 l-90 0 0 106 0 106 104 -4 c94 -3 107 -5 130 -27z"
       id="path1025" />
    <path
       d="M13880 36480 l0 -422 198 4 c175 4 204 7 256 28 83 32 148 95 194 189 37 75 37 75 37 206 0 125 -1 133 -31 196 -43 89 -93 142 -172 181 l-66 33 -208 3 -208 3 0 -421z m370 245 c135 -69 157 -337 37 -453 -34 -33 -93 -51 -164 -52 l-43 0 0 258 c0 142 3 262 7 265 10 11 134 -4 163 -18z"
       id="path1027" />
    <path
       d="M15050 36480 l0 -420 100 0 100 0 0 165 0 165 160 0 160 0 0 80 0 80 -160 0 -161 0 3 93 3 92 198 3 197 2 0 80 0 80 -300 0 -300 0 0 -420z"
       id="path1029" />
    <path
       d="M15710 36480 l0 -420 270 0 270 0 0 85 0 85 -170 0 -170 0 0 335 0 335 -100 0 -100 0 0 -420z"
       id="path1031" />
    <path
       d="M17950 36481 l0 -421 100 0 100 0 0 165 0 165 69 0 68 0 63 -165 63 -165 108 0 c68 0 109 4 109 10 0 6 -31 86 -70 178 -71 168 -78 192 -60 192 19 0 82 64 102 104 26 51 28 154 5 207 -23 52 -63 97 -111 122 -39 21 -55 22 -293 25 l-253 3 0 -420z m434 240 c33 -31 41 -70 22 -114 -21 -52 -58 -67 -166 -67 l-90 0 0 106 0 106 104 -4 c94 -3 107 -5 130 -27z"
       id="path1033" />
    <path
       d="M3203 36850 c-498 -41 -871 -303 -1067 -749 -39 -88 -100 -270 -94 -277 5 -5 591 -145 593 -141 1 1 14 43 29 92 108 352 326 535 636 535 358 0 580 -249 581 -650 0 -227 -51 -372 -175 -496 -140 -139 -232 -164 -612 -164 l-254 0 0 -264 0 -264 273 -5 c235 -4 283 -7 354 -25 305 -79 474 -291 499 -624 16 -218 -46 -441 -162 -582 -188 -229 -574 -291 -869 -139 -49 26 -94 61 -150 118 -113 115 -189 266 -243 485 -7 27 -13 34 -28 32 -57 -8 -571 -136 -579 -143 -6 -6 -3 -40 8 -95 57 -276 166 -486 346 -665 254 -252 580 -370 1026 -370 292 0 508 42 729 145 174 80 383 263 480 419 208 336 247 831 93 1185 -109 252 -318 440 -592 533 l-79 27 94 47 c288 144 450 332 521 600 60 225 39 554 -47 774 -155 390 -504 620 -1009 661 -133 11 -167 11 -302 0z"
       id="path1035" />
    <path
       d="M10530 34615 l0 -185 -1155 0 -1155 0 0 -415 0 -415 -950 0 -950 0 0 -3620 0 -3620 970 0 970 0 -2 -2417 -3 -2418 -567 -3 -568 -2 0 450 0 450 -230 0 -230 0 0 180 0 180 -1895 0 -1895 0 0 -180 0 -180 -205 0 -205 0 0 -1485 0 -1485 -190 0 -190 0 0 -7720 0 -7720 190 0 190 0 0 -1390 0 -1390 250 0 250 0 0 -175 0 -175 1850 0 1850 0 0 175 0 175 230 0 230 0 0 1050 0 1050 760 0 760 0 0 -600 0 -600 6230 0 6230 0 0 600 0 600 770 0 770 0 0 -1050 0 -1050 235 0 235 0 0 -175 0 -175 1850 0 1850 0 0 175 0 175 245 0 245 0 0 1390 0 1390 195 0 195 0 0 7720 0 7720 -192 2 -193 3 -3 1483 -2 1482 -205 0 -205 0 0 180 0 180 -1890 0 -1890 0 0 -180 0 -180 -245 0 -245 0 0 -450 0 -450 -537 2 -538 3 -3 2418 -2 2417 2750 0 2750 0 -2 3618 -3 3617 -2747 3 -2748 2 0 415 0 415 -1150 0 -1150 0 0 185 0 185 -4355 0 -4355 0 0 -185z m568 -1527 l-3 -1623 -677 -3 c-673 -2 -678 -2 -678 18 0 16 -7 20 -30 20 -29 0 -30 -2 -30 -45 l0 -45 708 -2 707 -3 0 -400 0 -400 -512 -3 -513 -2 0 190 0 190 -30 0 -30 0 0 -190 0 -190 -190 0 -190 0 0 -25 0 -25 765 0 765 0 0 2080 0 2080 3760 0 3760 0 0 -2080 0 -2080 150 0 150 0 0 25 0 25 -120 0 -120 0 0 405 0 405 495 0 495 0 0 -405 0 -405 -175 0 -175 0 0 -25 0 -25 350 0 350 0 0 25 0 25 -145 0 -145 0 0 405 0 405 170 0 170 0 0 70 0 70 -30 0 c-29 0 -30 -2 -30 -45 l0 -45 -665 0 -665 0 0 1625 0 1625 200 0 200 0 0 -185 0 -185 305 0 305 0 0 -1120 0 -1120 160 0 160 0 0 -75 0 -75 30 0 30 0 0 75 0 75 668 -2 667 -3 0 -745 0 -745 -367 -3 -368 -2 0 -25 0 -25 368 -2 367 -3 3 -177 2 -178 25 0 25 0 0 295 0 295 155 0 155 0 0 30 0 29 -152 3 -153 3 0 1325 0 1325 833 3 832 2 0 -315 0 -315 30 0 30 0 0 315 0 315 1845 0 1845 0 0 -3520 0 -3520 -1845 0 -1845 0 0 180 0 180 -30 0 -30 0 0 -180 0 -180 -870 0 c-573 0 -870 -3 -870 -10 0 -6 -47 -10 -120 -10 l-120 0 0 -30 0 -30 120 0 120 0 0 -2475 c0 -1643 3 -2475 10 -2475 6 0 10 -16 10 -35 l0 -35 -1360 0 -1360 0 0 -280 0 -280 30 0 30 0 0 250 0 250 1330 0 1330 0 0 -640 0 -640 -1330 0 -1330 0 0 180 0 180 -30 0 -30 0 0 -371 0 -370 28 3 27 3 3 158 3 157 1329 0 1330 0 0 -605 0 -605 -1330 0 -1330 0 0 240 0 240 -30 0 -30 0 0 -695 0 -695 30 0 30 0 0 425 0 425 1235 0 1235 0 0 -1275 0 -1275 -1235 0 -1235 0 0 450 0 450 -30 0 -30 0 0 -480 0 -480 1265 0 1265 0 0 -170 0 -170 300 0 300 0 0 25 0 25 -270 0 -270 0 0 1450 0 1450 650 0 650 0 0 -1445 0 -1445 -180 0 -180 0 0 -30 0 -30 180 0 180 0 0 -55 c0 -54 0 -55 30 -55 l30 0 0 265 0 265 955 0 955 0 0 30 0 30 -210 0 -210 0 0 120 0 120 -30 0 -30 0 0 -120 0 -120 -715 0 -715 0 0 1075 0 1075 715 0 715 0 0 -765 0 -765 30 0 30 0 -2 973 -3 972 -27 3 -28 3 0 -180 0 -181 -715 0 -715 0 0 500 0 500 715 0 715 0 0 -141 0 -140 28 3 27 3 3 618 2 617 -30 0 -30 0 0 -455 0 -455 -715 0 -715 0 0 655 0 655 715 0 715 0 0 -25 c0 -21 5 -25 30 -25 l31 0 -3 78 c-3 76 -3 77 -30 80 -25 3 -28 0 -28 -27 l0 -31 -712 2 -713 3 -3 293 c-1 192 1 292 8 292 7 0 10 151 10 445 l0 445 243 2 242 3 3 178 2 177 460 0 460 0 0 -715 0 -715 30 0 30 0 0 715 0 715 820 0 820 0 0 -715 0 -715 30 0 30 0 0 715 0 715 455 0 455 0 0 -180 0 -180 205 0 205 0 -2 -737 -3 -738 -657 -3 -657 -2 -3 27 c-2 22 -9 29 -30 31 l-28 3 0 -80 0 -81 30 0 c25 0 30 4 30 25 l0 25 658 -2 657 -3 3 -647 2 -648 -660 0 -660 0 0 450 0 450 -30 0 -30 0 0 -621 0 -620 28 3 27 3 3 138 3 137 659 0 660 0 0 -35 0 -35 190 0 190 0 0 -1565 0 -1565 -850 0 -850 0 0 115 0 115 -30 0 -30 0 0 -115 0 -115 -230 0 -230 0 0 -30 0 -30 1110 0 1110 0 0 -3110 0 -3110 -850 0 -850 0 0 115 0 115 -30 0 -30 0 0 -265 0 -265 30 0 30 0 0 120 0 120 850 0 850 0 0 -1190 0 -1190 -850 0 -850 0 0 915 0 915 -30 0 -30 0 0 -1090 0 -1090 30 0 30 0 0 145 0 145 850 0 850 0 0 -1670 0 -1670 -190 0 c-120 0 -190 -4 -190 -10 0 -7 -227 -10 -660 -10 l-659 0 -3 147 -3 148 -27 3 -28 3 0 -255 0 -256 30 0 30 0 0 75 0 75 660 0 660 0 0 -1350 0 -1350 -250 0 -250 0 0 -180 0 -180 -1750 0 -1750 0 0 180 0 180 -235 0 -235 0 0 1045 c0 690 -3 1045 -10 1045 -6 0 -10 108 -10 305 l0 305 705 0 705 0 0 -75 0 -75 30 0 30 0 -2 253 -3 252 -27 3 -28 3 0 -150 0 -151 -705 0 -705 0 0 615 0 615 705 0 705 0 0 -245 0 -245 30 0 30 0 0 275 0 275 -735 0 -735 0 0 30 c0 27 -3 30 -30 30 l-30 0 0 -100 0 -100 -115 0 -115 0 0 -30 0 -30 115 0 115 0 0 -880 0 -880 -790 0 -790 0 0 880 0 880 480 0 480 0 0 30 0 30 -480 0 -480 0 0 100 0 100 -30 0 -30 0 0 -100 0 -100 -2875 0 -2875 0 0 -30 0 -30 2210 0 2210 0 0 -510 0 -510 30 0 30 0 0 205 0 205 100 0 100 0 0 30 0 30 -100 0 -100 0 0 275 0 275 635 0 635 0 0 -280 0 -280 -100 0 -100 0 0 -30 0 -30 100 0 100 0 0 -564 c0 -366 -4 -567 -10 -571 -6 -4 -10 -215 -10 -601 l0 -594 -625 0 -625 0 0 770 0 770 -30 0 -30 0 0 -770 0 -770 -3465 0 -3465 0 0 1480 0 1480 875 0 875 0 0 30 0 30 -1830 0 -1830 0 0 -30 0 -30 930 0 930 0 0 -1480 0 -1480 -1985 0 -1985 0 0 595 c0 390 -3 595 -10 595 -7 0 -10 302 -10 885 l0 885 690 0 690 0 0 30 0 30 -690 0 -690 0 0 180 0 180 -30 0 -30 0 0 -180 0 -180 -470 0 -470 0 0 -30 0 -30 470 0 470 0 0 -885 0 -885 -780 0 -780 0 0 880 0 880 110 0 110 0 0 30 0 30 -110 0 -110 0 0 200 0 200 -30 0 -30 0 0 -355 0 -355 -390 0 -390 0 0 295 0 295 -30 0 -30 0 0 -715 0 -715 -155 0 -155 0 0 -30 0 -30 183 2 182 3 3 418 2 417 390 0 390 0 0 -725 c0 -477 -3 -725 -10 -725 -7 0 -10 -355 -10 -1045 l0 -1045 -230 0 -230 0 0 -180 0 -180 -1750 0 -1750 0 0 180 0 180 -250 0 -250 0 0 1390 0 1390 -195 0 -195 0 0 2885 0 2885 2015 0 2015 0 0 -1880 0 -1880 30 0 30 0 0 1910 0 1910 -165 0 -165 0 -2 468 -3 467 -27 3 -28 3 0 -470 0 -471 -1850 0 -1850 0 2 1317 3 1318 1842 3 1843 2 0 -550 0 -550 30 0 30 0 0 1700 0 1700 -30 0 -30 0 0 -1125 0 -1125 -1842 2 -1843 3 -3 1848 -2 1847 1845 0 1845 0 0 -355 0 -355 30 0 30 0 0 355 0 355 215 0 215 0 0 565 0 565 -30 0 -30 0 0 -535 0 -535 -2060 0 -2060 0 2 1483 3 1482 193 3 c117 1 192 6 192 12 0 7 650 9 1863 8 l1862 -3 3 -577 2 -578 25 0 25 0 2 578 3 577 78 3 c74 3 77 4 77 27 l0 25 -1970 0 -1970 0 0 1445 0 1445 205 0 205 0 0 180 0 180 1795 0 1795 0 0 -180 0 -180 230 0 230 0 0 -445 c0 -290 3 -445 10 -445 7 0 10 -340 10 -1000 l0 -1000 -75 0 c-73 0 -75 -1 -75 -25 0 -24 2 -25 75 -25 l75 0 0 -1880 0 -1880 30 0 30 0 0 60 0 60 250 0 250 0 0 25 0 25 -250 0 -250 0 0 1450 0 1450 1120 0 1120 0 0 -945 0 -945 -605 0 -605 0 0 -505 0 -505 -70 0 c-68 0 -70 -1 -70 -25 l0 -25 1585 0 1585 0 -2 448 -3 447 -27 3 -28 3 0 -205 0 -206 -705 0 -705 0 0 600 0 600 705 0 705 0 0 -141 0 -140 28 3 27 3 3 273 2 272 -30 0 -30 0 0 -105 0 -105 -705 0 -705 0 0 600 0 600 705 0 705 0 0 -235 0 -235 30 0 30 0 0 515 0 515 -30 0 -30 0 0 -250 0 -250 -1385 0 -1385 0 2 618 3 617 1380 0 1380 0 3 -188 2 -188 28 3 27 3 3 373 2 372 -30 0 -29 0 -3 -157 -3 -158 -1380 0 -1380 0 -3 618 -2 617 1385 0 1385 0 0 -250 0 -250 30 0 30 0 -2 278 -3 277 -1412 3 -1413 2 0 39 c0 22 5 43 10 46 7 4 10 842 10 2481 l0 2474 1403 2 1402 3 3 328 2 327 -30 0 -30 0 0 -300 0 -300 -1371 0 c-1091 0 -1373 3 -1383 13 -10 9 -14 149 -20 610 l-6 597 1390 0 1390 0 0 -125 0 -125 30 0 30 0 -2 373 -3 372 -27 3 -28 3 0 -220 0 -221 -1388 0 -1389 0 -7 348 c-3 191 -6 496 -7 677 l-1 330 1394 0 1393 0 3 -247 2 -248 30 0 30 0 0 275 0 275 -1427 2 -1428 3 -3 208 -2 207 -31 0 -31 0 6 -307 c3 -170 9 -581 12 -915 l6 -608 -218 -2 -219 -3 -3 -27 -3 -28 219 0 220 0 6 -242 c4 -134 7 -404 9 -601 l2 -357 -933 0 -932 0 2 598 3 597 383 3 383 2 -3 28 -3 27 -383 3 -382 2 2 2188 3 2187 383 3 383 2 -3 28 -3 27 -382 3 -383 2 0 670 0 670 915 0 915 0 0 -670 0 -670 -207 -2 -208 -3 -3 -27 -3 -28 210 0 211 0 0 -965 0 -965 30 0 30 0 0 190 0 190 370 0 370 0 0 25 0 25 -370 0 -370 0 0 750 0 750 690 0 690 0 0 -100 0 -100 30 0 30 0 0 100 0 100 155 0 155 0 0 1120 0 1120 290 0 290 0 0 185 0 185 235 0 235 0 -2 -1622z m-1108 162 l0 -1090 -845 0 -845 0 0 670 c0 440 3 670 10 670 7 0 10 147 10 420 l0 420 835 0 835 0 0 -1090z m11460 670 c0 -273 3 -420 10 -420 7 0 10 -230 10 -670 l0 -670 -830 0 -830 0 0 1090 0 1090 820 0 820 0 0 -420z m-13172 -13832 l2 -1338 -590 0 -590 0 0 1340 0 1340 588 -2 587 -3 3 -1337z m14362 2 l0 -1340 -560 0 -560 0 0 1333 c0 734 3 1337 7 1340 3 4 255 7 560 7 l553 0 0 -1340z m-13010 -2660 l0 -1260 735 0 735 0 0 -190 0 -190 -1455 0 -1455 0 0 475 0 475 605 0 605 0 0 975 0 975 115 0 115 0 0 -1260z"
       id="path1037" />
    <path
       d="M14105 32777 c-17 -7 -40 -19 -52 -27 -23 -17 -68 -88 -61 -95 3 -3 26 -8 51 -11 33 -5 47 -3 47 5 0 7 11 23 25 36 42 43 126 30 145 -21 20 -52 -25 -94 -100 -94 -40 0 -40 0 -40 -39 l0 -39 57 -4 c46 -4 61 -10 80 -32 28 -33 29 -56 3 -89 -42 -53 -142 -40 -175 23 -11 21 -21 29 -33 26 -9 -3 -29 -8 -44 -12 -16 -3 -28 -12 -28 -19 0 -26 48 -81 90 -105 60 -33 166 -35 225 -4 101 52 117 178 30 237 -34 23 -35 26 -16 32 48 15 69 112 38 172 -32 61 -159 92 -242 60z"
       id="path1039" />
    <path
       d="M14608 32756 c-14 -17 -52 -44 -82 -59 l-56 -28 0 -50 0 -50 33 17 c17 9 46 27 64 40 17 13 34 24 37 24 3 0 6 -70 6 -155 l0 -155 -80 0 -80 0 0 -40 0 -40 200 0 200 0 0 40 0 40 -70 0 -70 0 0 225 0 225 -37 -1 c-30 0 -44 -7 -65 -33z"
       id="path1041" />
    <path
       d="M14993 32770 c-51 -23 -83 -70 -83 -123 0 -46 13 -74 48 -105 20 -18 23 -25 13 -29 -7 -3 -27 -18 -44 -32 -24 -22 -31 -38 -35 -79 -4 -50 -3 -53 34 -91 31 -30 52 -41 98 -51 97 -20 200 4 249 58 50 55 40 143 -22 193 l-39 31 36 32 c31 29 35 39 35 79 0 58 -23 93 -76 118 -57 25 -158 25 -214 -1z m178 -79 c25 -26 27 -33 19 -58 -6 -16 -23 -37 -39 -46 -27 -16 -30 -16 -82 11 -66 33 -77 67 -33 101 40 32 98 28 135 -8z m-45 -227 c54 -22 74 -42 74 -75 0 -40 -46 -63 -116 -57 -94 8 -125 70 -63 122 36 30 52 32 105 10z"
       id="path1043" />
    <path
       d="M15380 32520 l0 -260 139 0 c77 0 152 5 168 11 99 37 121 170 39 235 l-33 27 29 26 c59 53 46 158 -25 201 -28 17 -51 20 -174 20 l-143 0 0 -260z m261 164 c25 -22 24 -69 -1 -94 -16 -16 -33 -20 -90 -20 l-70 0 0 71 0 72 71 -6 c46 -4 78 -12 90 -23z m10 -221 c12 -11 22 -33 22 -48 0 -48 -34 -69 -118 -73 l-75 -4 0 77 0 77 75 -4 c60 -3 79 -8 96 -25z"
       id="path1045" />
    <path
       d="M10788 32693 l-3 -78 -67 -3 -68 -3 0 -74 0 -75 -70 0 -70 0 0 -80 0 -80 -70 0 -70 0 0 -80 0 -80 -65 0 -65 0 0 -30 0 -30 100 0 100 0 0 80 0 80 65 0 65 0 0 75 0 75 70 0 70 0 0 80 0 80 70 0 70 0 0 80 0 80 70 0 70 0 0 30 0 30 -100 0 -99 0 -3 -77z"
       id="path1047" />
    <path
       d="M19410 32690 l0 -80 -65 0 -65 0 0 -75 0 -75 -70 0 -70 0 0 -80 0 -80 -70 0 -70 0 0 -80 0 -80 -70 0 -70 0 0 -30 0 -30 105 0 105 0 0 80 0 80 65 0 65 0 0 75 0 75 70 0 70 0 0 80 0 80 70 0 70 0 0 80 0 80 65 0 65 0 0 30 0 30 -100 0 -100 0 0 -80z"
       id="path1049" />
    <path
       d="M23190 31480 l0 -640 -230 0 -230 0 0 -30 0 -30 230 0 230 0 0 -820 0 -820 -835 0 -835 0 0 160 0 160 -25 0 -25 0 0 -160 0 -160 -1392 -2 -1393 -3 -3 -337 -2 -338 30 0 30 0 0 310 0 310 925 0 925 0 0 -680 0 -680 -925 0 -925 0 0 170 0 170 -30 0 -30 0 0 -365 0 -365 30 0 30 0 0 165 0 165 925 0 925 0 0 -610 0 -610 -925 0 -925 0 0 255 0 255 -30 0 -30 0 0 -285 0 -285 1070 0 1070 0 0 30 0 30 -85 0 -85 0 0 610 0 610 716 0 715 0 -3 28 -3 27 -290 2 c-159 2 -480 3 -712 3 l-423 0 0 680 0 680 1270 0 1270 0 0 -680 0 -680 -365 0 -365 0 0 -30 0 -30 365 0 365 0 0 -50 c0 -49 1 -50 30 -50 l30 0 0 2280 0 2280 -30 0 -30 0 0 -640z"
       id="path1051" />
    <path
       d="M19007 31304 c-26 -31 -47 -63 -47 -70 0 -26 30 -27 55 -4 l24 23 3 -74 c3 -63 6 -74 22 -77 27 -6 36 15 36 88 1 62 2 64 17 43 18 -27 48 -30 57 -7 7 19 -80 127 -106 132 -8 2 -36 -23 -61 -54z"
       id="path1053" />
    <path
       d="M19277 31353 c-4 -3 -7 -37 -7 -75 0 -37 -3 -68 -6 -68 -3 0 -14 10 -23 22 -20 24 -51 19 -51 -8 0 -22 89 -124 109 -124 9 0 38 27 65 61 45 56 48 62 33 77 -15 15 -19 14 -42 -8 l-25 -23 0 64 c0 63 -10 89 -35 89 -7 0 -15 -3 -18 -7z"
       id="path1055" />
    <path
       d="M10363 31318 c3 -10 46 -13 172 -13 126 0 169 3 173 13 3 9 -36 12 -173 12 -137 0 -176 -3 -172 -12z"
       id="path1057" />
    <path
       d="M10384 31275 c-9 -22 3 -30 21 -15 20 16 45 6 45 -20 0 -24 -26 -38 -43 -21 -22 22 -28 9 -25 -61 l3 -73 150 0 150 0 0 100 0 100 -148 3 c-126 2 -148 0 -153 -13z"
       id="path1059" />
    <path
       d="M10416 31253 c-11 -11 -6 -23 9 -23 8 0 15 4 15 9 0 13 -16 22 -24 14z"
       id="path1061" />
    <path
       d="M18980 31060 c-19 -19 -20 -33 -20 -204 l0 -185 26 -20 c25 -19 40 -21 199 -21 235 0 219 -16 223 219 l3 181 -25 25 c-25 25 -26 25 -206 25 -167 0 -181 -1 -200 -20z m368 -202 l-3 -163 -162 -3 -163 -2 0 165 0 165 165 0 165 0 -2 -162z"
       id="path1063" />
    <path
       d="M19060 30944 c0 -9 7 -14 17 -12 25 5 28 28 4 28 -12 0 -21 -6 -21 -16z"
       id="path1065" />
    <path
       d="M19167 30954 c-9 -10 2 -24 19 -24 8 0 14 7 14 15 0 15 -21 21 -33 9z"
       id="path1067" />
    <path
       d="M19270 30945 c0 -8 7 -15 15 -15 8 0 15 7 15 15 0 8 -7 15 -15 15 -8 0 -15 -7 -15 -15z"
       id="path1069" />
    <path
       d="M19037 30913 c-10 -10 -8 -78 2 -88 6 -6 11 -32 13 -60 3 -45 5 -50 28 -50 23 0 25 5 31 60 4 33 7 79 8 103 l1 42 -38 0 c-21 0 -42 -3 -45 -7z"
       id="path1071" />
    <path
       d="M19149 30893 c-14 -35 -14 -86 0 -91 6 -2 11 -21 11 -42 0 -29 4 -39 20 -43 17 -4 20 0 20 33 0 22 6 43 13 47 16 11 18 40 6 86 -8 30 -14 37 -35 37 -17 0 -28 -8 -35 -27z"
       id="path1073" />
    <path
       d="M19240 30876 c0 -25 5 -48 10 -51 6 -3 10 -30 10 -59 0 -50 1 -53 25 -53 24 0 25 3 25 53 0 29 5 56 10 59 6 3 10 26 10 51 l0 44 -45 0 -45 0 0 -44z"
       id="path1075" />
    <path
       d="M10420 31055 c0 -12 19 -15 115 -15 96 0 115 3 115 15 0 12 -19 15 -115 15 -96 0 -115 -3 -115 -15z"
       id="path1077" />
    <path
       d="M10363 31008 c3 -10 46 -13 172 -13 126 0 169 3 173 13 3 9 -36 12 -173 12 -137 0 -176 -3 -172 -12z"
       id="path1079" />
    <path
       d="M10370 30965 c0 -30 40 -93 72 -117 26 -18 46 -23 93 -23 72 0 115 25 145 85 36 71 40 70 -145 70 -142 0 -165 -2 -165 -15z"
       id="path1081" />
    <path
       d="M10470 30763 l0 -43 65 0 65 0 0 43 0 43 -65 0 -65 0 0 -43z"
       id="path1083" />
    <path
       d="M10455 30700 c-3 -5 0 -13 8 -16 23 -9 152 0 152 11 0 14 -151 19 -160 5z"
       id="path1085" />
    <path
       d="M24515 30357 c-17 -7 -40 -19 -52 -27 -23 -17 -68 -88 -61 -95 3 -3 26 -8 51 -11 33 -5 47 -3 47 5 0 7 11 23 25 36 42 43 126 30 145 -21 20 -52 -25 -94 -100 -94 -40 0 -40 0 -40 -39 l0 -39 57 -4 c46 -4 61 -10 80 -32 28 -33 29 -56 3 -89 -42 -53 -142 -40 -175 23 -11 21 -21 29 -33 26 -9 -3 -29 -8 -44 -12 -16 -3 -28 -12 -28 -19 0 -26 48 -81 90 -105 60 -33 166 -35 225 -4 101 52 117 178 30 237 -34 23 -35 26 -16 32 48 15 69 112 38 172 -32 61 -159 92 -242 60z"
       id="path1087" />
    <path
       d="M24965 30357 c-17 -7 -40 -19 -52 -27 -23 -17 -68 -88 -61 -95 3 -3 26 -8 51 -11 33 -5 47 -3 47 5 0 7 11 23 25 36 42 43 126 30 145 -21 20 -52 -25 -94 -100 -94 -40 0 -40 0 -40 -39 l0 -39 57 -4 c46 -4 61 -10 80 -32 28 -33 29 -56 3 -89 -42 -53 -142 -40 -175 23 -11 21 -21 29 -33 26 -9 -3 -29 -8 -44 -12 -16 -3 -28 -12 -28 -19 0 -26 48 -81 90 -105 60 -33 166 -35 225 -4 101 52 117 178 30 237 -34 23 -35 26 -16 32 48 15 69 112 38 172 -32 61 -159 92 -242 60z"
       id="path1089" />
    <path
       d="M25414 30345 c-62 -37 -97 -109 -102 -214 -6 -115 10 -179 58 -234 64 -72 159 -84 243 -30 111 71 131 330 34 439 -59 69 -157 85 -233 39z m144 -70 c21 -17 34 -41 42 -76 17 -69 9 -196 -15 -236 -46 -79 -136 -65 -163 25 -19 64 -15 200 8 250 29 64 79 78 128 37z"
       id="path1091" />
    <path
       d="M6785 30237 c-17 -7 -40 -19 -52 -27 -23 -17 -68 -88 -61 -95 3 -3 26 -8 51 -11 33 -5 47 -3 47 5 0 7 11 23 25 36 42 43 126 30 145 -21 20 -52 -25 -94 -100 -94 -40 0 -40 0 -40 -39 l0 -39 57 -4 c46 -4 61 -10 80 -32 28 -33 29 -56 3 -89 -42 -53 -142 -40 -175 23 -11 21 -21 29 -33 26 -9 -3 -29 -8 -44 -12 -16 -3 -28 -12 -28 -19 0 -26 48 -81 90 -105 60 -33 166 -35 225 -4 101 52 117 178 30 237 -34 23 -35 26 -16 32 48 15 69 112 38 172 -32 61 -159 92 -242 60z"
       id="path1093" />
    <path
       d="M7234 30231 c-50 -23 -95 -79 -97 -122 -2 -29 2 -33 32 -41 41 -11 61 -5 61 20 0 11 12 31 26 46 49 48 133 27 150 -39 14 -57 -31 -111 -173 -206 l-103 -69 0 -50 0 -50 190 0 190 0 0 45 0 44 -122 3 -123 3 72 42 c94 56 130 87 153 134 28 54 27 136 -3 180 -47 72 -165 100 -253 60z"
       id="path1095" />
    <path
       d="M7695 30238 c-68 -24 -106 -83 -106 -165 0 -101 65 -163 173 -163 53 0 87 14 117 49 11 14 12 10 7 -28 -18 -123 -101 -177 -175 -115 -28 23 -33 24 -71 14 l-41 -11 18 -30 c55 -93 209 -103 293 -19 87 87 104 292 32 395 -50 73 -157 104 -247 73z m150 -93 c38 -37 35 -95 -6 -129 -43 -36 -91 -35 -130 3 -37 37 -38 79 -3 120 22 26 33 31 70 31 34 0 51 -6 69 -25z"
       id="path1097" />
    <path
       d="M8956 28580 c-36 -11 -96 -68 -96 -91 0 -11 11 -18 32 -21 26 -4 38 0 59 23 46 50 129 33 129 -25 0 -32 -28 -54 -75 -58 -37 -3 -40 -5 -43 -35 -3 -32 -2 -33 32 -33 45 0 84 -18 92 -42 10 -31 -4 -64 -31 -76 -45 -21 -75 -14 -111 23 -28 30 -37 34 -63 29 -42 -9 -44 -16 -18 -55 34 -51 78 -71 151 -71 100 0 155 38 163 116 5 42 3 48 -29 80 l-35 35 25 24 c28 28 34 87 13 126 -25 47 -123 72 -195 51z"
       id="path1099" />
    <path
       d="M9372 28560 c-12 -15 -42 -38 -67 -50 -42 -20 -45 -24 -45 -61 0 -45 5 -47 51 -16 19 13 40 26 47 31 9 5 12 -20 12 -118 l0 -125 -62 -3 c-63 -3 -63 -3 -66 -35 l-3 -33 170 0 171 0 0 35 0 35 -60 0 -60 0 0 185 0 185 -32 -1 c-24 0 -39 -8 -56 -29z"
       id="path1101" />
    <path
       d="M9683 28571 c-75 -35 -95 -115 -44 -174 l30 -33 -35 -27 c-29 -24 -34 -34 -34 -71 0 -81 58 -120 176 -119 100 1 164 49 164 126 0 33 -6 46 -37 76 l-38 36 28 27 c20 19 27 37 27 63 0 51 -15 74 -63 96 -54 24 -121 24 -174 0z m143 -64 c31 -27 27 -58 -11 -83 -22 -14 -28 -14 -69 5 -37 16 -46 25 -46 45 0 53 78 74 126 33z m-18 -197 c36 -16 42 -23 42 -49 0 -37 -22 -51 -82 -51 -79 0 -115 54 -66 100 27 25 51 25 106 0z"
       id="path1103" />
    <path
       d="M19056 28580 c-36 -11 -96 -68 -96 -91 0 -11 11 -18 32 -21 26 -4 38 0 59 23 46 50 129 33 129 -25 0 -32 -28 -54 -75 -58 -37 -3 -40 -5 -43 -35 -3 -32 -2 -33 32 -33 45 0 84 -18 92 -42 10 -31 -4 -64 -31 -76 -45 -21 -75 -14 -111 23 -28 30 -37 34 -63 29 -42 -9 -44 -16 -18 -55 34 -51 78 -71 151 -71 100 0 155 38 163 116 5 42 3 48 -29 80 l-35 35 25 24 c28 28 34 87 13 126 -25 47 -123 72 -195 51z"
       id="path1105" />
    <path
       d="M19472 28560 c-12 -15 -42 -38 -67 -50 -42 -20 -45 -24 -45 -61 0 -45 5 -47 51 -16 19 13 40 26 47 31 9 5 12 -20 12 -118 l0 -125 -62 -3 c-63 -3 -63 -3 -66 -35 l-3 -33 170 0 171 0 0 35 0 35 -60 0 -60 0 0 185 0 185 -32 -1 c-24 0 -39 -8 -56 -29z"
       id="path1107" />
    <path
       d="M19793 28571 c-75 -35 -95 -115 -44 -174 l30 -33 -35 -27 c-29 -24 -34 -34 -34 -71 0 -81 58 -120 176 -119 100 1 164 49 164 126 0 33 -6 46 -37 76 l-38 36 28 27 c20 19 27 37 27 63 0 51 -15 74 -63 96 -54 24 -121 24 -174 0z m143 -64 c31 -27 27 -58 -11 -83 -22 -14 -28 -14 -69 5 -37 16 -46 25 -46 45 0 53 78 74 126 33z m-18 -197 c36 -16 42 -23 42 -49 0 -37 -22 -51 -82 -51 -79 0 -115 54 -66 100 27 25 51 25 106 0z"
       id="path1109" />
    <path
       d="M20178 28570 c-125 -68 -129 -332 -4 -405 40 -24 125 -23 168 2 34 20 78 84 78 116 0 13 -9 17 -40 17 -27 0 -40 -4 -40 -14 0 -7 -9 -25 -21 -40 -25 -32 -79 -36 -108 -7 -23 23 -41 81 -41 131 0 127 81 194 144 119 14 -17 26 -37 26 -45 0 -10 12 -14 41 -14 40 0 41 1 34 28 -10 40 -37 82 -67 105 -39 29 -123 33 -170 7z"
       id="path1111" />
    <path
       d="M10000 28365 l0 -215 135 0 135 0 0 40 0 40 -90 0 -90 0 0 175 0 175 -45 0 -45 0 0 -215z"
       id="path1113" />
    <path
       d="M8916 27250 c-36 -11 -96 -68 -96 -91 0 -11 11 -18 32 -21 26 -4 38 0 59 23 46 50 129 33 129 -25 0 -32 -28 -54 -75 -58 -37 -3 -40 -5 -43 -35 -3 -32 -2 -33 32 -33 45 0 84 -18 92 -42 10 -31 -4 -64 -31 -76 -45 -21 -75 -14 -111 23 -28 30 -37 34 -63 29 -42 -9 -44 -16 -18 -55 34 -51 78 -71 151 -71 100 0 155 38 163 116 5 42 3 48 -29 80 l-35 35 25 24 c28 28 34 87 13 126 -25 47 -123 72 -195 51z"
       id="path1115" />
    <path
       d="M9332 27230 c-12 -15 -42 -38 -67 -50 -42 -20 -45 -24 -45 -61 0 -45 5 -47 51 -16 19 13 40 26 47 31 9 5 12 -20 12 -118 l0 -125 -62 -3 c-63 -3 -63 -3 -66 -35 l-3 -33 170 0 171 0 0 35 0 35 -60 0 -60 0 0 185 0 185 -32 -1 c-24 0 -39 -8 -56 -29z"
       id="path1117" />
    <path
       d="M9653 27241 c-75 -35 -95 -115 -44 -174 l30 -33 -35 -27 c-29 -24 -34 -34 -34 -71 0 -81 58 -120 176 -119 100 1 164 49 164 126 0 33 -6 46 -37 76 l-38 36 28 27 c20 19 27 37 27 63 0 51 -15 74 -63 96 -54 24 -121 24 -174 0z m143 -64 c31 -27 27 -58 -11 -83 -22 -14 -28 -14 -69 5 -37 16 -46 25 -46 45 0 53 78 74 126 33z m-18 -197 c36 -16 42 -23 42 -49 0 -37 -22 -51 -82 -51 -79 0 -115 54 -66 100 27 25 51 25 106 0z"
       id="path1119" />
    <path
       d="M19036 27250 c-36 -11 -96 -68 -96 -91 0 -11 11 -18 32 -21 26 -4 38 0 59 23 46 50 129 33 129 -25 0 -32 -28 -54 -75 -58 -37 -3 -40 -5 -43 -35 -3 -32 -2 -33 32 -33 45 0 84 -18 92 -42 10 -31 -4 -64 -31 -76 -45 -21 -75 -14 -111 23 -28 30 -37 34 -63 29 -42 -9 -44 -16 -18 -55 34 -51 78 -71 151 -71 100 0 155 38 163 116 5 42 3 48 -29 80 l-35 35 25 24 c28 28 34 87 13 126 -25 47 -123 72 -195 51z"
       id="path1121" />
    <path
       d="M19442 27230 c-12 -15 -42 -38 -67 -50 -42 -20 -45 -24 -45 -61 0 -45 5 -47 51 -16 19 13 40 26 47 31 9 5 12 -20 12 -118 l0 -125 -62 -3 c-63 -3 -63 -3 -66 -35 l-3 -33 170 0 171 0 0 35 0 35 -60 0 -60 0 0 185 0 185 -32 -1 c-24 0 -39 -8 -56 -29z"
       id="path1123" />
    <path
       d="M19763 27241 c-75 -35 -95 -115 -44 -174 l30 -33 -35 -27 c-29 -24 -34 -34 -34 -71 0 -81 58 -120 176 -119 100 1 164 49 164 126 0 33 -6 46 -37 76 l-38 36 28 27 c20 19 27 37 27 63 0 51 -15 74 -63 96 -54 24 -121 24 -174 0z m143 -64 c31 -27 27 -58 -11 -83 -22 -14 -28 -14 -69 5 -37 16 -46 25 -46 45 0 53 78 74 126 33z m-18 -197 c36 -16 42 -23 42 -49 0 -37 -22 -51 -82 -51 -79 0 -115 54 -66 100 27 25 51 25 106 0z"
       id="path1125" />
    <path
       d="M9960 27035 l0 -215 45 0 45 0 0 56 c0 49 5 63 36 105 20 27 37 49 39 49 1 0 22 -47 45 -105 l43 -105 44 0 c24 0 43 5 43 10 0 6 -25 71 -56 145 l-56 134 51 71 51 70 -44 0 -45 0 -73 -101 -73 -100 -3 100 -3 101 -44 0 -45 0 0 -215z"
       id="path1127" />
    <path
       d="M20080 27035 l0 -215 98 0 c126 0 187 25 226 93 68 115 27 277 -81 323 -21 9 -70 14 -138 14 l-105 0 0 -215z m196 140 c25 -10 40 -26 54 -57 52 -114 -7 -228 -116 -228 l-44 0 0 150 0 150 35 0 c20 0 51 -7 71 -15z"
       id="path1129" />
    <path
       d="M9226 23930 c-36 -11 -96 -68 -96 -91 0 -11 11 -18 32 -21 26 -4 38 0 59 23 46 50 129 33 129 -25 0 -32 -28 -54 -75 -58 -37 -3 -40 -5 -43 -35 -3 -32 -2 -33 32 -33 45 0 84 -18 92 -42 10 -31 -4 -64 -31 -76 -45 -21 -75 -14 -111 23 -28 30 -37 34 -63 29 -42 -9 -44 -16 -18 -55 34 -51 78 -71 151 -71 100 0 155 38 163 116 5 42 3 48 -29 80 l-35 35 25 24 c28 28 34 87 13 126 -25 47 -123 72 -195 51z"
       id="path1131" />
    <path
       d="M9642 23910 c-12 -15 -42 -38 -67 -50 -42 -20 -45 -24 -45 -61 0 -45 5 -47 51 -16 19 13 40 26 47 31 9 5 12 -20 12 -118 l0 -125 -62 -3 c-63 -3 -63 -3 -66 -35 l-3 -33 170 0 171 0 0 35 0 35 -60 0 -60 0 0 185 0 185 -32 -1 c-24 0 -39 -8 -56 -29z"
       id="path1133" />
    <path
       d="M9963 23921 c-75 -35 -95 -115 -44 -174 l30 -33 -35 -27 c-29 -24 -34 -34 -34 -71 0 -81 58 -120 176 -119 100 1 164 49 164 126 0 33 -6 46 -37 76 l-38 36 28 27 c20 19 27 37 27 63 0 51 -15 74 -63 96 -54 24 -121 24 -174 0z m143 -64 c31 -27 27 -58 -11 -83 -22 -14 -28 -14 -69 5 -37 16 -46 25 -46 45 0 53 78 74 126 33z m-18 -197 c36 -16 42 -23 42 -49 0 -37 -22 -51 -82 -51 -79 0 -115 54 -66 100 27 25 51 25 106 0z"
       id="path1135" />
    <path
       d="M19306 23930 c-36 -11 -96 -68 -96 -91 0 -11 11 -18 32 -21 26 -4 38 0 59 23 46 50 129 33 129 -25 0 -32 -28 -54 -75 -58 -37 -3 -40 -5 -43 -35 -3 -32 -2 -33 32 -33 45 0 84 -18 92 -42 10 -31 -4 -64 -31 -76 -45 -21 -75 -14 -111 23 -28 30 -37 34 -63 29 -42 -9 -44 -16 -18 -55 34 -51 78 -71 151 -71 100 0 155 38 163 116 5 42 3 48 -29 80 l-35 35 25 24 c28 28 34 87 13 126 -25 47 -123 72 -195 51z"
       id="path1137" />
    <path
       d="M19722 23910 c-12 -15 -42 -38 -67 -50 -42 -20 -45 -24 -45 -61 0 -45 5 -47 51 -16 19 13 40 26 47 31 9 5 12 -20 12 -118 l0 -125 -62 -3 c-63 -3 -63 -3 -66 -35 l-3 -33 170 0 171 0 0 35 0 35 -60 0 -60 0 0 185 0 185 -32 -1 c-24 0 -39 -8 -56 -29z"
       id="path1139" />
    <path
       d="M20033 23921 c-75 -35 -95 -115 -44 -174 l30 -33 -35 -27 c-29 -24 -34 -34 -34 -71 0 -81 58 -120 176 -119 100 1 164 49 164 126 0 33 -6 46 -37 76 l-38 36 28 27 c20 19 27 37 27 63 0 51 -15 74 -63 96 -54 24 -121 24 -174 0z m143 -64 c31 -27 27 -58 -11 -83 -22 -14 -28 -14 -69 5 -37 16 -46 25 -46 45 0 53 78 74 126 33z m-18 -197 c36 -16 42 -23 42 -49 0 -37 -22 -51 -82 -51 -79 0 -115 54 -66 100 27 25 51 25 106 0z"
       id="path1141" />
    <path
       d="M10340 23762 c0 -117 -4 -172 -12 -180 -7 -7 -31 -12 -55 -12 -42 0 -43 -1 -43 -35 0 -31 3 -35 35 -41 47 -9 114 15 139 49 19 26 21 44 24 208 l3 179 -45 0 -46 0 0 -168z"
       id="path1143" />
    <path
       d="M20350 23715 l0 -215 145 0 145 0 0 35 0 35 -100 0 -100 0 0 60 0 60 80 0 80 0 0 30 0 30 -80 0 -80 0 0 55 0 55 95 0 95 0 0 35 0 35 -140 0 -140 0 0 -215z"
       id="path1145" />
    <path
       d="M13690 23807 c-73 -38 -101 -126 -64 -203 18 -38 66 -64 164 -89 80 -21 97 -30 105 -55 10 -31 -19 -68 -62 -79 -66 -18 -139 11 -155 60 -3 10 -82 -2 -95 -15 -10 -10 33 -71 66 -93 49 -33 135 -48 199 -35 103 22 152 74 152 164 0 85 -35 118 -166 155 -126 35 -154 68 -96 113 37 30 107 23 137 -13 19 -24 22 -25 63 -14 48 13 51 23 20 62 -51 65 -185 86 -268 42z"
       id="path1147" />
    <path
       d="M14020 23785 l0 -45 65 0 65 0 0 -220 0 -220 55 0 55 0 0 220 0 220 71 0 70 0 -3 43 -3 42 -187 3 -188 2 0 -45z"
       id="path1149" />
    <path
       d="M14965 23813 c-84 -44 -125 -125 -125 -247 0 -99 22 -168 69 -215 111 -111 311 -51 332 99 4 22 0 25 -39 31 -41 5 -44 4 -56 -26 -30 -72 -96 -96 -149 -55 -34 27 -51 81 -51 165 0 84 17 138 51 165 52 41 117 15 146 -58 15 -38 16 -38 59 -33 39 6 43 9 39 31 -8 61 -61 129 -114 149 -41 16 -127 13 -162 -6z"
       id="path1151" />
    <path
       d="M15317 23823 c-4 -3 -7 -123 -7 -265 l0 -258 50 0 50 0 0 63 c0 59 3 67 46 125 25 34 49 62 52 62 4 0 29 -55 56 -121 27 -67 55 -123 61 -126 7 -2 33 -3 58 -1 l45 3 -69 165 c-38 91 -69 171 -69 178 0 7 25 47 55 87 30 41 55 79 55 85 0 5 -20 10 -45 10 l-45 0 -98 -132 -97 -132 -3 132 -3 132 -43 0 c-23 0 -46 -3 -49 -7z"
       id="path1153" />
    <path
       d="M15840 23807 c-73 -38 -101 -126 -64 -203 18 -38 66 -64 164 -89 80 -21 97 -30 105 -55 10 -31 -19 -68 -62 -79 -66 -18 -139 11 -155 60 -3 10 -82 -2 -95 -15 -10 -10 33 -71 66 -93 49 -33 135 -48 199 -35 103 22 152 74 152 164 0 85 -35 118 -166 155 -126 35 -154 68 -96 113 37 30 107 23 137 -13 19 -24 22 -25 63 -14 48 13 51 23 20 62 -51 65 -185 86 -268 42z"
       id="path1155" />
    <path
       d="M14439 23573 c-45 -137 -84 -254 -87 -260 -3 -9 9 -13 40 -13 l45 0 18 60 18 61 100 -3 100 -3 20 -57 19 -58 53 0 53 0 -86 260 -87 260 -62 0 -61 0 -83 -247z m201 -65 c0 -9 -124 -11 -132 -2 -5 4 34 135 58 194 5 13 74 -166 74 -192z"
       id="path1157" />
    <path
       d="M4295 21307 c-17 -7 -40 -19 -52 -27 -23 -17 -68 -88 -61 -95 3 -3 26 -8 51 -11 33 -5 47 -3 47 5 0 7 11 23 25 36 42 43 126 30 145 -21 20 -52 -25 -94 -100 -94 -40 0 -40 0 -40 -39 l0 -39 57 -4 c46 -4 61 -10 80 -32 28 -33 29 -56 3 -89 -42 -53 -142 -40 -175 23 -11 21 -21 29 -33 26 -9 -3 -29 -8 -44 -12 -16 -3 -28 -12 -28 -19 0 -26 48 -81 90 -105 60 -33 166 -35 225 -4 101 52 117 178 30 237 -34 23 -35 26 -16 32 48 15 69 112 38 172 -32 61 -159 92 -242 60z"
       id="path1159" />
    <path
       d="M4744 21301 c-50 -23 -95 -79 -97 -122 -2 -29 2 -33 32 -41 41 -11 61 -5 61 20 0 11 12 31 26 46 49 48 133 27 150 -39 14 -57 -31 -111 -173 -206 l-103 -69 0 -50 0 -50 190 0 190 0 0 45 0 44 -122 3 -123 3 72 42 c94 56 130 87 153 134 28 54 27 136 -3 180 -47 72 -165 100 -253 60z"
       id="path1161" />
    <path
       d="M5215 21307 c-17 -7 -40 -19 -52 -27 -23 -17 -68 -88 -61 -95 3 -3 26 -8 51 -11 33 -5 47 -3 47 5 0 7 11 23 25 36 42 43 126 30 145 -21 20 -52 -25 -94 -100 -94 -40 0 -40 0 -40 -39 l0 -39 57 -4 c46 -4 61 -10 80 -32 28 -33 29 -56 3 -89 -42 -53 -142 -40 -175 23 -11 21 -21 29 -33 26 -9 -3 -29 -8 -44 -12 -16 -3 -28 -12 -28 -19 0 -26 48 -81 90 -105 60 -33 166 -35 225 -4 101 52 117 178 30 237 -34 23 -35 26 -16 32 48 15 69 112 38 172 -32 61 -159 92 -242 60z"
       id="path1163" />
    <path
       d="M9266 20820 c-36 -11 -96 -68 -96 -91 0 -11 11 -18 32 -21 26 -4 38 0 59 23 46 50 129 33 129 -25 0 -32 -28 -54 -75 -58 -37 -3 -40 -5 -43 -35 -3 -32 -2 -33 32 -33 45 0 84 -18 92 -42 10 -31 -4 -64 -31 -76 -45 -21 -75 -14 -111 23 -28 30 -37 34 -63 29 -42 -9 -44 -16 -18 -55 34 -51 78 -71 151 -71 100 0 155 38 163 116 5 42 3 48 -29 80 l-35 35 25 24 c28 28 34 87 13 126 -25 47 -123 72 -195 51z"
       id="path1165" />
    <path
       d="M9672 20800 c-12 -15 -42 -38 -67 -50 -42 -20 -45 -24 -45 -61 0 -45 5 -47 51 -16 19 13 40 26 47 31 9 5 12 -20 12 -118 l0 -125 -62 -3 c-63 -3 -63 -3 -66 -35 l-3 -33 170 0 171 0 0 35 0 35 -60 0 -60 0 0 185 0 185 -32 -1 c-24 0 -39 -8 -56 -29z"
       id="path1167" />
    <path
       d="M9993 20811 c-75 -35 -95 -115 -44 -174 l30 -33 -35 -27 c-29 -24 -34 -34 -34 -71 0 -81 58 -120 176 -119 100 1 164 49 164 126 0 33 -6 46 -37 76 l-38 36 28 27 c20 19 27 37 27 63 0 51 -15 74 -63 96 -54 24 -121 24 -174 0z m143 -64 c31 -27 27 -58 -11 -83 -22 -14 -28 -14 -69 5 -37 16 -46 25 -46 45 0 53 78 74 126 33z m-18 -197 c36 -16 42 -23 42 -49 0 -37 -22 -51 -82 -51 -79 0 -115 54 -66 100 27 25 51 25 106 0z"
       id="path1169" />
    <path
       d="M19316 20820 c-36 -11 -96 -68 -96 -91 0 -11 11 -18 32 -21 26 -4 38 0 59 23 46 50 129 33 129 -25 0 -32 -28 -54 -75 -58 -37 -3 -40 -5 -43 -35 -3 -32 -2 -33 32 -33 45 0 84 -18 92 -42 10 -31 -4 -64 -31 -76 -45 -21 -75 -14 -111 23 -28 30 -37 34 -63 29 -42 -9 -44 -16 -18 -55 34 -51 78 -71 151 -71 100 0 155 38 163 116 5 42 3 48 -29 80 l-35 35 25 24 c28 28 34 87 13 126 -25 47 -123 72 -195 51z"
       id="path1171" />
    <path
       d="M19722 20800 c-12 -15 -42 -38 -67 -50 -42 -20 -45 -24 -45 -61 0 -45 5 -47 51 -16 19 13 40 26 47 31 9 5 12 -20 12 -118 l0 -125 -62 -3 c-63 -3 -63 -3 -66 -35 l-3 -33 170 0 171 0 0 35 0 35 -60 0 -60 0 0 185 0 185 -32 -1 c-24 0 -39 -8 -56 -29z"
       id="path1173" />
    <path
       d="M20043 20811 c-75 -35 -95 -115 -44 -174 l30 -33 -35 -27 c-29 -24 -34 -34 -34 -71 0 -81 58 -120 176 -119 100 1 164 49 164 126 0 33 -6 46 -37 76 l-38 36 28 27 c20 19 27 37 27 63 0 51 -15 74 -63 96 -54 24 -121 24 -174 0z m143 -64 c31 -27 27 -58 -11 -83 -22 -14 -28 -14 -69 5 -37 16 -46 25 -46 45 0 53 78 74 126 33z m-18 -197 c36 -16 42 -23 42 -49 0 -37 -22 -51 -82 -51 -79 0 -115 54 -66 100 27 25 51 25 106 0z"
       id="path1175" />
    <path
       d="M10310 20605 l0 -215 45 0 45 0 0 215 0 215 -45 0 -45 0 0 -215z"
       id="path1177" />
    <path
       d="M20360 20605 l0 -215 45 0 45 0 0 90 0 90 75 0 75 0 0 35 0 35 -75 0 -75 0 0 55 0 55 95 0 95 0 0 35 0 35 -140 0 -140 0 0 -215z"
       id="path1179" />
    <path
       d="M9146 19580 c-36 -11 -96 -68 -96 -91 0 -11 11 -18 32 -21 26 -4 38 0 59 23 46 50 129 33 129 -25 0 -32 -28 -54 -75 -58 -37 -3 -40 -5 -43 -35 -3 -32 -2 -33 32 -33 45 0 84 -18 92 -42 10 -31 -4 -64 -31 -76 -45 -21 -75 -14 -111 23 -28 30 -37 34 -63 29 -42 -9 -44 -16 -18 -55 34 -51 78 -71 151 -71 100 0 155 38 163 116 5 42 3 48 -29 80 l-35 35 25 24 c28 28 34 87 13 126 -25 47 -123 72 -195 51z"
       id="path1181" />
    <path
       d="M9552 19560 c-12 -15 -42 -38 -67 -50 -42 -20 -45 -24 -45 -61 0 -45 5 -47 51 -16 19 13 40 26 47 31 9 5 12 -20 12 -118 l0 -125 -62 -3 c-63 -3 -63 -3 -66 -35 l-3 -33 170 0 171 0 0 35 0 35 -60 0 -60 0 0 185 0 185 -32 -1 c-24 0 -39 -8 -56 -29z"
       id="path1183" />
    <path
       d="M9873 19571 c-75 -35 -95 -115 -44 -174 l30 -33 -35 -27 c-29 -24 -34 -34 -34 -71 0 -81 58 -120 176 -119 100 1 164 49 164 126 0 33 -6 46 -37 76 l-38 36 28 27 c20 19 27 37 27 63 0 51 -15 74 -63 96 -54 24 -121 24 -174 0z m143 -64 c31 -27 27 -58 -11 -83 -22 -14 -28 -14 -69 5 -37 16 -46 25 -46 45 0 53 78 74 126 33z m-18 -197 c36 -16 42 -23 42 -49 0 -37 -22 -51 -82 -51 -79 0 -115 54 -66 100 27 25 51 25 106 0z"
       id="path1185" />
    <path
       d="M19266 19580 c-36 -11 -96 -68 -96 -91 0 -11 11 -18 32 -21 26 -4 38 0 59 23 46 50 129 33 129 -25 0 -32 -28 -54 -75 -58 -37 -3 -40 -5 -43 -35 -3 -32 -2 -33 32 -33 45 0 84 -18 92 -42 10 -31 -4 -64 -31 -76 -45 -21 -75 -14 -111 23 -28 30 -37 34 -63 29 -42 -9 -44 -16 -18 -55 34 -51 78 -71 151 -71 100 0 155 38 163 116 5 42 3 48 -29 80 l-35 35 25 24 c28 28 34 87 13 126 -25 47 -123 72 -195 51z"
       id="path1187" />
    <path
       d="M19682 19560 c-12 -15 -42 -38 -67 -50 -42 -20 -45 -24 -45 -61 0 -45 5 -47 51 -16 19 13 40 26 47 31 9 5 12 -20 12 -118 l0 -125 -62 -3 c-63 -3 -63 -3 -66 -35 l-3 -33 170 0 171 0 0 35 0 35 -60 0 -60 0 0 185 0 185 -32 -1 c-24 0 -39 -8 -56 -29z"
       id="path1189" />
    <path
       d="M20003 19571 c-75 -35 -95 -115 -44 -174 l30 -33 -35 -27 c-29 -24 -34 -34 -34 -71 0 -81 58 -120 176 -119 100 1 164 49 164 126 0 33 -6 46 -37 76 l-38 36 28 27 c20 19 27 37 27 63 0 51 -15 74 -63 96 -54 24 -121 24 -174 0z m143 -64 c31 -27 27 -58 -11 -83 -22 -14 -28 -14 -69 5 -37 16 -46 25 -46 45 0 53 78 74 126 33z m-18 -197 c36 -16 42 -23 42 -49 0 -37 -22 -51 -82 -51 -79 0 -115 54 -66 100 27 25 51 25 106 0z"
       id="path1191" />
    <path
       d="M20410 19579 c-36 -15 -69 -48 -93 -94 -16 -31 -21 -58 -21 -120 0 -86 19 -138 66 -182 49 -46 156 -48 203 -3 l23 21 6 -25 c4 -17 13 -26 26 -26 19 0 20 7 20 110 l0 110 -80 0 -80 0 0 -30 c0 -28 2 -30 40 -30 35 0 40 -3 40 -23 0 -35 -44 -71 -85 -71 -62 0 -95 54 -95 157 0 146 114 199 185 85 7 -12 19 -15 43 -11 28 5 32 9 26 27 -8 29 -35 66 -65 88 -30 23 -123 33 -159 17z"
       id="path1193" />
    <path
       d="M10190 19365 l0 -215 45 0 45 0 0 95 0 95 75 0 75 0 0 -95 0 -95 45 0 45 0 0 215 0 215 -45 0 -45 0 0 -85 0 -85 -75 0 -75 0 0 85 0 85 -45 0 -45 0 0 -215z"
       id="path1195" />
    <path
       d="M25830 17815 l0 -975 30 0 30 0 0 975 0 975 -30 0 -30 0 0 -975z"
       id="path1197" />
    <path
       d="M10276 18356 c-25 -29 -46 -60 -46 -69 0 -27 30 -28 56 0 l24 26 0 -75 c0 -61 3 -77 16 -82 31 -12 44 13 44 81 l0 64 26 -20 c21 -16 30 -18 40 -10 8 6 14 15 14 19 0 18 -94 120 -110 120 -10 0 -39 -24 -64 -54z"
       id="path1199" />
    <path
       d="M10547 18404 c-4 -4 -7 -39 -7 -77 l0 -70 -24 23 c-25 22 -56 22 -56 -1 0 -20 93 -129 110 -129 14 0 111 122 107 134 -7 21 -45 18 -61 -5 -14 -21 -15 -18 -18 52 -3 66 -5 74 -23 77 -12 2 -24 0 -28 -4z"
       id="path1201" />
    <path
       d="M3465 18217 c-17 -7 -40 -19 -52 -27 -23 -17 -68 -88 -61 -95 3 -3 26 -8 51 -11 33 -5 47 -3 47 5 0 7 11 23 25 36 42 43 126 30 145 -21 20 -52 -25 -94 -100 -94 -40 0 -40 0 -40 -39 l0 -39 57 -4 c46 -4 61 -10 80 -32 28 -33 29 -56 3 -89 -42 -53 -142 -40 -175 23 -11 21 -21 29 -33 26 -9 -3 -29 -8 -44 -12 -16 -3 -28 -12 -28 -19 0 -26 48 -81 90 -105 60 -33 166 -35 225 -4 101 52 117 178 30 237 -34 23 -35 26 -16 32 48 15 69 112 38 172 -32 61 -159 92 -242 60z"
       id="path1203" />
    <path
       d="M3904 18211 c-50 -23 -95 -79 -97 -122 -2 -29 2 -33 32 -41 41 -11 61 -5 61 20 0 11 12 31 26 46 49 48 133 27 150 -39 14 -57 -31 -111 -173 -206 l-103 -69 0 -50 0 -50 190 0 190 0 0 45 0 44 -122 3 -123 3 72 42 c94 56 130 87 153 134 28 54 27 136 -3 180 -47 72 -165 100 -253 60z"
       id="path1205" />
    <path
       d="M4428 18196 c-14 -17 -52 -44 -82 -59 l-56 -28 0 -50 0 -50 33 17 c17 9 46 27 64 40 17 13 34 24 37 24 3 0 6 -70 6 -155 l0 -155 -80 0 -80 0 0 -40 0 -40 200 0 200 0 0 40 0 40 -70 0 -70 0 0 225 0 225 -37 -1 c-30 0 -44 -7 -65 -33z"
       id="path1207" />
    <path
       d="M10257 18120 l-27 -21 0 -185 c0 -171 1 -185 20 -204 19 -19 33 -20 204 -20 l185 0 20 26 c19 25 21 40 21 199 0 235 15 219 -217 223 -170 3 -180 2 -206 -18z m361 -207 l2 -163 -165 0 -165 0 0 165 0 165 163 -2 162 -3 3 -162z"
       id="path1209" />
    <path
       d="M10334 18009 c-10 -17 13 -36 27 -22 12 12 4 33 -11 33 -5 0 -12 -5 -16 -11z"
       id="path1211" />
    <path
       d="M10434 18009 c-3 -6 -2 -15 4 -21 13 -13 32 -2 32 18 0 16 -26 19 -36 3z"
       id="path1213" />
    <path
       d="M10542 18004 c4 -21 22 -23 26 -1 2 10 -3 17 -13 17 -10 0 -15 -6 -13 -16z"
       id="path1215" />
    <path
       d="M10300 17931 c0 -22 5 -43 10 -46 6 -3 10 -31 10 -61 0 -53 0 -54 30 -54 27 0 30 3 30 33 0 17 3 62 7 100 l6 67 -47 0 -46 0 0 -39z"
       id="path1217" />
    <path
       d="M10413 17933 c-8 -44 -5 -77 8 -81 5 -2 9 -21 9 -42 0 -33 3 -39 20 -37 16 1 20 8 20 39 0 26 4 38 14 38 11 0 14 11 11 43 -5 62 -13 77 -46 77 -25 0 -29 -5 -36 -37z"
       id="path1219" />
    <path
       d="M10510 17925 c0 -25 5 -45 10 -45 6 0 10 -24 10 -54 0 -50 1 -53 25 -53 24 0 25 3 25 53 0 30 5 54 10 54 6 0 10 20 10 45 l0 45 -45 0 -45 0 0 -45z"
       id="path1221" />
    <path
       d="M8111 18094 c-25 -32 -26 -52 -5 -82 10 -15 25 -22 48 -22 64 0 94 55 56 103 -29 36 -71 36 -99 1z"
       id="path1223" />
    <path
       d="M8085 17961 c-36 -16 -53 -44 -84 -146 -35 -114 -37 -133 -15 -142 24 -9 37 14 64 111 14 48 28 86 32 86 4 0 8 -2 8 -3 0 -3 -68 -239 -86 -299 -4 -14 3 -17 38 -20 l43 -3 3 -128 c2 -102 6 -129 17 -134 9 -3 22 0 30 7 12 10 15 39 15 136 0 76 4 124 10 124 6 0 10 -50 10 -129 0 -105 3 -130 15 -135 40 -15 45 1 45 135 l0 128 44 3 43 3 -38 130 c-21 72 -41 143 -45 159 -8 37 11 26 21 -11 3 -16 16 -59 27 -96 17 -59 23 -68 42 -65 28 4 26 38 -9 152 -39 124 -55 139 -141 143 -38 2 -78 -1 -89 -6z"
       id="path1225" />
    <path
       d="M20120 17725 l0 -75 -70 0 -70 0 0 -80 0 -80 -70 0 -70 0 0 -80 0 -80 -65 0 -65 0 0 -75 0 -75 -70 0 -70 0 0 -35 0 -35 100 0 100 0 0 80 0 80 70 0 70 0 0 80 0 80 65 0 65 0 0 75 0 75 70 0 70 0 0 80 0 80 70 0 70 0 0 30 0 30 -100 0 -100 0 0 -75z"
       id="path1227" />
    <path
       d="M21930 17680 c-29 -29 -26 -74 7 -100 48 -38 103 -8 103 56 0 57 -69 85 -110 44z"
       id="path1229" />
    <path
       d="M21863 17534 c-43 -22 -53 -56 -53 -189 0 -117 10 -145 45 -131 12 4 15 26 15 116 0 67 4 110 10 110 6 0 10 -99 10 -278 0 -280 3 -302 36 -302 7 0 20 7 28 16 13 13 16 45 18 177 l2 162 6 -168 c5 -170 9 -186 46 -187 31 0 34 25 34 302 0 179 4 278 10 278 6 0 10 -43 10 -109 0 -91 3 -110 16 -115 36 -14 44 11 44 136 0 136 -11 169 -61 187 -48 17 -178 13 -216 -5z"
       id="path1231" />
    <path
       d="M10271 17080 c-50 -60 -57 -90 -21 -90 10 0 25 10 33 23 15 21 16 19 17 -43 0 -73 9 -94 36 -88 16 3 19 14 22 77 l3 74 24 -23 c25 -23 55 -22 55 4 0 19 -89 126 -106 126 -7 0 -36 -27 -63 -60z"
       id="path1233" />
    <path
       d="M10542 17128 c-7 -7 -12 -39 -12 -77 l0 -64 -25 23 c-23 22 -27 23 -42 8 -15 -15 -12 -21 33 -77 27 -34 56 -61 65 -61 20 0 109 102 109 124 0 27 -29 30 -55 6 l-24 -23 -3 74 c-2 56 -7 74 -18 77 -9 1 -21 -3 -28 -10z"
       id="path1235" />
    <path
       d="M10240 16833 c-20 -26 -21 -36 -18 -205 3 -154 5 -180 21 -195 15 -16 41 -18 195 -21 169 -3 179 -2 205 18 l27 21 0 185 c0 171 -1 185 -20 204 -19 19 -33 20 -204 20 l-185 0 -21 -27z m370 -198 l0 -165 -162 2 -163 3 -3 163 -2 162 165 0 165 0 0 -165z"
       id="path1237" />
    <path
       d="M10336 16743 c-12 -12 -6 -33 9 -33 8 0 15 6 15 14 0 17 -14 28 -24 19z"
       id="path1239" />
    <path
       d="M10430 16725 c0 -10 7 -15 18 -13 21 4 19 22 -2 26 -10 2 -16 -3 -16 -13z"
       id="path1241" />
    <path
       d="M10530 16725 c0 -8 9 -15 20 -15 11 0 20 7 20 15 0 8 -9 15 -20 15 -11 0 -20 -7 -20 -15z"
       id="path1243" />
    <path
       d="M10300 16656 c0 -25 5 -48 10 -51 6 -3 10 -31 10 -61 0 -50 12 -71 23 -41 4 10 6 10 6 0 1 -7 6 -13 11 -13 6 0 10 24 10 54 0 30 5 58 10 61 6 3 10 26 10 51 l0 44 -45 0 -45 0 0 -44z"
       id="path1245" />
    <path
       d="M10411 16668 c-13 -42 -10 -86 7 -93 7 -2 12 -21 12 -44 0 -34 3 -38 20 -34 16 4 20 14 20 43 0 21 5 40 11 42 14 5 14 56 0 91 -16 41 -56 38 -70 -5z"
       id="path1247" />
    <path
       d="M10511 16658 c1 -24 4 -70 8 -103 6 -55 8 -60 31 -60 22 0 25 5 28 40 1 22 7 56 13 77 7 20 9 48 5 62 -6 23 -12 26 -46 26 l-40 0 1 -42z"
       id="path1249" />
    <path
       d="M7040 10551 l0 -4331 30 0 30 0 0 60 0 60 505 0 505 0 0 25 0 25 -505 0 -505 0 0 1250 0 1250 780 0 780 0 0 -1250 0 -1250 -80 0 c-79 0 -80 0 -80 -25 0 -25 1 -25 80 -25 l80 0 0 -80 0 -80 30 0 30 0 0 265 0 265 565 0 565 0 0 30 0 30 -565 0 -565 0 0 1060 0 1060 2763 -2 2762 -3 3 -102 c3 -102 3 -103 27 -103 25 0 25 0 25 105 l0 105 150 0 150 0 0 30 0 30 -250 0 -250 0 0 2505 0 2505 250 0 250 0 0 25 0 25 -3750 0 -3750 0 -2 433 -3 432 -27 3 -28 3 0 -4330z m7000 904 l0 -2505 -3470 0 -3470 0 0 2505 0 2505 3470 0 3470 0 0 -2505z"
       id="path1251" />
    <path
       d="M9495 12256 c-64 -28 -105 -104 -105 -191 0 -85 42 -165 99 -187 44 -17 119 -11 156 12 103 63 105 278 3 353 -34 25 -113 32 -153 13z m97 -57 c29 -16 48 -70 48 -139 0 -71 -20 -117 -54 -126 -66 -16 -104 21 -113 109 -12 114 49 193 119 156z"
       id="path1253" />
    <path
       d="M11345 12256 c-64 -28 -105 -104 -105 -191 0 -85 42 -165 99 -187 44 -17 119 -11 156 12 103 63 105 278 3 353 -34 25 -113 32 -153 13z m97 -57 c29 -16 48 -70 48 -139 0 -71 -20 -117 -54 -126 -66 -16 -104 21 -113 109 -12 114 49 193 119 156z"
       id="path1255" />
    <path
       d="M9780 12065 l0 -195 40 0 40 0 0 74 0 73 69 6 c77 6 114 25 137 68 19 39 18 78 -6 117 -27 44 -54 52 -176 52 l-104 0 0 -195z m202 118 c25 -22 23 -59 -4 -77 -13 -9 -43 -16 -70 -16 l-48 0 0 55 0 55 52 0 c34 0 58 -6 70 -17z"
       id="path1257" />
    <path
       d="M10130 12065 l0 -195 131 0 130 0 -3 33 -3 32 -87 3 -88 3 0 49 0 50 70 0 70 0 0 30 0 30 -70 0 -70 0 0 50 0 49 88 3 c87 3 87 3 90 31 l3 27 -130 0 -131 0 0 -195z"
       id="path1259" />
    <path
       d="M10450 12065 l0 -195 30 0 29 0 3 135 3 134 81 -132 c78 -128 82 -132 117 -135 l37 -3 0 195 0 196 -30 0 -29 0 -3 -127 -3 -126 -75 126 -74 127 -43 0 -43 0 0 -195z"
       id="path1261" />
    <path
       d="M10950 12230 c0 -29 1 -30 50 -30 l50 0 0 -165 0 -165 40 0 40 0 0 165 0 165 50 0 c49 0 50 1 50 30 l0 30 -140 0 -140 0 0 -30z"
       id="path1263" />
    <path
       d="M8889 11550 c-43 -23 -64 -66 -56 -116 9 -54 31 -72 123 -100 64 -19 85 -30 90 -46 17 -55 -95 -80 -142 -33 -25 25 -58 32 -82 16 -10 -6 -11 -13 -1 -34 24 -54 108 -82 193 -66 90 17 134 86 103 162 -17 40 -49 60 -123 78 -80 19 -105 53 -62 83 32 23 65 20 91 -7 19 -20 27 -22 55 -15 38 10 41 26 10 56 -49 45 -136 55 -199 22z"
       id="path1265" />
    <path
       d="M10730 11559 c-69 -29 -106 -110 -97 -214 9 -116 64 -177 159 -177 70 0 132 50 140 112 3 22 -1 25 -30 28 -24 2 -34 -1 -39 -15 -11 -32 -46 -63 -70 -63 -57 0 -92 80 -78 182 15 107 103 133 141 42 15 -35 42 -44 73 -25 19 12 -18 94 -54 117 -31 21 -110 28 -145 13z"
       id="path1267" />
    <path
       d="M11075 11556 c-64 -28 -105 -104 -105 -191 0 -85 42 -165 99 -187 44 -17 119 -11 156 12 103 63 105 278 3 353 -34 25 -113 32 -153 13z m97 -57 c29 -16 48 -70 48 -139 0 -71 -20 -117 -54 -126 -66 -16 -104 21 -113 109 -12 114 49 193 119 156z"
       id="path1269" />
    <path
       d="M9140 11530 c0 -29 1 -30 50 -30 l50 0 0 -165 0 -165 40 0 40 0 0 165 0 165 50 0 c49 0 50 1 50 30 l0 30 -140 0 -140 0 0 -30z"
       id="path1271" />
    <path
       d="M9460 11405 c0 -89 5 -164 11 -178 13 -29 54 -54 94 -58 73 -6 97 1 131 35 l34 34 0 161 0 161 -30 0 -30 0 0 -144 c0 -118 -3 -147 -16 -160 -37 -38 -96 -27 -114 20 -6 14 -10 84 -10 155 l0 129 -35 0 -35 0 0 -155z"
       id="path1273" />
    <path
       d="M9810 11365 l0 -195 85 0 c125 0 180 27 216 105 41 88 12 214 -61 263 -29 19 -46 22 -136 22 l-104 0 0 -195z m198 113 c86 -92 32 -247 -85 -248 l-33 0 0 135 0 135 48 0 c37 0 53 -5 70 -22z"
       id="path1275" />
    <path
       d="M10147 11513 c15 -27 44 -76 65 -111 36 -59 38 -67 38 -147 l0 -85 40 0 40 0 0 81 0 81 65 114 64 114 -39 0 c-38 0 -40 -2 -76 -70 -21 -38 -41 -70 -46 -70 -4 0 -24 31 -45 70 l-38 70 -48 0 -48 0 28 -47z"
       id="path1277" />
    <path
       d="M11370 11405 c0 -89 5 -164 11 -178 13 -29 54 -54 94 -58 73 -6 97 1 131 35 l34 34 0 161 0 161 -30 0 -30 0 0 -144 c0 -118 -3 -147 -16 -160 -37 -38 -96 -27 -114 20 -6 14 -10 84 -10 155 l0 129 -35 0 -35 0 0 -155z"
       id="path1279" />
    <path
       d="M11710 11365 l0 -195 40 0 40 0 0 80 0 80 44 0 44 0 30 -77 29 -78 42 -3 c22 -2 41 -1 41 1 0 2 -13 37 -30 77 -34 83 -36 98 -15 107 23 8 45 57 45 99 0 28 -8 44 -34 70 l-34 34 -121 0 -121 0 0 -195z m214 119 c23 -22 20 -60 -6 -78 -14 -10 -44 -16 -75 -16 l-53 0 0 55 0 55 59 0 c41 0 65 -5 75 -16z"
       id="path1281" />
    <path
       d="M12050 11530 c0 -29 1 -30 50 -30 l50 0 0 -165 0 -165 40 0 40 0 0 165 0 165 50 0 c49 0 50 1 50 30 l0 30 -140 0 -140 0 0 -30z"
       id="path1283" />
    <path
       d="M10735 10856 c-64 -28 -105 -104 -105 -191 0 -85 42 -165 99 -187 44 -17 119 -11 156 12 103 63 105 278 3 353 -34 25 -113 32 -153 13z m97 -57 c29 -16 48 -70 48 -139 0 -71 -20 -117 -54 -126 -66 -16 -104 21 -113 109 -12 114 49 193 119 156z"
       id="path1285" />
    <path
       d="M9690 10665 l0 -195 108 0 c88 0 113 3 139 20 56 34 64 121 14 162 l-26 22 22 23 c35 34 32 96 -6 134 -29 29 -31 29 -140 29 l-111 0 0 -195z m194 119 c39 -39 -1 -84 -74 -84 l-50 0 0 50 0 50 54 0 c36 0 60 -5 70 -16z m6 -164 c23 -23 25 -39 7 -64 -10 -14 -28 -19 -73 -20 l-59 -1 -3 53 -3 52 55 0 c43 0 61 -5 76 -20z"
       id="path1287" />
    <path
       d="M10050 10665 l0 -195 131 0 130 0 -3 33 -3 32 -87 3 -88 3 0 49 0 50 70 0 70 0 0 30 0 30 -70 0 -70 0 0 50 0 49 88 3 c87 3 87 3 90 31 l3 27 -130 0 -131 0 0 -195z"
       id="path1289" />
    <path
       d="M10360 10665 l0 -195 120 0 120 0 0 35 0 35 -80 0 -80 0 0 160 0 160 -40 0 -40 0 0 -195z"
       id="path1291" />
    <path
       d="M11002 10718 c75 -275 63 -248 108 -248 l38 0 32 135 c18 75 34 135 35 133 2 -2 15 -48 29 -103 47 -174 42 -165 87 -165 21 0 39 2 39 4 0 3 23 89 50 191 28 102 50 188 50 191 0 2 -15 4 -34 4 l-34 0 -32 -130 c-18 -72 -34 -129 -37 -127 -2 2 -13 37 -24 78 -52 194 -45 179 -88 179 l-39 0 -32 -130 c-18 -71 -33 -130 -35 -130 -1 0 -17 59 -36 130 l-33 130 -42 0 -41 0 39 -142z"
       id="path1293" />
    <path
       d="M8575 14871 c-140 -37 -245 -142 -281 -281 -44 -173 40 -352 204 -432 62 -31 74 -33 167 -33 90 0 106 3 158 28 75 37 146 108 183 182 26 55 29 69 29 165 0 94 -3 111 -27 161 -63 127 -189 210 -327 215 -42 2 -89 0 -106 -5z m221 -85 c63 -29 123 -89 155 -154 34 -69 34 -197 0 -267 -32 -64 -93 -124 -156 -155 -71 -34 -188 -34 -263 -1 -69 31 -144 113 -168 183 -74 219 94 442 320 423 33 -3 83 -16 112 -29z"
       id="path1295" />
    <path
       d="M8625 14733 c-86 -21 -130 -76 -123 -154 6 -64 35 -94 107 -115 115 -33 126 -39 129 -64 5 -32 -22 -50 -75 -50 -42 0 -74 19 -85 50 -4 13 -62 6 -89 -10 -23 -15 17 -77 66 -103 54 -29 154 -30 209 -2 58 29 81 66 81 130 0 46 -4 58 -29 84 -28 29 -80 51 -154 66 -32 7 -62 28 -62 45 0 20 34 40 70 40 29 0 43 -6 59 -26 19 -24 22 -25 60 -13 27 8 41 18 41 29 0 17 -42 61 -75 77 -25 13 -104 22 -130 16z"
       id="path1297" />
    <path
       d="M19509 14861 c-103 -33 -186 -107 -229 -205 -86 -194 -4 -413 190 -505 48 -23 68 -26 155 -26 87 0 107 3 155 26 116 55 197 161 220 287 18 102 -12 216 -81 303 -92 116 -264 167 -410 120z m223 -63 c91 -32 175 -121 199 -213 16 -59 6 -172 -20 -223 -33 -65 -87 -118 -149 -149 -48 -24 -70 -28 -137 -28 -67 0 -89 4 -137 28 -62 30 -115 83 -150 149 -19 36 -23 58 -23 138 0 79 4 102 22 136 79 149 242 215 395 162z"
       id="path1299" />
    <path
       d="M19490 14500 l0 -230 50 0 50 0 0 85 0 85 70 0 c86 0 133 18 160 62 27 44 27 120 0 163 -31 50 -80 65 -215 65 l-115 0 0 -230z m232 120 c24 -30 23 -46 -7 -76 -21 -21 -33 -25 -73 -22 l-47 3 -3 49 c-5 74 0 79 60 74 38 -4 57 -12 70 -28z"
       id="path1301" />
    <path
       d="M22660 14446 l0 -436 -3750 0 -3750 0 0 -25 0 -25 250 0 250 0 0 -2505 0 -2505 -247 -2 -248 -3 -3 -27 -3 -28 180 0 181 0 0 -105 0 -105 30 0 30 0 0 105 0 105 2720 0 2720 0 0 -1055 0 -1055 -570 0 -570 0 0 -30 0 -30 570 0 570 0 0 -345 0 -345 30 0 30 0 0 110 0 109 98 3 97 3 3 28 3 27 -100 0 -101 0 0 1290 0 1290 790 0 790 0 0 -1290 0 -1290 -495 0 -495 0 0 -30 0 -30 495 0 495 0 0 -110 0 -110 30 0 30 0 0 185 0 185 735 0 735 0 0 195 0 195 -30 0 -30 0 0 -165 0 -165 -705 0 -705 0 0 495 0 495 705 0 705 0 0 -145 0 -145 30 0 30 0 0 1090 0 1090 -30 0 -30 0 0 -915 0 -915 -705 0 -705 0 0 1185 0 1185 705 0 705 0 0 -80 0 -80 30 0 30 0 0 230 0 230 -30 0 -30 0 0 -120 0 -120 -705 0 -705 0 -2 2468 -3 2467 -27 3 -28 3 0 -435z m0 -2991 l0 -2505 -3470 0 -3470 0 0 2505 0 2505 3470 0 3470 0 0 -2505z"
       id="path1303" />
    <path
       d="M18055 12256 c-64 -28 -105 -104 -105 -191 0 -85 42 -165 99 -187 44 -17 119 -11 156 12 103 63 105 278 3 353 -34 25 -113 32 -153 13z m97 -57 c29 -16 48 -70 48 -139 0 -71 -20 -117 -54 -126 -66 -16 -104 21 -113 109 -12 114 49 193 119 156z"
       id="path1305" />
    <path
       d="M19905 12256 c-64 -28 -105 -104 -105 -191 0 -85 42 -165 99 -187 44 -17 119 -11 156 12 103 63 105 278 3 353 -34 25 -113 32 -153 13z m97 -57 c29 -16 48 -70 48 -139 0 -71 -20 -117 -54 -126 -66 -16 -104 21 -113 109 -12 114 49 193 119 156z"
       id="path1307" />
    <path
       d="M18340 12065 l0 -195 40 0 40 0 0 74 0 73 69 6 c77 6 114 25 137 68 19 39 18 78 -6 117 -27 44 -54 52 -176 52 l-104 0 0 -195z m202 118 c25 -22 23 -59 -4 -77 -13 -9 -43 -16 -70 -16 l-48 0 0 55 0 55 52 0 c34 0 58 -6 70 -17z"
       id="path1309" />
    <path
       d="M18690 12065 l0 -195 131 0 130 0 -3 33 -3 32 -87 3 -88 3 0 49 0 50 70 0 70 0 0 30 0 30 -70 0 -70 0 0 50 0 49 88 3 c87 3 87 3 90 31 l3 27 -130 0 -131 0 0 -195z"
       id="path1311" />
    <path
       d="M19010 12065 l0 -195 30 0 29 0 3 135 3 134 81 -132 c78 -128 82 -132 117 -135 l37 -3 0 195 0 196 -30 0 -29 0 -3 -127 -3 -126 -75 126 -74 127 -43 0 -43 0 0 -195z"
       id="path1313" />
    <path
       d="M19510 12230 c0 -29 1 -30 50 -30 l50 0 0 -165 0 -165 40 0 40 0 0 165 0 165 50 0 c49 0 50 1 50 30 l0 30 -140 0 -140 0 0 -30z"
       id="path1315" />
    <path
       d="M17449 11550 c-43 -23 -64 -66 -56 -116 9 -54 31 -72 123 -100 64 -19 85 -30 90 -46 17 -55 -95 -80 -142 -33 -25 25 -58 32 -82 16 -10 -6 -11 -13 -1 -34 24 -54 108 -82 193 -66 90 17 134 86 103 162 -17 40 -49 60 -123 78 -80 19 -105 53 -62 83 32 23 65 20 91 -7 19 -20 27 -22 55 -15 38 10 41 26 10 56 -49 45 -136 55 -199 22z"
       id="path1317" />
    <path
       d="M19290 11559 c-69 -29 -106 -110 -97 -214 9 -116 64 -177 159 -177 70 0 132 50 140 112 3 22 -1 25 -30 28 -24 2 -34 -1 -39 -15 -11 -32 -46 -63 -70 -63 -57 0 -92 80 -78 182 15 107 103 133 141 42 15 -35 42 -44 73 -25 19 12 -18 94 -54 117 -31 21 -110 28 -145 13z"
       id="path1319" />
    <path
       d="M19635 11556 c-64 -28 -105 -104 -105 -191 0 -85 42 -165 99 -187 44 -17 119 -11 156 12 103 63 105 278 3 353 -34 25 -113 32 -153 13z m97 -57 c29 -16 48 -70 48 -139 0 -71 -20 -117 -54 -126 -66 -16 -104 21 -113 109 -12 114 49 193 119 156z"
       id="path1321" />
    <path
       d="M17700 11530 c0 -29 1 -30 50 -30 l50 0 0 -165 0 -165 40 0 40 0 0 165 0 165 50 0 c49 0 50 1 50 30 l0 30 -140 0 -140 0 0 -30z"
       id="path1323" />
    <path
       d="M18020 11405 c0 -89 5 -164 11 -178 13 -29 54 -54 94 -58 73 -6 97 1 131 35 l34 34 0 161 0 161 -30 0 -30 0 0 -144 c0 -118 -3 -147 -16 -160 -37 -38 -96 -27 -114 20 -6 14 -10 84 -10 155 l0 129 -35 0 -35 0 0 -155z"
       id="path1325" />
    <path
       d="M18370 11365 l0 -195 85 0 c125 0 180 27 216 105 41 88 12 214 -61 263 -29 19 -46 22 -136 22 l-104 0 0 -195z m198 113 c86 -92 32 -247 -85 -248 l-33 0 0 135 0 135 48 0 c37 0 53 -5 70 -22z"
       id="path1327" />
    <path
       d="M18707 11513 c15 -27 44 -76 65 -111 36 -59 38 -67 38 -147 l0 -85 40 0 40 0 0 81 0 81 65 114 64 114 -39 0 c-38 0 -40 -2 -76 -70 -21 -38 -41 -70 -46 -70 -4 0 -24 31 -45 70 l-38 70 -48 0 -48 0 28 -47z"
       id="path1329" />
    <path
       d="M19930 11405 c0 -89 5 -164 11 -178 13 -29 54 -54 94 -58 73 -6 97 1 131 35 l34 34 0 161 0 161 -30 0 -30 0 0 -144 c0 -118 -3 -147 -16 -160 -37 -38 -96 -27 -114 20 -6 14 -10 84 -10 155 l0 129 -35 0 -35 0 0 -155z"
       id="path1331" />
    <path
       d="M20270 11365 l0 -195 40 0 40 0 0 80 0 80 44 0 44 0 30 -77 29 -78 42 -3 c22 -2 41 -1 41 1 0 2 -13 37 -30 77 -34 83 -36 98 -15 107 23 8 45 57 45 99 0 28 -8 44 -34 70 l-34 34 -121 0 -121 0 0 -195z m214 119 c23 -22 20 -60 -6 -78 -14 -10 -44 -16 -75 -16 l-53 0 0 55 0 55 59 0 c41 0 65 -5 75 -16z"
       id="path1333" />
    <path
       d="M20610 11530 c0 -29 1 -30 50 -30 l50 0 0 -165 0 -165 40 0 40 0 0 165 0 165 50 0 c49 0 50 1 50 30 l0 30 -140 0 -140 0 0 -30z"
       id="path1335" />
    <path
       d="M19295 10856 c-64 -28 -105 -104 -105 -191 0 -85 42 -165 99 -187 44 -17 119 -11 156 12 103 63 105 278 3 353 -34 25 -113 32 -153 13z m97 -57 c29 -16 48 -70 48 -139 0 -71 -20 -117 -54 -126 -66 -16 -104 21 -113 109 -12 114 49 193 119 156z"
       id="path1337" />
    <path
       d="M18250 10665 l0 -195 108 0 c88 0 113 3 139 20 56 34 64 121 14 162 l-26 22 22 23 c35 34 32 96 -6 134 -29 29 -31 29 -140 29 l-111 0 0 -195z m194 119 c39 -39 -1 -84 -74 -84 l-50 0 0 50 0 50 54 0 c36 0 60 -5 70 -16z m6 -164 c23 -23 25 -39 7 -64 -10 -14 -28 -19 -73 -20 l-59 -1 -3 53 -3 52 55 0 c43 0 61 -5 76 -20z"
       id="path1339" />
    <path
       d="M18610 10665 l0 -195 131 0 130 0 -3 33 -3 32 -87 3 -88 3 0 49 0 50 70 0 70 0 0 30 0 30 -70 0 -70 0 0 50 0 49 88 3 c87 3 87 3 90 31 l3 27 -130 0 -131 0 0 -195z"
       id="path1341" />
    <path
       d="M18920 10665 l0 -195 120 0 120 0 0 35 0 35 -80 0 -80 0 0 160 0 160 -40 0 -40 0 0 -195z"
       id="path1343" />
    <path
       d="M19562 10718 c75 -275 63 -248 108 -248 l38 0 32 135 c18 75 34 135 35 133 2 -2 15 -48 29 -103 47 -174 42 -165 87 -165 21 0 39 2 39 4 0 3 23 89 50 191 28 102 50 188 50 191 0 2 -15 4 -34 4 l-34 0 -32 -130 c-18 -72 -34 -129 -37 -127 -2 2 -13 37 -24 78 -52 194 -45 179 -88 179 l-39 0 -32 -130 c-18 -71 -33 -130 -35 -130 -1 0 -17 59 -36 130 l-33 130 -42 0 -41 0 39 -142z"
       id="path1345" />
    <path
       d="M21890 14808 c-10 -25 -40 -273 -40 -331 l0 -37 85 0 c47 0 85 -2 85 -4 0 -2 -14 -64 -30 -137 -25 -111 -28 -135 -17 -146 7 -8 20 -11 28 -8 22 9 240 400 233 419 -5 13 -22 16 -85 16 -55 0 -79 4 -79 12 0 7 9 56 21 110 27 127 27 128 -97 128 -89 0 -95 -1 -104 -22z"
       id="path1347" />
    <path
       d="M21575 14705 c-25 -24 -25 -25 -25 -220 0 -195 0 -196 25 -220 23 -24 28 -25 174 -25 l150 0 9 33 8 32 -145 5 -146 5 0 170 0 170 85 5 85 5 3 33 3 32 -101 0 c-94 0 -103 -2 -125 -25z"
       id="path1349" />
    <path
       d="M22166 14708 c-12 -48 -13 -48 119 -48 l125 0 0 -50 c0 -47 2 -50 25 -50 24 0 25 -2 25 -75 0 -73 -1 -75 -25 -75 -23 0 -25 -3 -25 -50 l0 -49 -110 -3 -111 -3 -20 -32 -21 -33 144 0 c138 0 145 1 166 23 12 13 22 35 22 50 0 20 5 27 20 27 27 0 31 25 28 160 -3 108 -4 116 -25 125 -16 7 -23 18 -23 37 0 17 -10 34 -26 47 -24 19 -40 21 -154 21 -124 0 -128 -1 -134 -22z"
       id="path1351" />
    <path
       d="M3465 14617 c-17 -7 -40 -19 -52 -27 -23 -17 -68 -88 -61 -95 3 -3 26 -8 51 -11 33 -5 47 -3 47 5 0 7 11 23 25 36 42 43 126 30 145 -21 20 -52 -25 -94 -100 -94 -40 0 -40 0 -40 -39 l0 -39 57 -4 c46 -4 61 -10 80 -32 28 -33 29 -56 3 -89 -42 -53 -142 -40 -175 23 -11 21 -21 29 -33 26 -9 -3 -29 -8 -44 -12 -16 -3 -28 -12 -28 -19 0 -26 48 -81 90 -105 60 -33 166 -35 225 -4 101 52 117 178 30 237 -34 23 -35 26 -16 32 48 15 69 112 38 172 -32 61 -159 92 -242 60z"
       id="path1353" />
    <path
       d="M3968 14596 c-14 -17 -52 -44 -82 -59 l-56 -28 0 -50 0 -50 33 17 c17 9 46 27 64 40 17 13 34 24 37 24 3 0 6 -70 6 -155 l0 -155 -80 0 -80 0 0 -40 0 -40 200 0 200 0 0 40 0 40 -70 0 -70 0 0 225 0 225 -37 -1 c-30 0 -44 -7 -65 -33z"
       id="path1355" />
    <path
       d="M4270 14580 l0 -40 140 0 c77 0 140 -3 140 -6 0 -3 -15 -24 -34 -46 -70 -81 -122 -208 -141 -340 l-7 -48 55 0 c56 0 56 0 61 33 3 17 9 61 14 97 14 90 45 168 103 254 32 49 49 84 49 105 l0 31 -190 0 -190 0 0 -40z"
       id="path1357" />
    <path
       d="M24655 13257 c-17 -7 -40 -19 -52 -27 -23 -17 -68 -88 -61 -95 3 -3 26 -8 51 -11 33 -5 47 -3 47 5 0 7 11 23 25 36 42 43 126 30 145 -21 20 -52 -25 -94 -100 -94 -40 0 -40 0 -40 -39 l0 -39 57 -4 c46 -4 61 -10 80 -32 28 -33 29 -56 3 -89 -42 -53 -142 -40 -175 23 -11 21 -21 29 -33 26 -9 -3 -29 -8 -44 -12 -16 -3 -28 -12 -28 -19 0 -26 48 -81 90 -105 60 -33 166 -35 225 -4 101 52 117 178 30 237 -34 23 -35 26 -16 32 48 15 69 112 38 172 -32 61 -159 92 -242 60z"
       id="path1359" />
    <path
       d="M25104 13245 c-62 -37 -97 -109 -102 -214 -6 -115 10 -179 58 -234 64 -72 159 -84 243 -30 111 71 131 330 34 439 -59 69 -157 85 -233 39z m144 -70 c21 -17 34 -41 42 -76 17 -69 9 -196 -15 -236 -46 -79 -136 -65 -163 25 -19 64 -15 200 8 250 29 64 79 78 128 37z"
       id="path1361" />
    <path
       d="M25553 13250 c-51 -23 -83 -70 -83 -123 0 -46 13 -74 48 -105 20 -18 23 -25 13 -29 -7 -3 -27 -18 -44 -32 -24 -22 -31 -38 -35 -79 -4 -50 -3 -53 34 -91 31 -30 52 -41 98 -51 97 -20 200 4 249 58 50 55 40 143 -22 193 l-39 31 36 32 c31 29 35 39 35 79 0 58 -23 93 -76 118 -57 25 -158 25 -214 -1z m178 -79 c25 -26 27 -33 19 -58 -6 -16 -23 -37 -39 -46 -27 -16 -30 -16 -82 11 -66 33 -77 67 -33 101 40 32 98 28 135 -8z m-45 -227 c54 -22 74 -42 74 -75 0 -40 -46 -63 -116 -57 -94 8 -125 70 -63 122 36 30 52 32 105 10z"
       id="path1363" />
    <path
       d="M3465 11387 c-17 -7 -40 -19 -52 -27 -23 -17 -68 -88 -61 -95 3 -3 26 -8 51 -11 33 -5 47 -3 47 5 0 7 11 23 25 36 42 43 126 30 145 -21 20 -52 -25 -94 -100 -94 -40 0 -40 0 -40 -39 l0 -39 57 -4 c46 -4 61 -10 80 -32 28 -33 29 -56 3 -89 -42 -53 -142 -40 -175 23 -11 21 -21 29 -33 26 -9 -3 -29 -8 -44 -12 -16 -3 -28 -12 -28 -19 0 -26 48 -81 90 -105 60 -33 166 -35 225 -4 101 52 117 178 30 237 -34 23 -35 26 -16 32 48 15 69 112 38 172 -32 61 -159 92 -242 60z"
       id="path1365" />
    <path
       d="M3968 11366 c-14 -17 -52 -44 -82 -59 l-56 -28 0 -50 0 -50 33 17 c17 9 46 27 64 40 17 13 34 24 37 24 3 0 6 -70 6 -155 l0 -155 -80 0 -80 0 0 -40 0 -40 200 0 200 0 0 40 0 40 -70 0 -70 0 0 225 0 225 -37 -1 c-30 0 -44 -7 -65 -33z"
       id="path1367" />
    <path
       d="M4300 11380 c0 -15 -19 -197 -25 -242 l-5 -37 45 -7 c40 -6 48 -3 70 19 45 44 117 40 149 -8 23 -35 20 -96 -5 -124 -48 -51 -111 -49 -160 6 -28 33 -33 35 -75 28 -40 -6 -44 -9 -38 -28 24 -77 96 -121 199 -121 59 0 78 4 117 27 115 67 116 236 2 303 -38 22 -54 26 -104 22 -36 -3 -66 -11 -78 -21 -10 -9 -20 -17 -23 -17 -2 0 -2 28 1 62 l5 63 121 3 c116 2 122 4 128 25 16 59 21 57 -159 57 -108 0 -165 -4 -165 -10z"
       id="path1369" />
    <path
       d="M14236 7658 c2 -354 6 -698 9 -765 l4 -123 -2015 0 -2014 0 0 -30 0 -30 2040 0 2040 0 0 338 c0 185 -3 543 -7 795 l-6 457 -28 0 -28 0 5 -642z"
       id="path1371" />
    <path
       d="M15520 7511 l0 -791 1985 0 1985 0 0 30 0 30 -1955 0 -1955 0 -2 758 -3 757 -27 3 -28 3 0 -790z"
       id="path1373" />
    <path
       d="M17325 8037 c-17 -7 -40 -19 -52 -27 -23 -17 -68 -88 -61 -95 3 -3 26 -8 51 -11 33 -5 47 -3 47 5 0 7 11 23 25 36 42 43 126 30 145 -21 20 -52 -25 -94 -100 -94 -40 0 -40 0 -40 -39 l0 -39 57 -4 c46 -4 61 -10 80 -32 28 -33 29 -56 3 -89 -42 -53 -142 -40 -175 23 -11 21 -21 29 -33 26 -9 -3 -29 -8 -44 -12 -16 -3 -28 -12 -28 -19 0 -26 48 -81 90 -105 60 -33 166 -35 225 -4 101 52 117 178 30 237 -34 23 -35 26 -16 32 48 15 69 112 38 172 -32 61 -159 92 -242 60z"
       id="path1375" />
    <path
       d="M17764 8025 c-62 -37 -97 -109 -102 -214 -6 -115 10 -179 58 -234 64 -72 159 -84 243 -30 111 71 131 330 34 439 -59 69 -157 85 -233 39z m144 -70 c21 -17 34 -41 42 -76 17 -69 9 -196 -15 -236 -46 -79 -136 -65 -163 25 -19 64 -15 200 8 250 29 64 79 78 128 37z"
       id="path1377" />
    <path
       d="M18224 8031 c-50 -23 -95 -79 -97 -122 -2 -29 2 -33 32 -41 41 -11 61 -5 61 20 0 11 12 31 26 46 49 48 133 27 150 -39 14 -57 -31 -111 -173 -206 l-103 -69 0 -50 0 -50 190 0 190 0 0 45 0 44 -122 3 -123 3 72 42 c94 56 130 87 153 134 28 54 27 136 -3 180 -47 72 -165 100 -253 60z"
       id="path1379" />
    <path
       d="M10285 8027 c-17 -7 -40 -19 -52 -27 -23 -17 -68 -88 -61 -95 3 -3 26 -8 51 -11 33 -5 47 -3 47 5 0 7 11 23 25 36 42 43 126 30 145 -21 20 -52 -25 -94 -100 -94 -40 0 -40 0 -40 -39 l0 -39 57 -4 c46 -4 61 -10 80 -32 28 -33 29 -56 3 -89 -42 -53 -142 -40 -175 23 -11 21 -21 29 -33 26 -9 -3 -29 -8 -44 -12 -16 -3 -28 -12 -28 -19 0 -26 48 -81 90 -105 60 -33 166 -35 225 -4 101 52 117 178 30 237 -34 23 -35 26 -16 32 48 15 69 112 38 172 -32 61 -159 92 -242 60z"
       id="path1381" />
    <path
       d="M10734 8015 c-62 -37 -97 -109 -102 -214 -6 -115 10 -179 58 -234 64 -72 159 -84 243 -30 111 71 131 330 34 439 -59 69 -157 85 -233 39z m144 -70 c21 -17 34 -41 42 -76 17 -69 9 -196 -15 -236 -46 -79 -136 -65 -163 25 -19 64 -15 200 8 250 29 64 79 78 128 37z"
       id="path1383" />
    <path
       d="M11205 8027 c-17 -7 -40 -19 -52 -27 -23 -17 -68 -88 -61 -95 3 -3 26 -8 51 -11 33 -5 47 -3 47 5 0 7 11 23 25 36 42 43 126 30 145 -21 20 -52 -25 -94 -100 -94 -40 0 -40 0 -40 -39 l0 -39 57 -4 c46 -4 61 -10 80 -32 28 -33 29 -56 3 -89 -42 -53 -142 -40 -175 23 -11 21 -21 29 -33 26 -9 -3 -29 -8 -44 -12 -16 -3 -28 -12 -28 -19 0 -26 48 -81 90 -105 60 -33 166 -35 225 -4 101 52 117 178 30 237 -34 23 -35 26 -16 32 48 15 69 112 38 172 -32 61 -159 92 -242 60z"
       id="path1385" />
    <path
       d="M8028 7743 l-3 -78 -67 -3 -68 -3 0 -74 0 -75 -70 0 -70 0 0 -80 0 -80 -70 0 -70 0 0 -80 0 -80 -65 0 -65 0 0 -30 0 -30 100 0 100 0 0 80 0 80 70 0 70 0 0 80 0 80 65 0 65 0 0 75 0 75 70 0 70 0 0 80 0 80 70 0 70 0 0 30 0 30 -100 0 -99 0 -3 -77z"
       id="path1387" />
    <path
       d="M21960 7740 l0 -80 -70 0 -70 0 0 -75 0 -75 -65 0 -65 0 0 -80 0 -80 -70 0 -70 0 0 -80 0 -80 -70 0 -70 0 0 -30 0 -30 100 0 100 0 0 80 0 80 70 0 70 0 0 80 0 80 70 0 70 0 0 75 0 75 65 0 65 0 0 80 0 80 70 0 70 0 0 30 0 30 -100 0 -100 0 0 -80z"
       id="path1389" />
    <path
       d="M25830 5810 l0 -980 30 0 30 0 0 980 0 980 -30 0 -30 0 0 -980z"
       id="path1391" />
    <path
       d="M3465 6327 c-17 -7 -40 -19 -52 -27 -23 -17 -68 -88 -61 -95 3 -3 26 -8 51 -11 33 -5 47 -3 47 5 0 7 11 23 25 36 42 43 126 30 145 -21 20 -52 -25 -94 -100 -94 -40 0 -40 0 -40 -39 l0 -39 57 -4 c46 -4 61 -10 80 -32 28 -33 29 -56 3 -89 -42 -53 -142 -40 -175 23 -11 21 -21 29 -33 26 -9 -3 -29 -8 -44 -12 -16 -3 -28 -12 -28 -19 0 -26 48 -81 90 -105 60 -33 166 -35 225 -4 101 52 117 178 30 237 -34 23 -35 26 -16 32 48 15 69 112 38 172 -32 61 -159 92 -242 60z"
       id="path1393" />
    <path
       d="M3968 6306 c-14 -17 -52 -44 -82 -59 l-56 -28 0 -50 0 -50 33 17 c17 9 46 27 64 40 17 13 34 24 37 24 3 0 6 -70 6 -155 l0 -155 -80 0 -80 0 0 -40 0 -40 200 0 200 0 0 40 0 40 -70 0 -70 0 0 225 0 225 -37 -1 c-30 0 -44 -7 -65 -33z"
       id="path1395" />
    <path
       d="M4375 6327 c-17 -7 -40 -19 -52 -27 -23 -17 -68 -88 -61 -95 3 -3 26 -8 51 -11 33 -5 47 -3 47 5 0 7 11 23 25 36 42 43 126 30 145 -21 20 -52 -25 -94 -100 -94 -40 0 -40 0 -40 -39 l0 -39 57 -4 c46 -4 61 -10 80 -32 28 -33 29 -56 3 -89 -42 -53 -142 -40 -175 23 -11 21 -21 29 -33 26 -9 -3 -29 -8 -44 -12 -16 -3 -28 -12 -28 -19 0 -26 48 -81 90 -105 60 -33 166 -35 225 -4 101 52 117 178 30 237 -34 23 -35 26 -16 32 48 15 69 112 38 172 -32 61 -159 92 -242 60z"
       id="path1397" />
    <path
       d="M21740 4650 c-41 -41 -13 -110 44 -110 40 0 66 26 66 67 0 57 -69 84 -110 43z"
       id="path1399" />
    <path
       d="M7806 4575 c-26 -27 -29 -56 -9 -84 55 -74 160 1 107 77 -18 26 -74 30 -98 7z"
       id="path1401" />
    <path
       d="M21694 4502 c-26 -17 -35 -35 -66 -138 -19 -66 -33 -125 -30 -132 2 -7 14 -12 25 -10 18 2 27 21 51 101 16 53 33 97 37 97 5 0 6 -6 4 -12 -9 -27 -85 -297 -85 -302 0 -3 18 -6 40 -6 l39 0 3 -126 c3 -110 5 -128 21 -138 35 -21 47 16 47 146 0 72 4 118 10 118 6 0 10 -50 10 -129 0 -110 2 -130 16 -135 36 -14 44 11 44 140 l0 124 40 0 c25 0 40 5 40 13 0 6 -20 78 -44 160 -23 81 -39 147 -35 147 5 0 22 -45 39 -100 26 -83 34 -100 51 -100 11 0 22 6 25 14 9 23 -64 241 -87 262 -31 28 -153 32 -195 6z"
       id="path1403" />
    <path
       d="M7719 4410 l-30 -29 3 -133 3 -133 25 0 c25 0 25 1 31 110 3 76 6 30 7 -152 1 -145 6 -273 12 -288 8 -21 16 -26 38 -23 l27 3 3 165 c1 90 7 169 12 174 7 7 10 -47 10 -151 0 -89 3 -168 6 -177 4 -9 18 -16 34 -16 16 0 30 7 34 16 3 9 6 137 6 285 0 173 4 269 10 269 6 0 10 -43 10 -110 l0 -110 25 0 25 0 0 134 c0 74 -3 142 -6 151 -13 32 -59 45 -159 45 -94 0 -97 -1 -126 -30z"
       id="path1405" />
    <path
       d="M3402 4063 l3 -28 975 0 975 0 3 28 3 27 -981 0 -981 0 3 -27z"
       id="path1407" />
    <path
       d="M10285 3867 c-17 -7 -40 -19 -52 -27 -23 -17 -68 -88 -61 -95 3 -3 26 -8 51 -11 33 -5 47 -3 47 5 0 7 11 23 25 36 42 43 126 30 145 -21 20 -52 -25 -94 -100 -94 -40 0 -40 0 -40 -39 l0 -39 57 -4 c46 -4 61 -10 80 -32 28 -33 29 -56 3 -89 -42 -53 -142 -40 -175 23 -11 21 -21 29 -33 26 -9 -3 -29 -8 -44 -12 -16 -3 -28 -12 -28 -19 0 -26 48 -81 90 -105 60 -33 166 -35 225 -4 101 52 117 178 30 237 -34 23 -35 26 -16 32 48 15 69 112 38 172 -32 61 -159 92 -242 60z"
       id="path1409" />
    <path
       d="M10734 3855 c-62 -37 -97 -109 -102 -214 -6 -115 10 -179 58 -234 64 -72 159 -84 243 -30 111 71 131 330 34 439 -59 69 -157 85 -233 39z m144 -70 c21 -17 34 -41 42 -76 17 -69 9 -196 -15 -236 -46 -79 -136 -65 -163 25 -19 64 -15 200 8 250 29 64 79 78 128 37z"
       id="path1411" />
    <path
       d="M11258 3846 c-14 -17 -52 -44 -82 -59 l-56 -28 0 -50 0 -50 33 17 c17 9 46 27 64 40 17 13 34 24 37 24 3 0 6 -70 6 -155 l0 -155 -80 0 -80 0 0 -40 0 -40 200 0 200 0 0 40 0 40 -70 0 -70 0 0 225 0 225 -37 -1 c-30 0 -44 -7 -65 -33z"
       id="path1413" />
    <path
       d="M15465 3867 c-17 -7 -40 -19 -52 -27 -23 -17 -68 -88 -61 -95 3 -3 26 -8 51 -11 33 -5 47 -3 47 5 0 7 11 23 25 36 42 43 126 30 145 -21 20 -52 -25 -94 -100 -94 -40 0 -40 0 -40 -39 l0 -39 57 -4 c46 -4 61 -10 80 -32 28 -33 29 -56 3 -89 -42 -53 -142 -40 -175 23 -11 21 -21 29 -33 26 -9 -3 -29 -8 -44 -12 -16 -3 -28 -12 -28 -19 0 -26 48 -81 90 -105 60 -33 166 -35 225 -4 101 52 117 178 30 237 -34 23 -35 26 -16 32 48 15 69 112 38 172 -32 61 -159 92 -242 60z"
       id="path1415" />
    <path
       d="M15904 3855 c-62 -37 -97 -109 -102 -214 -6 -115 10 -179 58 -234 64 -72 159 -84 243 -30 111 71 131 330 34 439 -59 69 -157 85 -233 39z m144 -70 c21 -17 34 -41 42 -76 17 -69 9 -196 -15 -236 -46 -79 -136 -65 -163 25 -19 64 -15 200 8 250 29 64 79 78 128 37z"
       id="path1417" />
    <path
       d="M16364 3855 c-62 -37 -97 -109 -102 -214 -6 -115 10 -179 58 -234 64 -72 159 -84 243 -30 111 71 131 330 34 439 -59 69 -157 85 -233 39z m144 -70 c21 -17 34 -41 42 -76 17 -69 9 -196 -15 -236 -46 -79 -136 -65 -163 25 -19 64 -15 200 8 250 29 64 79 78 128 37z"
       id="path1419" />
    <path
       d="M4570 28575 l0 -215 35 0 35 0 0 152 0 151 78 -129 c43 -71 85 -139 93 -151 10 -17 23 -23 51 -23 l38 0 0 215 0 215 -35 0 -34 0 -3 -137 -3 -136 -80 136 -80 137 -47 0 -48 0 0 -215z"
       id="path1429" />
    <path
       d="M4657 28188 c-180 -15 -367 -101 -504 -231 -125 -119 -199 -239 -250 -404 -24 -79 -26 -104 -26 -238 0 -134 2 -159 26 -238 51 -165 125 -285 250 -404 331 -314 863 -314 1194 0 125 119 199 239 250 404 24 79 26 104 26 238 0 134 -2 159 -26 238 -51 165 -125 285 -250 404 -183 174 -420 253 -690 231z m-220 -286 c-119 -120 -217 -226 -217 -235 0 -9 9 -21 21 -28 19 -10 41 9 250 217 l229 229 -2 -790 -3 -790 -50 4 c-258 18 -523 202 -640 446 -66 137 -79 196 -79 360 0 164 13 223 79 360 75 157 210 290 371 370 67 33 196 73 239 74 13 1 -52 -71 -198 -217z m580 179 c339 -116 559 -444 540 -805 -7 -134 -24 -202 -82 -321 -117 -244 -382 -428 -640 -446 l-50 -4 -3 785 -2 785 223 -223 c160 -159 228 -221 240 -217 44 17 29 38 -195 263 l-223 224 55 -6 c30 -4 92 -20 137 -35z"
       id="path1431" />
    <path
       d="M3050 24008 c1 -7 31 -123 68 -258 l67 -245 52 -3 51 -3 43 176 c24 96 46 175 49 175 3 0 21 -57 39 -127 19 -71 40 -150 48 -176 l14 -48 52 3 52 3 67 250 c37 138 67 253 68 258 0 4 -20 7 -44 7 l-43 0 -42 -162 c-23 -90 -45 -170 -48 -178 -3 -8 -21 41 -40 110 -19 69 -41 149 -50 178 l-15 53 -51 -3 -51 -3 -42 -168 c-23 -93 -44 -170 -46 -173 -3 -2 -25 74 -50 168 l-44 173 -52 3 c-38 2 -52 -1 -52 -10z"
       id="path1433" />
    <path
       d="M4940 24008 c1 -7 31 -123 68 -258 l67 -245 52 -3 51 -3 43 176 c24 96 46 175 49 175 3 0 21 -57 39 -127 19 -71 40 -150 48 -176 l14 -48 52 3 52 3 67 250 c37 138 67 253 68 258 0 4 -20 7 -44 7 l-43 0 -42 -162 c-23 -90 -45 -170 -48 -178 -3 -8 -21 41 -40 110 -19 69 -41 149 -50 178 l-15 53 -51 -3 -51 -3 -42 -168 c-23 -93 -44 -170 -46 -173 -3 -2 -25 74 -50 168 l-44 173 -52 3 c-38 2 -52 -1 -52 -10z"
       id="path1435" />
    <path
       d="M5670 23975 l0 -45 45 0 45 0 0 45 0 45 -45 0 -45 0 0 -45z"
       id="path1437" />
    <path
       d="M23560 23760 l0 -260 176 0 175 0 -3 43 -3 42 -123 3 -123 3 3 67 3 67 98 3 98 3 -3 37 -3 37 -97 3 -98 3 0 64 0 65 120 0 120 0 0 40 0 40 -170 0 -170 0 0 -260z"
       id="path1439" />
    <path
       d="M25190 24008 c1 -7 31 -123 68 -258 l67 -245 52 -3 51 -3 43 176 c24 96 46 175 49 175 3 0 21 -57 39 -127 19 -71 40 -150 48 -176 l14 -48 52 3 52 3 67 250 c37 138 67 253 68 258 0 4 -20 7 -44 7 l-43 0 -42 -162 c-23 -90 -45 -170 -48 -178 -3 -8 -21 41 -40 110 -19 69 -41 149 -50 178 l-15 53 -51 -3 -51 -3 -42 -168 c-23 -93 -44 -170 -46 -173 -3 -2 -25 74 -50 168 l-44 173 -52 3 c-38 2 -52 -1 -52 -10z"
       id="path1441" />
    <path
       d="M25920 23975 l0 -45 45 0 45 0 0 45 0 45 -45 0 -45 0 0 -45z"
       id="path1443" />
    <path
       d="M4528 23943 c-3 -44 -5 -48 -30 -51 -25 -3 -28 -8 -28 -38 0 -30 3 -34 25 -34 l25 0 0 -126 c0 -126 7 -157 39 -181 22 -16 75 -25 105 -17 21 5 26 12 26 39 0 29 -4 33 -34 39 -19 4 -37 14 -40 22 -3 9 -6 63 -6 120 l0 104 41 0 c39 0 40 1 37 33 -3 29 -6 32 -40 35 l-38 3 0 50 0 49 -39 0 -40 0 -3 -47z"
       id="path1445" />
    <path
       d="M24768 23943 c-3 -44 -5 -48 -30 -51 -25 -3 -28 -8 -28 -38 0 -30 3 -34 25 -34 l25 0 0 -126 c0 -126 7 -157 39 -181 22 -16 75 -25 105 -17 21 5 26 12 26 39 0 29 -4 33 -34 39 -19 4 -37 14 -40 22 -3 9 -6 63 -6 120 l0 104 41 0 c39 0 40 1 37 33 -3 29 -6 32 -40 35 l-38 3 0 50 0 49 -39 0 -40 0 -3 -47z"
       id="path1447" />
    <path
       d="M6536 23939 c-14 -11 -26 -26 -26 -33 0 -8 -23 -12 -73 -12 -89 0 -135 -22 -155 -76 -16 -42 -10 -80 17 -107 19 -19 19 -20 -1 -38 -33 -29 -40 -61 -23 -96 14 -28 14 -33 1 -43 -23 -16 -36 -59 -27 -91 25 -93 264 -112 348 -28 27 27 33 41 33 77 0 77 -52 108 -179 108 -83 0 -106 11 -99 47 3 16 12 18 68 15 89 -4 149 25 169 83 13 41 9 65 -21 108 -11 14 -10 19 2 27 8 5 25 10 38 10 19 0 22 5 22 35 0 33 -2 35 -34 35 -19 0 -45 -9 -60 -21z m-48 -127 c31 -40 3 -92 -50 -92 -74 0 -95 82 -28 109 30 11 60 5 78 -17z m45 -314 c22 -11 22 -23 -3 -48 -15 -15 -33 -20 -77 -20 -81 0 -136 33 -121 72 5 12 23 14 95 10 48 -2 96 -9 106 -14z"
       id="path1449" />
    <path
       d="M26786 23939 c-14 -11 -26 -26 -26 -33 0 -8 -23 -12 -73 -12 -89 0 -135 -22 -155 -76 -16 -42 -10 -80 17 -107 19 -19 19 -20 -1 -38 -33 -29 -40 -61 -23 -96 14 -28 14 -33 1 -43 -23 -16 -36 -59 -27 -91 25 -93 264 -112 348 -28 27 27 33 41 33 77 0 77 -52 108 -179 108 -83 0 -106 11 -99 47 3 16 12 18 68 15 89 -4 149 25 169 83 13 41 9 65 -21 108 -11 14 -10 19 2 27 8 5 25 10 38 10 19 0 22 5 22 35 0 33 -2 35 -34 35 -19 0 -45 -9 -60 -21z m-48 -127 c31 -40 3 -92 -50 -92 -74 0 -95 82 -28 109 30 11 60 5 78 -17z m45 -314 c22 -11 22 -23 -3 -48 -15 -15 -33 -20 -77 -20 -81 0 -136 33 -121 72 5 12 23 14 95 10 48 -2 96 -9 106 -14z"
       id="path1451" />
    <path
       d="M3847 23886 c-78 -28 -118 -93 -119 -192 -1 -127 64 -200 177 -198 72 1 118 22 145 67 28 45 25 54 -16 60 -31 5 -39 2 -61 -23 -49 -58 -133 -31 -149 48 l-6 32 131 0 131 0 0 31 c0 86 -54 163 -126 180 -51 11 -62 11 -107 -5z m108 -81 c14 -13 25 -33 25 -45 0 -20 -5 -21 -77 -18 -72 3 -78 5 -75 23 4 28 48 65 78 65 14 0 36 -11 49 -25z"
       id="path1453" />
    <path
       d="M4210 23890 c-86 -21 -121 -130 -62 -190 16 -16 49 -33 73 -39 115 -29 119 -31 119 -55 0 -18 -8 -27 -31 -35 -47 -16 -64 -14 -98 14 -22 20 -36 24 -58 20 -56 -13 -56 -13 -37 -45 26 -44 77 -65 154 -64 101 2 158 40 166 111 9 73 -34 115 -140 137 -37 8 -75 21 -83 29 -13 13 -13 17 6 36 27 27 75 27 102 0 17 -17 28 -19 60 -14 44 8 46 11 23 43 -31 45 -123 70 -194 52z"
       id="path1455" />
    <path
       d="M6014 23886 c-17 -7 -40 -27 -52 -42 l-21 -29 -1 38 c0 37 -1 37 -40 37 l-40 0 0 -195 0 -195 44 0 44 0 3 124 c4 108 7 128 25 153 28 37 76 43 98 11 13 -18 16 -50 16 -155 l0 -133 45 0 45 0 0 151 c0 197 -13 228 -100 243 -21 3 -48 0 -66 -8z"
       id="path1457" />
    <path
       d="M24058 23885 c-48 -16 -88 -54 -88 -85 0 -13 11 -20 37 -25 21 -4 39 -3 41 3 9 28 32 44 70 49 50 7 92 -16 92 -50 0 -21 -7 -24 -77 -33 -90 -12 -128 -28 -156 -65 -25 -35 -25 -104 1 -138 42 -58 152 -63 204 -10 l29 28 6 -29 c5 -27 9 -30 47 -30 l41 0 -3 153 c-3 168 -11 201 -53 223 -43 22 -136 26 -191 9z m152 -220 c0 -50 -34 -91 -80 -96 -39 -4 -60 3 -70 22 -29 52 21 98 108 99 38 0 42 -2 42 -25z"
       id="path1459" />
    <path
       d="M24460 23890 c-86 -21 -121 -130 -62 -190 16 -16 49 -33 73 -39 115 -29 119 -31 119 -55 0 -18 -8 -27 -31 -35 -47 -16 -64 -14 -98 14 -22 20 -36 24 -58 20 -56 -13 -56 -13 -37 -45 26 -44 77 -65 154 -64 101 2 158 40 166 111 9 73 -34 115 -140 137 -37 8 -75 21 -83 29 -13 13 -13 17 6 36 27 27 75 27 102 0 17 -17 28 -19 60 -14 44 8 46 11 23 43 -31 45 -123 70 -194 52z"
       id="path1461" />
    <path
       d="M26264 23886 c-17 -7 -40 -27 -52 -42 l-21 -29 -1 38 c0 37 -1 37 -40 37 l-40 0 0 -195 0 -195 44 0 44 0 3 124 c4 108 7 128 25 153 28 37 76 43 98 11 13 -18 16 -50 16 -155 l0 -133 45 0 45 0 0 151 c0 197 -13 228 -100 243 -21 3 -48 0 -66 -8z"
       id="path1463" />
    <path
       d="M5670 23695 l0 -195 45 0 45 0 0 195 0 195 -45 0 -45 0 0 -195z"
       id="path1465" />
    <path
       d="M25920 23695 l0 -195 45 0 45 0 0 195 0 195 -45 0 -45 0 0 -195z"
       id="path1467" />
  </g>
  <rect
     style="opacity:1;fill:#ffffff;stroke:#000000;stroke-width:0;stroke-dasharray:none"
     id="rect2012"
     width="17.161016"
     height="8.2627115"
     x="2546.5933"
     y="3633.7373" />
  <path
     style="opacity:0.5;fill:#ff5555;stroke:#000000;stroke-width:0.283465"
     d="M 2720.7966,3488.3136 H 2270.161 v 272.6695 h 48.9407 v 36.2288 h 355.9322 v -36.8644 h 48.9407 v -274.5763 z"
     id="path1747" />
  <g
     inkscape:groupmode="layer"
     id="layer1"
     inkscape:label="makerspace">
    <text
       xml:space="preserve"
       style="font-style:normal;font-variant:normal;font-weight:bold;font-stretch:normal;font-size:48px;font-family:Damascus;-inkscape-font-specification:'Damascus Bold';text-align:center;text-anchor:middle;fill:#000000;stroke:#000000;stroke-width:0"
       x="2496.4185"
       y="3565.3877"
       id="text517"><tspan
         sodipodi:role="line"
         id="tspan515"
         style="font-style:normal;font-variant:normal;font-weight:bold;font-stretch:normal;font-size:48px;font-family:Futura;-inkscape-font-specification:'Futura Bold';stroke-width:0"
         x="2496.4185"
         y="3565.3877">The Makerspace</tspan></text>
  </g>
  <g
     inkscape:groupmode="layer"
     id="layer2"
     inkscape:label="308i">
    <g
       id="g632"
       transform="matrix(0.1,0,0,-0.1,0,3892)">
      <path
         d="M24225 2687 c-17 -7 -40 -19 -52 -27 -23 -17 -68 -88 -61 -95 3 -3 26 -8 51 -11 33 -5 47 -3 47 5 0 7 11 23 25 36 42 43 126 30 145 -21 20 -52 -25 -94 -100 -94 -40 0 -40 0 -40 -39 l0 -39 57 -4 c46 -4 61 -10 80 -32 28 -33 29 -56 3 -89 -42 -53 -142 -40 -175 23 -11 21 -21 29 -33 26 -9 -3 -29 -8 -44 -12 -16 -3 -28 -12 -28 -19 0 -26 48 -81 90 -105 60 -33 166 -35 225 -4 101 52 117 178 30 237 -34 23 -35 26 -16 32 48 15 69 112 38 172 -32 61 -159 92 -242 60z"
         id="path1421" />
      <path
         d="M24674 2675 c-62 -37 -97 -109 -102 -214 -6 -115 10 -179 58 -234 64 -72 159 -84 243 -30 111 71 131 330 34 439 -59 69 -157 85 -233 39z m144 -70 c21 -17 34 -41 42 -76 17 -69 9 -196 -15 -236 -46 -79 -136 -65 -163 25 -19 64 -15 200 8 250 29 64 79 78 128 37z"
         id="path1423" />
      <path
         d="M25113 2680 c-51 -23 -83 -70 -83 -123 0 -46 13 -74 48 -105 20 -18 23 -25 13 -29 -7 -3 -27 -18 -44 -32 -24 -22 -31 -38 -35 -79 -4 -50 -3 -53 34 -91 31 -30 52 -41 98 -51 97 -20 200 4 249 58 50 55 40 143 -22 193 l-39 31 36 32 c31 29 35 39 35 79 0 58 -23 93 -76 118 -57 25 -158 25 -214 -1z m178 -79 c25 -26 27 -33 19 -58 -6 -16 -23 -37 -39 -46 -27 -16 -30 -16 -82 11 -66 33 -77 67 -33 101 40 32 98 28 135 -8z m-45 -227 c54 -22 74 -42 74 -75 0 -40 -46 -63 -116 -57 -94 8 -125 70 -63 122 36 30 52 32 105 10z"
         id="path1425" />
      <path
         d="M25500 2430 l0 -260 50 0 50 0 0 260 0 260 -50 0 -50 0 0 -260z"
         id="path1427" />
    </g>
    <rect
       style="fill:#ffffff;fill-opacity:1;stroke:#000000;stroke-width:0"
       id="rect701"
       width="10.335719"
       height="8.0659122"
       x="2549.8499"
       y="3630.6931"
       inkscape:label="rect701" />
    <rect
       style="fill:#ff5656;fill-opacity:0.5;stroke:#000000;stroke-width:0"
       id="rect1517"
       width="10.335719"
       height="8.0659122"
       x="2549.8499"
       y="3630.6931" />
  </g>
</svg>
