<svg xmlns="http://www.w3.org/2000/svg" viewBox="0 0 372.84 616.96"><defs><style>.cls-1{fill:#fc02fb;}.cls-2{fill:#02fbfb;}.cls-3{fill:#fff;}</style></defs><title>slab-logo-color-white</title><g id="Layer_2" data-name="Layer 2"><g id="Layer_1-2" data-name="Layer 1"><path class="cls-1" d="M96.38,537.87,79.44,521l-.14-.13-.85-.83-2.85-2.71-1-.89-3.06-3.06q-6.42-6.81-12.86-13.61-13.55-14-27.1-28l-4.08-4.63,7-.55,6.84.5,16,2,14.2,0,2.88-.09,12-1.08,10.06.07,2.93.06,6,.2h22l8-.36a64,64,0,0,1,7.46,0c.94.09,1.77,1.27,2.65,1.95l0,9v14q-.06,10.52-.13,21l-.77,12-.13,11c-.15,3.07-.29,6.13-.44,9.19q-.18,3-.34,5.91l.05,21.88.34,14.86-2.54-2.08-1-1.11-3.81-3.81-3-3-.08-.08q-3-3.54-6.08-7.06l-.72-.84L123.41,567l-.1-.15-.86-.87-1.1-1.11-1.5-.67-1.14-2.13-.2-.18-1-1.1v-.05l-9.78-11L100.39,542,96.46,538Z"/><path class="cls-2" d="M176.41,154.8h-11l-2.21-.21a.66.66,0,0,0-.46-.75l-1.11-31.94.06-3.91,1.65-32.1q0-6.5,0-13c0-1-.06-2-.1-3l0-12c.05-1.33.11-2.67.17-4,.11-3.63.09-7.28.4-10.9.12-1.39,1-2.72,1.54-4.07l11,11,1,1,2,2.14.77,1,2.14,2.45L191.31,66l.05,0,4.83,5,7.12,7.14,1,1,1.89,1.88.1.1,3,3.16,8,8.83,1,1.25c.69.84,1.39,1.68,2.08,2.53q17.08,20,34.18,39.94l5.85,7,6,7.13,1,2.84-9.93,1-14.08.8a.73.73,0,0,0-.93.07l-38.95.1-2.92-.24-5.74-.13-.24-.08-15.2-.72Z"/><path class="cls-3" d="M372.22,592.71c-.4-2.88-2.8-4.3-6.48-3.55A126.34,126.34,0,0,1,346,591.78c-23.93,1-47.88,1.69-71.82,2.4-6.32.19-12.64.06-19,0-18.27-.08-36.54-.21-54.82-.29-6.66,0-13.32,0-20.63,0l17.73-15.79,6.06-5.84c15.16-13.69,30.88-26.81,45.35-41.2,19.07-19,36.49-39.48,50.45-62.68,3.44-5.72,1.7-16.83-3.41-21.14q-3.61-3-7-6.37-15.3-15-30.53-30l-1.05-.94-14.28-15.26-2.33-2.87-38-38-3.22-3.26c-10.76-11.72-21.62-23.35-32.19-35.24a12.61,12.61,0,0,1-3.27-7.62c.14-17.91.72-35.81,1.16-53.72h0l.09-3c.21-2.81.65-5.63.58-8.43-.34-12.45-1-24.89-1.22-37.35-.21-10.26,0-20.54,0-32.08h35.73c0-.39,0-.77,0-1.16a13.33,13.33,0,0,1,1.74-3.76,6.15,6.15,0,0,1,.69-.76,6.15,6.15,0,0,0-.69.76,13.33,13.33,0,0,0-1.74,3.76h0c0,.39,0,.77,0,1.16l27,.37,8.06,0a8.4,8.4,0,0,1,2.26-1,8.4,8.4,0,0,0-2.26,1l13.94.09c8.56.07,17.13.53,25.66.08a107.49,107.49,0,0,0,18.1-2.92c4.88-1.12,6.49-5.52,7.23-9.78.67-3.84.2-7.77-4.55-9.24l-.06-.06c-3.07-3.18-6.15-6.33-9.2-9.52l-28-29.25h0c-6.88-7.67-14.12-15-20.58-23.06C219.64,67,199.32,46.21,178.42,25.91h0C173.21,19,168.09,12.08,162.77,5.28a20.09,20.09,0,0,0-5.49-5,4.81,4.81,0,0,0-4.41.68c-3.42,3-6.55,6.4-9.69,9.74q-21.52,22.86-43,45.77l0,0-7,6.31-2,2c-25,20.15-45.67,44.8-68.53,67.17L20,134.72l-6.87,7.08c2.42-.29,4.84-.59,7.17-1v.1l-7.18.88-.84.78c-2.58,2.07-5.22,4.08-7.75,6.23-5.45,4.62-6,11.64-1.3,17.16,9.44,11.16,18.65,22.53,28.41,33.41,9.16,10.22,18.9,19.93,28.39,29.87.12-2.11.25-4.22.29-6.23h0l.07.05-.36,6.19.06,0A7.07,7.07,0,0,0,61,231c25.92,28.35,51.77,56.77,77.89,84.93A18.73,18.73,0,0,1,144.33,330c-.23,19,.06,37.92.15,56.87,0,.67,0,1.34,0,2v52.72c-1.44,0-3.25-.07-5.06,0-21.26,1-42.52,2.34-63.8,3-15.12.49-30.26.27-45.38.07-4.46-.05-8.89-1.19-13.35-1.71-5.63-.66-11.26-.27-14.89,4.62S-.12,461.34,4.18,466l.89,1,2,2.25,0,0,37.37,38.52,1.08,1.06,8.92,9.45,1.85,1.83q26.52,28.49,53,57l.93,1.1,21.21,23.51,1.11,1.11c3.49,3.74,6.75,7.76,10.58,11.12,1.86,1.63,4.81,2,7.26,3h0l3-.05h0c33.59-.06,67.19-.07,100.78-.21,7.15,0,14.3-.56,21.45-.82,15-.53,29.92-1.1,44.89-1.52,14.44-.4,28.88-.48,43.31-1,3.61-.14,7.91-1.35,8.52-5.54A53.66,53.66,0,0,0,372.22,592.71ZM294.39,164.45h0Zm.63-.28c-.1-.27-.14-.69-.33-.77.19.08.23.5.33.77Zm-16.37-24.56.28.21-.4.52.4-.52-.28-.21a2.68,2.68,0,0,0-.54-.4A2.68,2.68,0,0,1,278.65,139.61ZM147,250.66c-.26-.11-.59-.37-.78-.3.19-.07.52.19.78.3Zm0-72.49c-.1-.27-.14-.69-.33-.77.19.08.23.5.33.77Zm-2.2,134a6,6,0,0,0,.62.31,6,6,0,0,1-.62-.31ZM148,429.64l-.8-.35h0l.8.35Zm0-378.47h0a4.94,4.94,0,0,0-.22-.65A4.94,4.94,0,0,1,148,51.17Zm-7.94-15.4a2.85,2.85,0,0,1-.37.23h0A2.85,2.85,0,0,0,140.08,35.77ZM138,42.9a5.12,5.12,0,0,1-.31.62h0A5.12,5.12,0,0,0,138,42.9Zm-5.55,5,.67.26-.67-.26ZM134,41.64h0l-.8-.35Zm-6.52,4.3h0Zm-.74.27-.1.07Zm.36-.19L127,46ZM117,61.66h0c-.2-.08-.43-.25-.62-.3C116.6,61.41,116.83,61.58,117,61.66Zm-2-9-.8-.35h0l.8.35Zm-14.7,22a4.75,4.75,0,0,0-.75,1A4.75,4.75,0,0,1,100.28,74.67Zm-1.56,4.14a33.17,33.17,0,0,0-.17,3.42l7.23-6.17c8-7.17,16-14.33,24-21.57.68-.62.81-1.85,1.2-2.79l-5.29-3.65L131,51.69l.29-.22c3.31-2.81,6.68-5.56,9.9-8.46a38,38,0,0,0,3.38-3.85c-.65,38.47-1.3,77.12-2,116.69L29.09,153.52,98.55,82.23A33.17,33.17,0,0,1,98.72,78.81Zm27.66-32.25-.11.12Zm-.33.54-.09.16Zm8.32,122.1h0l-5.51-.25Zm.06-2.53h0l0,1.28Zm-84.22-9.3h0l.22.08Zm.75.56a6.58,6.58,0,0,1-.3.59h0A6.58,6.58,0,0,0,51,157.93Zm0,0a.48.48,0,0,0,0-.17A.48.48,0,0,1,51,157.9ZM25,184.64l-.8-.35.8.35Zm27.84-60.47a6,6,0,0,0,.62.31,6,6,0,0,1-.62-.31ZM71,86.64h0l-.8-.35ZM62,98.17h0c-.1-.27-.14-.69-.33-.77C61.88,97.48,61.92,97.9,62,98.17ZM33.16,131.31h0c-.12.27-.39.59-.31.78C32.77,131.9,33,131.58,33.16,131.31ZM14.07,148.18h0Zm26.76,57.93.32-.76h0C41,205.6,40.94,205.85,40.83,206.11Zm36.33,29.2h0c-.12.27-.39.59-.31.78C76.77,235.9,77,235.58,77.16,235.31Zm11.67,23.86h0c.26.11.59.38.78.31C89.42,259.55,89.09,259.28,88.83,259.17Zm7.32,4.18h0c-.12.26-.24.53-.35.8Zm14.51,5.17h0c.12-.27.38-.59.31-.79C111,267.93,110.78,268.25,110.66,268.52ZM115,284.64l-.8-.35.8.35Zm-.57.72.22.08v0Zm5.75,1.95h0a5.12,5.12,0,0,0-.31.62A5.12,5.12,0,0,1,120.16,287.31Zm2,3h0c-.11.26-.23.53-.34.8C121.92,290.88,122,290.61,122.15,290.35Zm21.26,2.34c-1.11-.94-2.1-1.62-2.92-2.48Q124,273.11,107.6,256a13.84,13.84,0,0,0-1.93-1.44l0,0h0l-10.17-10.7a12.9,12.9,0,0,0,.34,2.61,12.9,12.9,0,0,1-.34-2.61.76.76,0,0,0-.51-.68l-31.53-35.3-2.65-3.07-28.59-34c36.89,7.11,73.88,1,111.21,4.62ZM117,462.17h0a4.94,4.94,0,0,0-.22-.65A4.94,4.94,0,0,1,117,462.17Zm-3.2,3c.27.12.6.38.79.31-.19.07-.52-.19-.79-.31ZM116,445.66h0c-.26-.11-.59-.37-.78-.3C115.44,445.29,115.77,445.55,116,445.66ZM43,461.64l-.8-.35h0l.8.35Zm26.43,54.27.41.21-.41-.21Zm0,0h0Zm7,9.06,0-.05,2.2.21-2.2-.21Zm-.19.34.18-.32ZM85,528.67a5.12,5.12,0,0,0-.62-.31,5.12,5.12,0,0,1,.62.31Zm36,57.5c-.1-.27-.14-.69-.33-.77.19.08.23.5.33.77Zm20.52.51c-.2.9-.39,1.8-.59,2.7.2-.9.39-1.8.59-2.7l-1-1.11-3.81-3.81-1.72.12-1.27.08,1.27-.08,1.72-.12-3-3-.08-.08h0q-3-3.54-6.08-7.06l-.72-.84h0L123.41,567l-.11-.15-.85-.87-1.1-1.11-1.5-.67-1.14-2.13h0l-.2-.18-1-1.1v-.05h0l-9.78-11h0L100.39,542,96.46,538l-.08-.08h0L79.44,521l1.34,4.32L79.44,521l-.14-.13-.86-.83-2.84-2.71-1-.89-2.35,1,2.35-1-3.06-3.06L58.71,499.78l-1.87.45,1.87-.45-27.1-28-4.08-4.63,7-.55,6.84.5a8.92,8.92,0,0,1,5-3.56,8.92,8.92,0,0,0-5,3.56l16,2,.83-1.31-.83,1.31,14.2,0-3.92-2.32,3.92,2.32,2.88-.09c0-.33,0-.72,0-1.13,0,.41,0,.8,0,1.13l12-1.08,10.06.07,2.93.06,6,.2h22l8-.36a64,64,0,0,1,7.46,0c.94.09,1.77,1.27,2.65,1.95l0,9v14c.33.5.71,1,1.11,1.49-.4-.5-.78-1-1.11-1.49q-.06,10.52-.13,21l-.77,12-.13,11c-.15,3.07-.29,6.13-.44,9.19a.67.67,0,0,0,0,.2l-.33,5.71.05,21.88.34,14.86Zm4.61-36.52s0-.06,0-.08S146.15,550.13,146.15,550.16Zm-.44.89.08-.08Zm.17-.18.06-.08Zm.12-.17,0-.08Zm.08-.18,0-.08Zm0-.18a.25.25,0,0,0,0-.08A.25.25,0,0,1,146.13,550.34Zm0-.37s0-.05,0-.08S146.13,550,146.13,550Zm0-.18,0-.08Zm-.07-.19,0-.08Zm-.09-.19a.16.16,0,0,0,0-.07A.16.16,0,0,1,145.93,549.41Zm-.11-.2a.21.21,0,0,0,0-.06A.21.21,0,0,1,145.82,549.21Zm-.13-.19,0-.06Zm-.14-.21,0,0Zm0,2.33-.1.08Zm-.24.17-.11.07Zm-.29.17-.13.07Zm-.35.17-.14.06Zm-.41.16-.15.06ZM183,584.64c-.2-.08-.44-.26-.62-.31.18,0,.42.23.62.31Zm.87-16,.21-.09-.21.09Zm.5.79h0Zm.63-.29c-.1-.27-.14-.69-.33-.77.19.08.23.5.33.77Zm20.19-6.51h0l-.69.94Zm1.14-1.56.84-1.14h0l-.84,1.14Zm-1-1.47a5.53,5.53,0,0,1,.32-.46ZM230,528.17c-.1-.27-.14-.69-.33-.77.19.08.23.5.33.77Zm7,7.47-.76-.33.76.33Zm9.37-29.81h0c.17,1.2.34,2.42.74,5.14C246.7,508.25,246.53,507,246.35,505.83ZM262,511.17a4.94,4.94,0,0,0-.22-.65,4.94,4.94,0,0,1,.22.65ZM294.28,457l-1.32-.33Zm1.77.46-.57-.15.57.15c.43-2.12.87-4.24,1.3-6.36C296.92,453.18,296.48,455.3,296.05,457.42Zm-3.39-8.9h0c.12-.27.38-.59.3-.79C293,447.93,292.78,448.25,292.66,448.52Zm-.45-1.15h0a2.12,2.12,0,0,1-.11.21A2.12,2.12,0,0,0,292.21,447.37Zm-14-12.06c-.08.19-.23.4-.29.58.06-.18.21-.39.29-.58Zm-.31.62a.22.22,0,0,0,0,.16A.22.22,0,0,1,277.85,435.93ZM228,380.64h0l-.8-.35Zm-10-10a5.21,5.21,0,0,0-.57-.3c.18.06.39.21.57.29Zm-.61-.31a.25.25,0,0,0-.17,0A.25.25,0,0,1,217.4,370.34Zm-.46.53a1.55,1.55,0,0,1-.08.23,1,1,0,0,1,.21.1,1,1,0,0,0-.21-.1A1.55,1.55,0,0,0,216.94,370.87Zm-46-28a5.12,5.12,0,0,1-.31.62h0A6,6,0,0,0,171,342.9Zm-5.06-.25L182.39,360l1.93,1.94,9.61,9.1,1.47-1.26L193.93,371l0,.07h0c6.79,7.48,13.52,15,20.42,22.38,3.75,4,7.8,7.7,11.72,11.54h0l4.13,4.29L247,427.2l1.37-1.83L247,427.2l.08.08h0l12.43,12.27h0l1.77,1.66,3.19-1.57-3.19,1.57c.81,1,1.61,2,2,2.55l-97.38-2.31Zm-8-62.52h0l.4.36Zm7-113.06,1-1.06h0Zm20.74,3.45h0a6,6,0,0,0,.31-.62A6,6,0,0,1,185.66,170.52Zm52.94,1.66a17.81,17.81,0,0,1,2.9-.37A17.81,17.81,0,0,0,238.6,172.18Zm4.82-15.28Zm19,.24a5.65,5.65,0,0,0,2.56-.56A5.65,5.65,0,0,1,262.41,157.14Zm-2.27-.43a6.59,6.59,0,0,0,2.24.43A6.59,6.59,0,0,1,260.14,156.71Zm2.61,14.66c-.21-.65-.41-1.3-.61-2l.61,2,2.47-.91Zm2.85-15.15.11-.07ZM258.36,113h0l-1.42,1.1ZM242,97.64h0c-.27-.11-.6-.38-.79-.3C241.42,97.26,241.75,97.53,242,97.64Zm-13.2-5.47c.27.12.6.38.79.31-.19.07-.52-.19-.79-.31ZM195.11,62.68c.15.15.3.32.45.49s.3.32.45.45h0c-.15-.13-.3-.29-.45-.45s-.3-.34-.45-.49a2.9,2.9,0,0,0-.44-.38A2.9,2.9,0,0,1,195.11,62.68Zm-2.09-19h0a5.79,5.79,0,0,0-.62-.3A5.79,5.79,0,0,1,193,43.64Zm-8.36-7.12h0a5.12,5.12,0,0,0,.31-.62A5.12,5.12,0,0,1,184.66,36.52Zm-18.5-17.21h0a5.12,5.12,0,0,0-.31.62A5.12,5.12,0,0,1,166.16,19.31Zm-2.71,34.58c.11-3.63.09-7.28.4-10.9.12-1.39,1-2.72,1.54-4.07.84-.37,1.65-.79,2.42-1.12-.77.33-1.58.75-2.42,1.12l11,11c.33.34.65.69,1,1l2,2.14h0l.77,1,2.14,2.45L191.31,66h0l.05,0h0l4.83,5,7.12,7.14,1,1c.84-1.81,2-2.47,3.34-2.14-1.3-.33-2.5.33-3.34,2.14l1.89,1.88.1.1,3,3.16h0l8,8.83,1,1.25c.69.84,1.39,1.68,2.08,2.53l4.45-2.77L220.34,97q17.08,20,34.18,39.94l5.85,7,3.85-1.82,1.89-.89-1.89.89-3.85,1.82,6,7.13,1,2.84-9.93,1-14.08.8h0a.73.73,0,0,0-.93.07l-38.95.1c-.54.49-1.15,1.24-1.72,1.83a3.49,3.49,0,0,1-1.16.91,3.49,3.49,0,0,0,1.16-.91c.57-.59,1.18-1.34,1.72-1.83l-2.92-.24c-1.92,0-3.83-.07-5.74-.12a2.34,2.34,0,0,0-.24-.09,35.66,35.66,0,0,0,5,3,36.59,36.59,0,0,1-5-2.95l-15.2-.73,6.45,3-6.45-3-2.93.09h-11l-3.05,2,3.05-2-2.21-.21a.66.66,0,0,0-.46-.75l-1.11-31.94.06-3.91-.5-.13-1-.25,1,.25.5.13,1.65-32.1q0-6.5,0-13c0-1-.06-2-.1-3l0-12C163.33,56.56,163.39,55.22,163.45,53.89ZM160.66,7.52h0A5.12,5.12,0,0,0,161,6.9,5.12,5.12,0,0,1,160.66,7.52Zm-9,1h0A5.12,5.12,0,0,0,152,7.9,5.12,5.12,0,0,1,151.66,8.52ZM162,543.64c-.2-.08-.44-.26-.62-.31.18,0,.42.23.62.31ZM156,309.54a8.25,8.25,0,0,0,6.61,8h0A8.27,8.27,0,0,1,156,309.54Zm9.3,275.1.26-.22h0Zm8.88-10.1,3.11,2-3.11-2,0,0h0L164.26,582V467.78c37.28-1.11,73.66,1.67,110.91,4.2l-2.84,3.71-1,1-2.42,2.41h0l-12.7,15.37h0l-.07,0h0l-9.79,11.27h0q-33.91,32.05-67.81,64.13C177,571.38,175.6,573,174.14,574.54ZM188,613.64h0c-.27-.11-.6-.38-.79-.31C187.42,613.26,187.75,613.53,188,613.64Zm19-16h0l-.8-.35Zm109.29-2.11c-.19.18-.38.39-.57.61C315.89,595.92,316.08,595.71,316.27,595.53Zm-.85.94a6.63,6.63,0,0,1-.57.6h0A6.63,6.63,0,0,0,315.42,596.47Zm-34.49.62h0l.28.19Zm1.67.19.33-.56-.3-.18.3.18Zm57.22,12.89h0a6,6,0,0,0,.62.31A6,6,0,0,1,339.82,610.17Zm1.08-.23a1.13,1.13,0,0,1,.08-.22l-.21-.11.21.11A1.13,1.13,0,0,0,340.9,609.94Zm19.92-1.77h0a6,6,0,0,0,.62.31A6,6,0,0,1,360.82,608.17Zm1.08-.23a1.13,1.13,0,0,1,.08-.22l-.21-.11.21.11A1.13,1.13,0,0,0,361.9,607.94Zm5.08-11.3h0l-.8-.35Zm-1.08-4.52h0l-.3.17A2.28,2.28,0,0,1,365.9,592.12Z"/></g></g></svg>