<?xml version="1.0" standalone="no"?>
<!DOCTYPE svg PUBLIC "-//W3C//DTD SVG 20010904//EN"
 "http://www.w3.org/TR/2001/REC-SVG-20010904/DTD/svg10.dtd">
<svg version="1.0" xmlns="http://www.w3.org/2000/svg"
 width="416.000000pt" height="416.000000pt" viewBox="0 0 416.000000 416.000000"
 preserveAspectRatio="xMidYMid meet">
<metadata>
Created by potrace 1.11, written by Peter Selinger 2001-2013
</metadata>
<g transform="translate(0.000000,416.000000) scale(0.100000,-0.100000)"
fill="#000000" stroke="none">
<path d="M1791 4150 c-35 -5 -71 -12 -80 -15 -9 -4 -52 -13 -96 -22 -44 -8
-84 -18 -90 -22 -5 -4 -40 -16 -78 -25 -37 -10 -70 -22 -73 -27 -3 -5 -12 -9
-19 -9 -27 0 -200 -83 -295 -142 -25 -15 -58 -35 -75 -44 -122 -68 -352 -273
-468 -417 -122 -151 -224 -308 -212 -327 9 -14 3542 -14 3550 0 3 6 -15 45
-41 88 -74 118 -109 166 -259 341 -22 26 -188 176 -226 204 -13 9 -37 28 -54
41 -176 138 -547 309 -740 342 -22 3 -65 13 -95 21 -65 18 -544 27 -649 13z"/>
<path d="M50 2670 l0 -320 424 0 c408 0 424 1 449 20 14 11 28 20 31 20 4 0
39 21 79 46 140 91 418 263 507 314 19 12 54 33 77 48 23 15 97 61 163 102 66
41 120 78 120 82 0 4 -416 8 -925 8 l-925 0 0 -320z"/>
<path d="M2055 2959 c-27 -17 -69 -42 -92 -57 -23 -15 -90 -56 -148 -92 -58
-36 -124 -77 -148 -92 -23 -15 -58 -37 -77 -48 -19 -11 -48 -29 -65 -40 -16
-11 -46 -29 -65 -40 -19 -11 -84 -51 -145 -89 -60 -39 -134 -84 -162 -100 -29
-17 -53 -36 -53 -41 0 -7 339 -10 980 -10 651 0 980 3 980 10 0 6 -33 31 -72
57 -59 37 -188 121 -298 193 -8 5 -49 32 -90 59 -306 199 -439 286 -462 302
-15 10 -28 19 -30 18 -2 0 -25 -14 -53 -30z"/>
<path d="M2310 2980 c0 -5 46 -40 103 -76 85 -56 149 -97 267 -174 8 -5 58
-38 110 -72 223 -145 417 -272 442 -289 26 -18 52 -19 453 -19 l425 0 0 320 0
320 -900 0 c-590 0 -900 -3 -900 -10z"/>
<path d="M50 2165 c0 -84 0 -85 25 -85 20 0 29 8 39 31 l13 31 11 -31 c10 -27
16 -31 49 -31 36 -1 37 -2 18 -15 -45 -32 -46 -34 -31 -70 l15 -35 -30 22
c-29 22 -32 22 -59 6 l-28 -16 5 38 c4 28 1 38 -11 43 -15 6 -16 -58 -16 -748
l0 -755 403 2 402 3 0 845 0 845 -402 3 -403 2 0 -85z m183 -603 l28 -3 -23
-19 c-21 -16 -22 -21 -11 -50 6 -17 9 -30 5 -28 -65 32 -61 32 -83 12 l-22
-19 7 37 c6 30 3 39 -15 51 -21 15 -21 15 6 19 27 3 37 13 50 53 6 17 9 15 18
-15 9 -27 18 -36 40 -38z m199 -472 l33 0 -24 -19 c-20 -15 -23 -24 -18 -55
l6 -36 -30 22 -29 22 -23 -22 c-32 -30 -40 -27 -22 8 14 28 14 30 -12 55 l-28
25 33 0 c20 0 34 6 37 15 16 51 16 51 30 18 12 -28 19 -33 47 -33z m290 -390
l23 -1 -24 -19 c-20 -17 -22 -24 -13 -50 l11 -30 -26 17 c-24 16 -28 16 -54 1
l-28 -17 6 30 c4 21 0 35 -12 49 -18 19 -17 20 4 20 14 0 28 11 39 29 l16 29
18 -29 c11 -18 26 -29 40 -29z"/>
<path d="M962 1403 l3 -848 173 -3 172 -2 0 850 0 850 -175 0 -175 0 2 -847z"/>
<path d="M1412 1403 l3 -848 185 0 185 0 3 848 2 847 -190 0 -190 0 2 -847z"/>
<path d="M1889 2243 c-1 -5 -2 -383 -3 -841 -1 -611 2 -836 10 -843 7 -5 89
-8 190 -7 l179 3 0 845 0 845 -187 3 c-104 1 -189 -1 -189 -5z"/>
<path d="M2372 1403 l3 -848 185 0 185 0 0 845 0 845 -188 3 -187 2 2 -847z"/>
<path d="M2850 1400 l0 -850 174 0 c134 0 176 3 185 14 8 10 10 239 9 847 l-3
834 -182 3 -183 2 0 -850z"/>
<path d="M3312 1403 l3 -848 398 -3 397 -2 0 750 c0 687 -1 750 -16 750 -14 0
-16 -8 -11 -41 5 -40 5 -40 -14 -23 -17 15 -25 16 -50 7 -30 -12 -31 -11 -24
14 5 21 1 31 -22 49 l-28 23 37 1 c31 0 38 4 46 28 l9 27 13 -27 c9 -19 21
-28 37 -28 22 0 23 3 23 85 l0 85 -400 0 -400 0 2 -847z m719 160 c30 -6 30
-6 11 -27 -15 -16 -17 -28 -11 -49 l7 -27 -28 16 c-27 16 -29 16 -61 -7 -19
-13 -29 -17 -23 -9 22 29 22 58 2 77 -20 18 -20 18 4 23 13 3 29 19 38 37 l15
31 8 -29 c6 -22 15 -31 38 -36z m-227 -443 c5 -27 9 -30 43 -30 l38 0 -28 -23
c-25 -20 -26 -25 -18 -55 l10 -32 -26 20 c-32 25 -39 25 -60 0 -25 -29 -33
-25 -22 13 8 28 6 35 -16 55 l-26 22 36 0 c31 0 36 3 42 30 3 17 9 30 13 30 4
0 10 -13 14 -30z m-284 -395 c7 -18 17 -25 37 -25 l28 -1 -24 -19 c-18 -16
-22 -26 -17 -46 6 -23 4 -25 -11 -19 -23 10 -43 10 -65 0 -15 -6 -17 -3 -12
23 5 23 1 33 -16 45 l-22 15 28 4 c18 2 33 11 39 26 13 29 23 28 35 -3z"/>
<path d="M50 230 l0 -230 405 0 405 0 -2 228 -3 227 -402 3 -403 2 0 -230z"/>
<path d="M960 230 l0 -230 1130 0 1130 0 0 224 c0 193 -2 225 -16 230 -8 3
-517 6 -1130 6 l-1114 0 0 -230z m2159 140 l36 -1 -27 -20 c-30 -22 -36 -47
-16 -67 19 -19 0 -27 -20 -9 -24 22 -40 21 -65 0 -19 -18 -20 -17 -13 18 6 33
3 39 -21 58 l-28 20 38 1 c24 0 39 5 42 15 16 49 18 50 28 18 9 -29 14 -33 46
-33z m-1956 0 l42 -1 -27 -16 c-34 -22 -40 -36 -27 -69 9 -27 9 -27 -15 -10
-33 21 -45 20 -73 -6 l-24 -22 16 36 c15 37 15 37 -18 62 l-32 26 36 0 c29 0
38 5 49 28 l13 27 9 -27 c8 -25 15 -28 51 -28z m1431 -172 c4 -13 16 -18 43
-18 l38 -1 -28 -15 c-26 -14 -28 -19 -23 -50 8 -38 1 -42 -26 -17 -17 15 -20
15 -48 -6 -31 -23 -39 -15 -17 20 10 18 9 23 -15 44 l-28 24 32 3 c27 2 34 9
42 37 10 35 12 34 30 -21z m-963 -18 l32 0 -27 -21 c-27 -21 -28 -30 -10 -73
6 -17 4 -16 -24 4 -30 22 -33 22 -50 7 -27 -24 -31 -21 -25 17 5 30 2 36 -23
50 l-29 15 38 1 c34 0 39 4 49 32 l12 33 13 -33 c11 -26 18 -32 44 -32z m511
-60 l33 -1 -24 -19 c-18 -16 -22 -28 -19 -54 4 -32 3 -33 -16 -20 -27 19 -45
18 -69 -4 -19 -17 -20 -16 -13 20 6 31 3 39 -20 57 l-27 21 37 0 c24 0 38 5
41 15 16 51 16 51 30 18 12 -28 19 -33 47 -33z"/>
<path d="M3317 453 c-4 -3 -7 -107 -7 -230 l0 -223 400 0 400 0 0 230 0 230
-393 0 c-217 0 -397 -3 -400 -7z"/>
</g>
</svg>
