<?xml version="1.0" encoding="utf-8"?>
<!-- Generator: Adobe Illustrator 16.0.0, SVG Export Plug-In . SVG Version: 6.00 Build 0)  -->
<!DOCTYPE svg PUBLIC "-//W3C//DTD SVG 1.1//EN" "http://www.w3.org/Graphics/SVG/1.1/DTD/svg11.dtd">
<svg version="1.1" id="Layer-1" xmlns="http://www.w3.org/2000/svg" xmlns:xlink="http://www.w3.org/1999/xlink" x="0px" y="0px"
	 width="503.206px" height="37.083px" viewBox="0 0 503.206 37.083" enable-background="new 0 0 503.206 37.083"
	 xml:space="preserve">
<g>
	<path d="M31.992,1.819c0.22,0,0.264-0.179,0.264-0.44V0.412c0-0.133-0.044-0.308-0.44-0.308s-1.802,0.13-4.834,0.13
		c-2.944,0-4.965-0.13-5.405-0.13c-0.263,0-0.307,0.087-0.307,0.308v1.054c0,0.221,0.044,0.353,0.307,0.353h1.933
		c1.144,0,1.847,0.791,1.978,1.933c0.132,1.099,0.22,3.647,0.22,6.987v9.405c0,3.25-0.57,5.889-2.285,7.732
		c-1.538,1.583-4.086,2.418-6.592,2.418c-2.548,0-5.362-0.792-6.987-3.166c-1.01-1.493-1.362-3.555-1.405-5.581
		c-0.044-1.404-0.22-6.986-0.22-9.316V9.33c0-2.24,0.042-5.316,0.087-5.712c0.088-0.966,0.834-1.799,2.108-1.799h2.199
		c0.308,0,0.351-0.088,0.351-0.308V0.367c0-0.176-0.043-0.263-0.394-0.263c-0.485,0-2.594,0.13-6.022,0.13
		c-3.426,0-5.582-0.13-6.02-0.13c-0.351,0-0.396,0.087-0.396,0.351v0.967c0,0.309,0.045,0.397,0.308,0.397h2.065
		c1.361,0,1.67,0.701,1.67,2.239v10.459c0,5.755,0.175,8.702,0.703,10.678c0.702,2.769,2.241,4.705,5.229,5.888
		c1.449,0.618,3.646,0.924,5.931,0.924c3.824,0,6.505-1.012,8.261-2.637c2.462-2.11,3.428-4.877,3.693-8.48
		c0.132-1.714,0.219-9.406,0.219-10.021c0-0.615,0-6.855,0.087-7.293c0.132-0.529,0.263-1.757,1.89-1.757H31.992z"/>
	<path d="M53.283,6.973c-0.334,0-2.005,0.142-3.007,0.142c-1.528,0-3.581-0.142-3.917-0.142c-0.238,0-0.332,0.096-0.332,0.239v1.146
		c0,0.238,0.094,0.333,0.332,0.333h0.812c0.812,0,1.528,0.287,1.767,0.86c0.239,0.572,0.383,3.343,0.383,4.49
		c0.096,1.526,0.142,3.008,0.142,5.729v3.149h-0.19C48.7,22.298,44.26,16.712,43.4,15.71c-1.003-1.194-6.492-8.118-6.636-8.309
		c-0.19-0.287-0.478-0.383-1.146-0.383c-0.572,0-1.575,0.096-2.339,0.096c-0.525,0-1.289-0.046-1.91-0.096
		c-0.62,0-1.146-0.046-1.24-0.046c-0.192,0-0.288,0.142-0.288,0.286v1.146c0,0.19,0.096,0.285,0.288,0.285h0.429
		c1.336,0,2.529,0.812,2.529,2.532v5.013c0,5.396-0.096,8.786-0.143,9.357c-0.143,1.098-0.907,1.432-1.382,1.432h-1.1
		c-0.143,0-0.189,0.048-0.189,0.145v1.241c0,0.239,0.047,0.333,0.142,0.333c0.382,0,2.53-0.143,3.198-0.143
		c1.385,0,3.297,0.143,3.629,0.143c0.239,0,0.239-0.095,0.239-0.286v-1.145c0-0.193,0-0.288-0.239-0.288h-1
		c-0.479,0-1.004-0.525-1.147-1.624c-0.096-0.429-0.288-5.204-0.288-8.069v-6.539h0.096c0.766,0.859,4.631,6.015,5.778,7.351
		c0.524,0.621,2.578,3.056,4.775,5.682c1.957,2.339,3.58,4.298,3.914,4.631c0.192,0.143,0.67,0.477,1.099,0.477
		c0.574,0,0.716-0.477,0.716-0.906V16.855c0-1.957-0.095-4.963,0.144-7.16c0.095-0.671,0.335-1.005,1.528-1.005h0.477
		c0.19,0,0.287-0.142,0.287-0.333V7.354C53.619,7.068,53.522,6.973,53.283,6.973z"/>
	<path d="M64.399,27.025h-0.714c-1.385,0-1.958-0.667-2.055-1.767c-0.048-0.716-0.048-6.206-0.048-6.493v-2.388
		c0-0.333,0.048-6.015,0.048-6.495c0.046-1,0.478-1.193,1.766-1.193h0.813c0.236,0,0.285-0.142,0.285-0.333V7.212
		c0-0.144-0.095-0.239-0.285-0.239c-0.384,0-2.817,0.142-4.203,0.142c-2.241,0.048-5.203-0.142-5.491-0.142
		c-0.188,0-0.285,0.096-0.285,0.286v1.099c0,0.19,0.047,0.333,0.285,0.333h0.861c2.005,0,2.437,0.478,2.437,1.005
		c0,0.667,0.094,5.44,0.094,6.206v2.101c0,1.623-0.048,7.688-0.094,8.117c-0.097,0.861-0.861,0.907-2.056,0.907h-1.05
		c-0.191,0-0.286,0.145-0.286,0.288v1.05c0,0.238,0.095,0.381,0.286,0.381c0.286,0,3.059-0.143,4.679-0.143
		c2.149,0,4.632,0.143,5.013,0.143c0.239,0,0.287-0.143,0.287-0.333v-1.146C64.686,27.12,64.638,27.025,64.399,27.025z"/>
	<path d="M127.573,27.025c-0.859,0-1.479-0.046-2.149-0.525c-0.907-0.669-2.003-2.1-2.673-3.055
		c-1.959-2.769-2.91-4.251-4.012-4.489v-0.095c3.774-1.338,5.632-3.247,5.632-6.542c0-1.097-0.616-2.482-1.668-3.485
		c-1.194-1.05-3.342-1.861-6.205-1.861c-0.621,0-4.778,0.142-5.351,0.142c-0.858,0-3.817-0.142-4.055-0.142
		c-0.194,0-0.286,0.096-0.286,0.239v1.146c0,0.19,0.048,0.333,0.189,0.333h0.475c1.339,0,1.771,0.526,1.814,1.481v4.585v2.959
		c-0.043,2.913,0,5.73-0.043,8.069c0,1.051-0.572,1.241-1.722,1.241h-0.572c-0.189,0-0.281,0.095-0.281,0.239v1.099
		c0,0.238,0.092,0.381,0.281,0.381c0.335,0,2.77-0.143,3.968-0.143c1.572,0,4.152,0.143,4.482,0.143
		c0.291,0,0.383-0.095,0.383-0.333v-1.146c0-0.144-0.092-0.239-0.287-0.239h-1.242c-0.951,0-1.242-0.525-1.338-1.194v-5.154v-1.147
		c0.334-0.094,0.767-0.094,1.242-0.094c2.008,0,2.726,1.049,4.444,4.01c0.432,0.715,2.526,4.583,3.434,5.251
		c0.815-0.047,1.959-0.096,3.056-0.096c0.48,0,1.053,0.048,1.479,0.048c0.475,0.047,0.863,0.095,0.956,0.095
		c0.188,0,0.291-0.143,0.291-0.333v-0.954C127.815,27.169,127.762,27.025,127.573,27.025z M114.349,18.001
		c-0.621,0-1.101-0.049-1.436-0.096V9.55c0-0.86,0.718-1.049,1.436-1.049c1.907,0,3.246,0.428,4.536,1.242
		c0.859,0.573,1.572,1.861,1.572,3.294C120.456,14.277,119.646,18.001,114.349,18.001z"/>
	<path d="M135.286,15.375c-0.908-0.335-2.625-1.051-3.343-1.958c-0.524-0.62-0.766-1.622-0.766-2.341
		c0-0.859,0.766-2.911,3.396-2.911c1.383,0,2.435,0.478,3.148,1.289c1.004,1.146,1.387,2.816,1.674,3.392
		c0.048,0.141,0.14,0.238,0.286,0.189l0.859-0.189c0.141-0.049,0.189-0.146,0.189-0.289c-0.048-0.667-0.475-3.771-0.475-5.346
		c0-0.239-0.048-0.431-0.427-0.431c-0.383,0-0.529,0-0.621,0.145l-0.194,0.333c-0.098,0.239-0.335,0.192-0.815-0.096
		c-0.568-0.287-1.572-0.62-3.387-0.62c-1.722,0-3.245,0.43-4.487,1.431c-1.052,0.909-2.052,2.388-2.052,4.012
		c0,2.338,0.573,3.866,1.664,4.917c1.436,1.291,3.73,2.149,4.686,2.484c2.527,0.954,4.39,2.147,4.39,4.868
		c0,2.054-2.29,3.248-3.818,3.248c-1.77,0-3.347-0.955-4.06-2.388c-0.859-1.576-0.859-2.577-0.859-3.247
		c0-0.192-0.194-0.285-0.383-0.333l-0.859-0.097c-0.189,0-0.287,0.146-0.335,0.335c-0.048,0.765-0.383,4.585-0.523,5.921
		c-0.049,0.24,0.097,0.43,0.378,0.524c0.383,0.095,0.625,0,0.718-0.239l0.14-0.382c0.098-0.38,0.388-0.334,0.718-0.094
		c1.101,0.859,2.77,1.671,5.205,1.671c4.346,0,6.636-3.056,6.636-6.636c0-2.389-0.572-3.582-1.523-4.585
		C139.249,16.712,137.482,16.188,135.286,15.375z"/>
	<path d="M152.875,27.025h-0.718c-1.382,0-1.959-0.667-2.051-1.767c-0.049-0.716-0.049-6.206-0.049-6.493v-2.388
		c0-0.333,0.049-6.015,0.049-6.495c0.048-1,0.48-1.193,1.77-1.193h0.81c0.238,0,0.287-0.142,0.287-0.333V7.212
		c0-0.144-0.097-0.239-0.287-0.239c-0.383,0-2.818,0.142-4.206,0.142c-2.241,0.048-5.2-0.142-5.487-0.142
		c-0.194,0-0.286,0.096-0.286,0.286v1.099c0,0.19,0.043,0.333,0.286,0.333h0.859c2.008,0,2.435,0.478,2.435,1.005
		c0,0.667,0.097,5.44,0.097,6.206v2.101c0,1.623-0.049,7.688-0.097,8.117c-0.097,0.861-0.858,0.907-2.057,0.907h-1.048
		c-0.189,0-0.286,0.145-0.286,0.288v1.05c0,0.238,0.097,0.381,0.286,0.381c0.286,0,3.056-0.143,4.681-0.143
		c2.144,0,4.632,0.143,5.011,0.143c0.237,0,0.291-0.143,0.291-0.333v-1.146C153.166,27.12,153.112,27.025,152.875,27.025z"/>
	<path d="M250.689,28.307h-0.718c-1.387,0-1.957-0.668-2.054-1.766c-0.046-0.717-0.046-6.207-0.046-6.493v-2.39
		c0-0.333,0.046-6.013,0.046-6.491c0.051-1.003,0.479-1.195,1.769-1.195h0.81c0.24,0,0.286-0.142,0.286-0.334V8.493
		c0-0.143-0.092-0.239-0.286-0.239c-0.383,0-2.814,0.145-4.201,0.145c-2.241,0.047-5.203-0.145-5.492-0.145
		c-0.189,0-0.286,0.096-0.286,0.288v1.096c0,0.193,0.048,0.334,0.286,0.334h0.863c2.004,0,2.433,0.479,2.433,1.004
		c0,0.668,0.094,5.442,0.094,6.206v2.1c0,1.624-0.046,7.689-0.094,8.117c-0.094,0.861-0.861,0.907-2.054,0.907h-1.048
		c-0.194,0-0.286,0.143-0.286,0.285v1.053c0,0.238,0.092,0.382,0.286,0.382c0.284,0,3.056-0.144,4.679-0.144
		c2.146,0,4.628,0.144,5.013,0.144c0.238,0,0.287-0.144,0.287-0.335v-1.145C250.976,28.403,250.927,28.307,250.689,28.307z"/>
	<path d="M273.406,28.307c-0.863,0-1.484-0.046-2.149-0.524c-0.907-0.669-2.003-2.103-2.673-3.055
		c-1.96-2.771-2.915-4.251-4.011-4.489v-0.097c3.769-1.335,5.632-3.246,5.632-6.542c0-1.096-0.622-2.482-1.669-3.485
		c-1.193-1.049-3.343-1.862-6.209-1.862c-0.616,0-4.774,0.145-5.346,0.145c-0.859,0-3.821-0.145-4.061-0.145
		c-0.189,0-0.286,0.096-0.286,0.239v1.145c0,0.193,0.048,0.334,0.193,0.334h0.476c1.334,0,1.771,0.525,1.814,1.481v4.584v2.959
		c-0.044,2.913,0,5.731-0.044,8.07c0,1.049-0.577,1.24-1.725,1.24h-0.572c-0.189,0-0.286,0.096-0.286,0.24v1.098
		c0,0.238,0.097,0.382,0.286,0.382c0.333,0,2.772-0.144,3.966-0.144c1.576,0,4.152,0.144,4.487,0.144
		c0.286,0,0.378-0.096,0.378-0.335v-1.145c0-0.144-0.092-0.24-0.286-0.24h-1.241c-0.951,0-1.237-0.524-1.335-1.193v-5.157v-1.146
		c0.335-0.096,0.762-0.096,1.242-0.096c2.004,0,2.722,1.05,4.438,4.013c0.432,0.714,2.532,4.582,3.439,5.252
		c0.811-0.049,1.96-0.098,3.056-0.098c0.481,0,1.048,0.048,1.479,0.048c0.48,0.049,0.859,0.096,0.956,0.096
		c0.189,0,0.286-0.144,0.286-0.335v-0.955C273.644,28.45,273.591,28.307,273.406,28.307z M260.454,19.283
		c-0.621,0-1.102-0.047-1.436-0.094v-8.357c0-0.858,0.718-1.048,1.436-1.048c1.911,0,3.245,0.431,4.536,1.241
		c0.858,0.574,1.571,1.863,1.571,3.294C266.562,15.559,265.751,19.283,260.454,19.283z"/>
	<path d="M293.396,22.1v-1.145c0-0.145-0.097-0.24-0.291-0.24c-0.188,0-2.338,0.096-4.104,0.096c-2.581,0-4.919-0.096-5.205-0.096
		c-0.189,0-0.238,0.096-0.238,0.24V22.1c0,0.145,0.049,0.239,0.238,0.239h1.145c1.247,0,2.343,0.335,2.343,1.433v1.767
		c0,0.955-0.097,1.575-0.718,2.053c-0.767,0.621-2.295,1.05-3.963,1.05c-1.334,0-3.245-0.716-4.584-2.148
		c-1.858-1.958-2.911-4.679-2.911-8.355c0-2.148,1.053-4.68,2.483-6.252c1.767-1.913,3.629-2.438,5.108-2.438
		c2.198,0,3.531,0.955,4.822,2.292c1.145,1.146,1.955,2.626,2.295,3.39c0.14,0.382,0.232,0.429,0.378,0.382l0.907-0.286
		c0.145-0.047,0.193-0.142,0.193-0.382c-0.102-0.858-0.718-5.3-0.718-5.538c0-0.334-0.092-0.526-0.528-0.526
		c-0.379,0-0.524,0.142-0.621,0.334l-0.232,0.429c-0.103,0.143-0.291,0.143-0.67-0.19c-0.907-0.669-3.153-1.528-5.442-1.528
		c-3.391,0-6.307,1.002-8.548,2.911c-2.289,2.007-3.536,4.92-3.536,7.832c0,3.725,0.956,6.301,2.866,8.405
		c2.242,2.482,6.064,3.483,8.543,3.483c3.056,0,5.637-0.669,8.169-1.909c0.335-0.144,0.524-0.286,0.524-0.527
		c0-0.237-0.146-0.525-0.146-0.953v-3.677c0-0.813,0.906-1.004,1.388-1.004h0.81C293.3,22.386,293.396,22.245,293.396,22.1z"/>
	<path d="M303.094,28.307h-0.718c-1.383,0-1.955-0.668-2.048-1.766c-0.053-0.717-0.053-6.207-0.053-6.493v-2.39
		c0-0.333,0.053-6.013,0.053-6.491c0.044-1.003,0.471-1.195,1.762-1.195h0.815c0.232,0,0.28-0.142,0.28-0.334V8.493
		c0-0.143-0.092-0.239-0.28-0.239c-0.389,0-2.819,0.145-4.206,0.145c-2.241,0.047-5.206-0.145-5.486-0.145
		c-0.194,0-0.291,0.096-0.291,0.288v1.096c0,0.193,0.048,0.334,0.291,0.334h0.854c2.003,0,2.435,0.479,2.435,1.004
		c0,0.668,0.098,5.442,0.098,6.206v2.1c0,1.624-0.049,7.689-0.098,8.117c-0.092,0.861-0.858,0.907-2.047,0.907h-1.053
		c-0.188,0-0.286,0.143-0.286,0.285v1.053c0,0.238,0.098,0.382,0.286,0.382c0.287,0,3.057-0.144,4.682-0.144
		c2.144,0,4.627,0.144,5.011,0.144c0.237,0,0.286-0.144,0.286-0.335v-1.145C303.38,28.403,303.331,28.307,303.094,28.307z"/>
	<path d="M328.081,8.254c-0.335,0-2.003,0.145-3.008,0.145c-1.528,0-3.579-0.145-3.915-0.145c-0.237,0-0.334,0.096-0.334,0.239
		v1.145c0,0.239,0.097,0.334,0.334,0.334h0.815c0.81,0,1.528,0.288,1.767,0.858c0.237,0.575,0.377,3.343,0.377,4.49
		c0.098,1.528,0.146,3.008,0.146,5.729v3.15h-0.188c-0.572-0.62-5.017-6.206-5.875-7.208c-1.004-1.193-6.495-8.117-6.636-8.309
		c-0.194-0.285-0.475-0.381-1.149-0.381c-0.567,0-1.571,0.096-2.338,0.096c-0.524,0-1.291-0.048-1.907-0.096
		c-0.621,0-1.145-0.048-1.241-0.048c-0.194,0-0.292,0.145-0.292,0.288v1.145c0,0.19,0.098,0.286,0.292,0.286h0.427
		c1.339,0,2.531,0.812,2.531,2.533v5.012c0,5.395-0.097,8.783-0.146,9.358c-0.14,1.095-0.901,1.431-1.381,1.431h-1.098
		c-0.146,0-0.193,0.048-0.193,0.143v1.242c0,0.239,0.048,0.335,0.146,0.335c0.383,0,2.526-0.144,3.201-0.144
		c1.378,0,3.289,0.144,3.624,0.144c0.237,0,0.237-0.096,0.237-0.286v-1.149c0-0.188,0-0.285-0.237-0.285h-0.999
		c-0.48,0-1.009-0.524-1.15-1.624c-0.097-0.428-0.286-5.204-0.286-8.068v-6.54h0.098c0.761,0.86,4.632,6.018,5.777,7.353
		c0.523,0.621,2.575,3.056,4.773,5.681c1.959,2.34,3.585,4.299,3.914,4.633c0.188,0.142,0.67,0.476,1.097,0.476
		c0.573,0,0.717-0.476,0.717-0.907V18.138c0-1.958-0.092-4.966,0.142-7.161c0.103-0.669,0.34-1.004,1.533-1.004h0.475
		c0.19,0,0.287-0.142,0.287-0.334V8.637C328.416,8.351,328.319,8.254,328.081,8.254z"/>
	<path d="M362.586,28.307h-0.912c-0.81,0-1.621-0.429-2.241-1.288c-0.335-0.478-2.386-6.112-3.105-8.499
		c-0.62-1.911-3.055-8.738-3.725-10.648c-0.093-0.333-0.189-0.526-0.476-0.526c-0.287,0-0.476,0.144-0.572,0.335
		c-0.432,0.382-1.766,1.24-2.673,1.385c-0.432,0.095-0.529,0.239-0.476,0.335c-0.054,0.142,0.092,0.381,0.184,0.475
		c0.341,0.145,0.049,0.669-0.048,0.954c-0.281,0.814-3.1,7.307-3.434,7.977c-1.146,2.387-3.581,8.116-3.911,8.497
		c-0.383,0.527-1.149,1.003-1.959,1.003h-0.554c-1.382,0-1.955-0.668-2.052-1.766c-0.049-0.717-0.049-6.207-0.049-6.493v-2.39
		c0-0.333,0.049-6.013,0.049-6.491c0.048-1.003,0.476-1.195,1.767-1.195h0.814c0.232,0,0.281-0.142,0.281-0.334V8.493
		c0-0.143-0.092-0.239-0.281-0.239c-0.384,0-2.818,0.145-4.206,0.145c-2.241,0.047-5.204-0.145-5.491-0.145
		c-0.193,0-0.286,0.096-0.286,0.288v1.096c0,0.193,0.049,0.334,0.286,0.334h0.863c2.004,0,2.432,0.479,2.432,1.004
		c0,0.668,0.097,5.442,0.097,6.206v2.1c0,1.624-0.045,7.689-0.097,8.117c-0.094,0.861-0.854,0.907-2.053,0.907h-1.048
		c-0.194,0-0.286,0.143-0.286,0.285v1.053c0,0.238,0.092,0.382,0.286,0.382c0.286,0,3.056-0.144,4.677-0.144c1.459,0,7.31,0,7.906,0
		c0.762,0,3.289,0.144,3.673,0.144c0.237,0,0.285-0.144,0.285-0.335v-1.05c0-0.192-0.048-0.335-0.329-0.335h-1.198
		c-0.999,0-1.141-0.62-0.858-1.576c0.193-0.573,1.717-4.534,1.91-5.107h7.685c0.388,1.096,1.674,4.917,1.867,5.871
		c0,0.383-0.193,0.812-0.771,0.812h-0.761c-0.189,0-0.237,0.143-0.237,0.285v1.004c0,0.19,0.048,0.431,0.382,0.431
		c0.616,0,3.436-0.144,4.348-0.144c1.097,0,3.628,0.144,4.201,0.144c0.285,0,0.329-0.286,0.329-0.431v-1.004
		C362.818,28.45,362.774,28.307,362.586,28.307z M346.495,20.095c0.238-0.478,3.148-7.782,3.294-8.165
		c0.141-0.381,0.242-0.524,0.383-0.524c0.142,0,0.188,0.191,0.281,0.479c0.098,0.379,2.344,7.542,2.532,8.209H346.495z"/>
	<path d="M105.54,22.441c-0.141-0.095-0.383-0.046-0.621,0.287c-0.48,0.765-2.149,2.914-2.532,3.2
		c-1.62,1.29-2.959,1.336-5.06,1.336c-2.052,0-3.439-0.144-3.439-2.387c0-0.621-0.092-3.39-0.092-5.061v-1.621
		c0.475,0,2.144,0,3.58,0.333c1.242,0.287,1.528,1.049,1.766,2.243c0.048,0.193,0.141,0.193,0.286,0.193l1.004-0.096
		c0.141,0,0.238-0.05,0.238-0.239c-0.048-0.621-0.189-2.101-0.189-3.152c0-0.428,0-2.96,0.093-3.39
		c0.048-0.19-0.093-0.285-0.287-0.285l-1.052-0.05c-0.189,0-0.233,0.05-0.233,0.239c0,1.479-0.475,2.149-1.722,2.483
		c-0.383,0.096-3.197,0.238-3.483,0.238V8.595l5.06,0.095c0.476,0,1.242,0.193,1.814,0.718c0.81,0.763,3.104,3.439,3.197,3.58
		c0.146,0.239,0.335,0.239,0.432,0.193l0.767-0.334c0.092-0.049,0.092-0.146,0.043-0.336c-0.092-0.334-1.431-4.442-1.528-4.872
		c-0.097-0.571-0.189-0.667-0.286-0.667c-0.189,0-0.81,0.096-1.285,0.096L91.312,7.115c-0.693,0-6.505,0-7.3,0
		c-1.096,0-3.58-0.142-3.871-0.142c-0.185,0-0.282,0.142-0.282,0.286v1.099c0,0.238,0.097,0.333,0.282,0.333h0.529
		c0.81,0,1.004,0.239,1.004,0.478c0,0.479-0.621,1.77-2.435,7.067c-0.238,0.716-2.58,6.636-2.863,7.64h-0.146
		c-0.287-0.765-2.05-6.302-2.434-7.498c-1.292-4.011-2.1-5.873-2.1-6.97c0-0.621,0.715-0.718,1.336-0.718h1.099
		c0.19,0,0.334-0.095,0.334-0.285V7.306c0-0.238-0.095-0.333-0.382-0.333c-0.286,0-3.199,0.142-4.343,0.142
		c-1.243,0-3.87-0.142-4.107-0.142c-0.19,0-0.287,0.096-0.287,0.239v1.193c0,0.143,0.048,0.285,0.239,0.285h0.476
		c0.624,0,1.004,0.383,1.388,0.909c0.331,0.479,1.767,4.821,2.576,7.017l0.337,1.051c0.379,1.05,2.91,7.974,3.96,10.79
		c0.144,0.382,0.382,0.717,0.766,0.717c0.379,0,0.622-0.143,0.761-0.382c0.382-0.62,4.293-9.978,4.73-10.982
		c0.476-1.24,3.051-7.495,3.963-8.402c0.427-0.431,1.096-0.718,2.003-0.718h0.66h0.102h0.379c1.906,0,2.197,0.193,2.338,1.193
		c0.048,0.479,0.097,3.583,0.097,6.114v2.96v7.209c0,0.669-0.14,0.859-2.386,0.859H87.3c-0.243,0-0.335,0.095-0.335,0.288v1.097
		c0,0.19,0.048,0.333,0.286,0.333c0.577,0,3.197-0.143,4.06-0.143c10.027,0,12.554,0.143,12.889,0.143
		c0.194,0,0.432-0.238,0.529-0.477l1.717-5.062c0.048-0.143-0.048-0.287-0.146-0.333L105.54,22.441z"/>
	<path d="M389.576,23.551c-0.175-0.087-0.263,0-0.35,0.179c-0.615,1.718-3.265,7.005-5.864,7.398c-1.363,0.179-9.163,0.087-10.134,0
		c-0.131-1.805-0.131-11.322-0.131-12.074v-4.177c0-3.084,0.131-9.74,0.131-10.313c0-1.277,0.18-1.719,1.547-1.719h2.643
		c0.352,0,0.441-0.13,0.441-0.352V1.479c0-0.221-0.047-0.353-0.398-0.353c-0.396,0-2.246,0.132-6.521,0.132
		c-3.658,0-5.244-0.132-5.729-0.132c-0.264,0-0.311,0.09-0.311,0.311v0.97c0,0.219,0.047,0.438,0.311,0.438h2.071
		c1.322,0,1.543,0.442,1.63,1.587c0.043,0.793,0.131,5.464,0.131,8.28v2.475c0,2.693-0.131,14.048-0.131,14.888
		c0,0.573-0.265,1.184-1.895,1.184h-2.117c-0.263,0-0.306,0.097-0.306,0.315v1.096c0,0.218,0.043,0.315,0.353,0.315
		c0.571,0,2.158-0.136,5.642-0.136c4.714,0,16.476,0.039,17.623,0.136c0.265-1.188,2.024-8.853,2.158-9.163
		c0.005-0.03,0.007-0.03,0.012-0.047c-0.017,0.037-0.043,0.075-0.097,0.037L389.576,23.551z"/>
	<path d="M401.185,26.893h-0.726c-1.399,0-1.981-0.674-2.076-1.785c-0.045-0.723-0.045-6.277-0.045-6.563v-2.416
		c0-0.335,0.045-6.082,0.045-6.561c0.047-1.015,0.482-1.207,1.788-1.207h0.819c0.243,0,0.286-0.145,0.286-0.337V6.863
		c0-0.144-0.092-0.242-0.286-0.242c-0.388,0-2.848,0.147-4.246,0.147c-2.271,0.046-5.261-0.147-5.553-0.147
		c-0.194,0-0.288,0.098-0.288,0.292v1.111c0,0.192,0.049,0.337,0.288,0.337h0.868c2.028,0,2.463,0.482,2.463,1.014
		c0,0.672,0.094,5.502,0.094,6.278v2.115c0,1.644-0.046,7.776-0.094,8.208c-0.098,0.868-0.871,0.917-2.075,0.917h-1.062
		c-0.193,0-0.287,0.146-0.287,0.292v1.058c0,0.242,0.094,0.388,0.287,0.388c0.292,0,3.089-0.146,4.73-0.146
		c2.173,0,4.682,0.146,5.069,0.146c0.237,0,0.286-0.146,0.286-0.34v-1.159C401.471,26.99,401.422,26.893,401.185,26.893z"/>
	<path d="M502.782,6.621c-0.286,0-1.979,0.147-2.848,0.147c-1.445,0-3.86-0.147-4.146-0.147c-0.243,0-0.341,0.147-0.341,0.34v1.063
		c0,0.192,0.098,0.337,0.341,0.337h0.771c1.062,0,1.014,0.627,0.626,1.397c-0.194,0.387-4.196,6.225-4.924,7.438
		c-0.771-1.159-4.778-7.581-5.064-8.015c-0.193-0.292-0.146-0.82,0.724-0.82h0.722c0.287,0,0.341-0.145,0.341-0.337V6.961
		c0-0.242-0.146-0.34-0.341-0.34c-0.334,0-3.618,0.147-4.681,0.147c-1.154,0-3.667-0.147-3.958-0.147
		c-0.287,0-0.379,0.147-0.379,0.292v1.06c0,0.291,0.092,0.388,0.335,0.388h0.674c0.384,0,1.251,0.095,1.737,0.578
		c0.771,0.723,6.66,9.364,7.097,10.227v1.742c0,2.848,0,4.589-0.054,5.021c-0.049,0.674-0.334,0.965-1.883,0.965h-0.722
		c-0.188,0-0.287,0.146-0.287,0.292v1.058c0,0.291,0.099,0.388,0.336,0.388c0.291,0,3.089-0.146,4.151-0.146
		c1.592,0,4.293,0.146,4.584,0.146c0.292,0,0.389-0.146,0.389-0.34v-1.159c0-0.141-0.097-0.238-0.34-0.238h-0.625
		c-0.874,0-1.641-0.048-1.737-1.062c-0.097-0.578-0.054-1.887-0.097-3.085V18.69c1.105-1.688,6.703-9.557,7.432-9.946
		c0.432-0.237,0.961-0.383,1.736-0.383h0.485c0.189,0,0.286-0.097,0.286-0.337V7.009C503.122,6.719,503.025,6.621,502.782,6.621z"/>
	<path d="M416.183,16.658V16.57c3.042-1.111,4.488-1.887,4.488-4.928c0-1.789-0.68-3.231-2.509-4.2
		c-1.11-0.58-3.138-0.822-5.84-0.822c-1.159,0-3.039,0.147-4.104,0.147c-0.82,0-4.1-0.147-4.535-0.147
		c-0.241,0-0.289,0.098-0.289,0.34v1.063c0,0.288,0,0.337,0.24,0.337h0.919c0.917,0,1.831,0.05,1.928,1.686
		c0.049,0.533,0.146,3.914,0.146,5.117v3.575c0,2.557,0,6.272-0.146,6.947c-0.146,0.625-0.576,1.207-1.3,1.207h-1.305
		c-0.287,0-0.335,0.049-0.335,0.238v1.018c0,0.335,0.048,0.481,0.384,0.481c0.818,0,2.556-0.146,3.86-0.146
		c1.641,0,3.231,0.146,4.875,0.146c3.279,0,5.55-0.481,6.851-1.16c1.596-0.723,2.513-2.944,2.513-4.633
		C422.024,19.607,419.899,17.769,416.183,16.658z M410.2,14.004c0-2.025,0-4.677,0.049-5.307c0.045-0.336,0.142-0.58,0.434-0.625
		c0.291-0.048,0.626-0.048,1.062-0.048c0.916,0,2.745,0.337,3.716,1.059c1.203,0.92,1.445,2.125,1.445,3.136
		c0,1.018-0.479,2.275-1.785,3.187c-0.965,0.631-2.702,0.82-4.921,0.675V14.004z M413.287,27.184c-2.41,0-3.087-1.353-3.087-3.672
		v-5.933c1.545,0,2.942-0.048,4.581,0.529c1.834,0.631,3.139,2.125,3.139,4.584C417.92,25.928,415.461,27.184,413.287,27.184z"/>
	<path d="M483.48,26.893c-0.873,0-1.498-0.048-2.173-0.533c-0.917-0.674-2.028-2.12-2.703-3.085
		c-1.973-2.803-2.943-4.297-4.05-4.632c3.812-1.354,5.695-3.284,5.695-6.613c0-1.111-0.631-2.509-1.692-3.522
		c-1.209-1.064-3.377-1.886-6.272-1.886c-0.632,0-4.827,0.147-5.409,0.147c-0.869,0-3.861-0.147-4.095-0.147
		c-0.199,0-0.296,0.098-0.296,0.242v1.161c0,0.192,0.054,0.337,0.195,0.337h0.484c1.349,0,1.78,0.528,1.829,1.493v4.64v2.988
		c-0.049,2.945,0,5.792-0.049,8.154c0,1.062-0.577,1.256-1.731,1.256h-0.665c-0.825,0-1.64-0.431-2.271-1.3
		c-0.334-0.485-2.41-6.18-3.139-8.591c-0.625-1.931-3.085-8.837-3.764-10.765c-0.092-0.337-0.194-0.53-0.48-0.53
		c-0.291,0-0.485,0.142-0.577,0.337c-0.438,0.386-1.791,1.257-2.708,1.399c-0.431,0.098-0.533,0.242-0.479,0.337
		c-0.054,0.145,0.092,0.384,0.194,0.484c0.335,0.147,0.043,0.674-0.049,0.965c-0.291,0.817-3.139,7.384-3.479,8.059
		c-1.159,2.416-3.618,8.208-3.952,8.591c-0.137,0.189-0.33,0.373-0.632,0.48c-0.917-0.674-2.022-2.12-2.701-3.085
		c-1.979-2.803-2.945-4.297-4.051-4.632c3.812-1.354,5.689-3.284,5.689-6.613c0-1.111-0.625-2.509-1.688-3.522
		c-1.202-1.064-3.376-1.886-6.272-1.886c-0.63,0-4.821,0.147-5.404,0.147c-0.867,0-3.855-0.147-4.104-0.147
		c-0.188,0-0.291,0.098-0.291,0.242v1.161c0,0.192,0.049,0.337,0.194,0.337h0.485c1.348,0,1.785,0.528,1.834,1.493v4.64v2.988
		c-0.049,2.945,0,5.792-0.049,8.154c0,1.062-0.583,1.256-1.737,1.256h-0.582c-0.189,0-0.286,0.098-0.286,0.238v1.111
		c0,0.242,0.097,0.388,0.286,0.388c0.34,0,2.804-0.146,4.007-0.146c1.592,0,4.196,0.146,4.535,0.146c0.291,0,0.39-0.098,0.39-0.34
		v-1.159c0-0.141-0.099-0.238-0.292-0.238h-1.252c-0.969,0-1.256-0.533-1.353-1.207v-5.215v-1.15
		c0.339-0.102,0.776-0.102,1.251-0.102c2.033,0,2.755,1.062,4.487,4.055c0.438,0.723,2.561,4.633,3.479,5.312
		c1.648-0.01,2.561-0.078,4.206-0.073c1.818,0.01,4.51,0.117,4.676,0.117c0.242,0,0.286-0.146,0.286-0.34v-1.058
		c0-0.194-0.044-0.34-0.335-0.34h-1.207c-1.015,0-1.16-0.625-0.869-1.59c0.194-0.583,1.737-4.589,1.931-5.167h7.771
		c0.384,1.111,1.684,4.972,1.883,5.938c0,0.388-0.199,0.819-0.771,0.819h-0.775c-0.189,0-0.242,0.146-0.242,0.292v1.014
		c0,0.194,0.053,0.432,0.388,0.432c0.63,0,3.478-0.146,4.39-0.146c0.805,0,2.062,0.117,3.387,0.117c0.396,0,0.62,0,1.013-0.01
		c1.218-0.073,2.305-0.107,3.12-0.107c1.59,0,4.196,0.146,4.535,0.146c0.286,0,0.388-0.098,0.388-0.34v-1.159
		c0-0.141-0.102-0.238-0.291-0.238h-1.256c-0.966,0-1.257-0.533-1.349-1.207v-5.215v-1.15c0.335-0.102,0.767-0.102,1.251-0.102
		c2.028,0,2.751,1.062,4.492,4.055c0.432,0.723,2.552,4.633,3.474,5.312c0.82-0.054,1.979-0.102,3.085-0.102
		c0.485,0,1.062,0.048,1.499,0.048c0.479,0.054,0.868,0.098,0.966,0.098c0.193,0,0.285-0.146,0.285-0.34v-0.965
		C483.718,27.039,483.675,26.893,483.48,26.893z M430.019,17.769c-0.626,0-1.106-0.044-1.445-0.092V9.229
		c0-0.869,0.723-1.065,1.445-1.065c1.931,0,3.284,0.438,4.584,1.255c0.873,0.583,1.597,1.884,1.597,3.331
		C436.199,14.004,435.374,17.769,430.019,17.769z M447.2,18.588c0.243-0.48,3.183-7.864,3.327-8.248
		c0.146-0.388,0.244-0.532,0.39-0.532c0.145,0,0.193,0.195,0.29,0.482c0.093,0.386,2.368,7.628,2.557,8.297H447.2z M470.111,17.769
		c-0.63,0-1.11-0.044-1.445-0.092V9.229c0-0.869,0.723-1.065,1.445-1.065c1.931,0,3.279,0.438,4.584,1.255
		c0.869,0.583,1.596,1.884,1.596,3.331C476.291,14.004,475.467,17.769,470.111,17.769z"/>
	<path d="M189.16,27.025h-0.621c-0.863,0-1.625-0.046-1.717-1.05c-0.097-0.574-0.048-1.864-0.097-3.056v-4.01
		c1.096-1.67,6.641-9.453,7.354-9.835c0.432-0.239,0.951-0.383,1.717-0.383h0.476c0.189,0,0.286-0.095,0.286-0.333V7.354
		c0-0.285-0.097-0.381-0.33-0.381c-0.287,0-1.956,0.142-2.819,0.142c-1.436,0-3.817-0.142-4.108-0.142
		c-0.238,0-0.33,0.142-0.33,0.333v1.051c0,0.19,0.092,0.333,0.33,0.333h0.761c1.058,0,1.009,0.622,0.626,1.388
		c-0.194,0.38-4.152,6.158-4.871,7.35c-0.761-1.144-4.725-7.495-5.011-7.925c-0.194-0.286-0.146-0.812,0.713-0.812h0.718
		c0.286,0,0.334-0.142,0.334-0.333V7.306c0-0.238-0.145-0.333-0.334-0.333c-0.335,0-3.58,0.142-4.633,0.142
		c-1.145,0-6.752-0.068-7.668-0.042c-1.82,0.074-3.498,0.139-5.06,0.139h-1.911c-5.244,0-7.951-0.255-8.698-0.338
		c-0.141-0.015-0.126-0.015-0.184,0.027c-0.058,0.042-0.063,0.086-0.087,0.163c-0.389,1.444-1.218,4.388-1.489,5.255
		c-0.054,0.192-0.054,0.382,0.189,0.479l0.859,0.333c0.189,0.096,0.335-0.046,0.432-0.238c0.616-1.241,1.62-2.771,2.818-3.677
		c1.761-0.477,4.444-0.43,5.351-0.43v10.266c0,2.865,0,5.394-0.146,7.21c-0.048,0.38-0.383,0.762-1.096,0.762h-1.907
		c-0.194,0-0.287,0.095-0.287,0.334v0.955c0,0.287,0.093,0.43,0.379,0.43c0.383,0,3.488-0.143,4.822-0.143
		c1.577,0,4.536,0.143,4.871,0.143c0.242,0,0.335-0.143,0.335-0.286v-1.001c0-0.287-0.093-0.431-0.335-0.431h-1.814
		c-0.761,0-0.999-0.477-1.096-1.241c-0.054-0.383-0.054-3.963-0.054-8.976V8.787c0.864,0,4.356,0.047,5.55,0.476
		c1.004,0.909,1.814,2.485,2.386,3.679c0.097,0.24,0.243,0.286,0.524,0.189l0.815-0.238c0.189-0.095,0.286-0.191,0.237-0.382
		c-0.15-0.824-0.538-2.518-0.819-3.814c0.426,0.032,1.105,0.163,1.513,0.565c0.762,0.718,6.588,9.265,7.015,10.125v1.717
		c0,2.815,0,4.537-0.048,4.965c-0.049,0.669-0.33,0.955-1.863,0.955h-0.713c-0.194,0-0.286,0.145-0.286,0.288v1.05
		c0,0.286,0.092,0.381,0.334,0.381c0.287,0,3.051-0.143,4.108-0.143c1.572,0,4.245,0.143,4.536,0.143
		c0.281,0,0.378-0.143,0.378-0.333v-1.146C189.495,27.12,189.397,27.025,189.16,27.025z"/>
	<path d="M244.104,4.725h1.204c0.267,0,0.308-0.134,0.308-0.312v-1.11c0-0.224-0.042-0.312-0.308-0.312
		c-0.403,0-1.516,0.133-4.759,0.133c-2.806,0-4.851-0.133-5.246-0.133c-0.229,0-0.272,0.088-0.272,0.312v1.022
		c0,0.266,0.043,0.4,0.221,0.4h1.162c1.11,0,1.421,0.488,1.421,1.022c0,0.624-0.269,1.424-0.623,2.535
		c-0.665,1.957-2.358,7.071-2.804,8.273c-0.354,1.023-3.822,10.183-4.756,12.275h-0.092c-1.019-2.712-3.6-10.363-4.136-12.054
		c-0.8-2.49-2.442-7.782-2.711-9.383c-0.133-0.622-0.177-1.158-0.177-1.511c0-0.759,0.621-1.158,1.867-1.158h2.135
		c0.311,0,0.356-0.178,0.356-0.4V3.303c0-0.179-0.046-0.312-0.441-0.312c-0.403,0-2.404,0.133-6.142,0.133
		c-3.471,0-4.938-0.133-5.382-0.133c-0.267,0-0.311,0.088-0.311,0.312v1.11c0,0.178,0.043,0.312,0.223,0.312h1.154
		c0.934,0,1.38,0.445,1.824,1.468c0.58,1.333,2.67,7.782,3.738,10.94l0.444,1.512c0.577,1.601,4.182,11.742,5.603,15.834
		c0.221,0.578,0.4,1.022,0.759,1.022c0.218,0,0.444-0.223,0.618-0.577c0.226-0.445,5.959-14.589,6.498-16.056
		c0.754-1.869,4.31-10.986,5.467-12.408C241.792,5.438,242.637,4.725,244.104,4.725z"/>
	<path d="M202.716,19.036c0-2.066-1.215-3.555-3.25-3.555c-0.526,0-1.031,0.096-1.516,0.259c-3.243,1.038-5.442,5.412-5.442,8.743
		c0,1.437,0.567,2.601,1.396,3.271c0.51,0.425,1.121,0.669,1.764,0.669C200.072,28.423,202.716,22.377,202.716,19.036z
		 M193.812,25.415c0-1.427,0.729-3.28,1.763-4.921c1.135-1.837,2.321-2.943,3.381-3.387c0.333-0.132,0.655-0.207,0.956-0.207
		c0.997,0,1.54,0.755,1.511,1.692c0,1.996-3.114,8.341-6.255,8.341c-0.35,0-0.682-0.139-0.936-0.387
		C193.979,26.279,193.812,25.896,193.812,25.415z"/>
	<path d="M215.226,7.192c-1.974,0-3.648,1.094-4.494,2.065c-1.61,1.792-2.646,4.315-3.555,6.927h-2.644
		c-0.243,0-0.306,0.091-0.364,0.304l-0.121,0.516c-0.063,0.212,0,0.305,0.15,0.305h2.705l-3.068,10.329
		c-1.64,5.62-3.282,8.174-4.739,8.174c-0.243,0-0.456-0.214-0.517-0.518c-0.093-0.517-0.549-1.367-1.429-1.367
		c-0.788,0-1.305,0.607-1.305,1.306c0,0.973,0.972,1.792,2.185,1.792c3.253,0,5.41-3.372,7.262-8.112
		c1.519-3.888,2.916-9.145,3.708-11.604h2.884c0.246,0,0.304-0.032,0.332-0.214l0.156-0.545c0.058-0.274,0-0.365-0.184-0.365h-2.945
		c1.001-3.403,2.093-7.898,4.919-7.898c0.912,0,1.218,0.577,1.247,0.88c0.092,0.669,0.364,1.215,1.336,1.215
		c0.609,0,1.217-0.457,1.217-1.397C217.962,8.254,216.99,7.192,215.226,7.192z"/>
</g>
</svg>
